<?xml version="1.0" encoding="utf-8" standalone="no"?>
<!DOCTYPE svg PUBLIC "-//W3C//DTD SVG 1.1//EN"
  "http://www.w3.org/Graphics/SVG/1.1/DTD/svg11.dtd">
<svg height="288pt" version="1.1" viewBox="0 0 360 288" width="360pt" xmlns="http://www.w3.org/2000/svg" xmlns:xlink="http://www.w3.org/1999/xlink">
 <metadata>
  <rdf:RDF xmlns:cc="http://creativecommons.org/ns#" xmlns:dc="http://purl.org/dc/elements/1.1/" xmlns:rdf="http://www.w3.org/1999/02/22-rdf-syntax-ns#">
   <cc:Work>
    <dc:type rdf:resource="http://purl.org/dc/dcmitype/StillImage"/>
    <dc:date>2022-06-17T11:08:53.151515</dc:date>
    <dc:format>image/svg+xml</dc:format>
    <dc:creator>
     <cc:Agent>
      <dc:title>Matplotlib v3.4.2, https://matplotlib.org/</dc:title>
     </cc:Agent>
    </dc:creator>
   </cc:Work>
  </rdf:RDF>
 </metadata>
 <defs>
  <style type="text/css">*{stroke-linecap:butt;stroke-linejoin:round;}</style>
 </defs>
 <g id="figure_1">
  <g id="patch_1">
   <path d="M 0 288 
L 360 288 
L 360 0 
L 0 0 
z
" style="fill:#ffffff;"/>
  </g>
  <g id="axes_1">
   <g id="patch_2">
    <path d="M 45 256.32 
L 324 256.32 
L 324 34.56 
L 45 34.56 
z
" style="fill:#ffffff;"/>
   </g>
   <g id="matplotlib.axis_1">
    <g id="xtick_1">
     <g id="line2d_1">
      <defs>
       <path d="M 0 0 
L 0 3.5 
" id="m49fd66af74" style="stroke:#000000;stroke-width:0.8;"/>
      </defs>
      <g>
       <use style="stroke:#000000;stroke-width:0.8;" x="57.681818" xlink:href="#m49fd66af74" y="256.32"/>
      </g>
     </g>
     <g id="text_1">
      <!-- 0.0 -->
      <g transform="translate(49.730256 270.918437)scale(0.1 -0.1)">
       <defs>
        <path d="M 2034 4250 
Q 1547 4250 1301 3770 
Q 1056 3291 1056 2328 
Q 1056 1369 1301 889 
Q 1547 409 2034 409 
Q 2525 409 2770 889 
Q 3016 1369 3016 2328 
Q 3016 3291 2770 3770 
Q 2525 4250 2034 4250 
z
M 2034 4750 
Q 2819 4750 3233 4129 
Q 3647 3509 3647 2328 
Q 3647 1150 3233 529 
Q 2819 -91 2034 -91 
Q 1250 -91 836 529 
Q 422 1150 422 2328 
Q 422 3509 836 4129 
Q 1250 4750 2034 4750 
z
" id="DejaVuSans-30" transform="scale(0.015625)"/>
        <path d="M 684 794 
L 1344 794 
L 1344 0 
L 684 0 
L 684 794 
z
" id="DejaVuSans-2e" transform="scale(0.015625)"/>
       </defs>
       <use xlink:href="#DejaVuSans-30"/>
       <use x="63.623047" xlink:href="#DejaVuSans-2e"/>
       <use x="95.410156" xlink:href="#DejaVuSans-30"/>
      </g>
     </g>
    </g>
    <g id="xtick_2">
     <g id="line2d_2">
      <g>
       <use style="stroke:#000000;stroke-width:0.8;" x="108.409091" xlink:href="#m49fd66af74" y="256.32"/>
      </g>
     </g>
     <g id="text_2">
      <!-- 0.2 -->
      <g transform="translate(100.457528 270.918437)scale(0.1 -0.1)">
       <defs>
        <path d="M 1228 531 
L 3431 531 
L 3431 0 
L 469 0 
L 469 531 
Q 828 903 1448 1529 
Q 2069 2156 2228 2338 
Q 2531 2678 2651 2914 
Q 2772 3150 2772 3378 
Q 2772 3750 2511 3984 
Q 2250 4219 1831 4219 
Q 1534 4219 1204 4116 
Q 875 4013 500 3803 
L 500 4441 
Q 881 4594 1212 4672 
Q 1544 4750 1819 4750 
Q 2544 4750 2975 4387 
Q 3406 4025 3406 3419 
Q 3406 3131 3298 2873 
Q 3191 2616 2906 2266 
Q 2828 2175 2409 1742 
Q 1991 1309 1228 531 
z
" id="DejaVuSans-32" transform="scale(0.015625)"/>
       </defs>
       <use xlink:href="#DejaVuSans-30"/>
       <use x="63.623047" xlink:href="#DejaVuSans-2e"/>
       <use x="95.410156" xlink:href="#DejaVuSans-32"/>
      </g>
     </g>
    </g>
    <g id="xtick_3">
     <g id="line2d_3">
      <g>
       <use style="stroke:#000000;stroke-width:0.8;" x="159.136364" xlink:href="#m49fd66af74" y="256.32"/>
      </g>
     </g>
     <g id="text_3">
      <!-- 0.4 -->
      <g transform="translate(151.184801 270.918437)scale(0.1 -0.1)">
       <defs>
        <path d="M 2419 4116 
L 825 1625 
L 2419 1625 
L 2419 4116 
z
M 2253 4666 
L 3047 4666 
L 3047 1625 
L 3713 1625 
L 3713 1100 
L 3047 1100 
L 3047 0 
L 2419 0 
L 2419 1100 
L 313 1100 
L 313 1709 
L 2253 4666 
z
" id="DejaVuSans-34" transform="scale(0.015625)"/>
       </defs>
       <use xlink:href="#DejaVuSans-30"/>
       <use x="63.623047" xlink:href="#DejaVuSans-2e"/>
       <use x="95.410156" xlink:href="#DejaVuSans-34"/>
      </g>
     </g>
    </g>
    <g id="xtick_4">
     <g id="line2d_4">
      <g>
       <use style="stroke:#000000;stroke-width:0.8;" x="209.863636" xlink:href="#m49fd66af74" y="256.32"/>
      </g>
     </g>
     <g id="text_4">
      <!-- 0.6 -->
      <g transform="translate(201.912074 270.918437)scale(0.1 -0.1)">
       <defs>
        <path d="M 2113 2584 
Q 1688 2584 1439 2293 
Q 1191 2003 1191 1497 
Q 1191 994 1439 701 
Q 1688 409 2113 409 
Q 2538 409 2786 701 
Q 3034 994 3034 1497 
Q 3034 2003 2786 2293 
Q 2538 2584 2113 2584 
z
M 3366 4563 
L 3366 3988 
Q 3128 4100 2886 4159 
Q 2644 4219 2406 4219 
Q 1781 4219 1451 3797 
Q 1122 3375 1075 2522 
Q 1259 2794 1537 2939 
Q 1816 3084 2150 3084 
Q 2853 3084 3261 2657 
Q 3669 2231 3669 1497 
Q 3669 778 3244 343 
Q 2819 -91 2113 -91 
Q 1303 -91 875 529 
Q 447 1150 447 2328 
Q 447 3434 972 4092 
Q 1497 4750 2381 4750 
Q 2619 4750 2861 4703 
Q 3103 4656 3366 4563 
z
" id="DejaVuSans-36" transform="scale(0.015625)"/>
       </defs>
       <use xlink:href="#DejaVuSans-30"/>
       <use x="63.623047" xlink:href="#DejaVuSans-2e"/>
       <use x="95.410156" xlink:href="#DejaVuSans-36"/>
      </g>
     </g>
    </g>
    <g id="xtick_5">
     <g id="line2d_5">
      <g>
       <use style="stroke:#000000;stroke-width:0.8;" x="260.590909" xlink:href="#m49fd66af74" y="256.32"/>
      </g>
     </g>
     <g id="text_5">
      <!-- 0.8 -->
      <g transform="translate(252.639347 270.918437)scale(0.1 -0.1)">
       <defs>
        <path d="M 2034 2216 
Q 1584 2216 1326 1975 
Q 1069 1734 1069 1313 
Q 1069 891 1326 650 
Q 1584 409 2034 409 
Q 2484 409 2743 651 
Q 3003 894 3003 1313 
Q 3003 1734 2745 1975 
Q 2488 2216 2034 2216 
z
M 1403 2484 
Q 997 2584 770 2862 
Q 544 3141 544 3541 
Q 544 4100 942 4425 
Q 1341 4750 2034 4750 
Q 2731 4750 3128 4425 
Q 3525 4100 3525 3541 
Q 3525 3141 3298 2862 
Q 3072 2584 2669 2484 
Q 3125 2378 3379 2068 
Q 3634 1759 3634 1313 
Q 3634 634 3220 271 
Q 2806 -91 2034 -91 
Q 1263 -91 848 271 
Q 434 634 434 1313 
Q 434 1759 690 2068 
Q 947 2378 1403 2484 
z
M 1172 3481 
Q 1172 3119 1398 2916 
Q 1625 2713 2034 2713 
Q 2441 2713 2670 2916 
Q 2900 3119 2900 3481 
Q 2900 3844 2670 4047 
Q 2441 4250 2034 4250 
Q 1625 4250 1398 4047 
Q 1172 3844 1172 3481 
z
" id="DejaVuSans-38" transform="scale(0.015625)"/>
       </defs>
       <use xlink:href="#DejaVuSans-30"/>
       <use x="63.623047" xlink:href="#DejaVuSans-2e"/>
       <use x="95.410156" xlink:href="#DejaVuSans-38"/>
      </g>
     </g>
    </g>
    <g id="xtick_6">
     <g id="line2d_6">
      <g>
       <use style="stroke:#000000;stroke-width:0.8;" x="311.318182" xlink:href="#m49fd66af74" y="256.32"/>
      </g>
     </g>
     <g id="text_6">
      <!-- 1.0 -->
      <g transform="translate(303.366619 270.918437)scale(0.1 -0.1)">
       <defs>
        <path d="M 794 531 
L 1825 531 
L 1825 4091 
L 703 3866 
L 703 4441 
L 1819 4666 
L 2450 4666 
L 2450 531 
L 3481 531 
L 3481 0 
L 794 0 
L 794 531 
z
" id="DejaVuSans-31" transform="scale(0.015625)"/>
       </defs>
       <use xlink:href="#DejaVuSans-31"/>
       <use x="63.623047" xlink:href="#DejaVuSans-2e"/>
       <use x="95.410156" xlink:href="#DejaVuSans-30"/>
      </g>
     </g>
    </g>
    <g id="text_7">
     <!-- fpr -->
     <g transform="translate(177.510156 284.596563)scale(0.1 -0.1)">
      <defs>
       <path d="M 2375 4863 
L 2375 4384 
L 1825 4384 
Q 1516 4384 1395 4259 
Q 1275 4134 1275 3809 
L 1275 3500 
L 2222 3500 
L 2222 3053 
L 1275 3053 
L 1275 0 
L 697 0 
L 697 3053 
L 147 3053 
L 147 3500 
L 697 3500 
L 697 3744 
Q 697 4328 969 4595 
Q 1241 4863 1831 4863 
L 2375 4863 
z
" id="DejaVuSans-66" transform="scale(0.015625)"/>
       <path d="M 1159 525 
L 1159 -1331 
L 581 -1331 
L 581 3500 
L 1159 3500 
L 1159 2969 
Q 1341 3281 1617 3432 
Q 1894 3584 2278 3584 
Q 2916 3584 3314 3078 
Q 3713 2572 3713 1747 
Q 3713 922 3314 415 
Q 2916 -91 2278 -91 
Q 1894 -91 1617 61 
Q 1341 213 1159 525 
z
M 3116 1747 
Q 3116 2381 2855 2742 
Q 2594 3103 2138 3103 
Q 1681 3103 1420 2742 
Q 1159 2381 1159 1747 
Q 1159 1113 1420 752 
Q 1681 391 2138 391 
Q 2594 391 2855 752 
Q 3116 1113 3116 1747 
z
" id="DejaVuSans-70" transform="scale(0.015625)"/>
       <path d="M 2631 2963 
Q 2534 3019 2420 3045 
Q 2306 3072 2169 3072 
Q 1681 3072 1420 2755 
Q 1159 2438 1159 1844 
L 1159 0 
L 581 0 
L 581 3500 
L 1159 3500 
L 1159 2956 
Q 1341 3275 1631 3429 
Q 1922 3584 2338 3584 
Q 2397 3584 2469 3576 
Q 2541 3569 2628 3553 
L 2631 2963 
z
" id="DejaVuSans-72" transform="scale(0.015625)"/>
      </defs>
      <use xlink:href="#DejaVuSans-66"/>
      <use x="35.205078" xlink:href="#DejaVuSans-70"/>
      <use x="98.681641" xlink:href="#DejaVuSans-72"/>
     </g>
    </g>
   </g>
   <g id="matplotlib.axis_2">
    <g id="ytick_1">
     <g id="line2d_7">
      <defs>
       <path d="M 0 0 
L -3.5 0 
" id="m47329819dd" style="stroke:#000000;stroke-width:0.8;"/>
      </defs>
      <g>
       <use style="stroke:#000000;stroke-width:0.8;" x="45" xlink:href="#m47329819dd" y="246.24"/>
      </g>
     </g>
     <g id="text_8">
      <!-- 0.0 -->
      <g transform="translate(22.096875 250.039219)scale(0.1 -0.1)">
       <use xlink:href="#DejaVuSans-30"/>
       <use x="63.623047" xlink:href="#DejaVuSans-2e"/>
       <use x="95.410156" xlink:href="#DejaVuSans-30"/>
      </g>
     </g>
    </g>
    <g id="ytick_2">
     <g id="line2d_8">
      <g>
       <use style="stroke:#000000;stroke-width:0.8;" x="45" xlink:href="#m47329819dd" y="205.92"/>
      </g>
     </g>
     <g id="text_9">
      <!-- 0.2 -->
      <g transform="translate(22.096875 209.719219)scale(0.1 -0.1)">
       <use xlink:href="#DejaVuSans-30"/>
       <use x="63.623047" xlink:href="#DejaVuSans-2e"/>
       <use x="95.410156" xlink:href="#DejaVuSans-32"/>
      </g>
     </g>
    </g>
    <g id="ytick_3">
     <g id="line2d_9">
      <g>
       <use style="stroke:#000000;stroke-width:0.8;" x="45" xlink:href="#m47329819dd" y="165.6"/>
      </g>
     </g>
     <g id="text_10">
      <!-- 0.4 -->
      <g transform="translate(22.096875 169.399219)scale(0.1 -0.1)">
       <use xlink:href="#DejaVuSans-30"/>
       <use x="63.623047" xlink:href="#DejaVuSans-2e"/>
       <use x="95.410156" xlink:href="#DejaVuSans-34"/>
      </g>
     </g>
    </g>
    <g id="ytick_4">
     <g id="line2d_10">
      <g>
       <use style="stroke:#000000;stroke-width:0.8;" x="45" xlink:href="#m47329819dd" y="125.28"/>
      </g>
     </g>
     <g id="text_11">
      <!-- 0.6 -->
      <g transform="translate(22.096875 129.079219)scale(0.1 -0.1)">
       <use xlink:href="#DejaVuSans-30"/>
       <use x="63.623047" xlink:href="#DejaVuSans-2e"/>
       <use x="95.410156" xlink:href="#DejaVuSans-36"/>
      </g>
     </g>
    </g>
    <g id="ytick_5">
     <g id="line2d_11">
      <g>
       <use style="stroke:#000000;stroke-width:0.8;" x="45" xlink:href="#m47329819dd" y="84.96"/>
      </g>
     </g>
     <g id="text_12">
      <!-- 0.8 -->
      <g transform="translate(22.096875 88.759219)scale(0.1 -0.1)">
       <use xlink:href="#DejaVuSans-30"/>
       <use x="63.623047" xlink:href="#DejaVuSans-2e"/>
       <use x="95.410156" xlink:href="#DejaVuSans-38"/>
      </g>
     </g>
    </g>
    <g id="ytick_6">
     <g id="line2d_12">
      <g>
       <use style="stroke:#000000;stroke-width:0.8;" x="45" xlink:href="#m47329819dd" y="44.64"/>
      </g>
     </g>
     <g id="text_13">
      <!-- 1.0 -->
      <g transform="translate(22.096875 48.439219)scale(0.1 -0.1)">
       <use xlink:href="#DejaVuSans-31"/>
       <use x="63.623047" xlink:href="#DejaVuSans-2e"/>
       <use x="95.410156" xlink:href="#DejaVuSans-30"/>
      </g>
     </g>
    </g>
    <g id="text_14">
     <!-- tpr -->
     <g transform="translate(16.017187 152.629844)rotate(-90)scale(0.1 -0.1)">
      <defs>
       <path d="M 1172 4494 
L 1172 3500 
L 2356 3500 
L 2356 3053 
L 1172 3053 
L 1172 1153 
Q 1172 725 1289 603 
Q 1406 481 1766 481 
L 2356 481 
L 2356 0 
L 1766 0 
Q 1100 0 847 248 
Q 594 497 594 1153 
L 594 3053 
L 172 3053 
L 172 3500 
L 594 3500 
L 594 4494 
L 1172 4494 
z
" id="DejaVuSans-74" transform="scale(0.015625)"/>
      </defs>
      <use xlink:href="#DejaVuSans-74"/>
      <use x="39.208984" xlink:href="#DejaVuSans-70"/>
      <use x="102.685547" xlink:href="#DejaVuSans-72"/>
     </g>
    </g>
   </g>
   <g id="line2d_13">
    <path clip-path="url(#p97419a0aa8)" d="M 57.681818 246.24 
L 58.196642 246.24 
L 58.196642 244.301538 
L 59.054681 244.301538 
L 59.054681 242.363077 
L 59.741112 242.363077 
L 59.741112 240.424615 
L 63.43068 240.424615 
L 63.43068 238.486154 
L 64.631935 238.486154 
L 64.631935 236.547692 
L 65.318366 236.547692 
L 65.318366 234.609231 
L 65.575778 234.609231 
L 65.575778 232.670769 
L 65.83319 232.670769 
L 65.83319 230.732308 
L 68.321503 230.732308 
L 68.321503 228.793846 
L 70.724013 228.793846 
L 70.724013 226.855385 
L 71.582052 226.855385 
L 71.582052 224.916923 
L 72.011071 224.916923 
L 72.011071 222.978462 
L 72.783307 222.978462 
L 72.783307 221.04 
L 79.990835 221.04 
L 79.990835 219.101538 
L 85.224874 219.101538 
L 85.224874 217.163077 
L 86.340325 217.163077 
L 86.340325 215.224615 
L 89.257658 215.224615 
L 89.257658 213.286154 
L 89.429266 213.286154 
L 89.51507 207.470769 
L 90.544716 207.470769 
L 90.544716 205.532308 
L 91.660167 205.532308 
L 91.660167 203.593846 
L 92.689814 203.593846 
L 92.689814 201.655385 
L 95.692951 201.655385 
L 95.692951 199.716923 
L 97.494833 199.716923 
L 97.494833 197.778462 
L 98.781892 197.778462 
L 98.781892 195.84 
L 99.983147 195.84 
L 99.983147 193.901538 
L 100.154755 193.901538 
L 100.154755 190.024615 
L 101.785029 190.024615 
L 101.785029 188.086154 
L 102.128245 188.086154 
L 102.128245 186.147692 
L 105.217185 186.147692 
L 105.217185 184.209231 
L 105.388793 184.209231 
L 105.388793 182.270769 
L 106.246832 182.270769 
L 106.246832 180.332308 
L 106.590048 180.332308 
L 106.590048 178.393846 
L 107.104871 178.393846 
L 107.104871 176.455385 
L 109.678989 176.455385 
L 109.678989 174.516923 
L 111.395067 174.516923 
L 111.395067 172.578462 
L 111.566675 172.578462 
L 111.566675 170.64 
L 113.196949 170.64 
L 113.196949 168.701538 
L 115.427851 168.701538 
L 115.427851 166.763077 
L 117.658753 166.763077 
L 117.658753 164.824615 
L 118.774203 164.824615 
L 118.774203 162.886154 
L 120.318674 162.886154 
L 120.318674 160.947692 
L 121.176713 160.947692 
L 121.176713 159.009231 
L 126.410752 159.009231 
L 126.410752 157.070769 
L 128.984869 157.070769 
L 128.984869 155.132308 
L 130.014516 155.132308 
L 130.10032 151.255385 
L 134.647927 151.255385 
L 134.647927 149.316923 
L 134.905339 149.316923 
L 134.905339 147.378462 
L 135.334358 147.378462 
L 135.334358 145.44 
L 138.766515 145.44 
L 138.766515 143.501538 
L 144.772789 143.501538 
L 144.772789 141.563077 
L 145.630828 141.563077 
L 145.630828 139.624615 
L 151.637102 139.624615 
L 151.637102 137.686154 
L 152.666749 137.686154 
L 152.666749 135.747692 
L 153.095768 135.747692 
L 153.095768 133.809231 
L 155.32667 133.809231 
L 155.32667 131.870769 
L 167.339218 131.870769 
L 167.339218 129.932308 
L 168.540472 129.932308 
L 168.540472 127.993846 
L 176.177021 127.993846 
L 176.177021 126.055385 
L 178.922746 126.055385 
L 178.922746 124.116923 
L 179.351765 124.116923 
L 179.351765 122.178462 
L 179.952393 122.178462 
L 179.952393 120.24 
L 188.876 120.24 
L 188.876 118.301538 
L 189.819843 118.301538 
L 189.819843 116.363077 
L 198.228626 116.363077 
L 198.228626 112.486154 
L 199.773096 112.486154 
L 199.773096 110.547692 
L 201.317567 110.547692 
L 201.317567 108.609231 
L 201.918194 108.609231 
L 201.918194 106.670769 
L 206.894821 106.670769 
L 206.894821 104.732308 
L 208.18188 104.732308 
L 208.18188 102.793846 
L 217.963526 102.793846 
L 217.963526 100.855385 
L 221.99631 100.855385 
L 221.99631 98.916923 
L 223.454976 98.916923 
L 223.454976 96.978462 
L 226.972936 96.978462 
L 226.972936 95.04 
L 231.606348 95.04 
L 231.606348 93.101538 
L 234.609485 93.101538 
L 234.609485 91.163077 
L 235.896543 91.163077 
L 235.982347 87.286154 
L 236.668778 87.286154 
L 236.668778 85.347692 
L 244.562738 85.347692 
L 244.562738 83.409231 
L 249.281953 83.409231 
L 249.281953 81.470769 
L 253.657953 81.470769 
L 253.657953 79.532308 
L 255.717247 79.532308 
L 255.717247 77.593846 
L 256.918502 77.593846 
L 257.004306 73.716923 
L 257.347521 73.716923 
L 257.347521 71.778462 
L 257.948149 71.778462 
L 257.948149 69.84 
L 259.578423 69.84 
L 259.578423 67.901538 
L 263.611207 67.901538 
L 263.611207 65.963077 
L 265.584697 65.963077 
L 265.584697 64.024615 
L 273.049637 64.024615 
L 273.049637 62.086154 
L 274.4225 62.086154 
L 274.4225 60.147692 
L 277.425637 60.147692 
L 277.425637 58.209231 
L 278.626891 58.209231 
L 278.626891 56.270769 
L 284.28995 56.270769 
L 284.28995 54.332308 
L 289.609792 54.332308 
L 289.609792 52.393846 
L 295.530262 52.393846 
L 295.530262 50.455385 
L 297.846968 50.455385 
L 297.846968 48.516923 
L 302.566183 48.516923 
L 302.566183 46.578462 
L 303.939045 46.578462 
L 303.939045 44.64 
L 311.318182 44.64 
L 311.318182 44.64 
" style="fill:none;stroke:#1f77b4;stroke-linecap:square;stroke-width:1.5;"/>
   </g>
   <g id="line2d_14">
    <path clip-path="url(#p97419a0aa8)" d="M 57.681818 246.24 
L 57.681818 243.74 
L 57.924765 243.74 
L 57.924765 239.84 
L 58.167712 239.84 
L 58.167712 235.94 
L 58.410658 235.94 
L 58.410658 230.04 
L 58.653605 230.04 
L 58.653605 211.84 
L 58.896552 211.84 
L 58.896552 210.44 
L 59.139498 210.44 
L 59.139498 208.94 
L 59.382445 208.94 
L 59.382445 204.44 
L 59.868339 204.34 
L 59.868339 199.94 
L 60.111285 199.94 
L 60.111285 197.24 
L 60.354232 197.24 
L 60.354232 195.64 
L 60.840125 195.54 
L 60.840125 192.54 
L 61.083072 192.54 
L 61.083072 189.54 
L 61.326019 189.54 
L 61.326019 189.34 
L 61.568966 189.34 
L 61.568966 188.94 
L 62.054859 188.84 
L 62.054859 187.34 
L 62.297806 187.34 
L 62.297806 186.74 
L 62.540752 186.74 
L 62.540752 184.24 
L 62.783699 184.24 
L 62.783699 182.94 
L 63.512539 182.84 
L 63.512539 182.34 
L 63.755486 182.34 
L 63.755486 182.14 
L 64.241379 182.04 
L 64.241379 181.84 
L 64.484326 181.84 
L 64.484326 181.34 
L 64.727273 181.34 
L 64.727273 180.84 
L 64.970219 180.84 
L 64.970219 180.64 
L 65.456113 180.54 
L 65.456113 179.94 
L 65.69906 179.94 
L 65.69906 179.44 
L 65.942006 179.44 
L 65.942006 179.04 
L 66.184953 179.04 
L 66.184953 178.74 
L 66.4279 178.74 
L 66.4279 177.34 
L 66.670846 177.34 
L 66.670846 177.04 
L 67.15674 176.94 
L 67.15674 176.74 
L 67.399687 176.74 
L 67.399687 175.34 
L 67.642633 175.34 
L 67.642633 175.14 
L 67.88558 175.14 
L 67.88558 174.84 
L 68.61442 174.84 
L 68.61442 174.44 
L 69.100313 174.34 
L 69.100313 174.04 
L 69.829154 174.04 
L 69.829154 173.64 
L 70.315047 173.64 
L 70.315047 173.34 
L 70.557994 173.34 
L 70.557994 172.84 
L 70.80094 172.84 
L 70.80094 172.64 
L 71.043887 172.64 
L 71.043887 172.44 
L 71.529781 172.44 
L 71.529781 171.74 
L 71.772727 171.74 
L 71.772727 171.54 
L 72.015674 171.54 
L 72.015674 170.74 
L 72.258621 170.74 
L 72.258621 170.14 
L 72.744514 170.14 
L 72.744514 169.64 
L 73.473354 169.54 
L 73.473354 168.54 
L 73.716301 168.54 
L 73.716301 168.04 
L 73.959248 168.04 
L 73.959248 167.84 
L 74.202194 167.84 
L 74.202194 167.64 
L 74.445141 167.64 
L 74.445141 167.34 
L 75.659875 167.24 
L 75.659875 166.44 
L 75.902821 166.44 
L 75.902821 166.24 
L 76.145768 166.24 
L 76.145768 165.04 
L 76.631661 165.04 
L 76.631661 164.54 
L 76.874608 164.54 
L 76.874608 164.14 
L 77.360502 164.04 
L 77.360502 163.44 
L 77.846395 163.44 
L 77.846395 161.94 
L 78.332288 161.84 
L 78.332288 161.54 
L 78.575235 161.54 
L 78.575235 161.24 
L 79.789969 161.24 
L 79.789969 161.04 
L 80.032915 161.04 
L 80.032915 160.64 
L 80.275862 160.64 
L 80.275862 160.14 
L 80.518809 160.14 
L 80.518809 159.64 
L 80.761755 159.64 
L 80.761755 159.34 
L 81.004702 159.34 
L 81.004702 159.04 
L 81.490596 159.04 
L 81.490596 158.64 
L 82.219436 158.54 
L 82.219436 157.34 
L 82.948276 157.24 
L 82.948276 157.04 
L 83.191223 157.04 
L 83.191223 156.04 
L 83.677116 156.04 
L 83.677116 155.14 
L 83.920063 155.14 
L 83.920063 154.94 
L 84.405956 154.94 
L 84.405956 154.14 
L 84.89185 154.04 
L 84.89185 153.94 
L 85.377743 153.94 
L 85.377743 153.24 
L 85.62069 153.24 
L 85.62069 152.64 
L 86.34953 152.54 
L 86.34953 152.04 
L 86.835423 152.04 
L 86.835423 151.84 
L 87.321317 151.84 
L 87.321317 149.34 
L 88.293103 149.24 
L 88.293103 148.74 
L 88.53605 148.74 
L 88.53605 148.24 
L 88.778997 148.24 
L 88.778997 147.84 
L 89.021944 147.84 
L 89.021944 147.24 
L 89.507837 147.24 
L 89.507837 146.44 
L 89.99373 146.34 
L 89.99373 146.14 
L 90.236677 146.14 
L 90.236677 145.94 
L 90.479624 145.94 
L 90.479624 145.64 
L 90.722571 145.64 
L 90.722571 145.44 
L 90.965517 145.44 
L 90.965517 144.94 
L 91.451411 144.84 
L 91.451411 144.74 
L 91.694357 144.74 
L 91.694357 144.54 
L 92.180251 144.44 
L 92.180251 144.04 
L 92.423197 144.04 
L 92.423197 143.44 
L 92.666144 143.44 
L 92.666144 143.24 
L 92.909091 143.24 
L 92.909091 142.14 
L 93.152038 142.14 
L 93.152038 141.44 
L 93.394984 141.44 
L 93.394984 139.84 
L 93.637931 139.84 
L 93.637931 139.64 
L 93.880878 139.64 
L 93.880878 139.44 
L 94.366771 139.44 
L 94.366771 139.24 
L 95.581505 139.14 
L 95.581505 138.84 
L 96.310345 138.74 
L 96.310345 138.54 
L 96.553292 138.54 
L 96.553292 137.84 
L 97.039185 137.84 
L 97.039185 136.94 
L 98.010972 136.94 
L 98.010972 136.74 
L 98.496865 136.74 
L 98.496865 136.54 
L 98.739812 136.54 
L 98.739812 136.34 
L 98.982759 136.34 
L 98.982759 136.14 
L 99.711599 136.04 
L 99.711599 135.84 
L 100.197492 135.74 
L 100.197492 134.94 
L 100.683386 134.94 
L 100.683386 134.64 
L 100.926332 134.64 
L 100.926332 134.44 
L 101.655172 134.34 
L 101.655172 134.24 
L 102.869906 134.24 
L 102.869906 133.94 
L 103.598746 133.84 
L 103.598746 133.34 
L 104.084639 133.34 
L 104.084639 133.14 
L 105.056426 133.04 
L 105.056426 132.84 
L 105.299373 132.84 
L 105.299373 132.54 
L 105.54232 132.54 
L 105.54232 132.34 
L 105.785266 132.34 
L 105.785266 132.14 
L 106.028213 132.14 
L 106.028213 131.64 
L 106.757053 131.54 
L 106.757053 131.44 
L 107 131.44 
L 107 130.74 
L 107.485893 130.74 
L 107.485893 130.44 
L 107.971787 130.34 
L 107.971787 130.24 
L 108.214734 130.24 
L 108.214734 130.04 
L 108.700627 129.94 
L 108.700627 129.24 
L 109.18652 129.24 
L 109.18652 129.04 
L 109.672414 128.94 
L 109.672414 128.84 
L 110.158307 128.74 
L 110.158307 126.94 
L 110.887147 126.84 
L 110.887147 126.74 
L 111.130094 126.74 
L 111.130094 126.34 
L 111.615987 126.24 
L 111.615987 126.04 
L 111.858934 126.04 
L 111.858934 125.84 
L 112.101881 125.84 
L 112.101881 125.64 
L 112.830721 125.54 
L 112.830721 124.54 
L 113.073668 124.54 
L 113.073668 124.24 
L 113.316614 124.24 
L 113.316614 123.64 
L 113.802508 123.64 
L 113.802508 122.84 
L 114.288401 122.74 
L 114.288401 122.44 
L 114.774295 122.34 
L 114.774295 122.04 
L 115.260188 122.04 
L 115.260188 121.84 
L 115.746082 121.74 
L 115.746082 121.64 
L 116.717868 121.64 
L 116.717868 121.44 
L 116.960815 121.44 
L 116.960815 120.94 
L 117.203762 120.94 
L 117.203762 120.74 
L 117.932602 120.64 
L 117.932602 120.34 
L 118.418495 120.24 
L 118.418495 120.04 
L 119.390282 119.94 
L 119.390282 119.54 
L 119.876176 119.54 
L 119.876176 119.24 
L 120.119122 119.24 
L 120.119122 118.94 
L 120.362069 118.94 
L 120.362069 118.74 
L 120.847962 118.74 
L 120.847962 118.54 
L 121.333856 118.54 
L 121.333856 118.34 
L 122.062696 118.34 
L 122.062696 117.84 
L 123.034483 117.74 
L 123.034483 117.54 
L 124.00627 117.44 
L 124.00627 116.84 
L 124.249216 116.84 
L 124.249216 116.64 
L 124.978056 116.54 
L 124.978056 116.44 
L 125.221003 116.44 
L 125.221003 116.24 
L 125.46395 116.24 
L 125.46395 115.74 
L 125.706897 115.74 
L 125.706897 115.54 
L 125.949843 115.54 
L 125.949843 115.24 
L 126.19279 115.24 
L 126.19279 115.04 
L 127.164577 114.94 
L 127.164577 113.94 
L 127.407524 113.94 
L 127.407524 113.64 
L 127.65047 113.64 
L 127.65047 113.44 
L 127.893417 113.44 
L 127.893417 112.64 
L 128.37931 112.64 
L 128.37931 112.24 
L 128.622257 112.24 
L 128.622257 112.04 
L 129.836991 112.04 
L 129.836991 111.84 
L 130.079937 111.84 
L 130.079937 111.54 
L 131.294671 111.44 
L 131.294671 111.34 
L 131.537618 111.34 
L 131.537618 110.74 
L 132.266458 110.74 
L 132.266458 110.24 
L 133.481191 110.14 
L 133.481191 109.84 
L 133.967085 109.84 
L 133.967085 109.54 
L 134.452978 109.44 
L 134.452978 109.24 
L 135.181818 109.14 
L 135.181818 108.14 
L 135.424765 108.14 
L 135.424765 107.84 
L 136.396552 107.74 
L 136.396552 107.64 
L 136.882445 107.54 
L 136.882445 107.24 
L 137.368339 107.24 
L 137.368339 106.94 
L 138.340125 106.94 
L 138.340125 106.74 
L 138.826019 106.64 
L 138.826019 106.44 
L 139.068966 106.44 
L 139.068966 106.14 
L 139.311912 106.14 
L 139.311912 105.74 
L 140.769592 105.64 
L 140.769592 105.54 
L 141.012539 105.54 
L 141.012539 105.34 
L 141.255486 105.34 
L 141.255486 105.14 
L 141.984326 105.14 
L 141.984326 104.94 
L 142.227273 104.94 
L 142.227273 104.74 
L 142.470219 104.74 
L 142.470219 104.14 
L 142.713166 104.14 
L 142.713166 103.84 
L 143.19906 103.74 
L 143.19906 103.64 
L 143.442006 103.64 
L 143.442006 103.34 
L 144.65674 103.24 
L 144.65674 102.94 
L 145.142633 102.94 
L 145.142633 102.74 
L 146.11442 102.64 
L 146.11442 102.54 
L 146.600313 102.44 
L 146.600313 102.34 
L 146.84326 102.34 
L 146.84326 101.44 
L 147.086207 101.44 
L 147.086207 101.24 
L 147.5721 101.24 
L 147.5721 100.84 
L 147.815047 100.84 
L 147.815047 100.64 
L 148.057994 100.64 
L 148.057994 100.34 
L 148.786834 100.34 
L 148.786834 100.04 
L 149.515674 99.94 
L 149.515674 99.84 
L 150.001567 99.84 
L 150.001567 99.44 
L 150.487461 99.44 
L 150.487461 98.64 
L 151.216301 98.54 
L 151.216301 98.44 
L 151.702194 98.34 
L 151.702194 97.64 
L 152.188088 97.64 
L 152.188088 97.44 
L 153.159875 97.34 
L 153.159875 97.24 
L 153.402821 97.24 
L 153.402821 97.04 
L 154.860502 96.94 
L 154.860502 96.84 
L 155.103448 96.84 
L 155.103448 96.54 
L 155.346395 96.54 
L 155.346395 96.24 
L 155.589342 96.24 
L 155.589342 96.04 
L 156.075235 96.04 
L 156.075235 95.34 
L 156.804075 95.34 
L 156.804075 95.14 
L 157.047022 95.14 
L 157.047022 94.84 
L 158.261755 94.74 
L 158.261755 94.64 
L 158.990596 94.64 
L 158.990596 94.34 
L 159.476489 94.24 
L 159.476489 93.94 
L 160.691223 93.84 
L 160.691223 93.74 
L 161.177116 93.74 
L 161.177116 93.44 
L 161.905956 93.44 
L 161.905956 93.04 
L 162.634796 93.04 
L 162.634796 92.84 
L 163.363636 92.74 
L 163.363636 92.44 
L 164.821317 92.34 
L 164.821317 91.94 
L 165.793103 91.84 
L 165.793103 90.84 
L 166.03605 90.84 
L 166.03605 90.64 
L 166.278997 90.64 
L 166.278997 90.34 
L 166.521944 90.34 
L 166.521944 90.14 
L 167.007837 90.14 
L 167.007837 89.94 
L 167.49373 89.94 
L 167.49373 89.04 
L 168.222571 88.94 
L 168.222571 88.64 
L 168.465517 88.64 
L 168.465517 88.34 
L 169.194357 88.24 
L 169.194357 87.94 
L 169.437304 87.94 
L 169.437304 87.64 
L 170.409091 87.54 
L 170.409091 87.44 
L 170.652038 87.44 
L 170.652038 87.24 
L 170.894984 87.24 
L 170.894984 87.04 
L 171.866771 86.94 
L 171.866771 86.64 
L 172.352665 86.54 
L 172.352665 86.44 
L 172.838558 86.34 
L 172.838558 86.14 
L 173.810345 86.04 
L 173.810345 85.74 
L 174.053292 85.74 
L 174.053292 85.54 
L 174.782132 85.44 
L 174.782132 85.34 
L 175.753918 85.24 
L 175.753918 85.14 
L 176.239812 85.04 
L 176.239812 84.64 
L 177.211599 84.54 
L 177.211599 84.34 
L 177.697492 84.34 
L 177.697492 84.04 
L 177.940439 84.04 
L 177.940439 83.74 
L 178.426332 83.64 
L 178.426332 83.54 
L 178.912226 83.54 
L 178.912226 83.34 
L 179.155172 83.34 
L 179.155172 82.64 
L 179.398119 82.64 
L 179.398119 82.34 
L 180.855799 82.24 
L 180.855799 82.14 
L 182.070533 82.04 
L 182.070533 81.54 
L 182.31348 81.54 
L 182.31348 81.14 
L 182.799373 81.04 
L 182.799373 80.94 
L 183.528213 80.84 
L 183.528213 80.44 
L 184.014107 80.34 
L 184.014107 80.14 
L 184.257053 80.14 
L 184.257053 79.64 
L 184.985893 79.54 
L 184.985893 79.44 
L 186.443574 79.34 
L 186.443574 79.24 
L 189.115987 79.14 
L 189.115987 79.04 
L 189.601881 79.04 
L 189.601881 78.74 
L 189.844828 78.74 
L 189.844828 78.44 
L 190.087774 78.44 
L 190.087774 78.24 
L 190.816614 78.24 
L 190.816614 77.94 
L 191.059561 77.94 
L 191.059561 77.64 
L 191.545455 77.54 
L 191.545455 77.34 
L 192.274295 77.24 
L 192.274295 77.14 
L 192.760188 77.04 
L 192.760188 76.84 
L 193.246082 76.84 
L 193.246082 76.64 
L 193.731975 76.64 
L 193.731975 76.14 
L 193.974922 76.14 
L 193.974922 75.74 
L 194.703762 75.74 
L 194.703762 75.54 
L 195.189655 75.54 
L 195.189655 75.34 
L 195.675549 75.34 
L 195.675549 75.04 
L 195.918495 75.04 
L 195.918495 74.84 
L 197.376176 74.74 
L 197.376176 74.64 
L 198.347962 74.54 
L 198.347962 74.44 
L 199.562696 74.44 
L 199.562696 74.14 
L 200.534483 74.04 
L 200.534483 73.84 
L 201.020376 73.74 
L 201.020376 73.54 
L 201.263323 73.54 
L 201.263323 73.14 
L 201.749216 73.14 
L 201.749216 72.54 
L 201.992163 72.54 
L 201.992163 72.34 
L 202.478056 72.24 
L 202.478056 72.04 
L 203.449843 71.94 
L 203.449843 71.84 
L 204.664577 71.74 
L 204.664577 71.34 
L 205.15047 71.24 
L 205.15047 71.14 
L 205.393417 71.14 
L 205.393417 70.94 
L 205.87931 70.84 
L 205.87931 70.64 
L 206.122257 70.64 
L 206.122257 70.24 
L 206.365204 70.24 
L 206.365204 69.54 
L 206.60815 69.54 
L 206.60815 69.14 
L 207.094044 69.14 
L 207.094044 68.94 
L 208.308777 68.94 
L 208.308777 68.74 
L 208.551724 68.74 
L 208.551724 68.54 
L 208.794671 68.54 
L 208.794671 68.24 
L 209.766458 68.14 
L 209.766458 68.04 
L 210.009404 68.04 
L 210.009404 67.84 
L 210.252351 67.84 
L 210.252351 67.54 
L 210.738245 67.44 
L 210.738245 67.34 
L 211.952978 67.24 
L 211.952978 67.04 
L 212.195925 67.04 
L 212.195925 66.84 
L 213.410658 66.74 
L 213.410658 66.34 
L 213.896552 66.34 
L 213.896552 66.04 
L 214.625392 65.94 
L 214.625392 65.84 
L 215.111285 65.74 
L 215.111285 65.54 
L 216.326019 65.44 
L 216.326019 65.34 
L 216.568966 65.34 
L 216.568966 65.14 
L 217.297806 65.14 
L 217.297806 64.84 
L 218.269592 64.74 
L 218.269592 64.54 
L 218.998433 64.44 
L 218.998433 64.14 
L 220.942006 64.14 
L 220.942006 63.84 
L 221.670846 63.74 
L 221.670846 63.64 
L 222.15674 63.54 
L 222.15674 63.44 
L 223.371473 63.44 
L 223.371473 63.24 
L 223.857367 63.14 
L 223.857367 63.04 
L 225.0721 63.04 
L 225.0721 62.84 
L 226.043887 62.74 
L 226.043887 62.64 
L 227.258621 62.54 
L 227.258621 62.14 
L 227.744514 62.04 
L 227.744514 61.64 
L 228.230408 61.54 
L 228.230408 61.44 
L 228.473354 61.44 
L 228.473354 61.24 
L 228.716301 61.24 
L 228.716301 60.94 
L 229.202194 60.84 
L 229.202194 60.64 
L 230.416928 60.54 
L 230.416928 60.24 
L 230.659875 60.24 
L 230.659875 60.04 
L 230.902821 60.04 
L 230.902821 59.64 
L 231.145768 59.64 
L 231.145768 59.44 
L 231.388715 59.44 
L 231.388715 59.14 
L 233.575235 59.04 
L 233.575235 58.94 
L 234.304075 58.84 
L 234.304075 58.64 
L 235.032915 58.64 
L 235.032915 58.44 
L 235.518809 58.44 
L 235.518809 58.04 
L 236.490596 57.94 
L 236.490596 57.84 
L 237.219436 57.84 
L 237.219436 57.64 
L 238.191223 57.54 
L 238.191223 57.44 
L 239.89185 57.34 
L 239.89185 57.24 
L 240.377743 57.24 
L 240.377743 57.04 
L 241.34953 56.94 
L 241.34953 56.74 
L 241.835423 56.74 
L 241.835423 56.44 
L 242.321317 56.34 
L 242.321317 56.04 
L 244.26489 55.94 
L 244.26489 55.84 
L 245.236677 55.74 
L 245.236677 55.64 
L 245.965517 55.54 
L 245.965517 55.44 
L 248.152038 55.34 
L 248.152038 54.94 
L 249.609718 54.84 
L 249.609718 54.74 
L 249.852665 54.74 
L 249.852665 54.54 
L 252.039185 54.44 
L 252.039185 54.04 
L 253.253918 53.94 
L 253.253918 53.74 
L 253.496865 53.74 
L 253.496865 53.24 
L 253.982759 53.24 
L 253.982759 52.94 
L 254.711599 52.84 
L 254.711599 52.74 
L 256.412226 52.64 
L 256.412226 52.44 
L 256.898119 52.34 
L 256.898119 52.24 
L 257.384013 52.14 
L 257.384013 52.04 
L 257.626959 52.04 
L 257.626959 51.74 
L 258.355799 51.64 
L 258.355799 51.54 
L 261.514107 51.44 
L 261.514107 51.34 
L 263.214734 51.34 
L 263.214734 51.14 
L 264.672414 51.04 
L 264.672414 50.94 
L 265.158307 50.94 
L 265.158307 50.44 
L 266.373041 50.34 
L 266.373041 50.14 
L 267.101881 50.04 
L 267.101881 49.94 
L 268.559561 49.84 
L 268.559561 49.74 
L 268.802508 49.74 
L 268.802508 49.54 
L 269.531348 49.54 
L 269.531348 49.34 
L 270.989028 49.24 
L 270.989028 48.94 
L 274.147335 48.84 
L 274.147335 48.64 
L 275.119122 48.54 
L 275.119122 48.44 
L 275.605016 48.44 
L 275.605016 48.24 
L 277.062696 48.14 
L 277.062696 48.04 
L 278.763323 48.04 
L 278.763323 47.64 
L 279.249216 47.54 
L 279.249216 47.44 
L 279.978056 47.44 
L 279.978056 47.24 
L 281.435737 47.14 
L 281.435737 47.04 
L 282.407524 46.94 
L 282.407524 46.84 
L 283.865204 46.74 
L 283.865204 46.64 
L 287.266458 46.54 
L 287.266458 46.44 
L 288.724138 46.34 
L 288.724138 46.14 
L 289.938871 46.04 
L 289.938871 45.94 
L 291.396552 45.94 
L 291.396552 45.64 
L 293.583072 45.64 
L 293.583072 45.44 
L 296.012539 45.34 
L 296.012539 45.24 
L 297.470219 45.14 
L 297.470219 45.04 
L 303.786834 44.94 
L 303.786834 44.84 
L 307.673981 44.74 
L 307.673981 44.64 
L 311.318182 44.64 
L 311.318182 44.64 
" style="fill:none;stroke:#ff7f0e;stroke-linecap:square;stroke-width:1.5;"/>
   </g>
   <g id="line2d_15">
    <path clip-path="url(#p97419a0aa8)" d="M 57.681818 246.24 
L 57.681818 238.733617 
L 57.801458 238.733617 
L 57.801458 236.16 
L 57.921098 236.16 
L 57.921098 235.08766 
L 58.040738 235.08766 
L 58.040738 234.873191 
L 58.160377 234.873191 
L 58.160377 234.444255 
L 58.280017 234.444255 
L 58.280017 233.800851 
L 58.399657 233.800851 
L 58.399657 233.371915 
L 58.519297 233.371915 
L 58.519297 232.942979 
L 58.758576 232.942979 
L 58.758576 232.728511 
L 58.878216 232.728511 
L 58.878216 232.085106 
L 58.997856 232.085106 
L 58.997856 231.65617 
L 59.117496 231.65617 
L 59.117496 230.58383 
L 59.237136 230.58383 
L 59.237136 229.940426 
L 59.356775 229.940426 
L 59.356775 225.222128 
L 59.476415 225.222128 
L 59.476415 225.00766 
L 59.596055 225.00766 
L 59.596055 224.578723 
L 59.715695 224.578723 
L 59.715695 224.149787 
L 59.835334 224.149787 
L 59.835334 222.862979 
L 59.954974 222.862979 
L 59.954974 221.361702 
L 60.074614 221.361702 
L 60.074614 220.074894 
L 60.313894 220.074894 
L 60.313894 219.431489 
L 60.433533 219.431489 
L 60.433533 219.217021 
L 60.912093 219.217021 
L 60.912093 218.573617 
L 61.031732 218.573617 
L 61.031732 217.715745 
L 61.271012 217.715745 
L 61.271012 216.857872 
L 61.390652 216.857872 
L 61.390652 216.428936 
L 61.510292 216.428936 
L 61.510292 214.92766 
L 61.629931 214.92766 
L 61.629931 213.855319 
L 61.749571 213.855319 
L 61.749571 213.211915 
L 61.869211 213.211915 
L 61.869211 212.568511 
L 61.988851 212.568511 
L 61.988851 211.710638 
L 62.108491 211.710638 
L 62.108491 210.638298 
L 62.22813 210.638298 
L 62.22813 209.565957 
L 62.34777 209.565957 
L 62.34777 208.922553 
L 62.46741 208.922553 
L 62.46741 208.493617 
L 62.70669 208.493617 
L 62.70669 208.279149 
L 62.826329 208.279149 
L 62.826329 207.850213 
L 62.945969 207.850213 
L 62.945969 207.206809 
L 63.185249 207.206809 
L 63.185249 206.563404 
L 63.304889 206.563404 
L 63.304889 206.348936 
L 63.424528 206.348936 
L 63.424528 205.92 
L 63.544168 205.92 
L 63.544168 204.204255 
L 63.663808 204.204255 
L 63.663808 203.775319 
L 63.783448 203.775319 
L 63.783448 202.702979 
L 64.142367 202.702979 
L 64.142367 202.488511 
L 64.262007 202.488511 
L 64.262007 202.274043 
L 64.501286 202.274043 
L 64.501286 201.845106 
L 64.860206 201.845106 
L 64.860206 200.558298 
L 64.979846 200.558298 
L 64.979846 199.914894 
L 65.219125 199.914894 
L 65.219125 199.485957 
L 65.458405 199.485957 
L 65.458405 199.271489 
L 65.578045 199.271489 
L 65.578045 198.628085 
L 66.056604 198.628085 
L 66.056604 198.199149 
L 66.176244 198.199149 
L 66.176244 197.984681 
L 66.295883 197.984681 
L 66.295883 197.341277 
L 66.415523 197.341277 
L 66.415523 197.126809 
L 66.535163 197.126809 
L 66.535163 196.91234 
L 66.774443 196.91234 
L 66.774443 196.268936 
L 67.133362 196.268936 
L 67.133362 196.054468 
L 67.372642 196.054468 
L 67.372642 195.84 
L 67.731561 195.84 
L 67.731561 195.411064 
L 67.97084 195.411064 
L 67.97084 195.196596 
L 68.4494 195.196596 
L 68.4494 194.982128 
L 68.569039 194.982128 
L 68.569039 194.553191 
L 68.808319 194.553191 
L 68.808319 194.338723 
L 69.167238 194.338723 
L 69.167238 193.909787 
L 69.406518 193.909787 
L 69.406518 193.695319 
L 69.526158 193.695319 
L 69.526158 192.622979 
L 69.645798 192.622979 
L 69.645798 192.408511 
L 70.004717 192.408511 
L 70.004717 192.194043 
L 70.124357 192.194043 
L 70.124357 190.907234 
L 70.363636 190.907234 
L 70.363636 190.478298 
L 70.483276 190.478298 
L 70.483276 189.834894 
L 70.842196 189.834894 
L 70.842196 189.620426 
L 70.961835 189.620426 
L 70.961835 189.191489 
L 71.081475 189.191489 
L 71.081475 188.977021 
L 71.201115 188.977021 
L 71.201115 188.762553 
L 71.320755 188.762553 
L 71.320755 187.690213 
L 71.679674 187.690213 
L 71.679674 187.046809 
L 71.799314 187.046809 
L 71.799314 186.617872 
L 71.918954 186.617872 
L 71.918954 186.403404 
L 72.038593 186.403404 
L 72.038593 185.545532 
L 72.158233 185.545532 
L 72.158233 184.902128 
L 72.277873 184.902128 
L 72.277873 184.68766 
L 72.397513 184.68766 
L 72.397513 184.258723 
L 72.517153 184.258723 
L 72.517153 183.829787 
L 72.756432 183.829787 
L 72.756432 182.757447 
L 73.234991 182.757447 
L 73.234991 182.328511 
L 73.713551 182.328511 
L 73.713551 182.114043 
L 74.07247 182.114043 
L 74.07247 181.899574 
L 74.551029 181.899574 
L 74.551029 181.685106 
L 74.670669 181.685106 
L 74.670669 180.612766 
L 74.909949 180.612766 
L 74.909949 179.325957 
L 75.029588 179.325957 
L 75.029588 179.111489 
L 75.627787 179.111489 
L 75.627787 178.897021 
L 75.747427 178.897021 
L 75.747427 178.468085 
L 75.867067 178.468085 
L 75.867067 178.253617 
L 76.225986 178.253617 
L 76.225986 178.039149 
L 76.345626 178.039149 
L 76.345626 177.824681 
L 76.704545 177.824681 
L 76.704545 177.610213 
L 76.824185 177.610213 
L 76.824185 177.395745 
L 77.063465 177.395745 
L 77.063465 176.323404 
L 77.183105 176.323404 
L 77.183105 175.894468 
L 77.422384 175.894468 
L 77.422384 175.251064 
L 77.542024 175.251064 
L 77.542024 175.036596 
L 77.661664 175.036596 
L 77.661664 174.393191 
L 77.900943 174.393191 
L 77.900943 173.749787 
L 78.020583 173.749787 
L 78.020583 173.320851 
L 78.140223 173.320851 
L 78.140223 172.462979 
L 78.379503 172.462979 
L 78.379503 172.248511 
L 78.499142 172.248511 
L 78.499142 171.390638 
L 78.618782 171.390638 
L 78.618782 170.961702 
L 78.738422 170.961702 
L 78.738422 169.889362 
L 78.858062 169.889362 
L 78.858062 169.674894 
L 78.977702 169.674894 
L 78.977702 169.460426 
L 79.097341 169.460426 
L 79.097341 169.245957 
L 79.216981 169.245957 
L 79.216981 169.031489 
L 79.81518 169.031489 
L 79.81518 168.602553 
L 79.93482 168.602553 
L 79.93482 168.173617 
L 80.05446 168.173617 
L 80.05446 167.959149 
L 80.652659 167.959149 
L 80.652659 167.744681 
L 80.772298 167.744681 
L 80.772298 167.530213 
L 81.011578 167.530213 
L 81.011578 166.886809 
L 81.609777 166.886809 
L 81.609777 166.457872 
L 81.729417 166.457872 
L 81.729417 166.243404 
L 82.207976 166.243404 
L 82.207976 165.814468 
L 82.327616 165.814468 
L 82.327616 165.171064 
L 82.925815 165.171064 
L 82.925815 164.956596 
L 83.045455 164.956596 
L 83.045455 164.52766 
L 83.165094 164.52766 
L 83.165094 164.313191 
L 83.643654 164.313191 
L 83.643654 164.098723 
L 83.763293 164.098723 
L 83.763293 163.455319 
L 83.882933 163.455319 
L 83.882933 162.168511 
L 84.002573 162.168511 
L 84.002573 161.954043 
L 84.241852 161.954043 
L 84.241852 161.310638 
L 84.600772 161.310638 
L 84.600772 161.09617 
L 84.840051 161.09617 
L 84.840051 160.452766 
L 85.198971 160.452766 
L 85.198971 159.594894 
L 85.318611 159.594894 
L 85.318611 158.522553 
L 85.43825 158.522553 
L 85.43825 158.308085 
L 85.67753 158.308085 
L 85.67753 157.879149 
L 85.79717 157.879149 
L 85.79717 156.163404 
L 86.036449 156.163404 
L 86.036449 155.52 
L 86.156089 155.52 
L 86.156089 154.662128 
L 86.275729 154.662128 
L 86.275729 154.44766 
L 86.395369 154.44766 
L 86.395369 154.233191 
L 86.634648 154.233191 
L 86.634648 154.018723 
L 87.232847 154.018723 
L 87.232847 153.804255 
L 87.472127 153.804255 
L 87.472127 153.589787 
L 87.591767 153.589787 
L 87.591767 153.160851 
L 87.711407 153.160851 
L 87.711407 152.946383 
L 87.831046 152.946383 
L 87.831046 152.302979 
L 87.950686 152.302979 
L 87.950686 151.874043 
L 88.070326 151.874043 
L 88.070326 151.659574 
L 88.189966 151.659574 
L 88.189966 151.445106 
L 88.548885 151.445106 
L 88.548885 151.230638 
L 89.027444 151.230638 
L 89.027444 150.372766 
L 89.266724 150.372766 
L 89.266724 149.729362 
L 89.386364 149.729362 
L 89.386364 149.300426 
L 89.506003 149.300426 
L 89.506003 149.085957 
L 89.984563 149.085957 
L 89.984563 148.657021 
L 90.104202 148.657021 
L 90.104202 148.442553 
L 90.223842 148.442553 
L 90.223842 148.228085 
L 90.343482 148.228085 
L 90.343482 148.013617 
L 90.463122 148.013617 
L 90.463122 147.584681 
L 90.941681 147.584681 
L 90.941681 147.155745 
L 91.061321 147.155745 
L 91.061321 146.941277 
L 91.180961 146.941277 
L 91.180961 146.083404 
L 91.42024 146.083404 
L 91.42024 145.44 
L 91.898799 145.44 
L 91.898799 145.011064 
L 92.138079 145.011064 
L 92.138079 144.36766 
L 92.616638 144.36766 
L 92.616638 144.153191 
L 92.975557 144.153191 
L 92.975557 143.724255 
L 93.813036 143.724255 
L 93.813036 143.509787 
L 94.411235 143.509787 
L 94.411235 143.080851 
L 94.770154 143.080851 
L 94.770154 142.866383 
L 95.009434 142.866383 
L 95.009434 142.222979 
L 95.129074 142.222979 
L 95.129074 141.794043 
L 95.607633 141.794043 
L 95.607633 141.579574 
L 95.727273 141.579574 
L 95.727273 141.150638 
L 96.086192 141.150638 
L 96.086192 140.721702 
L 97.28259 140.721702 
L 97.28259 140.292766 
L 97.52187 140.292766 
L 97.52187 140.078298 
L 97.641509 140.078298 
L 97.641509 139.434894 
L 97.761149 139.434894 
L 97.761149 139.220426 
L 97.880789 139.220426 
L 97.880789 139.005957 
L 98.359348 139.005957 
L 98.359348 138.148085 
L 98.478988 138.148085 
L 98.478988 137.933617 
L 98.718268 137.933617 
L 98.718268 137.504681 
L 98.837907 137.504681 
L 98.837907 137.290213 
L 99.316467 137.290213 
L 99.316467 136.861277 
L 99.555746 136.861277 
L 99.555746 136.646809 
L 100.273585 136.646809 
L 100.273585 136.43234 
L 100.991424 136.43234 
L 100.991424 136.217872 
L 101.111063 136.217872 
L 101.111063 136.003404 
L 101.828902 136.003404 
L 101.828902 135.788936 
L 102.427101 135.788936 
L 102.427101 135.574468 
L 102.666381 135.574468 
L 102.666381 135.145532 
L 102.786021 135.145532 
L 102.786021 134.931064 
L 103.0253 134.931064 
L 103.0253 134.28766 
L 103.26458 134.28766 
L 103.26458 134.073191 
L 103.862779 134.073191 
L 103.862779 133.644255 
L 104.102058 133.644255 
L 104.102058 133.429787 
L 104.221698 133.429787 
L 104.221698 133.215319 
L 104.460978 133.215319 
L 104.460978 133.000851 
L 104.580617 133.000851 
L 104.580617 132.571915 
L 104.819897 132.571915 
L 104.819897 132.357447 
L 104.939537 132.357447 
L 104.939537 132.142979 
L 105.178816 132.142979 
L 105.178816 131.928511 
L 105.418096 131.928511 
L 105.418096 131.285106 
L 105.537736 131.285106 
L 105.537736 130.85617 
L 105.657376 130.85617 
L 105.657376 130.427234 
L 106.135935 130.427234 
L 106.135935 130.212766 
L 106.494854 130.212766 
L 106.494854 129.998298 
L 106.614494 129.998298 
L 106.614494 129.569362 
L 106.734134 129.569362 
L 106.734134 129.354894 
L 107.212693 129.354894 
L 107.212693 129.140426 
L 107.691252 129.140426 
L 107.691252 128.925957 
L 107.810892 128.925957 
L 107.810892 128.497021 
L 107.930532 128.497021 
L 107.930532 128.282553 
L 108.169811 128.282553 
L 108.169811 128.068085 
L 108.528731 128.068085 
L 108.528731 127.853617 
L 109.246569 127.853617 
L 109.246569 127.210213 
L 109.485849 127.210213 
L 109.485849 126.995745 
L 109.605489 126.995745 
L 109.605489 126.781277 
L 109.844768 126.781277 
L 109.844768 126.566809 
L 110.562607 126.566809 
L 110.562607 126.35234 
L 110.921527 126.35234 
L 110.921527 126.137872 
L 111.160806 126.137872 
L 111.160806 125.708936 
L 111.280446 125.708936 
L 111.280446 125.494468 
L 111.519726 125.494468 
L 111.519726 125.065532 
L 111.639365 125.065532 
L 111.639365 124.636596 
L 111.759005 124.636596 
L 111.759005 124.20766 
L 112.357204 124.20766 
L 112.357204 123.993191 
L 112.716123 123.993191 
L 112.716123 123.564255 
L 113.075043 123.564255 
L 113.075043 123.349787 
L 113.314322 123.349787 
L 113.314322 123.135319 
L 113.433962 123.135319 
L 113.433962 122.920851 
L 114.032161 122.920851 
L 114.032161 122.706383 
L 114.75 122.706383 
L 114.75 122.491915 
L 114.86964 122.491915 
L 114.86964 122.277447 
L 114.98928 122.277447 
L 114.98928 122.062979 
L 115.228559 122.062979 
L 115.228559 121.848511 
L 115.348199 121.848511 
L 115.348199 121.419574 
L 115.707118 121.419574 
L 115.707118 121.205106 
L 115.946398 121.205106 
L 115.946398 120.990638 
L 116.066038 120.990638 
L 116.066038 120.347234 
L 116.424957 120.347234 
L 116.424957 119.70383 
L 116.544597 119.70383 
L 116.544597 119.489362 
L 116.903516 119.489362 
L 116.903516 119.274894 
L 117.142796 119.274894 
L 117.142796 119.060426 
L 118.817753 119.060426 
L 118.817753 118.631489 
L 119.176672 118.631489 
L 119.176672 118.417021 
L 119.774871 118.417021 
L 119.774871 118.202553 
L 120.133791 118.202553 
L 120.133791 117.988085 
L 120.37307 117.988085 
L 120.37307 117.559149 
L 120.49271 117.559149 
L 120.49271 117.344681 
L 120.73199 117.344681 
L 120.73199 116.915745 
L 120.971269 116.915745 
L 120.971269 116.701277 
L 121.090909 116.701277 
L 121.090909 116.486809 
L 121.210549 116.486809 
L 121.210549 115.843404 
L 121.928388 115.843404 
L 121.928388 115.628936 
L 122.526587 115.628936 
L 122.526587 115.414468 
L 122.885506 115.414468 
L 122.885506 114.985532 
L 123.244425 114.985532 
L 123.244425 114.771064 
L 124.440823 114.771064 
L 124.440823 114.556596 
L 124.560463 114.556596 
L 124.560463 114.342128 
L 125.039022 114.342128 
L 125.039022 114.12766 
L 125.158662 114.12766 
L 125.158662 113.913191 
L 125.756861 113.913191 
L 125.756861 113.484255 
L 125.876501 113.484255 
L 125.876501 113.055319 
L 126.4747 113.055319 
L 126.4747 112.840851 
L 127.072899 112.840851 
L 127.072899 112.411915 
L 128.149657 112.411915 
L 128.149657 112.197447 
L 128.508576 112.197447 
L 128.508576 111.768511 
L 128.628216 111.768511 
L 128.628216 111.554043 
L 128.747856 111.554043 
L 128.747856 111.125106 
L 129.106775 111.125106 
L 129.106775 110.910638 
L 129.585334 110.910638 
L 129.585334 110.69617 
L 129.824614 110.69617 
L 129.824614 110.481702 
L 130.183533 110.481702 
L 130.183533 110.267234 
L 130.781732 110.267234 
L 130.781732 110.052766 
L 130.901372 110.052766 
L 130.901372 109.838298 
L 131.738851 109.838298 
L 131.738851 109.62383 
L 131.97813 109.62383 
L 131.97813 109.409362 
L 132.21741 109.409362 
L 132.21741 109.194894 
L 132.576329 109.194894 
L 132.576329 108.980426 
L 133.054889 108.980426 
L 133.054889 108.551489 
L 133.413808 108.551489 
L 133.413808 107.693617 
L 133.533448 107.693617 
L 133.533448 107.050213 
L 133.653087 107.050213 
L 133.653087 106.835745 
L 133.772727 106.835745 
L 133.772727 106.406809 
L 134.012007 106.406809 
L 134.012007 106.19234 
L 134.131647 106.19234 
L 134.131647 105.977872 
L 134.370926 105.977872 
L 134.370926 105.548936 
L 134.490566 105.548936 
L 134.490566 104.905532 
L 135.208405 104.905532 
L 135.208405 104.691064 
L 135.806604 104.691064 
L 135.806604 104.04766 
L 135.926244 104.04766 
L 135.926244 103.833191 
L 136.644082 103.833191 
L 136.644082 103.618723 
L 137.003002 103.618723 
L 137.003002 103.189787 
L 137.361921 103.189787 
L 137.361921 102.975319 
L 137.481561 102.975319 
L 137.481561 102.760851 
L 137.84048 102.760851 
L 137.84048 102.546383 
L 138.319039 102.546383 
L 138.319039 101.688511 
L 138.438679 101.688511 
L 138.438679 101.259574 
L 138.677959 101.259574 
L 138.677959 100.830638 
L 139.276158 100.830638 
L 139.276158 100.61617 
L 139.395798 100.61617 
L 139.395798 100.401702 
L 139.993997 100.401702 
L 139.993997 99.972766 
L 140.352916 99.972766 
L 140.352916 99.54383 
L 140.472556 99.54383 
L 140.472556 99.329362 
L 140.951115 99.329362 
L 140.951115 99.114894 
L 141.908233 99.114894 
L 141.908233 98.471489 
L 142.027873 98.471489 
L 142.027873 97.828085 
L 142.147513 97.828085 
L 142.147513 97.613617 
L 142.386792 97.613617 
L 142.386792 97.184681 
L 142.506432 97.184681 
L 142.506432 96.541277 
L 142.745712 96.541277 
L 142.745712 96.326809 
L 142.865352 96.326809 
L 142.865352 96.11234 
L 143.104631 96.11234 
L 143.104631 95.897872 
L 143.463551 95.897872 
L 143.463551 95.04 
L 143.58319 95.04 
L 143.58319 94.396596 
L 143.70283 94.396596 
L 143.70283 94.182128 
L 145.138508 94.182128 
L 145.138508 93.96766 
L 145.258148 93.96766 
L 145.258148 93.753191 
L 145.377787 93.753191 
L 145.377787 93.109787 
L 145.497427 93.109787 
L 145.497427 92.680851 
L 145.617067 92.680851 
L 145.617067 92.466383 
L 145.975986 92.466383 
L 145.975986 92.037447 
L 146.095626 92.037447 
L 146.095626 91.822979 
L 146.933105 91.822979 
L 146.933105 91.608511 
L 147.292024 91.608511 
L 147.292024 91.394043 
L 147.411664 91.394043 
L 147.411664 91.179574 
L 147.770583 91.179574 
L 147.770583 90.965106 
L 147.890223 90.965106 
L 147.890223 90.750638 
L 148.368782 90.750638 
L 148.368782 90.107234 
L 149.086621 90.107234 
L 149.086621 89.678298 
L 149.206261 89.678298 
L 149.206261 89.46383 
L 149.44554 89.46383 
L 149.44554 88.820426 
L 149.80446 88.820426 
L 149.80446 88.605957 
L 150.043739 88.605957 
L 150.043739 88.391489 
L 150.163379 88.391489 
L 150.163379 88.177021 
L 150.522298 88.177021 
L 150.522298 87.962553 
L 150.761578 87.962553 
L 150.761578 87.533617 
L 151.240137 87.533617 
L 151.240137 87.319149 
L 151.359777 87.319149 
L 151.359777 87.104681 
L 151.479417 87.104681 
L 151.479417 86.675745 
L 151.599057 86.675745 
L 151.599057 86.246809 
L 151.957976 86.246809 
L 151.957976 86.03234 
L 152.436535 86.03234 
L 152.436535 85.174468 
L 152.556175 85.174468 
L 152.556175 84.96 
L 152.675815 84.96 
L 152.675815 84.745532 
L 152.915094 84.745532 
L 152.915094 84.531064 
L 153.034734 84.531064 
L 153.034734 84.102128 
L 153.274014 84.102128 
L 153.274014 83.673191 
L 153.513293 83.673191 
L 153.513293 83.458723 
L 153.872213 83.458723 
L 153.872213 82.815319 
L 154.111492 82.815319 
L 154.111492 82.600851 
L 154.350772 82.600851 
L 154.350772 82.386383 
L 154.709691 82.386383 
L 154.709691 81.742979 
L 154.829331 81.742979 
L 154.829331 81.314043 
L 155.18825 81.314043 
L 155.18825 81.099574 
L 155.42753 81.099574 
L 155.42753 80.885106 
L 155.786449 80.885106 
L 155.786449 80.670638 
L 156.743568 80.670638 
L 156.743568 80.45617 
L 157.102487 80.45617 
L 157.102487 79.812766 
L 157.581046 79.812766 
L 157.581046 79.598298 
L 158.298885 79.598298 
L 158.298885 79.38383 
L 158.418525 79.38383 
L 158.418525 78.954894 
L 159.375643 78.954894 
L 159.375643 78.311489 
L 159.734563 78.311489 
L 159.734563 77.882553 
L 159.854202 77.882553 
L 159.854202 77.453617 
L 159.973842 77.453617 
L 159.973842 77.024681 
L 161.0506 77.024681 
L 161.0506 76.810213 
L 161.52916 76.810213 
L 161.52916 76.166809 
L 161.768439 76.166809 
L 161.768439 75.95234 
L 162.007719 75.95234 
L 162.007719 75.737872 
L 162.486278 75.737872 
L 162.486278 75.523404 
L 162.845197 75.523404 
L 162.845197 75.308936 
L 163.204117 75.308936 
L 163.204117 75.094468 
L 163.921955 75.094468 
L 163.921955 74.88 
L 164.041595 74.88 
L 164.041595 74.665532 
L 164.161235 74.665532 
L 164.161235 74.451064 
L 164.400515 74.451064 
L 164.400515 74.236596 
L 164.759434 74.236596 
L 164.759434 73.80766 
L 166.195111 73.80766 
L 166.195111 73.593191 
L 166.91295 73.593191 
L 166.91295 73.378723 
L 167.15223 73.378723 
L 167.15223 73.164255 
L 167.391509 73.164255 
L 167.391509 72.735319 
L 167.870069 72.735319 
L 167.870069 72.520851 
L 168.109348 72.520851 
L 168.109348 72.091915 
L 168.707547 72.091915 
L 168.707547 71.662979 
L 169.305746 71.662979 
L 169.305746 71.448511 
L 169.425386 71.448511 
L 169.425386 71.234043 
L 169.545026 71.234043 
L 169.545026 70.590638 
L 169.784305 70.590638 
L 169.784305 70.37617 
L 169.903945 70.37617 
L 169.903945 70.161702 
L 170.143225 70.161702 
L 170.143225 69.947234 
L 171.578902 69.947234 
L 171.578902 69.30383 
L 172.177101 69.30383 
L 172.177101 68.874894 
L 172.296741 68.874894 
L 172.296741 68.660426 
L 172.7753 68.660426 
L 172.7753 68.445957 
L 172.89494 68.445957 
L 172.89494 68.231489 
L 173.612779 68.231489 
L 173.612779 67.802553 
L 174.450257 67.802553 
L 174.450257 67.588085 
L 174.928816 67.588085 
L 174.928816 67.373617 
L 175.048456 67.373617 
L 175.048456 67.159149 
L 175.287736 67.159149 
L 175.287736 66.515745 
L 176.244854 66.515745 
L 176.244854 66.301277 
L 176.962693 66.301277 
L 176.962693 66.086809 
L 178.75729 66.086809 
L 178.75729 65.657872 
L 180.192967 65.657872 
L 180.192967 65.443404 
L 180.791166 65.443404 
L 180.791166 65.228936 
L 180.910806 65.228936 
L 180.910806 64.8 
L 181.748285 64.8 
L 181.748285 64.585532 
L 181.867925 64.585532 
L 181.867925 64.371064 
L 183.782161 64.371064 
L 183.782161 64.156596 
L 184.61964 64.156596 
L 184.61964 63.942128 
L 186.533877 63.942128 
L 186.533877 63.72766 
L 186.773156 63.72766 
L 186.773156 63.513191 
L 187.490995 63.513191 
L 187.490995 63.298723 
L 187.610635 63.298723 
L 187.610635 63.084255 
L 191.199828 63.084255 
L 191.199828 62.869787 
L 191.558748 62.869787 
L 191.558748 62.655319 
L 192.755146 62.655319 
L 192.755146 62.440851 
L 193.233705 62.440851 
L 193.233705 62.226383 
L 199.813894 62.226383 
L 199.813894 62.011915 
L 201.129931 62.011915 
L 201.129931 61.797447 
L 201.249571 61.797447 
L 201.249571 61.582979 
L 201.369211 61.582979 
L 201.369211 61.368511 
L 202.20669 61.368511 
L 202.20669 61.154043 
L 205.317324 61.154043 
L 205.317324 60.939574 
L 206.035163 60.939574 
L 206.035163 60.725106 
L 209.504717 60.725106 
L 209.504717 60.510638 
L 210.222556 60.510638 
L 210.222556 59.867234 
L 210.940395 59.867234 
L 210.940395 59.652766 
L 212.017153 59.652766 
L 212.017153 59.438298 
L 212.495712 59.438298 
L 212.495712 59.009362 
L 213.093911 59.009362 
L 213.093911 58.794894 
L 214.888508 58.794894 
L 214.888508 58.580426 
L 215.247427 58.580426 
L 215.247427 58.365957 
L 216.084906 58.365957 
L 216.084906 58.151489 
L 216.922384 58.151489 
L 216.922384 57.937021 
L 217.281304 57.937021 
L 217.281304 57.722553 
L 219.31518 57.722553 
L 219.31518 57.508085 
L 221.349057 57.508085 
L 221.349057 57.293617 
L 223.741852 57.293617 
L 223.741852 57.079149 
L 223.981132 57.079149 
L 223.981132 56.864681 
L 225.41681 56.864681 
L 225.41681 56.650213 
L 227.331046 56.650213 
L 227.331046 56.435745 
L 227.450686 56.435745 
L 227.450686 56.221277 
L 229.006003 56.221277 
L 229.006003 56.006809 
L 231.27916 56.006809 
L 231.27916 55.79234 
L 232.714837 55.79234 
L 232.714837 55.577872 
L 232.834477 55.577872 
L 232.834477 55.363404 
L 236.66295 55.363404 
L 236.66295 55.148936 
L 237.02187 55.148936 
L 237.02187 54.934468 
L 241.448542 54.934468 
L 241.448542 54.72 
L 242.64494 54.72 
L 242.64494 54.505532 
L 243.721698 54.505532 
L 243.721698 54.291064 
L 244.080617 54.291064 
L 244.080617 54.076596 
L 245.396655 54.076596 
L 245.396655 53.862128 
L 246.951973 53.862128 
L 246.951973 53.64766 
L 247.550172 53.64766 
L 247.550172 53.433191 
L 248.26801 53.433191 
L 248.26801 53.218723 
L 250.541166 53.218723 
L 250.541166 53.004255 
L 251.019726 53.004255 
L 251.019726 52.789787 
L 251.259005 52.789787 
L 251.259005 52.575319 
L 251.737564 52.575319 
L 251.737564 52.360851 
L 252.216123 52.360851 
L 252.216123 52.146383 
L 252.933962 52.146383 
L 252.933962 51.931915 
L 253.292882 51.931915 
L 253.292882 51.717447 
L 256.523156 51.717447 
L 256.523156 51.502979 
L 257.839194 51.502979 
L 257.839194 51.288511 
L 258.317753 51.288511 
L 258.317753 51.074043 
L 259.753431 51.074043 
L 259.753431 50.859574 
L 264.539022 50.859574 
L 264.539022 50.430638 
L 265.9747 50.430638 
L 265.9747 50.21617 
L 266.333619 50.21617 
L 266.333619 50.001702 
L 266.453259 50.001702 
L 266.453259 49.787234 
L 266.812178 49.787234 
L 266.812178 49.572766 
L 272.913808 49.572766 
L 272.913808 49.14383 
L 277.101201 49.14383 
L 277.101201 48.929362 
L 279.015437 48.929362 
L 279.015437 48.714894 
L 280.810034 48.714894 
L 280.810034 48.500426 
L 283.681389 48.500426 
L 283.681389 48.285957 
L 284.399228 48.285957 
L 284.399228 48.071489 
L 285.356346 48.071489 
L 285.356346 47.857021 
L 287.031304 47.857021 
L 287.031304 47.642553 
L 288.706261 47.642553 
L 288.706261 47.428085 
L 288.825901 47.428085 
L 288.825901 47.213617 
L 289.783019 47.213617 
L 289.783019 46.999149 
L 290.859777 46.999149 
L 290.859777 46.784681 
L 292.175815 46.784681 
L 292.175815 46.570213 
L 294.209691 46.570213 
L 294.209691 46.355745 
L 296.123928 46.355745 
L 296.123928 46.141277 
L 300.191681 46.141277 
L 300.191681 45.926809 
L 301.148799 45.926809 
L 301.148799 45.71234 
L 306.41295 45.71234 
L 306.41295 45.497872 
L 306.77187 45.497872 
L 306.77187 45.283404 
L 308.207547 45.283404 
L 308.207547 45.068936 
L 309.643225 45.068936 
L 309.643225 44.854468 
L 311.198542 44.854468 
L 311.198542 44.64 
L 311.318182 44.64 
L 311.318182 44.64 
" style="fill:none;stroke:#2ca02c;stroke-linecap:square;stroke-width:1.5;"/>
   </g>
   <g id="patch_3">
    <path d="M 45 256.32 
L 45 34.56 
" style="fill:none;stroke:#000000;stroke-linecap:square;stroke-linejoin:miter;stroke-width:0.8;"/>
   </g>
   <g id="patch_4">
    <path d="M 324 256.32 
L 324 34.56 
" style="fill:none;stroke:#000000;stroke-linecap:square;stroke-linejoin:miter;stroke-width:0.8;"/>
   </g>
   <g id="patch_5">
    <path d="M 45 256.32 
L 324 256.32 
" style="fill:none;stroke:#000000;stroke-linecap:square;stroke-linejoin:miter;stroke-width:0.8;"/>
   </g>
   <g id="patch_6">
    <path d="M 45 34.56 
L 324 34.56 
" style="fill:none;stroke:#000000;stroke-linecap:square;stroke-linejoin:miter;stroke-width:0.8;"/>
   </g>
   <g id="text_15">
    <!-- roc_mobilenetv3 -->
    <g transform="translate(134.6325 28.56)scale(0.12 -0.12)">
     <defs>
      <path d="M 1959 3097 
Q 1497 3097 1228 2736 
Q 959 2375 959 1747 
Q 959 1119 1226 758 
Q 1494 397 1959 397 
Q 2419 397 2687 759 
Q 2956 1122 2956 1747 
Q 2956 2369 2687 2733 
Q 2419 3097 1959 3097 
z
M 1959 3584 
Q 2709 3584 3137 3096 
Q 3566 2609 3566 1747 
Q 3566 888 3137 398 
Q 2709 -91 1959 -91 
Q 1206 -91 779 398 
Q 353 888 353 1747 
Q 353 2609 779 3096 
Q 1206 3584 1959 3584 
z
" id="DejaVuSans-6f" transform="scale(0.015625)"/>
      <path d="M 3122 3366 
L 3122 2828 
Q 2878 2963 2633 3030 
Q 2388 3097 2138 3097 
Q 1578 3097 1268 2742 
Q 959 2388 959 1747 
Q 959 1106 1268 751 
Q 1578 397 2138 397 
Q 2388 397 2633 464 
Q 2878 531 3122 666 
L 3122 134 
Q 2881 22 2623 -34 
Q 2366 -91 2075 -91 
Q 1284 -91 818 406 
Q 353 903 353 1747 
Q 353 2603 823 3093 
Q 1294 3584 2113 3584 
Q 2378 3584 2631 3529 
Q 2884 3475 3122 3366 
z
" id="DejaVuSans-63" transform="scale(0.015625)"/>
      <path d="M 3263 -1063 
L 3263 -1509 
L -63 -1509 
L -63 -1063 
L 3263 -1063 
z
" id="DejaVuSans-5f" transform="scale(0.015625)"/>
      <path d="M 3328 2828 
Q 3544 3216 3844 3400 
Q 4144 3584 4550 3584 
Q 5097 3584 5394 3201 
Q 5691 2819 5691 2113 
L 5691 0 
L 5113 0 
L 5113 2094 
Q 5113 2597 4934 2840 
Q 4756 3084 4391 3084 
Q 3944 3084 3684 2787 
Q 3425 2491 3425 1978 
L 3425 0 
L 2847 0 
L 2847 2094 
Q 2847 2600 2669 2842 
Q 2491 3084 2119 3084 
Q 1678 3084 1418 2786 
Q 1159 2488 1159 1978 
L 1159 0 
L 581 0 
L 581 3500 
L 1159 3500 
L 1159 2956 
Q 1356 3278 1631 3431 
Q 1906 3584 2284 3584 
Q 2666 3584 2933 3390 
Q 3200 3197 3328 2828 
z
" id="DejaVuSans-6d" transform="scale(0.015625)"/>
      <path d="M 3116 1747 
Q 3116 2381 2855 2742 
Q 2594 3103 2138 3103 
Q 1681 3103 1420 2742 
Q 1159 2381 1159 1747 
Q 1159 1113 1420 752 
Q 1681 391 2138 391 
Q 2594 391 2855 752 
Q 3116 1113 3116 1747 
z
M 1159 2969 
Q 1341 3281 1617 3432 
Q 1894 3584 2278 3584 
Q 2916 3584 3314 3078 
Q 3713 2572 3713 1747 
Q 3713 922 3314 415 
Q 2916 -91 2278 -91 
Q 1894 -91 1617 61 
Q 1341 213 1159 525 
L 1159 0 
L 581 0 
L 581 4863 
L 1159 4863 
L 1159 2969 
z
" id="DejaVuSans-62" transform="scale(0.015625)"/>
      <path d="M 603 3500 
L 1178 3500 
L 1178 0 
L 603 0 
L 603 3500 
z
M 603 4863 
L 1178 4863 
L 1178 4134 
L 603 4134 
L 603 4863 
z
" id="DejaVuSans-69" transform="scale(0.015625)"/>
      <path d="M 603 4863 
L 1178 4863 
L 1178 0 
L 603 0 
L 603 4863 
z
" id="DejaVuSans-6c" transform="scale(0.015625)"/>
      <path d="M 3597 1894 
L 3597 1613 
L 953 1613 
Q 991 1019 1311 708 
Q 1631 397 2203 397 
Q 2534 397 2845 478 
Q 3156 559 3463 722 
L 3463 178 
Q 3153 47 2828 -22 
Q 2503 -91 2169 -91 
Q 1331 -91 842 396 
Q 353 884 353 1716 
Q 353 2575 817 3079 
Q 1281 3584 2069 3584 
Q 2775 3584 3186 3129 
Q 3597 2675 3597 1894 
z
M 3022 2063 
Q 3016 2534 2758 2815 
Q 2500 3097 2075 3097 
Q 1594 3097 1305 2825 
Q 1016 2553 972 2059 
L 3022 2063 
z
" id="DejaVuSans-65" transform="scale(0.015625)"/>
      <path d="M 3513 2113 
L 3513 0 
L 2938 0 
L 2938 2094 
Q 2938 2591 2744 2837 
Q 2550 3084 2163 3084 
Q 1697 3084 1428 2787 
Q 1159 2491 1159 1978 
L 1159 0 
L 581 0 
L 581 3500 
L 1159 3500 
L 1159 2956 
Q 1366 3272 1645 3428 
Q 1925 3584 2291 3584 
Q 2894 3584 3203 3211 
Q 3513 2838 3513 2113 
z
" id="DejaVuSans-6e" transform="scale(0.015625)"/>
      <path d="M 191 3500 
L 800 3500 
L 1894 563 
L 2988 3500 
L 3597 3500 
L 2284 0 
L 1503 0 
L 191 3500 
z
" id="DejaVuSans-76" transform="scale(0.015625)"/>
      <path d="M 2597 2516 
Q 3050 2419 3304 2112 
Q 3559 1806 3559 1356 
Q 3559 666 3084 287 
Q 2609 -91 1734 -91 
Q 1441 -91 1130 -33 
Q 819 25 488 141 
L 488 750 
Q 750 597 1062 519 
Q 1375 441 1716 441 
Q 2309 441 2620 675 
Q 2931 909 2931 1356 
Q 2931 1769 2642 2001 
Q 2353 2234 1838 2234 
L 1294 2234 
L 1294 2753 
L 1863 2753 
Q 2328 2753 2575 2939 
Q 2822 3125 2822 3475 
Q 2822 3834 2567 4026 
Q 2313 4219 1838 4219 
Q 1578 4219 1281 4162 
Q 984 4106 628 3988 
L 628 4550 
Q 988 4650 1302 4700 
Q 1616 4750 1894 4750 
Q 2613 4750 3031 4423 
Q 3450 4097 3450 3541 
Q 3450 3153 3228 2886 
Q 3006 2619 2597 2516 
z
" id="DejaVuSans-33" transform="scale(0.015625)"/>
     </defs>
     <use xlink:href="#DejaVuSans-72"/>
     <use x="38.863281" xlink:href="#DejaVuSans-6f"/>
     <use x="100.044922" xlink:href="#DejaVuSans-63"/>
     <use x="155.025391" xlink:href="#DejaVuSans-5f"/>
     <use x="205.025391" xlink:href="#DejaVuSans-6d"/>
     <use x="302.4375" xlink:href="#DejaVuSans-6f"/>
     <use x="363.619141" xlink:href="#DejaVuSans-62"/>
     <use x="427.095703" xlink:href="#DejaVuSans-69"/>
     <use x="454.878906" xlink:href="#DejaVuSans-6c"/>
     <use x="482.662109" xlink:href="#DejaVuSans-65"/>
     <use x="544.185547" xlink:href="#DejaVuSans-6e"/>
     <use x="607.564453" xlink:href="#DejaVuSans-65"/>
     <use x="669.087891" xlink:href="#DejaVuSans-74"/>
     <use x="708.296875" xlink:href="#DejaVuSans-76"/>
     <use x="767.476562" xlink:href="#DejaVuSans-33"/>
    </g>
   </g>
   <g id="legend_1">
    <g id="patch_7">
     <path d="M 52 87.42875 
L 148.501563 87.42875 
Q 150.501563 87.42875 150.501563 85.42875 
L 150.501563 41.56 
Q 150.501563 39.56 148.501563 39.56 
L 52 39.56 
Q 50 39.56 50 41.56 
L 50 85.42875 
Q 50 87.42875 52 87.42875 
z
" style="fill:#ffffff;opacity:0.8;stroke:#cccccc;stroke-linejoin:miter;"/>
    </g>
    <g id="line2d_16">
     <path d="M 54 47.658438 
L 74 47.658438 
" style="fill:none;stroke:#1f77b4;stroke-linecap:square;stroke-width:1.5;"/>
    </g>
    <g id="line2d_17"/>
    <g id="text_16">
     <!-- auc_0: 0.595 -->
     <g transform="translate(82 51.158438)scale(0.1 -0.1)">
      <defs>
       <path d="M 2194 1759 
Q 1497 1759 1228 1600 
Q 959 1441 959 1056 
Q 959 750 1161 570 
Q 1363 391 1709 391 
Q 2188 391 2477 730 
Q 2766 1069 2766 1631 
L 2766 1759 
L 2194 1759 
z
M 3341 1997 
L 3341 0 
L 2766 0 
L 2766 531 
Q 2569 213 2275 61 
Q 1981 -91 1556 -91 
Q 1019 -91 701 211 
Q 384 513 384 1019 
Q 384 1609 779 1909 
Q 1175 2209 1959 2209 
L 2766 2209 
L 2766 2266 
Q 2766 2663 2505 2880 
Q 2244 3097 1772 3097 
Q 1472 3097 1187 3025 
Q 903 2953 641 2809 
L 641 3341 
Q 956 3463 1253 3523 
Q 1550 3584 1831 3584 
Q 2591 3584 2966 3190 
Q 3341 2797 3341 1997 
z
" id="DejaVuSans-61" transform="scale(0.015625)"/>
       <path d="M 544 1381 
L 544 3500 
L 1119 3500 
L 1119 1403 
Q 1119 906 1312 657 
Q 1506 409 1894 409 
Q 2359 409 2629 706 
Q 2900 1003 2900 1516 
L 2900 3500 
L 3475 3500 
L 3475 0 
L 2900 0 
L 2900 538 
Q 2691 219 2414 64 
Q 2138 -91 1772 -91 
Q 1169 -91 856 284 
Q 544 659 544 1381 
z
M 1991 3584 
L 1991 3584 
z
" id="DejaVuSans-75" transform="scale(0.015625)"/>
       <path d="M 750 794 
L 1409 794 
L 1409 0 
L 750 0 
L 750 794 
z
M 750 3309 
L 1409 3309 
L 1409 2516 
L 750 2516 
L 750 3309 
z
" id="DejaVuSans-3a" transform="scale(0.015625)"/>
       <path id="DejaVuSans-20" transform="scale(0.015625)"/>
       <path d="M 691 4666 
L 3169 4666 
L 3169 4134 
L 1269 4134 
L 1269 2991 
Q 1406 3038 1543 3061 
Q 1681 3084 1819 3084 
Q 2600 3084 3056 2656 
Q 3513 2228 3513 1497 
Q 3513 744 3044 326 
Q 2575 -91 1722 -91 
Q 1428 -91 1123 -41 
Q 819 9 494 109 
L 494 744 
Q 775 591 1075 516 
Q 1375 441 1709 441 
Q 2250 441 2565 725 
Q 2881 1009 2881 1497 
Q 2881 1984 2565 2268 
Q 2250 2553 1709 2553 
Q 1456 2553 1204 2497 
Q 953 2441 691 2322 
L 691 4666 
z
" id="DejaVuSans-35" transform="scale(0.015625)"/>
       <path d="M 703 97 
L 703 672 
Q 941 559 1184 500 
Q 1428 441 1663 441 
Q 2288 441 2617 861 
Q 2947 1281 2994 2138 
Q 2813 1869 2534 1725 
Q 2256 1581 1919 1581 
Q 1219 1581 811 2004 
Q 403 2428 403 3163 
Q 403 3881 828 4315 
Q 1253 4750 1959 4750 
Q 2769 4750 3195 4129 
Q 3622 3509 3622 2328 
Q 3622 1225 3098 567 
Q 2575 -91 1691 -91 
Q 1453 -91 1209 -44 
Q 966 3 703 97 
z
M 1959 2075 
Q 2384 2075 2632 2365 
Q 2881 2656 2881 3163 
Q 2881 3666 2632 3958 
Q 2384 4250 1959 4250 
Q 1534 4250 1286 3958 
Q 1038 3666 1038 3163 
Q 1038 2656 1286 2365 
Q 1534 2075 1959 2075 
z
" id="DejaVuSans-39" transform="scale(0.015625)"/>
      </defs>
      <use xlink:href="#DejaVuSans-61"/>
      <use x="61.279297" xlink:href="#DejaVuSans-75"/>
      <use x="124.658203" xlink:href="#DejaVuSans-63"/>
      <use x="179.638672" xlink:href="#DejaVuSans-5f"/>
      <use x="229.638672" xlink:href="#DejaVuSans-30"/>
      <use x="293.261719" xlink:href="#DejaVuSans-3a"/>
      <use x="326.953125" xlink:href="#DejaVuSans-20"/>
      <use x="358.740234" xlink:href="#DejaVuSans-30"/>
      <use x="422.363281" xlink:href="#DejaVuSans-2e"/>
      <use x="454.150391" xlink:href="#DejaVuSans-35"/>
      <use x="517.773438" xlink:href="#DejaVuSans-39"/>
      <use x="581.396484" xlink:href="#DejaVuSans-35"/>
     </g>
    </g>
    <g id="line2d_18">
     <path d="M 54 62.614688 
L 74 62.614688 
" style="fill:none;stroke:#ff7f0e;stroke-linecap:square;stroke-width:1.5;"/>
    </g>
    <g id="line2d_19"/>
    <g id="text_17">
     <!-- auc_1: 0.769 -->
     <g transform="translate(82 66.114688)scale(0.1 -0.1)">
      <defs>
       <path d="M 525 4666 
L 3525 4666 
L 3525 4397 
L 1831 0 
L 1172 0 
L 2766 4134 
L 525 4134 
L 525 4666 
z
" id="DejaVuSans-37" transform="scale(0.015625)"/>
      </defs>
      <use xlink:href="#DejaVuSans-61"/>
      <use x="61.279297" xlink:href="#DejaVuSans-75"/>
      <use x="124.658203" xlink:href="#DejaVuSans-63"/>
      <use x="179.638672" xlink:href="#DejaVuSans-5f"/>
      <use x="229.638672" xlink:href="#DejaVuSans-31"/>
      <use x="293.261719" xlink:href="#DejaVuSans-3a"/>
      <use x="326.953125" xlink:href="#DejaVuSans-20"/>
      <use x="358.740234" xlink:href="#DejaVuSans-30"/>
      <use x="422.363281" xlink:href="#DejaVuSans-2e"/>
      <use x="454.150391" xlink:href="#DejaVuSans-37"/>
      <use x="517.773438" xlink:href="#DejaVuSans-36"/>
      <use x="581.396484" xlink:href="#DejaVuSans-39"/>
     </g>
    </g>
    <g id="line2d_20">
     <path d="M 54 77.570938 
L 74 77.570938 
" style="fill:none;stroke:#2ca02c;stroke-linecap:square;stroke-width:1.5;"/>
    </g>
    <g id="line2d_21"/>
    <g id="text_18">
     <!-- auc_2: 0.783 -->
     <g transform="translate(82 81.070938)scale(0.1 -0.1)">
      <use xlink:href="#DejaVuSans-61"/>
      <use x="61.279297" xlink:href="#DejaVuSans-75"/>
      <use x="124.658203" xlink:href="#DejaVuSans-63"/>
      <use x="179.638672" xlink:href="#DejaVuSans-5f"/>
      <use x="229.638672" xlink:href="#DejaVuSans-32"/>
      <use x="293.261719" xlink:href="#DejaVuSans-3a"/>
      <use x="326.953125" xlink:href="#DejaVuSans-20"/>
      <use x="358.740234" xlink:href="#DejaVuSans-30"/>
      <use x="422.363281" xlink:href="#DejaVuSans-2e"/>
      <use x="454.150391" xlink:href="#DejaVuSans-37"/>
      <use x="517.773438" xlink:href="#DejaVuSans-38"/>
      <use x="581.396484" xlink:href="#DejaVuSans-33"/>
     </g>
    </g>
   </g>
  </g>
 </g>
 <defs>
  <clipPath id="p97419a0aa8">
   <rect height="221.76" width="279" x="45" y="34.56"/>
  </clipPath>
 </defs>
</svg>
