<?xml version="1.0" encoding="utf-8" standalone="no"?>
<!DOCTYPE svg PUBLIC "-//W3C//DTD SVG 1.1//EN"
  "http://www.w3.org/Graphics/SVG/1.1/DTD/svg11.dtd">
<svg height="288pt" version="1.1" viewBox="0 0 360 288" width="360pt" xmlns="http://www.w3.org/2000/svg" xmlns:xlink="http://www.w3.org/1999/xlink">
 <metadata>
  <rdf:RDF xmlns:cc="http://creativecommons.org/ns#" xmlns:dc="http://purl.org/dc/elements/1.1/" xmlns:rdf="http://www.w3.org/1999/02/22-rdf-syntax-ns#">
   <cc:Work>
    <dc:type rdf:resource="http://purl.org/dc/dcmitype/StillImage"/>
    <dc:date>2022-06-17T11:08:54.134103</dc:date>
    <dc:format>image/svg+xml</dc:format>
    <dc:creator>
     <cc:Agent>
      <dc:title>Matplotlib v3.4.2, https://matplotlib.org/</dc:title>
     </cc:Agent>
    </dc:creator>
   </cc:Work>
  </rdf:RDF>
 </metadata>
 <defs>
  <style type="text/css">*{stroke-linecap:butt;stroke-linejoin:round;}</style>
 </defs>
 <g id="figure_1">
  <g id="patch_1">
   <path d="M 0 288 
L 360 288 
L 360 0 
L 0 0 
z
" style="fill:#ffffff;"/>
  </g>
  <g id="axes_1">
   <g id="patch_2">
    <path d="M 45 256.32 
L 324 256.32 
L 324 34.56 
L 45 34.56 
z
" style="fill:#ffffff;"/>
   </g>
   <g id="matplotlib.axis_1">
    <g id="xtick_1">
     <g id="line2d_1">
      <defs>
       <path d="M 0 0 
L 0 3.5 
" id="m21e6e7d8de" style="stroke:#000000;stroke-width:0.8;"/>
      </defs>
      <g>
       <use style="stroke:#000000;stroke-width:0.8;" x="57.681818" xlink:href="#m21e6e7d8de" y="256.32"/>
      </g>
     </g>
     <g id="text_1">
      <!-- 0.0 -->
      <g transform="translate(49.730256 270.918437)scale(0.1 -0.1)">
       <defs>
        <path d="M 2034 4250 
Q 1547 4250 1301 3770 
Q 1056 3291 1056 2328 
Q 1056 1369 1301 889 
Q 1547 409 2034 409 
Q 2525 409 2770 889 
Q 3016 1369 3016 2328 
Q 3016 3291 2770 3770 
Q 2525 4250 2034 4250 
z
M 2034 4750 
Q 2819 4750 3233 4129 
Q 3647 3509 3647 2328 
Q 3647 1150 3233 529 
Q 2819 -91 2034 -91 
Q 1250 -91 836 529 
Q 422 1150 422 2328 
Q 422 3509 836 4129 
Q 1250 4750 2034 4750 
z
" id="DejaVuSans-30" transform="scale(0.015625)"/>
        <path d="M 684 794 
L 1344 794 
L 1344 0 
L 684 0 
L 684 794 
z
" id="DejaVuSans-2e" transform="scale(0.015625)"/>
       </defs>
       <use xlink:href="#DejaVuSans-30"/>
       <use x="63.623047" xlink:href="#DejaVuSans-2e"/>
       <use x="95.410156" xlink:href="#DejaVuSans-30"/>
      </g>
     </g>
    </g>
    <g id="xtick_2">
     <g id="line2d_2">
      <g>
       <use style="stroke:#000000;stroke-width:0.8;" x="108.409091" xlink:href="#m21e6e7d8de" y="256.32"/>
      </g>
     </g>
     <g id="text_2">
      <!-- 0.2 -->
      <g transform="translate(100.457528 270.918437)scale(0.1 -0.1)">
       <defs>
        <path d="M 1228 531 
L 3431 531 
L 3431 0 
L 469 0 
L 469 531 
Q 828 903 1448 1529 
Q 2069 2156 2228 2338 
Q 2531 2678 2651 2914 
Q 2772 3150 2772 3378 
Q 2772 3750 2511 3984 
Q 2250 4219 1831 4219 
Q 1534 4219 1204 4116 
Q 875 4013 500 3803 
L 500 4441 
Q 881 4594 1212 4672 
Q 1544 4750 1819 4750 
Q 2544 4750 2975 4387 
Q 3406 4025 3406 3419 
Q 3406 3131 3298 2873 
Q 3191 2616 2906 2266 
Q 2828 2175 2409 1742 
Q 1991 1309 1228 531 
z
" id="DejaVuSans-32" transform="scale(0.015625)"/>
       </defs>
       <use xlink:href="#DejaVuSans-30"/>
       <use x="63.623047" xlink:href="#DejaVuSans-2e"/>
       <use x="95.410156" xlink:href="#DejaVuSans-32"/>
      </g>
     </g>
    </g>
    <g id="xtick_3">
     <g id="line2d_3">
      <g>
       <use style="stroke:#000000;stroke-width:0.8;" x="159.136364" xlink:href="#m21e6e7d8de" y="256.32"/>
      </g>
     </g>
     <g id="text_3">
      <!-- 0.4 -->
      <g transform="translate(151.184801 270.918437)scale(0.1 -0.1)">
       <defs>
        <path d="M 2419 4116 
L 825 1625 
L 2419 1625 
L 2419 4116 
z
M 2253 4666 
L 3047 4666 
L 3047 1625 
L 3713 1625 
L 3713 1100 
L 3047 1100 
L 3047 0 
L 2419 0 
L 2419 1100 
L 313 1100 
L 313 1709 
L 2253 4666 
z
" id="DejaVuSans-34" transform="scale(0.015625)"/>
       </defs>
       <use xlink:href="#DejaVuSans-30"/>
       <use x="63.623047" xlink:href="#DejaVuSans-2e"/>
       <use x="95.410156" xlink:href="#DejaVuSans-34"/>
      </g>
     </g>
    </g>
    <g id="xtick_4">
     <g id="line2d_4">
      <g>
       <use style="stroke:#000000;stroke-width:0.8;" x="209.863636" xlink:href="#m21e6e7d8de" y="256.32"/>
      </g>
     </g>
     <g id="text_4">
      <!-- 0.6 -->
      <g transform="translate(201.912074 270.918437)scale(0.1 -0.1)">
       <defs>
        <path d="M 2113 2584 
Q 1688 2584 1439 2293 
Q 1191 2003 1191 1497 
Q 1191 994 1439 701 
Q 1688 409 2113 409 
Q 2538 409 2786 701 
Q 3034 994 3034 1497 
Q 3034 2003 2786 2293 
Q 2538 2584 2113 2584 
z
M 3366 4563 
L 3366 3988 
Q 3128 4100 2886 4159 
Q 2644 4219 2406 4219 
Q 1781 4219 1451 3797 
Q 1122 3375 1075 2522 
Q 1259 2794 1537 2939 
Q 1816 3084 2150 3084 
Q 2853 3084 3261 2657 
Q 3669 2231 3669 1497 
Q 3669 778 3244 343 
Q 2819 -91 2113 -91 
Q 1303 -91 875 529 
Q 447 1150 447 2328 
Q 447 3434 972 4092 
Q 1497 4750 2381 4750 
Q 2619 4750 2861 4703 
Q 3103 4656 3366 4563 
z
" id="DejaVuSans-36" transform="scale(0.015625)"/>
       </defs>
       <use xlink:href="#DejaVuSans-30"/>
       <use x="63.623047" xlink:href="#DejaVuSans-2e"/>
       <use x="95.410156" xlink:href="#DejaVuSans-36"/>
      </g>
     </g>
    </g>
    <g id="xtick_5">
     <g id="line2d_5">
      <g>
       <use style="stroke:#000000;stroke-width:0.8;" x="260.590909" xlink:href="#m21e6e7d8de" y="256.32"/>
      </g>
     </g>
     <g id="text_5">
      <!-- 0.8 -->
      <g transform="translate(252.639347 270.918437)scale(0.1 -0.1)">
       <defs>
        <path d="M 2034 2216 
Q 1584 2216 1326 1975 
Q 1069 1734 1069 1313 
Q 1069 891 1326 650 
Q 1584 409 2034 409 
Q 2484 409 2743 651 
Q 3003 894 3003 1313 
Q 3003 1734 2745 1975 
Q 2488 2216 2034 2216 
z
M 1403 2484 
Q 997 2584 770 2862 
Q 544 3141 544 3541 
Q 544 4100 942 4425 
Q 1341 4750 2034 4750 
Q 2731 4750 3128 4425 
Q 3525 4100 3525 3541 
Q 3525 3141 3298 2862 
Q 3072 2584 2669 2484 
Q 3125 2378 3379 2068 
Q 3634 1759 3634 1313 
Q 3634 634 3220 271 
Q 2806 -91 2034 -91 
Q 1263 -91 848 271 
Q 434 634 434 1313 
Q 434 1759 690 2068 
Q 947 2378 1403 2484 
z
M 1172 3481 
Q 1172 3119 1398 2916 
Q 1625 2713 2034 2713 
Q 2441 2713 2670 2916 
Q 2900 3119 2900 3481 
Q 2900 3844 2670 4047 
Q 2441 4250 2034 4250 
Q 1625 4250 1398 4047 
Q 1172 3844 1172 3481 
z
" id="DejaVuSans-38" transform="scale(0.015625)"/>
       </defs>
       <use xlink:href="#DejaVuSans-30"/>
       <use x="63.623047" xlink:href="#DejaVuSans-2e"/>
       <use x="95.410156" xlink:href="#DejaVuSans-38"/>
      </g>
     </g>
    </g>
    <g id="xtick_6">
     <g id="line2d_6">
      <g>
       <use style="stroke:#000000;stroke-width:0.8;" x="311.318182" xlink:href="#m21e6e7d8de" y="256.32"/>
      </g>
     </g>
     <g id="text_6">
      <!-- 1.0 -->
      <g transform="translate(303.366619 270.918437)scale(0.1 -0.1)">
       <defs>
        <path d="M 794 531 
L 1825 531 
L 1825 4091 
L 703 3866 
L 703 4441 
L 1819 4666 
L 2450 4666 
L 2450 531 
L 3481 531 
L 3481 0 
L 794 0 
L 794 531 
z
" id="DejaVuSans-31" transform="scale(0.015625)"/>
       </defs>
       <use xlink:href="#DejaVuSans-31"/>
       <use x="63.623047" xlink:href="#DejaVuSans-2e"/>
       <use x="95.410156" xlink:href="#DejaVuSans-30"/>
      </g>
     </g>
    </g>
    <g id="text_7">
     <!-- fpr -->
     <g transform="translate(177.510156 284.596563)scale(0.1 -0.1)">
      <defs>
       <path d="M 2375 4863 
L 2375 4384 
L 1825 4384 
Q 1516 4384 1395 4259 
Q 1275 4134 1275 3809 
L 1275 3500 
L 2222 3500 
L 2222 3053 
L 1275 3053 
L 1275 0 
L 697 0 
L 697 3053 
L 147 3053 
L 147 3500 
L 697 3500 
L 697 3744 
Q 697 4328 969 4595 
Q 1241 4863 1831 4863 
L 2375 4863 
z
" id="DejaVuSans-66" transform="scale(0.015625)"/>
       <path d="M 1159 525 
L 1159 -1331 
L 581 -1331 
L 581 3500 
L 1159 3500 
L 1159 2969 
Q 1341 3281 1617 3432 
Q 1894 3584 2278 3584 
Q 2916 3584 3314 3078 
Q 3713 2572 3713 1747 
Q 3713 922 3314 415 
Q 2916 -91 2278 -91 
Q 1894 -91 1617 61 
Q 1341 213 1159 525 
z
M 3116 1747 
Q 3116 2381 2855 2742 
Q 2594 3103 2138 3103 
Q 1681 3103 1420 2742 
Q 1159 2381 1159 1747 
Q 1159 1113 1420 752 
Q 1681 391 2138 391 
Q 2594 391 2855 752 
Q 3116 1113 3116 1747 
z
" id="DejaVuSans-70" transform="scale(0.015625)"/>
       <path d="M 2631 2963 
Q 2534 3019 2420 3045 
Q 2306 3072 2169 3072 
Q 1681 3072 1420 2755 
Q 1159 2438 1159 1844 
L 1159 0 
L 581 0 
L 581 3500 
L 1159 3500 
L 1159 2956 
Q 1341 3275 1631 3429 
Q 1922 3584 2338 3584 
Q 2397 3584 2469 3576 
Q 2541 3569 2628 3553 
L 2631 2963 
z
" id="DejaVuSans-72" transform="scale(0.015625)"/>
      </defs>
      <use xlink:href="#DejaVuSans-66"/>
      <use x="35.205078" xlink:href="#DejaVuSans-70"/>
      <use x="98.681641" xlink:href="#DejaVuSans-72"/>
     </g>
    </g>
   </g>
   <g id="matplotlib.axis_2">
    <g id="ytick_1">
     <g id="line2d_7">
      <defs>
       <path d="M 0 0 
L -3.5 0 
" id="mf672079a7e" style="stroke:#000000;stroke-width:0.8;"/>
      </defs>
      <g>
       <use style="stroke:#000000;stroke-width:0.8;" x="45" xlink:href="#mf672079a7e" y="246.24"/>
      </g>
     </g>
     <g id="text_8">
      <!-- 0.0 -->
      <g transform="translate(22.096875 250.039219)scale(0.1 -0.1)">
       <use xlink:href="#DejaVuSans-30"/>
       <use x="63.623047" xlink:href="#DejaVuSans-2e"/>
       <use x="95.410156" xlink:href="#DejaVuSans-30"/>
      </g>
     </g>
    </g>
    <g id="ytick_2">
     <g id="line2d_8">
      <g>
       <use style="stroke:#000000;stroke-width:0.8;" x="45" xlink:href="#mf672079a7e" y="205.92"/>
      </g>
     </g>
     <g id="text_9">
      <!-- 0.2 -->
      <g transform="translate(22.096875 209.719219)scale(0.1 -0.1)">
       <use xlink:href="#DejaVuSans-30"/>
       <use x="63.623047" xlink:href="#DejaVuSans-2e"/>
       <use x="95.410156" xlink:href="#DejaVuSans-32"/>
      </g>
     </g>
    </g>
    <g id="ytick_3">
     <g id="line2d_9">
      <g>
       <use style="stroke:#000000;stroke-width:0.8;" x="45" xlink:href="#mf672079a7e" y="165.6"/>
      </g>
     </g>
     <g id="text_10">
      <!-- 0.4 -->
      <g transform="translate(22.096875 169.399219)scale(0.1 -0.1)">
       <use xlink:href="#DejaVuSans-30"/>
       <use x="63.623047" xlink:href="#DejaVuSans-2e"/>
       <use x="95.410156" xlink:href="#DejaVuSans-34"/>
      </g>
     </g>
    </g>
    <g id="ytick_4">
     <g id="line2d_10">
      <g>
       <use style="stroke:#000000;stroke-width:0.8;" x="45" xlink:href="#mf672079a7e" y="125.28"/>
      </g>
     </g>
     <g id="text_11">
      <!-- 0.6 -->
      <g transform="translate(22.096875 129.079219)scale(0.1 -0.1)">
       <use xlink:href="#DejaVuSans-30"/>
       <use x="63.623047" xlink:href="#DejaVuSans-2e"/>
       <use x="95.410156" xlink:href="#DejaVuSans-36"/>
      </g>
     </g>
    </g>
    <g id="ytick_5">
     <g id="line2d_11">
      <g>
       <use style="stroke:#000000;stroke-width:0.8;" x="45" xlink:href="#mf672079a7e" y="84.96"/>
      </g>
     </g>
     <g id="text_12">
      <!-- 0.8 -->
      <g transform="translate(22.096875 88.759219)scale(0.1 -0.1)">
       <use xlink:href="#DejaVuSans-30"/>
       <use x="63.623047" xlink:href="#DejaVuSans-2e"/>
       <use x="95.410156" xlink:href="#DejaVuSans-38"/>
      </g>
     </g>
    </g>
    <g id="ytick_6">
     <g id="line2d_12">
      <g>
       <use style="stroke:#000000;stroke-width:0.8;" x="45" xlink:href="#mf672079a7e" y="44.64"/>
      </g>
     </g>
     <g id="text_13">
      <!-- 1.0 -->
      <g transform="translate(22.096875 48.439219)scale(0.1 -0.1)">
       <use xlink:href="#DejaVuSans-31"/>
       <use x="63.623047" xlink:href="#DejaVuSans-2e"/>
       <use x="95.410156" xlink:href="#DejaVuSans-30"/>
      </g>
     </g>
    </g>
    <g id="text_14">
     <!-- tpr -->
     <g transform="translate(16.017187 152.629844)rotate(-90)scale(0.1 -0.1)">
      <defs>
       <path d="M 1172 4494 
L 1172 3500 
L 2356 3500 
L 2356 3053 
L 1172 3053 
L 1172 1153 
Q 1172 725 1289 603 
Q 1406 481 1766 481 
L 2356 481 
L 2356 0 
L 1766 0 
Q 1100 0 847 248 
Q 594 497 594 1153 
L 594 3053 
L 172 3053 
L 172 3500 
L 594 3500 
L 594 4494 
L 1172 4494 
z
" id="DejaVuSans-74" transform="scale(0.015625)"/>
      </defs>
      <use xlink:href="#DejaVuSans-74"/>
      <use x="39.208984" xlink:href="#DejaVuSans-70"/>
      <use x="102.685547" xlink:href="#DejaVuSans-72"/>
     </g>
    </g>
   </g>
   <g id="line2d_13">
    <path clip-path="url(#p09403eafab)" d="M 57.681818 246.24 
L 61.020265 246.24 
L 61.020265 244.161649 
L 63.160295 244.161649 
L 63.160295 242.083299 
L 65.471528 242.083299 
L 65.471528 240.004948 
L 68.210766 240.004948 
L 68.210766 237.926598 
L 70.179594 237.926598 
L 70.179594 235.848247 
L 71.206808 235.848247 
L 71.206808 233.769897 
L 72.06282 233.769897 
L 72.06282 229.613196 
L 72.319624 229.613196 
L 72.319624 227.534845 
L 72.74763 227.534845 
L 72.74763 225.456495 
L 74.459654 225.456495 
L 74.459654 221.299794 
L 75.57247 221.299794 
L 75.57247 219.221443 
L 78.054904 219.221443 
L 78.054904 217.143093 
L 78.910916 217.143093 
L 78.910916 215.064742 
L 79.510125 215.064742 
L 79.510125 212.986392 
L 80.965345 212.986392 
L 80.965345 210.908041 
L 81.30775 210.908041 
L 81.30775 208.829691 
L 82.420566 208.829691 
L 82.420566 206.75134 
L 83.618983 206.75134 
L 83.618983 204.67299 
L 91.408692 204.67299 
L 91.408692 202.594639 
L 92.179103 202.594639 
L 92.179103 200.516289 
L 92.607109 200.516289 
L 92.607109 198.437938 
L 93.805526 198.437938 
L 93.805526 196.359588 
L 94.661538 196.359588 
L 94.661538 194.281237 
L 95.089544 194.281237 
L 95.089544 192.202887 
L 96.202359 192.202887 
L 96.202359 190.124536 
L 98.342389 190.124536 
L 98.342389 188.046186 
L 99.79761 188.046186 
L 99.79761 185.967835 
L 103.820866 185.967835 
L 103.820866 183.889485 
L 106.90251 183.889485 
L 106.90251 181.811134 
L 107.501718 181.811134 
L 107.501718 179.732784 
L 109.984153 179.732784 
L 109.984153 177.654433 
L 111.011367 177.654433 
L 111.011367 175.576082 
L 119.400285 175.576082 
L 119.400285 173.497732 
L 120.170696 173.497732 
L 120.170696 171.419381 
L 124.536358 171.419381 
L 124.536358 169.341031 
L 129.929233 169.341031 
L 129.929233 167.26268 
L 130.357239 167.26268 
L 130.357239 165.18433 
L 137.290937 165.18433 
L 137.290937 163.105979 
L 141.570997 163.105979 
L 141.570997 161.027629 
L 155.267189 161.027629 
L 155.267189 158.949278 
L 158.006428 158.949278 
L 158.006428 156.870928 
L 160.403261 156.870928 
L 160.403261 154.792577 
L 163.82731 154.792577 
L 163.82731 152.714227 
L 167.593762 152.714227 
L 167.593762 150.635876 
L 171.103412 150.635876 
L 171.103412 148.557526 
L 172.986638 148.557526 
L 172.986638 146.479175 
L 176.496288 146.479175 
L 176.496288 144.400825 
L 184.885205 144.400825 
L 184.885205 142.322474 
L 188.994063 142.322474 
L 188.994063 140.244124 
L 190.87729 140.244124 
L 190.87729 138.165773 
L 196.869374 138.165773 
L 196.869374 136.087423 
L 197.040576 136.087423 
L 197.040576 134.009072 
L 197.382981 134.009072 
L 197.382981 131.930722 
L 201.834244 131.930722 
L 201.834244 129.852371 
L 204.059875 129.852371 
L 204.059875 127.774021 
L 205.17269 127.774021 
L 205.17269 125.69567 
L 209.110346 125.69567 
L 209.110346 123.61732 
L 209.367149 123.61732 
L 209.367149 121.538969 
L 210.13756 121.538969 
L 210.13756 119.460619 
L 211.763983 119.460619 
L 211.763983 117.382268 
L 213.476007 117.382268 
L 213.476007 115.303918 
L 213.64721 115.303918 
L 213.64721 113.225567 
L 216.044043 113.225567 
L 216.044043 111.147216 
L 219.38249 111.147216 
L 219.38249 109.068866 
L 221.351318 109.068866 
L 221.351318 106.990515 
L 223.063342 106.990515 
L 223.063342 104.912165 
L 225.374574 104.912165 
L 225.374574 102.833814 
L 228.456218 102.833814 
L 228.456218 100.755464 
L 231.880266 100.755464 
L 231.880266 98.677113 
L 233.506689 98.677113 
L 233.506689 96.598763 
L 237.615546 96.598763 
L 237.615546 94.520412 
L 241.039594 94.520412 
L 241.039594 92.442062 
L 241.381999 92.442062 
L 241.381999 90.363711 
L 243.60763 90.363711 
L 243.60763 88.285361 
L 253.366168 88.285361 
L 253.366168 86.20701 
L 255.506198 86.20701 
L 255.506198 84.12866 
L 258.331037 84.12866 
L 258.331037 82.050309 
L 258.844645 82.050309 
L 258.844645 79.971959 
L 259.871859 79.971959 
L 259.871859 77.893608 
L 260.64227 77.893608 
L 260.64227 75.815258 
L 269.373592 75.815258 
L 269.373592 73.736907 
L 269.801599 73.736907 
L 269.801599 71.658557 
L 278.019314 71.658557 
L 278.019314 69.580206 
L 281.956969 69.580206 
L 281.956969 67.501856 
L 283.497791 67.501856 
L 283.497791 65.423505 
L 285.209815 65.423505 
L 285.209815 63.345155 
L 288.890667 63.345155 
L 288.890667 61.266804 
L 291.97231 61.266804 
L 291.97231 59.188454 
L 292.65712 59.188454 
L 292.65712 57.110103 
L 292.999524 57.110103 
L 292.999524 55.031753 
L 296.166769 55.031753 
L 296.25237 50.875052 
L 300.53243 50.875052 
L 300.53243 48.796701 
L 303.956478 48.796701 
L 303.956478 46.718351 
L 306.096508 46.718351 
L 306.096508 44.64 
L 311.318182 44.64 
L 311.318182 44.64 
" style="fill:none;stroke:#1f77b4;stroke-linecap:square;stroke-width:1.5;"/>
   </g>
   <g id="line2d_14">
    <path clip-path="url(#p09403eafab)" d="M 57.681818 246.24 
L 57.681818 244.939355 
L 57.924532 244.939355 
L 57.924532 244.138958 
L 58.167247 244.138958 
L 58.167247 240.036923 
L 58.409961 240.036923 
L 58.409961 239.636725 
L 58.652675 239.636725 
L 58.652675 239.036427 
L 58.895389 239.036427 
L 58.895389 237.535682 
L 59.380818 237.435633 
L 59.380818 229.731811 
L 59.623532 229.731811 
L 59.623532 228.931414 
L 59.866246 228.931414 
L 59.866246 223.128536 
L 60.10896 223.128536 
L 60.10896 221.127543 
L 60.351675 221.127543 
L 60.351675 216.325161 
L 60.594389 216.325161 
L 60.594389 214.724367 
L 60.837103 214.724367 
L 60.837103 213.92397 
L 61.322532 213.92397 
L 61.322532 212.923474 
L 61.565246 212.923474 
L 61.565246 212.423226 
L 61.80796 212.423226 
L 61.80796 212.123077 
L 62.050674 212.123077 
L 62.050674 211.32268 
L 62.293388 211.32268 
L 62.293388 211.022531 
L 62.536103 211.022531 
L 62.536103 210.522283 
L 62.778817 210.522283 
L 62.778817 209.621836 
L 63.021531 209.621836 
L 63.021531 208.52129 
L 63.264245 208.52129 
L 63.264245 207.720893 
L 63.749674 207.720893 
L 63.749674 207.420744 
L 63.992388 207.420744 
L 63.992388 206.720397 
L 64.235102 206.720397 
L 64.235102 204.919504 
L 64.477816 204.919504 
L 64.477816 204.119107 
L 64.720531 204.119107 
L 64.720531 203.31871 
L 64.963245 203.31871 
L 64.963245 201.918015 
L 65.205959 201.918015 
L 65.205959 200.61737 
L 65.448673 200.61737 
L 65.448673 199.716923 
L 65.691388 199.716923 
L 65.691388 198.516328 
L 66.41953 198.416278 
L 66.41953 198.116129 
L 66.662244 198.116129 
L 66.662244 197.715931 
L 66.904959 197.715931 
L 66.904959 197.415782 
L 67.390387 197.315732 
L 67.390387 196.015087 
L 67.875816 195.915037 
L 67.875816 195.514839 
L 68.11853 195.514839 
L 68.11853 195.11464 
L 68.361244 195.11464 
L 68.361244 194.614392 
L 68.603958 194.614392 
L 68.603958 194.114144 
L 68.846672 194.114144 
L 68.846672 192.713449 
L 69.574815 192.6134 
L 69.574815 192.213201 
L 69.817529 192.213201 
L 69.817529 191.212705 
L 70.060244 191.212705 
L 70.060244 190.712457 
L 70.302958 190.712457 
L 70.302958 190.512357 
L 70.545672 190.512357 
L 70.545672 190.012109 
L 71.0311 190.012109 
L 71.0311 189.81201 
L 71.273815 189.81201 
L 71.273815 189.411811 
L 71.516529 189.411811 
L 71.516529 187.610918 
L 71.759243 187.610918 
L 71.759243 187.310769 
L 72.487386 187.21072 
L 72.487386 187.11067 
L 72.7301 187.11067 
L 72.7301 186.310273 
L 73.215528 186.310273 
L 73.215528 185.810025 
L 73.458243 185.810025 
L 73.458243 185.509876 
L 74.4291 185.409826 
L 74.4291 184.609429 
L 74.914528 184.609429 
L 74.914528 184.109181 
L 75.157242 184.109181 
L 75.157242 183.909082 
L 75.399957 183.909082 
L 75.399957 182.508387 
L 75.642671 182.508387 
L 75.642671 182.008139 
L 76.613528 182.008139 
L 76.613528 181.80804 
L 76.856242 181.80804 
L 76.856242 181.307792 
L 77.584385 181.207742 
L 77.584385 181.107692 
L 77.827099 181.107692 
L 77.827099 180.807543 
L 78.069813 180.807543 
L 78.069813 180.407345 
L 78.312527 180.407345 
L 78.312527 179.706998 
L 78.555241 179.706998 
L 78.555241 179.206749 
L 78.797956 179.206749 
L 78.797956 178.606452 
L 79.04067 178.606452 
L 79.04067 178.406352 
L 79.283384 178.406352 
L 79.283384 178.106203 
L 79.526098 178.106203 
L 79.526098 177.906104 
L 80.011527 177.906104 
L 80.011527 176.905608 
L 80.496955 176.805558 
L 80.496955 176.30531 
L 80.982384 176.30531 
L 80.982384 175.905112 
L 81.225098 175.905112 
L 81.225098 175.705012 
L 81.467812 175.705012 
L 81.467812 175.004665 
L 82.195955 174.904615 
L 82.195955 174.804566 
L 82.681383 174.804566 
L 82.681383 174.504417 
L 83.166812 174.504417 
L 83.166812 174.304318 
L 83.65224 174.304318 
L 83.65224 173.904119 
L 83.894954 173.904119 
L 83.894954 173.60397 
L 84.137669 173.60397 
L 84.137669 172.903623 
L 84.380383 172.903623 
L 84.380383 172.703524 
L 84.623097 172.703524 
L 84.623097 171.703027 
L 84.865811 171.703027 
L 84.865811 171.10273 
L 85.108525 171.10273 
L 85.108525 170.802581 
L 85.35124 170.802581 
L 85.35124 170.602481 
L 85.836668 170.602481 
L 85.836668 169.301836 
L 86.564811 169.201787 
L 86.564811 169.101737 
L 86.807525 169.101737 
L 86.807525 168.901638 
L 87.050239 168.901638 
L 87.050239 168.701538 
L 87.292953 168.701538 
L 87.292953 168.30134 
L 88.021096 168.20129 
L 88.021096 168.101241 
L 88.26381 168.101241 
L 88.26381 167.901141 
L 88.749239 167.801092 
L 88.749239 166.800596 
L 89.96281 166.800596 
L 89.96281 166.600496 
L 90.690953 166.500447 
L 90.690953 166.300347 
L 91.419095 166.200298 
L 91.419095 166.000199 
L 91.661809 166.000199 
L 91.661809 165.6 
L 91.904524 165.6 
L 91.904524 165.399901 
L 92.147238 165.399901 
L 92.147238 165.099752 
L 92.389952 165.099752 
L 92.389952 164.499454 
L 92.632666 164.499454 
L 92.632666 164.099256 
L 93.118095 163.999206 
L 93.118095 162.99871 
L 93.603523 162.99871 
L 93.603523 161.598015 
L 94.088952 161.497965 
L 94.088952 161.397916 
L 94.57438 161.397916 
L 94.57438 160.497469 
L 94.817094 160.497469 
L 94.817094 160.29737 
L 95.302523 160.29737 
L 95.302523 159.897171 
L 95.545237 159.897171 
L 95.545237 159.396923 
L 96.030666 159.296873 
L 96.030666 158.396427 
L 96.27338 158.396427 
L 96.27338 158.196328 
L 96.758808 158.196328 
L 96.758808 157.996228 
L 97.244237 157.996228 
L 97.244237 157.49598 
L 97.486951 157.49598 
L 97.486951 157.295881 
L 97.729665 157.295881 
L 97.729665 157.095782 
L 97.972379 157.095782 
L 97.972379 156.895682 
L 98.457808 156.895682 
L 98.457808 156.495484 
L 98.700522 156.495484 
L 98.700522 156.295385 
L 99.914093 156.195335 
L 99.914093 155.795136 
L 100.156807 155.795136 
L 100.156807 154.994739 
L 100.399522 154.994739 
L 100.399522 154.594541 
L 101.127664 154.594541 
L 101.127664 154.194342 
L 101.613093 154.194342 
L 101.613093 153.994243 
L 102.098521 153.894194 
L 102.098521 153.293896 
L 103.069378 153.193846 
L 103.069378 153.093797 
L 103.554806 152.993747 
L 103.554806 152.493499 
L 103.797521 152.493499 
L 103.797521 151.793151 
L 104.282949 151.793151 
L 104.282949 151.392953 
L 105.011092 151.292903 
L 105.011092 151.192854 
L 105.253806 151.192854 
L 105.253806 150.892705 
L 105.49652 150.892705 
L 105.49652 150.592556 
L 106.710091 150.492506 
L 106.710091 150.192357 
L 106.952806 150.192357 
L 106.952806 149.49201 
L 107.19552 149.49201 
L 107.19552 149.091811 
L 107.923662 148.991762 
L 107.923662 148.191365 
L 108.409091 148.191365 
L 108.409091 147.991266 
L 109.137234 147.891216 
L 109.137234 147.691117 
L 109.379948 147.691117 
L 109.379948 147.290918 
L 110.10809 147.190868 
L 110.10809 147.090819 
L 110.593519 147.090819 
L 110.593519 146.89072 
L 111.80709 146.79067 
L 111.80709 146.590571 
L 112.049804 146.590571 
L 112.049804 146.190372 
L 112.292518 146.190372 
L 112.292518 145.990273 
L 112.535233 145.990273 
L 112.535233 145.690124 
L 112.777947 145.690124 
L 112.777947 145.389975 
L 113.263375 145.389975 
L 113.263375 144.889727 
L 114.719661 144.789677 
L 114.719661 144.689628 
L 115.447803 144.589578 
L 115.447803 144.389479 
L 115.933232 144.289429 
L 115.933232 143.98928 
L 116.175946 143.98928 
L 116.175946 143.689132 
L 116.41866 143.689132 
L 116.41866 143.088834 
L 116.904089 143.088834 
L 116.904089 142.688635 
L 117.389517 142.688635 
L 117.389517 142.288437 
L 117.632231 142.288437 
L 117.632231 142.088337 
L 117.874946 142.088337 
L 117.874946 141.888238 
L 118.11766 141.888238 
L 118.11766 141.28794 
L 119.088517 141.28794 
L 119.088517 141.087841 
L 119.573945 141.087841 
L 119.573945 140.687643 
L 119.816659 140.687643 
L 119.816659 140.087345 
L 120.059374 140.087345 
L 120.059374 138.986799 
L 120.302088 138.986799 
L 120.302088 138.68665 
L 120.787516 138.5866 
L 120.787516 138.486551 
L 121.272945 138.486551 
L 121.272945 137.986303 
L 121.515659 137.986303 
L 121.515659 136.885757 
L 122.243802 136.785707 
L 122.243802 136.185409 
L 122.72923 136.185409 
L 122.72923 135.284963 
L 122.971944 135.284963 
L 122.971944 135.084864 
L 123.214659 135.084864 
L 123.214659 134.584615 
L 123.457373 134.584615 
L 123.457373 134.384516 
L 123.942801 134.384516 
L 123.942801 133.884268 
L 124.185515 133.884268 
L 124.185515 133.28397 
L 124.670944 133.183921 
L 124.670944 133.083871 
L 125.399087 132.983821 
L 125.399087 132.883772 
L 125.884515 132.883772 
L 125.884515 132.383524 
L 126.127229 132.383524 
L 126.127229 131.783226 
L 126.612658 131.683176 
L 126.612658 131.383027 
L 127.098086 131.383027 
L 127.098086 131.182928 
L 128.068943 131.082878 
L 128.068943 129.982333 
L 128.554371 129.982333 
L 128.554371 129.682184 
L 128.797086 129.682184 
L 128.797086 129.181935 
L 129.282514 129.081886 
L 129.282514 128.881787 
L 129.767943 128.781737 
L 129.767943 127.681191 
L 130.253371 127.681191 
L 130.253371 127.080893 
L 130.496085 127.080893 
L 130.496085 126.880794 
L 130.738799 126.880794 
L 130.738799 126.680695 
L 130.981514 126.680695 
L 130.981514 125.480099 
L 131.709656 125.480099 
L 131.709656 125.17995 
L 132.437799 125.079901 
L 132.437799 124.779752 
L 133.165942 124.679702 
L 133.165942 124.279504 
L 133.65137 124.179454 
L 133.65137 123.779256 
L 134.136799 123.679206 
L 134.136799 123.379057 
L 134.622227 123.379057 
L 134.622227 123.178958 
L 135.35037 123.078908 
L 135.35037 122.978859 
L 135.593084 122.978859 
L 135.593084 122.47861 
L 135.835798 122.47861 
L 135.835798 122.278511 
L 136.321227 122.178462 
L 136.321227 121.678213 
L 136.563941 121.678213 
L 136.563941 121.478114 
L 136.806655 121.478114 
L 136.806655 121.278015 
L 137.292084 121.177965 
L 137.292084 121.077916 
L 137.777512 120.977866 
L 137.777512 120.777767 
L 138.26294 120.677717 
L 138.26294 120.477618 
L 138.991083 120.377568 
L 138.991083 120.177469 
L 139.233797 120.177469 
L 139.233797 119.377072 
L 139.476512 119.377072 
L 139.476512 118.476625 
L 139.96194 118.476625 
L 139.96194 118.276526 
L 140.204654 118.276526 
L 140.204654 117.876328 
L 140.447368 117.876328 
L 140.447368 117.576179 
L 140.932797 117.576179 
L 140.932797 117.376079 
L 141.66094 117.27603 
L 141.66094 117.075931 
L 141.903654 117.075931 
L 141.903654 116.875831 
L 142.389082 116.775782 
L 142.389082 116.475633 
L 142.631796 116.475633 
L 142.631796 116.275533 
L 142.874511 116.275533 
L 142.874511 115.475136 
L 143.117225 115.475136 
L 143.117225 115.174988 
L 143.359939 115.174988 
L 143.359939 114.974888 
L 143.845368 114.874839 
L 143.845368 114.774789 
L 144.57351 114.674739 
L 144.57351 114.57469 
L 145.301653 114.47464 
L 145.301653 114.274541 
L 145.544367 114.274541 
L 145.544367 114.074442 
L 146.029796 113.974392 
L 146.029796 113.173995 
L 147.000652 113.073945 
L 147.000652 112.973896 
L 147.243367 112.973896 
L 147.243367 112.573697 
L 147.728795 112.473648 
L 147.728795 112.373598 
L 148.456938 112.273548 
L 148.456938 111.87335 
L 148.942366 111.7733 
L 148.942366 111.673251 
L 149.670509 111.573201 
L 149.670509 111.273052 
L 150.641366 111.173002 
L 150.641366 110.972903 
L 150.88408 110.972903 
L 150.88408 110.772804 
L 151.612223 110.672754 
L 151.612223 110.272556 
L 152.097651 110.272556 
L 152.097651 109.672258 
L 152.340365 109.672258 
L 152.340365 109.17201 
L 152.58308 109.17201 
L 152.58308 108.871861 
L 153.068508 108.871861 
L 153.068508 108.071464 
L 153.311222 108.071464 
L 153.311222 107.771315 
L 154.282079 107.671266 
L 154.282079 107.271067 
L 155.010222 107.271067 
L 155.010222 107.070968 
L 155.49565 107.070968 
L 155.49565 106.870868 
L 156.466507 106.770819 
L 156.466507 106.270571 
L 157.437364 106.170521 
L 157.437364 106.070471 
L 157.680078 106.070471 
L 157.680078 105.470174 
L 157.922793 105.470174 
L 157.922793 105.270074 
L 158.408221 105.270074 
L 158.408221 104.969926 
L 158.893649 104.969926 
L 158.893649 104.669777 
L 159.136364 104.669777 
L 159.136364 104.469677 
L 159.379078 104.469677 
L 159.379078 104.169529 
L 159.621792 104.169529 
L 159.621792 103.66928 
L 160.592649 103.569231 
L 160.592649 103.068983 
L 161.078077 102.968933 
L 161.078077 101.868387 
L 161.320792 101.868387 
L 161.320792 101.668288 
L 161.563506 101.668288 
L 161.563506 101.368139 
L 162.291649 101.268089 
L 162.291649 100.867891 
L 162.534363 100.867891 
L 162.534363 100.667792 
L 162.777077 100.667792 
L 162.777077 100.467692 
L 163.262505 100.467692 
L 163.262505 100.167543 
L 164.718791 100.067494 
L 164.718791 99.667295 
L 165.689648 99.567246 
L 165.689648 99.267097 
L 166.903219 99.167047 
L 166.903219 98.766849 
L 167.145933 98.766849 
L 167.145933 98.566749 
L 167.388647 98.566749 
L 167.388647 98.2666 
L 168.11679 98.166551 
L 168.11679 97.966452 
L 168.602218 97.866402 
L 168.602218 97.566253 
L 168.844933 97.566253 
L 168.844933 97.066005 
L 170.058504 96.965955 
L 170.058504 96.665806 
L 170.543932 96.565757 
L 170.543932 96.365658 
L 170.786646 96.365658 
L 170.786646 95.865409 
L 171.029361 95.865409 
L 171.029361 95.565261 
L 172.000217 95.465211 
L 172.000217 94.364665 
L 172.485646 94.364665 
L 172.485646 94.164566 
L 172.971074 94.064516 
L 172.971074 93.964467 
L 173.213789 93.964467 
L 173.213789 93.364169 
L 173.699217 93.364169 
L 173.699217 92.96397 
L 173.941931 92.96397 
L 173.941931 92.563772 
L 174.184645 92.563772 
L 174.184645 92.263623 
L 174.912788 92.163573 
L 174.912788 92.063524 
L 175.398217 91.963474 
L 175.398217 91.463226 
L 176.369074 91.363176 
L 176.369074 91.163077 
L 176.854502 91.163077 
L 176.854502 90.762878 
L 177.33993 90.762878 
L 177.33993 90.36268 
L 177.582645 90.36268 
L 177.582645 90.062531 
L 178.553502 89.962481 
L 178.553502 89.762382 
L 178.796216 89.762382 
L 178.796216 88.561787 
L 179.524358 88.461737 
L 179.524358 88.161588 
L 179.767073 88.161588 
L 179.767073 87.161092 
L 180.495215 87.061042 
L 180.495215 86.360695 
L 180.73793 86.360695 
L 180.73793 85.760397 
L 181.223358 85.660347 
L 181.223358 85.560298 
L 181.708786 85.460248 
L 181.708786 85.360199 
L 181.951501 85.360199 
L 181.951501 84.96 
L 182.679643 84.85995 
L 182.679643 84.259653 
L 182.922358 84.259653 
L 182.922358 83.959504 
L 183.407786 83.859454 
L 183.407786 83.759404 
L 184.621357 83.659355 
L 184.621357 83.559305 
L 185.592214 83.459256 
L 185.592214 83.359206 
L 185.834928 83.359206 
L 185.834928 82.758908 
L 186.805785 82.758908 
L 186.805785 82.458759 
L 187.291214 82.35871 
L 187.291214 82.15861 
L 188.504785 82.058561 
L 188.504785 81.658362 
L 188.990213 81.558313 
L 188.990213 81.258164 
L 189.232927 81.258164 
L 189.232927 81.058065 
L 189.96107 80.958015 
L 189.96107 80.557816 
L 190.446498 80.457767 
L 190.446498 80.257667 
L 190.931927 80.257667 
L 190.931927 80.057568 
L 191.417355 79.957519 
L 191.417355 79.857469 
L 192.145498 79.757419 
L 192.145498 79.65737 
L 192.630926 79.65737 
L 192.630926 79.357221 
L 193.116355 79.257171 
L 193.116355 78.957022 
L 193.844498 78.856973 
L 193.844498 78.556824 
L 194.57264 78.456774 
L 194.57264 78.356725 
L 195.058069 78.356725 
L 195.058069 78.056576 
L 196.028926 77.956526 
L 196.028926 77.856476 
L 196.27164 77.856476 
L 196.27164 77.656377 
L 196.514354 77.656377 
L 196.514354 77.056079 
L 196.999783 77.056079 
L 196.999783 76.85598 
L 197.242497 76.85598 
L 197.242497 76.555831 
L 197.727925 76.555831 
L 197.727925 76.055583 
L 197.970639 76.055583 
L 197.970639 75.755434 
L 198.941496 75.655385 
L 198.941496 75.555335 
L 199.426925 75.455285 
L 199.426925 75.055087 
L 200.397782 74.955037 
L 200.397782 74.854988 
L 200.88321 74.854988 
L 200.88321 74.654888 
L 201.611353 74.654888 
L 201.611353 74.354739 
L 202.824924 74.25469 
L 202.824924 74.15464 
L 203.067638 74.15464 
L 203.067638 73.954541 
L 203.795781 73.954541 
L 203.795781 73.654392 
L 204.038495 73.654392 
L 204.038495 73.254194 
L 204.523923 73.154144 
L 204.523923 73.054094 
L 205.252066 72.954045 
L 205.252066 72.853995 
L 207.19378 72.753945 
L 207.19378 72.653896 
L 207.436494 72.653896 
L 207.436494 72.453797 
L 207.679208 72.453797 
L 207.679208 72.153648 
L 208.164637 72.153648 
L 208.164637 71.753449 
L 208.650065 71.753449 
L 208.650065 71.4533 
L 208.892779 71.4533 
L 208.892779 70.552854 
L 209.135494 70.552854 
L 209.135494 70.252705 
L 209.863636 70.252705 
L 209.863636 70.052605 
L 210.106351 70.052605 
L 210.106351 69.852506 
L 212.290779 69.752457 
L 212.290779 69.652407 
L 213.50435 69.552357 
L 213.50435 69.452308 
L 213.989778 69.352258 
L 213.989778 68.85201 
L 214.232492 68.85201 
L 214.232492 68.351762 
L 214.960635 68.351762 
L 214.960635 67.651414 
L 215.203349 67.651414 
L 215.203349 67.451315 
L 215.688778 67.451315 
L 215.688778 67.051117 
L 215.931492 67.051117 
L 215.931492 66.851017 
L 216.174206 66.851017 
L 216.174206 66.450819 
L 216.902349 66.450819 
L 216.902349 66.05062 
L 218.844063 66.05062 
L 218.844063 65.750471 
L 219.329491 65.650422 
L 219.329491 65.250223 
L 220.543062 65.250223 
L 220.543062 65.050124 
L 221.513919 65.050124 
L 221.513919 64.549876 
L 221.999348 64.549876 
L 221.999348 64.349777 
L 222.484776 64.349777 
L 222.484776 64.149677 
L 223.455633 64.049628 
L 223.455633 63.949578 
L 223.698347 63.949578 
L 223.698347 63.649429 
L 224.42649 63.54938 
L 224.42649 63.44933 
L 225.154632 63.34928 
L 225.154632 63.249231 
L 225.397347 63.249231 
L 225.397347 62.648933 
L 226.368204 62.548883 
L 226.368204 62.248734 
L 227.33906 62.248734 
L 227.33906 62.048635 
L 227.581775 62.048635 
L 227.581775 61.848536 
L 228.552632 61.748486 
L 228.552632 61.548387 
L 229.523488 61.448337 
L 229.523488 61.348288 
L 229.766203 61.348288 
L 229.766203 61.048139 
L 230.979774 60.948089 
L 230.979774 60.447841 
L 231.222488 60.447841 
L 231.222488 60.147692 
L 231.707916 60.147692 
L 231.707916 59.947593 
L 234.620487 59.847543 
L 234.620487 59.747494 
L 236.562201 59.647444 
L 236.562201 59.247246 
L 237.290344 59.147196 
L 237.290344 58.847047 
L 238.746629 58.746998 
L 238.746629 58.646948 
L 239.474772 58.646948 
L 239.474772 58.446849 
L 239.717486 58.446849 
L 239.717486 58.1467 
L 240.931057 58.1467 
L 240.931057 57.846551 
L 241.416485 57.846551 
L 241.416485 57.646452 
L 241.901914 57.646452 
L 241.901914 57.446352 
L 242.872771 57.346303 
L 242.872771 56.746005 
L 243.600913 56.746005 
L 243.600913 56.445856 
L 244.57177 56.345806 
L 244.57177 56.145707 
L 246.028056 56.045658 
L 246.028056 55.945608 
L 246.513484 55.945608 
L 246.513484 55.745509 
L 246.998913 55.745509 
L 246.998913 55.545409 
L 247.484341 55.545409 
L 247.484341 55.34531 
L 248.697912 55.34531 
L 248.697912 55.145211 
L 250.154197 55.045161 
L 250.154197 54.845062 
L 251.610483 54.745012 
L 251.610483 54.244764 
L 252.095911 54.244764 
L 252.095911 54.044665 
L 252.58134 54.044665 
L 252.58134 53.844566 
L 253.066768 53.744516 
L 253.066768 53.644467 
L 253.794911 53.644467 
L 253.794911 53.244268 
L 254.523054 53.244268 
L 254.523054 53.044169 
L 255.008482 52.944119 
L 255.008482 52.844069 
L 255.736625 52.74402 
L 255.736625 52.443871 
L 256.950196 52.343821 
L 256.950196 52.243772 
L 258.163767 52.143722 
L 258.163767 52.043672 
L 261.80448 51.943623 
L 261.80448 51.843573 
L 263.018051 51.743524 
L 263.018051 51.643474 
L 264.231622 51.543424 
L 264.231622 51.243275 
L 265.687908 51.143226 
L 265.687908 51.043176 
L 267.144193 50.943127 
L 267.144193 50.843077 
L 268.843193 50.743027 
L 268.843193 50.642978 
L 271.027621 50.542928 
L 271.027621 50.442878 
L 272.483906 50.342829 
L 272.483906 50.242779 
L 273.697477 50.14273 
L 273.697477 50.04268 
L 274.42562 49.94263 
L 274.42562 49.842581 
L 274.668334 49.842581 
L 274.668334 49.642481 
L 275.153763 49.542432 
L 275.153763 49.442382 
L 275.639191 49.442382 
L 275.639191 48.541935 
L 276.367334 48.541935 
L 276.367334 48.341836 
L 277.338191 48.241787 
L 277.338191 48.141737 
L 277.823619 48.141737 
L 277.823619 47.941638 
L 279.522619 47.841588 
L 279.522619 47.541439 
L 280.978904 47.541439 
L 280.978904 47.141241 
L 282.435189 47.141241 
L 282.435189 46.941141 
L 283.891475 46.841092 
L 283.891475 46.741042 
L 285.833188 46.741042 
L 285.833188 46.540943 
L 287.774902 46.440893 
L 287.774902 46.240794 
L 288.745759 46.140744 
L 288.745759 46.040695 
L 289.716616 45.940645 
L 289.716616 45.840596 
L 292.386472 45.740546 
L 292.386472 45.640496 
L 294.5709 45.540447 
L 294.5709 45.440397 
L 295.299043 45.440397 
L 295.299043 45.240298 
L 299.910613 45.140248 
L 299.910613 45.040199 
L 301.609613 44.940149 
L 301.609613 44.840099 
L 309.619182 44.74005 
L 309.619182 44.64 
L 311.318182 44.64 
L 311.318182 44.64 
" style="fill:none;stroke:#ff7f0e;stroke-linecap:square;stroke-width:1.5;"/>
   </g>
   <g id="line2d_15">
    <path clip-path="url(#p09403eafab)" d="M 57.681818 246.24 
L 57.681818 243.262785 
L 57.801911 243.262785 
L 57.801911 243.050127 
L 57.922004 243.050127 
L 57.922004 241.136203 
L 58.042097 241.136203 
L 58.042097 240.28557 
L 58.16219 240.28557 
L 58.16219 239.647595 
L 58.282283 239.647595 
L 58.282283 238.371646 
L 58.402376 238.371646 
L 58.402376 236.883038 
L 58.522469 236.883038 
L 58.522469 236.457722 
L 58.642562 236.457722 
L 58.642562 235.819747 
L 58.882748 235.819747 
L 58.882748 235.181772 
L 59.002841 235.181772 
L 59.002841 234.756456 
L 59.122934 234.756456 
L 59.122934 231.353924 
L 59.243027 231.353924 
L 59.243027 230.928608 
L 59.36312 230.928608 
L 59.36312 230.077975 
L 59.483213 230.077975 
L 59.483213 229.44 
L 59.603306 229.44 
L 59.603306 228.802025 
L 59.723399 228.802025 
L 59.723399 228.164051 
L 59.843492 228.164051 
L 59.843492 225.82481 
L 59.963585 225.82481 
L 59.963585 224.761519 
L 60.203771 224.761519 
L 60.203771 224.336203 
L 60.323864 224.336203 
L 60.323864 222.847595 
L 60.443957 222.847595 
L 60.443957 222.422278 
L 60.56405 222.422278 
L 60.56405 221.146329 
L 60.684143 221.146329 
L 60.684143 219.87038 
L 60.804236 219.87038 
L 60.804236 219.445063 
L 61.044421 219.445063 
L 61.044421 219.232405 
L 61.164514 219.232405 
L 61.164514 218.807089 
L 61.284607 218.807089 
L 61.284607 217.105823 
L 61.4047 217.105823 
L 61.4047 215.617215 
L 61.524793 215.617215 
L 61.524793 215.191899 
L 61.885072 215.191899 
L 61.885072 214.766582 
L 62.125258 214.766582 
L 62.125258 214.341266 
L 62.245351 214.341266 
L 62.245351 214.128608 
L 62.365444 214.128608 
L 62.365444 213.915949 
L 62.60563 213.915949 
L 62.60563 213.703291 
L 62.725723 213.703291 
L 62.725723 213.065316 
L 63.086002 213.065316 
L 63.086002 212.852658 
L 63.326188 212.852658 
L 63.326188 212.64 
L 63.446281 212.64 
L 63.446281 211.576709 
L 63.566374 211.576709 
L 63.566374 211.151392 
L 63.80656 211.151392 
L 63.80656 210.513418 
L 64.767304 210.513418 
L 64.767304 210.088101 
L 64.887397 210.088101 
L 64.887397 208.386835 
L 65.00749 208.386835 
L 65.00749 207.748861 
L 65.127583 207.748861 
L 65.127583 207.323544 
L 65.367769 207.323544 
L 65.367769 206.68557 
L 65.728048 206.68557 
L 65.728048 206.472911 
L 66.328512 206.472911 
L 66.328512 206.260253 
L 66.448605 206.260253 
L 66.448605 205.834937 
L 66.568698 205.834937 
L 66.568698 204.771646 
L 66.808884 204.771646 
L 66.808884 203.921013 
L 66.928977 203.921013 
L 66.928977 202.857722 
L 67.04907 202.857722 
L 67.04907 202.645063 
L 67.289256 202.645063 
L 67.289256 202.219747 
L 67.529442 202.219747 
L 67.529442 202.007089 
L 67.649535 202.007089 
L 67.649535 201.581772 
L 68.25 201.581772 
L 68.25 201.156456 
L 68.490186 201.156456 
L 68.490186 200.731139 
L 68.730372 200.731139 
L 68.730372 199.45519 
L 68.850465 199.45519 
L 68.850465 199.242532 
L 69.090651 199.242532 
L 69.090651 198.179241 
L 69.210744 198.179241 
L 69.210744 197.753924 
L 69.330837 197.753924 
L 69.330837 196.903291 
L 69.45093 196.903291 
L 69.45093 196.477975 
L 69.571023 196.477975 
L 69.571023 195.414684 
L 69.811209 195.414684 
L 69.811209 194.564051 
L 70.051395 194.564051 
L 70.051395 194.351392 
L 70.171488 194.351392 
L 70.171488 194.138734 
L 70.291581 194.138734 
L 70.291581 193.713418 
L 70.531767 193.713418 
L 70.531767 193.500759 
L 70.771952 193.500759 
L 70.771952 192.650127 
L 70.892045 192.650127 
L 70.892045 192.012152 
L 71.012138 192.012152 
L 71.012138 191.799494 
L 71.132231 191.799494 
L 71.132231 191.374177 
L 71.252324 191.374177 
L 71.252324 190.948861 
L 71.49251 190.948861 
L 71.49251 190.098228 
L 71.612603 190.098228 
L 71.612603 189.672911 
L 71.732696 189.672911 
L 71.732696 189.247595 
L 71.852789 189.247595 
L 71.852789 189.034937 
L 72.092975 189.034937 
L 72.092975 188.396962 
L 72.453254 188.396962 
L 72.453254 188.184304 
L 72.813533 188.184304 
L 72.813533 187.546329 
L 72.933626 187.546329 
L 72.933626 186.483038 
L 73.293905 186.483038 
L 73.293905 186.057722 
L 73.413998 186.057722 
L 73.413998 185.845063 
L 73.534091 185.845063 
L 73.534091 185.632405 
L 73.89437 185.632405 
L 73.89437 184.99443 
L 74.254649 184.99443 
L 74.254649 184.781772 
L 74.374742 184.781772 
L 74.374742 184.356456 
L 74.614928 184.356456 
L 74.614928 184.143797 
L 75.335486 184.143797 
L 75.335486 183.931139 
L 75.455579 183.931139 
L 75.455579 183.505823 
L 75.575671 183.505823 
L 75.575671 182.867848 
L 75.695764 182.867848 
L 75.695764 181.804557 
L 76.656508 181.804557 
L 76.656508 181.591899 
L 76.776601 181.591899 
L 76.776601 181.379241 
L 77.377066 181.379241 
L 77.377066 180.741266 
L 77.617252 180.741266 
L 77.617252 180.528608 
L 77.737345 180.528608 
L 77.737345 180.315949 
L 77.857438 180.315949 
L 77.857438 179.890633 
L 78.097624 179.890633 
L 78.097624 179.465316 
L 78.217717 179.465316 
L 78.217717 179.04 
L 78.577996 179.04 
L 78.577996 178.827342 
L 78.698089 178.827342 
L 78.698089 178.614684 
L 78.818182 178.614684 
L 78.818182 178.402025 
L 78.938275 178.402025 
L 78.938275 178.189367 
L 79.058368 178.189367 
L 79.058368 177.976709 
L 79.298554 177.976709 
L 79.298554 177.764051 
L 79.778926 177.764051 
L 79.778926 177.551392 
L 79.899019 177.551392 
L 79.899019 176.700759 
L 80.139205 176.700759 
L 80.139205 176.488101 
L 80.739669 176.488101 
L 80.739669 176.062785 
L 81.099948 176.062785 
L 81.099948 174.574177 
L 81.220041 174.574177 
L 81.220041 174.361519 
L 81.340134 174.361519 
L 81.340134 174.148861 
L 81.460227 174.148861 
L 81.460227 173.936203 
L 81.58032 173.936203 
L 81.58032 173.723544 
L 81.940599 173.723544 
L 81.940599 173.510886 
L 82.180785 173.510886 
L 82.180785 173.08557 
L 82.300878 173.08557 
L 82.300878 172.660253 
L 82.661157 172.660253 
L 82.661157 172.022278 
L 83.381715 172.022278 
L 83.381715 171.80962 
L 83.741994 171.80962 
L 83.741994 171.596962 
L 84.102273 171.596962 
L 84.102273 171.171646 
L 84.462552 171.171646 
L 84.462552 170.533671 
L 84.702738 170.533671 
L 84.702738 169.683038 
L 84.822831 169.683038 
L 84.822831 169.045063 
L 85.303202 169.045063 
L 85.303202 168.832405 
L 85.903667 168.832405 
L 85.903667 168.407089 
L 86.143853 168.407089 
L 86.143853 168.19443 
L 86.384039 168.19443 
L 86.384039 167.981772 
L 86.504132 167.981772 
L 86.504132 167.769114 
L 86.864411 167.769114 
L 86.864411 167.556456 
L 87.104597 167.556456 
L 87.104597 167.343797 
L 87.344783 167.343797 
L 87.344783 167.131139 
L 87.584969 167.131139 
L 87.584969 166.918481 
L 87.705062 166.918481 
L 87.705062 166.705823 
L 88.185434 166.705823 
L 88.185434 166.493165 
L 88.305527 166.493165 
L 88.305527 166.280506 
L 88.665806 166.280506 
L 88.665806 165.85519 
L 89.146178 165.85519 
L 89.146178 165.429873 
L 91.427944 165.429873 
L 91.427944 165.217215 
L 91.66813 165.217215 
L 91.66813 165.004557 
L 91.788223 165.004557 
L 91.788223 164.579241 
L 91.908316 164.579241 
L 91.908316 164.366582 
L 92.148502 164.366582 
L 92.148502 164.153924 
L 92.388688 164.153924 
L 92.388688 163.941266 
L 92.628874 163.941266 
L 92.628874 163.515949 
L 92.86906 163.515949 
L 92.86906 163.303291 
L 93.469525 163.303291 
L 93.469525 163.090633 
L 94.190083 163.090633 
L 94.190083 162.877975 
L 94.670455 162.877975 
L 94.670455 162.665316 
L 94.91064 162.665316 
L 94.91064 162.452658 
L 95.030733 162.452658 
L 95.030733 162.027342 
L 95.270919 162.027342 
L 95.270919 161.814684 
L 95.871384 161.814684 
L 95.871384 161.389367 
L 95.991477 161.389367 
L 95.991477 160.538734 
L 96.11157 160.538734 
L 96.11157 160.326076 
L 96.231663 160.326076 
L 96.231663 159.900759 
L 96.471849 159.900759 
L 96.471849 159.475443 
L 96.832128 159.475443 
L 96.832128 159.050127 
L 96.952221 159.050127 
L 96.952221 158.837468 
L 97.072314 158.837468 
L 97.072314 158.412152 
L 97.3125 158.412152 
L 97.3125 158.199494 
L 97.432593 158.199494 
L 97.432593 157.561519 
L 97.672779 157.561519 
L 97.672779 157.348861 
L 97.792872 157.348861 
L 97.792872 156.710886 
L 98.033058 156.710886 
L 98.033058 156.498228 
L 98.153151 156.498228 
L 98.153151 156.28557 
L 98.273244 156.28557 
L 98.273244 156.072911 
L 98.51343 156.072911 
L 98.51343 155.860253 
L 98.993802 155.860253 
L 98.993802 155.647595 
L 99.354081 155.647595 
L 99.354081 155.222278 
L 99.71436 155.222278 
L 99.71436 155.00962 
L 100.074638 155.00962 
L 100.074638 154.584304 
L 100.194731 154.584304 
L 100.194731 154.158987 
L 100.314824 154.158987 
L 100.314824 153.946329 
L 100.55501 153.946329 
L 100.55501 153.733671 
L 100.675103 153.733671 
L 100.675103 153.308354 
L 101.515754 153.308354 
L 101.515754 153.095696 
L 101.635847 153.095696 
L 101.635847 152.67038 
L 101.75594 152.67038 
L 101.75594 152.245063 
L 101.996126 152.245063 
L 101.996126 151.607089 
L 102.236312 151.607089 
L 102.236312 151.39443 
L 102.596591 151.39443 
L 102.596591 151.181772 
L 102.716684 151.181772 
L 102.716684 150.969114 
L 102.95687 150.969114 
L 102.95687 150.756456 
L 103.557335 150.756456 
L 103.557335 150.543797 
L 104.037707 150.543797 
L 104.037707 150.331139 
L 104.1578 150.331139 
L 104.1578 150.118481 
L 104.518079 150.118481 
L 104.518079 149.693165 
L 104.758264 149.693165 
L 104.758264 149.05519 
L 105.598915 149.05519 
L 105.598915 148.842532 
L 106.439566 148.842532 
L 106.439566 148.417215 
L 106.559659 148.417215 
L 106.559659 148.204557 
L 106.679752 148.204557 
L 106.679752 147.991899 
L 106.919938 147.991899 
L 106.919938 146.928608 
L 107.280217 146.928608 
L 107.280217 146.715949 
L 108.361054 146.715949 
L 108.361054 146.077975 
L 108.481147 146.077975 
L 108.481147 145.865316 
L 108.60124 145.865316 
L 108.60124 145.652658 
L 108.721333 145.652658 
L 108.721333 145.227342 
L 108.841426 145.227342 
L 108.841426 144.802025 
L 109.321798 144.802025 
L 109.321798 144.376709 
L 109.802169 144.376709 
L 109.802169 144.164051 
L 110.162448 144.164051 
L 110.162448 143.738734 
L 111.003099 143.738734 
L 111.003099 143.313418 
L 111.723657 143.313418 
L 111.723657 143.100759 
L 111.84375 143.100759 
L 111.84375 142.888101 
L 111.963843 142.888101 
L 111.963843 142.675443 
L 112.204029 142.675443 
L 112.204029 142.462785 
L 112.324122 142.462785 
L 112.324122 142.250127 
L 112.684401 142.250127 
L 112.684401 142.037468 
L 112.804494 142.037468 
L 112.804494 141.82481 
L 113.645145 141.82481 
L 113.645145 140.974177 
L 113.885331 140.974177 
L 113.885331 140.761519 
L 114.005424 140.761519 
L 114.005424 140.548861 
L 114.846074 140.548861 
L 114.846074 140.123544 
L 115.206353 140.123544 
L 115.206353 139.698228 
L 115.326446 139.698228 
L 115.326446 139.48557 
L 115.446539 139.48557 
L 115.446539 139.060253 
L 115.806818 139.060253 
L 115.806818 138.634937 
L 116.047004 138.634937 
L 116.047004 138.422278 
L 116.167097 138.422278 
L 116.167097 138.20962 
L 116.407283 138.20962 
L 116.407283 137.358987 
L 116.527376 137.358987 
L 116.527376 137.146329 
L 116.767562 137.146329 
L 116.767562 136.933671 
L 117.127841 136.933671 
L 117.127841 135.445063 
L 117.48812 135.445063 
L 117.48812 135.232405 
L 117.608213 135.232405 
L 117.608213 135.019747 
L 118.568957 135.019747 
L 118.568957 134.59443 
L 118.68905 134.59443 
L 118.68905 133.743797 
L 118.809143 133.743797 
L 118.809143 133.531139 
L 119.049329 133.531139 
L 119.049329 133.318481 
L 119.649793 133.318481 
L 119.649793 132.893165 
L 120.010072 132.893165 
L 120.010072 132.680506 
L 120.130165 132.680506 
L 120.130165 132.25519 
L 120.370351 132.25519 
L 120.370351 132.042532 
L 120.610537 132.042532 
L 120.610537 131.829873 
L 120.73063 131.829873 
L 120.73063 131.617215 
L 120.970816 131.617215 
L 120.970816 131.404557 
L 121.331095 131.404557 
L 121.331095 131.191899 
L 121.451188 131.191899 
L 121.451188 130.979241 
L 121.691374 130.979241 
L 121.691374 130.766582 
L 121.811467 130.766582 
L 121.811467 130.553924 
L 121.93156 130.553924 
L 121.93156 130.341266 
L 122.051653 130.341266 
L 122.051653 130.128608 
L 122.532025 130.128608 
L 122.532025 129.915949 
L 122.772211 129.915949 
L 122.772211 129.703291 
L 123.13249 129.703291 
L 123.13249 129.065316 
L 123.252583 129.065316 
L 123.252583 128.64 
L 123.492769 128.64 
L 123.492769 128.427342 
L 123.612862 128.427342 
L 123.612862 127.576709 
L 123.97314 127.576709 
L 123.97314 126.726076 
L 124.213326 126.726076 
L 124.213326 126.088101 
L 124.453512 126.088101 
L 124.453512 125.875443 
L 124.573605 125.875443 
L 124.573605 125.662785 
L 124.693698 125.662785 
L 124.693698 125.237468 
L 125.294163 125.237468 
L 125.294163 125.02481 
L 125.534349 125.02481 
L 125.534349 124.386835 
L 125.774535 124.386835 
L 125.774535 124.174177 
L 126.134814 124.174177 
L 126.134814 123.961519 
L 126.375 123.961519 
L 126.375 123.748861 
L 126.495093 123.748861 
L 126.495093 123.536203 
L 127.335744 123.536203 
L 127.335744 123.323544 
L 127.936209 123.323544 
L 127.936209 123.110886 
L 128.536674 123.110886 
L 128.536674 122.898228 
L 129.257231 122.898228 
L 129.257231 122.68557 
L 129.377324 122.68557 
L 129.377324 122.472911 
L 130.097882 122.472911 
L 130.097882 122.260253 
L 130.217975 122.260253 
L 130.217975 122.047595 
L 130.698347 122.047595 
L 130.698347 121.834937 
L 130.938533 121.834937 
L 130.938533 121.622278 
L 131.058626 121.622278 
L 131.058626 121.196962 
L 132.01937 121.196962 
L 132.01937 120.984304 
L 132.379649 120.984304 
L 132.379649 120.558987 
L 132.619835 120.558987 
L 132.619835 120.346329 
L 132.980114 120.346329 
L 132.980114 120.133671 
L 133.340393 120.133671 
L 133.340393 119.708354 
L 133.820764 119.708354 
L 133.820764 119.495696 
L 134.661415 119.495696 
L 134.661415 119.283038 
L 134.781508 119.283038 
L 134.781508 118.857722 
L 135.021694 118.857722 
L 135.021694 118.645063 
L 135.622159 118.645063 
L 135.622159 118.432405 
L 136.102531 118.432405 
L 136.102531 118.219747 
L 136.582903 118.219747 
L 136.582903 118.007089 
L 136.702996 118.007089 
L 136.702996 117.79443 
L 137.303461 117.79443 
L 137.303461 117.156456 
L 137.66374 117.156456 
L 137.66374 116.943797 
L 137.903926 116.943797 
L 137.903926 116.518481 
L 138.024019 116.518481 
L 138.024019 116.305823 
L 138.50439 116.305823 
L 138.50439 116.093165 
L 139.104855 116.093165 
L 139.104855 115.880506 
L 139.224948 115.880506 
L 139.224948 115.667848 
L 139.345041 115.667848 
L 139.345041 115.45519 
L 139.465134 115.45519 
L 139.465134 115.242532 
L 139.945506 115.242532 
L 139.945506 114.604557 
L 140.185692 114.604557 
L 140.185692 114.391899 
L 140.666064 114.391899 
L 140.666064 114.179241 
L 140.786157 114.179241 
L 140.786157 113.966582 
L 141.746901 113.966582 
L 141.746901 113.753924 
L 142.587552 113.753924 
L 142.587552 113.328608 
L 142.947831 113.328608 
L 142.947831 112.903291 
L 143.428202 112.903291 
L 143.428202 112.690633 
L 144.388946 112.690633 
L 144.388946 112.477975 
L 144.509039 112.477975 
L 144.509039 111.84 
L 144.629132 111.84 
L 144.629132 111.627342 
L 144.869318 111.627342 
L 144.869318 111.202025 
L 144.989411 111.202025 
L 144.989411 110.989367 
L 145.109504 110.989367 
L 145.109504 110.776709 
L 145.469783 110.776709 
L 145.469783 110.564051 
L 145.709969 110.564051 
L 145.709969 110.351392 
L 145.830062 110.351392 
L 145.830062 110.138734 
L 146.070248 110.138734 
L 146.070248 109.926076 
L 146.670713 109.926076 
L 146.670713 109.713418 
L 147.151085 109.713418 
L 147.151085 109.500759 
L 147.391271 109.500759 
L 147.391271 109.288101 
L 147.631457 109.288101 
L 147.631457 109.075443 
L 148.352014 109.075443 
L 148.352014 108.862785 
L 149.552944 108.862785 
L 149.552944 108.437468 
L 149.913223 108.437468 
L 149.913223 108.22481 
L 150.273502 108.22481 
L 150.273502 107.374177 
L 150.393595 107.374177 
L 150.393595 107.161519 
L 151.114153 107.161519 
L 151.114153 106.948861 
L 151.834711 106.948861 
L 151.834711 106.736203 
L 152.19499 106.736203 
L 152.19499 106.310886 
L 152.435176 106.310886 
L 152.435176 106.098228 
L 153.395919 106.098228 
L 153.395919 105.88557 
L 153.756198 105.88557 
L 153.756198 105.672911 
L 153.996384 105.672911 
L 153.996384 105.460253 
L 154.116477 105.460253 
L 154.116477 105.247595 
L 155.797779 105.247595 
L 155.797779 104.822278 
L 155.917872 104.822278 
L 155.917872 104.60962 
L 156.037965 104.60962 
L 156.037965 103.971646 
L 156.398244 103.971646 
L 156.398244 103.758987 
L 156.878616 103.758987 
L 156.878616 103.546329 
L 157.118802 103.546329 
L 157.118802 103.333671 
L 157.479081 103.333671 
L 157.479081 103.121013 
L 157.959452 103.121013 
L 157.959452 102.908354 
L 158.319731 102.908354 
L 158.319731 102.695696 
L 158.559917 102.695696 
L 158.559917 102.483038 
L 158.68001 102.483038 
L 158.68001 101.845063 
L 159.040289 101.845063 
L 159.040289 101.632405 
L 159.520661 101.632405 
L 159.520661 101.207089 
L 159.640754 101.207089 
L 159.640754 100.143797 
L 160.001033 100.143797 
L 160.001033 99.505823 
L 160.121126 99.505823 
L 160.121126 99.080506 
L 160.481405 99.080506 
L 160.481405 98.867848 
L 160.841684 98.867848 
L 160.841684 98.65519 
L 161.201963 98.65519 
L 161.201963 98.442532 
L 161.322056 98.442532 
L 161.322056 98.229873 
L 161.442149 98.229873 
L 161.442149 98.017215 
L 161.922521 98.017215 
L 161.922521 97.591899 
L 162.2828 97.591899 
L 162.2828 97.379241 
L 162.402893 97.379241 
L 162.402893 97.166582 
L 162.522986 97.166582 
L 162.522986 96.953924 
L 162.643079 96.953924 
L 162.643079 96.741266 
L 163.363636 96.741266 
L 163.363636 96.315949 
L 163.844008 96.315949 
L 163.844008 96.103291 
L 164.684659 96.103291 
L 164.684659 95.890633 
L 165.044938 95.890633 
L 165.044938 95.677975 
L 165.285124 95.677975 
L 165.285124 95.465316 
L 165.405217 95.465316 
L 165.405217 95.252658 
L 165.645403 95.252658 
L 165.645403 94.827342 
L 166.005682 94.827342 
L 166.005682 94.402025 
L 166.606147 94.402025 
L 166.606147 94.189367 
L 166.846333 94.189367 
L 166.846333 93.976709 
L 166.966426 93.976709 
L 166.966426 93.764051 
L 167.206612 93.764051 
L 167.206612 93.551392 
L 167.56689 93.551392 
L 167.56689 93.338734 
L 167.927169 93.338734 
L 167.927169 93.126076 
L 168.167355 93.126076 
L 168.167355 92.913418 
L 169.128099 92.913418 
L 169.128099 92.488101 
L 169.96875 92.488101 
L 169.96875 92.062785 
L 170.449122 92.062785 
L 170.449122 91.850127 
L 170.809401 91.850127 
L 170.809401 91.637468 
L 171.049587 91.637468 
L 171.049587 91.42481 
L 171.16968 91.42481 
L 171.16968 91.212152 
L 171.289773 91.212152 
L 171.289773 90.786835 
L 171.409866 90.786835 
L 171.409866 90.574177 
L 171.529959 90.574177 
L 171.529959 90.361519 
L 172.490702 90.361519 
L 172.490702 90.148861 
L 173.091167 90.148861 
L 173.091167 89.936203 
L 173.451446 89.936203 
L 173.451446 89.510886 
L 174.051911 89.510886 
L 174.051911 89.298228 
L 175.372934 89.298228 
L 175.372934 89.08557 
L 176.333678 89.08557 
L 176.333678 88.872911 
L 176.693957 88.872911 
L 176.693957 88.660253 
L 177.414514 88.660253 
L 177.414514 88.447595 
L 178.014979 88.447595 
L 178.014979 88.234937 
L 178.135072 88.234937 
L 178.135072 88.022278 
L 178.615444 88.022278 
L 178.615444 87.80962 
L 179.456095 87.80962 
L 179.456095 87.596962 
L 179.576188 87.596962 
L 179.576188 87.384304 
L 180.05656 87.384304 
L 180.05656 86.958987 
L 180.296746 86.958987 
L 180.296746 86.746329 
L 180.416839 86.746329 
L 180.416839 86.533671 
L 180.777118 86.533671 
L 180.777118 86.321013 
L 181.137397 86.321013 
L 181.137397 86.108354 
L 182.09814 86.108354 
L 182.09814 85.895696 
L 183.29907 85.895696 
L 183.29907 85.47038 
L 184.620093 85.47038 
L 184.620093 85.257722 
L 185.100465 85.257722 
L 185.100465 85.045063 
L 185.941116 85.045063 
L 185.941116 84.832405 
L 187.74251 84.832405 
L 187.74251 84.619747 
L 188.222882 84.619747 
L 188.222882 84.19443 
L 188.463068 84.19443 
L 188.463068 83.981772 
L 189.663998 83.981772 
L 189.663998 83.769114 
L 189.784091 83.769114 
L 189.784091 83.556456 
L 190.264463 83.556456 
L 190.264463 83.131139 
L 190.504649 83.131139 
L 190.504649 82.493165 
L 190.864928 82.493165 
L 190.864928 82.280506 
L 191.105114 82.280506 
L 191.105114 81.85519 
L 191.225207 81.85519 
L 191.225207 81.642532 
L 191.465393 81.642532 
L 191.465393 81.429873 
L 191.585486 81.429873 
L 191.585486 80.791899 
L 191.825671 80.791899 
L 191.825671 80.366582 
L 192.065857 80.366582 
L 192.065857 79.941266 
L 192.426136 79.941266 
L 192.426136 79.728608 
L 194.107438 79.728608 
L 194.107438 79.515949 
L 194.227531 79.515949 
L 194.227531 79.303291 
L 194.707903 79.303291 
L 194.707903 79.090633 
L 194.948089 79.090633 
L 194.948089 78.877975 
L 195.188275 78.877975 
L 195.188275 78.665316 
L 195.428461 78.665316 
L 195.428461 78.452658 
L 196.149019 78.452658 
L 196.149019 78.24 
L 196.749483 78.24 
L 196.749483 78.027342 
L 197.349948 78.027342 
L 197.349948 77.602025 
L 198.190599 77.602025 
L 198.190599 77.176709 
L 199.631715 77.176709 
L 199.631715 76.964051 
L 200.23218 76.964051 
L 200.23218 76.751392 
L 200.832645 76.751392 
L 200.832645 76.326076 
L 201.192924 76.326076 
L 201.192924 76.113418 
L 201.793388 76.113418 
L 201.793388 75.900759 
L 202.033574 75.900759 
L 202.033574 75.688101 
L 202.634039 75.688101 
L 202.634039 75.475443 
L 203.47469 75.475443 
L 203.47469 75.262785 
L 205.636364 75.262785 
L 205.636364 75.050127 
L 205.87655 75.050127 
L 205.87655 74.62481 
L 206.116736 74.62481 
L 206.116736 74.412152 
L 206.837293 74.412152 
L 206.837293 74.199494 
L 207.197572 74.199494 
L 207.197572 73.986835 
L 208.278409 73.986835 
L 208.278409 73.774177 
L 208.398502 73.774177 
L 208.398502 73.561519 
L 209.11906 73.561519 
L 209.11906 73.348861 
L 209.239153 73.348861 
L 209.239153 72.923544 
L 209.359246 72.923544 
L 209.359246 72.710886 
L 209.479339 72.710886 
L 209.479339 72.498228 
L 211.280733 72.498228 
L 211.280733 72.28557 
L 211.400826 72.28557 
L 211.400826 72.072911 
L 213.082128 72.072911 
L 213.082128 71.647595 
L 213.322314 71.647595 
L 213.322314 71.222278 
L 214.643337 71.222278 
L 214.643337 71.00962 
L 214.883523 71.00962 
L 214.883523 70.371646 
L 215.123709 70.371646 
L 215.123709 70.158987 
L 215.363895 70.158987 
L 215.363895 69.946329 
L 216.444731 69.946329 
L 216.444731 69.733671 
L 216.80501 69.733671 
L 216.80501 69.521013 
L 217.285382 69.521013 
L 217.285382 69.308354 
L 218.366219 69.308354 
L 218.366219 69.095696 
L 219.687242 69.095696 
L 219.687242 68.883038 
L 220.047521 68.883038 
L 220.047521 68.67038 
L 222.44938 68.67038 
L 222.44938 68.457722 
L 222.569473 68.457722 
L 222.569473 68.245063 
L 223.410124 68.245063 
L 223.410124 68.032405 
L 223.65031 68.032405 
L 223.65031 67.819747 
L 224.370868 67.819747 
L 224.370868 67.39443 
L 224.490961 67.39443 
L 224.490961 66.969114 
L 224.971333 66.969114 
L 224.971333 66.756456 
L 225.571798 66.756456 
L 225.571798 66.543797 
L 225.811983 66.543797 
L 225.811983 66.331139 
L 226.052169 66.331139 
L 226.052169 65.905823 
L 227.253099 65.905823 
L 227.253099 65.693165 
L 227.373192 65.693165 
L 227.373192 65.480506 
L 227.493285 65.480506 
L 227.493285 65.267848 
L 227.613378 65.267848 
L 227.613378 65.05519 
L 228.213843 65.05519 
L 228.213843 64.842532 
L 230.375517 64.842532 
L 230.375517 64.629873 
L 232.056818 64.629873 
L 232.056818 64.417215 
L 233.618027 64.417215 
L 233.618027 64.204557 
L 233.73812 64.204557 
L 233.73812 63.991899 
L 234.578771 63.991899 
L 234.578771 63.779241 
L 234.818957 63.779241 
L 234.818957 63.566582 
L 235.659607 63.566582 
L 235.659607 63.353924 
L 236.260072 63.353924 
L 236.260072 63.141266 
L 237.220816 63.141266 
L 237.220816 62.928608 
L 238.18156 62.928608 
L 238.18156 62.290633 
L 238.301653 62.290633 
L 238.301653 62.077975 
L 239.262397 62.077975 
L 239.262397 61.652658 
L 240.463326 61.652658 
L 240.463326 61.44 
L 240.943698 61.44 
L 240.943698 61.227342 
L 241.42407 61.227342 
L 241.42407 61.014684 
L 241.664256 61.014684 
L 241.664256 60.802025 
L 241.784349 60.802025 
L 241.784349 60.589367 
L 242.144628 60.589367 
L 242.144628 60.376709 
L 242.264721 60.376709 
L 242.264721 60.164051 
L 242.384814 60.164051 
L 242.384814 59.951392 
L 242.985279 59.951392 
L 242.985279 59.738734 
L 243.345558 59.738734 
L 243.345558 59.526076 
L 244.066116 59.526076 
L 244.066116 59.313418 
L 244.306302 59.313418 
L 244.306302 59.100759 
L 245.267045 59.100759 
L 245.267045 58.888101 
L 245.507231 58.888101 
L 245.507231 58.675443 
L 245.86751 58.675443 
L 245.86751 58.462785 
L 245.987603 58.462785 
L 245.987603 58.250127 
L 246.347882 58.250127 
L 246.347882 57.82481 
L 248.26937 57.82481 
L 248.26937 57.612152 
L 248.869835 57.612152 
L 248.869835 57.399494 
L 250.431043 57.399494 
L 250.431043 57.186835 
L 250.671229 57.186835 
L 250.671229 56.974177 
L 251.151601 56.974177 
L 251.151601 56.761519 
L 252.832903 56.761519 
L 252.832903 56.548861 
L 253.313275 56.548861 
L 253.313275 56.336203 
L 254.514205 56.336203 
L 254.514205 56.123544 
L 256.916064 56.123544 
L 256.916064 55.910886 
L 257.396436 55.910886 
L 257.396436 55.48557 
L 258.957645 55.48557 
L 258.957645 55.272911 
L 259.317924 55.272911 
L 259.317924 55.060253 
L 259.438017 55.060253 
L 259.438017 54.847595 
L 261.239411 54.847595 
L 261.239411 54.634937 
L 262.680527 54.634937 
L 262.680527 54.422278 
L 264.241736 54.422278 
L 264.241736 54.20962 
L 264.722107 54.20962 
L 264.722107 53.996962 
L 266.163223 53.996962 
L 266.163223 53.784304 
L 266.643595 53.784304 
L 266.643595 53.571646 
L 266.883781 53.571646 
L 266.883781 53.358987 
L 267.484246 53.358987 
L 267.484246 53.146329 
L 269.28564 53.146329 
L 269.28564 52.933671 
L 269.405733 52.933671 
L 269.405733 52.721013 
L 270.846849 52.721013 
L 270.846849 52.295696 
L 271.567407 52.295696 
L 271.567407 52.083038 
L 271.6875 52.083038 
L 271.6875 51.87038 
L 272.528151 51.87038 
L 272.528151 51.657722 
L 273.368802 51.657722 
L 273.368802 51.445063 
L 273.969267 51.445063 
L 273.969267 51.232405 
L 276.13094 51.232405 
L 276.13094 51.019747 
L 276.491219 51.019747 
L 276.491219 50.807089 
L 279.133264 50.807089 
L 279.133264 50.381772 
L 279.733729 50.381772 
L 279.733729 50.169114 
L 280.454287 50.169114 
L 280.454287 49.956456 
L 280.694473 49.956456 
L 280.694473 49.743797 
L 281.054752 49.743797 
L 281.054752 49.318481 
L 281.415031 49.318481 
L 281.415031 49.105823 
L 283.696798 49.105823 
L 283.696798 48.680506 
L 286.579029 48.680506 
L 286.579029 48.467848 
L 286.819215 48.467848 
L 286.819215 48.25519 
L 288.500517 48.25519 
L 288.500517 48.042532 
L 288.980888 48.042532 
L 288.980888 47.829873 
L 289.100981 47.829873 
L 289.100981 47.617215 
L 289.581353 47.617215 
L 289.581353 47.404557 
L 290.061725 47.404557 
L 290.061725 47.191899 
L 290.422004 47.191899 
L 290.422004 46.766582 
L 290.66219 46.766582 
L 290.66219 46.553924 
L 291.622934 46.553924 
L 291.622934 46.341266 
L 292.103306 46.341266 
L 292.103306 46.128608 
L 292.703771 46.128608 
L 292.703771 45.915949 
L 300.029442 45.915949 
L 300.029442 45.703291 
L 300.149535 45.703291 
L 300.149535 45.490633 
L 301.110279 45.490633 
L 301.110279 45.277975 
L 303.99251 45.277975 
L 303.99251 45.065316 
L 308.676136 45.065316 
L 308.676136 44.852658 
L 310.957903 44.852658 
L 310.957903 44.64 
L 311.318182 44.64 
L 311.318182 44.64 
" style="fill:none;stroke:#2ca02c;stroke-linecap:square;stroke-width:1.5;"/>
   </g>
   <g id="patch_3">
    <path d="M 45 256.32 
L 45 34.56 
" style="fill:none;stroke:#000000;stroke-linecap:square;stroke-linejoin:miter;stroke-width:0.8;"/>
   </g>
   <g id="patch_4">
    <path d="M 324 256.32 
L 324 34.56 
" style="fill:none;stroke:#000000;stroke-linecap:square;stroke-linejoin:miter;stroke-width:0.8;"/>
   </g>
   <g id="patch_5">
    <path d="M 45 256.32 
L 324 256.32 
" style="fill:none;stroke:#000000;stroke-linecap:square;stroke-linejoin:miter;stroke-width:0.8;"/>
   </g>
   <g id="patch_6">
    <path d="M 45 34.56 
L 324 34.56 
" style="fill:none;stroke:#000000;stroke-linecap:square;stroke-linejoin:miter;stroke-width:0.8;"/>
   </g>
   <g id="text_15">
    <!-- roc_resnet -->
    <g transform="translate(153.2025 28.56)scale(0.12 -0.12)">
     <defs>
      <path d="M 1959 3097 
Q 1497 3097 1228 2736 
Q 959 2375 959 1747 
Q 959 1119 1226 758 
Q 1494 397 1959 397 
Q 2419 397 2687 759 
Q 2956 1122 2956 1747 
Q 2956 2369 2687 2733 
Q 2419 3097 1959 3097 
z
M 1959 3584 
Q 2709 3584 3137 3096 
Q 3566 2609 3566 1747 
Q 3566 888 3137 398 
Q 2709 -91 1959 -91 
Q 1206 -91 779 398 
Q 353 888 353 1747 
Q 353 2609 779 3096 
Q 1206 3584 1959 3584 
z
" id="DejaVuSans-6f" transform="scale(0.015625)"/>
      <path d="M 3122 3366 
L 3122 2828 
Q 2878 2963 2633 3030 
Q 2388 3097 2138 3097 
Q 1578 3097 1268 2742 
Q 959 2388 959 1747 
Q 959 1106 1268 751 
Q 1578 397 2138 397 
Q 2388 397 2633 464 
Q 2878 531 3122 666 
L 3122 134 
Q 2881 22 2623 -34 
Q 2366 -91 2075 -91 
Q 1284 -91 818 406 
Q 353 903 353 1747 
Q 353 2603 823 3093 
Q 1294 3584 2113 3584 
Q 2378 3584 2631 3529 
Q 2884 3475 3122 3366 
z
" id="DejaVuSans-63" transform="scale(0.015625)"/>
      <path d="M 3263 -1063 
L 3263 -1509 
L -63 -1509 
L -63 -1063 
L 3263 -1063 
z
" id="DejaVuSans-5f" transform="scale(0.015625)"/>
      <path d="M 3597 1894 
L 3597 1613 
L 953 1613 
Q 991 1019 1311 708 
Q 1631 397 2203 397 
Q 2534 397 2845 478 
Q 3156 559 3463 722 
L 3463 178 
Q 3153 47 2828 -22 
Q 2503 -91 2169 -91 
Q 1331 -91 842 396 
Q 353 884 353 1716 
Q 353 2575 817 3079 
Q 1281 3584 2069 3584 
Q 2775 3584 3186 3129 
Q 3597 2675 3597 1894 
z
M 3022 2063 
Q 3016 2534 2758 2815 
Q 2500 3097 2075 3097 
Q 1594 3097 1305 2825 
Q 1016 2553 972 2059 
L 3022 2063 
z
" id="DejaVuSans-65" transform="scale(0.015625)"/>
      <path d="M 2834 3397 
L 2834 2853 
Q 2591 2978 2328 3040 
Q 2066 3103 1784 3103 
Q 1356 3103 1142 2972 
Q 928 2841 928 2578 
Q 928 2378 1081 2264 
Q 1234 2150 1697 2047 
L 1894 2003 
Q 2506 1872 2764 1633 
Q 3022 1394 3022 966 
Q 3022 478 2636 193 
Q 2250 -91 1575 -91 
Q 1294 -91 989 -36 
Q 684 19 347 128 
L 347 722 
Q 666 556 975 473 
Q 1284 391 1588 391 
Q 1994 391 2212 530 
Q 2431 669 2431 922 
Q 2431 1156 2273 1281 
Q 2116 1406 1581 1522 
L 1381 1569 
Q 847 1681 609 1914 
Q 372 2147 372 2553 
Q 372 3047 722 3315 
Q 1072 3584 1716 3584 
Q 2034 3584 2315 3537 
Q 2597 3491 2834 3397 
z
" id="DejaVuSans-73" transform="scale(0.015625)"/>
      <path d="M 3513 2113 
L 3513 0 
L 2938 0 
L 2938 2094 
Q 2938 2591 2744 2837 
Q 2550 3084 2163 3084 
Q 1697 3084 1428 2787 
Q 1159 2491 1159 1978 
L 1159 0 
L 581 0 
L 581 3500 
L 1159 3500 
L 1159 2956 
Q 1366 3272 1645 3428 
Q 1925 3584 2291 3584 
Q 2894 3584 3203 3211 
Q 3513 2838 3513 2113 
z
" id="DejaVuSans-6e" transform="scale(0.015625)"/>
     </defs>
     <use xlink:href="#DejaVuSans-72"/>
     <use x="38.863281" xlink:href="#DejaVuSans-6f"/>
     <use x="100.044922" xlink:href="#DejaVuSans-63"/>
     <use x="155.025391" xlink:href="#DejaVuSans-5f"/>
     <use x="205.025391" xlink:href="#DejaVuSans-72"/>
     <use x="243.888672" xlink:href="#DejaVuSans-65"/>
     <use x="305.412109" xlink:href="#DejaVuSans-73"/>
     <use x="357.511719" xlink:href="#DejaVuSans-6e"/>
     <use x="420.890625" xlink:href="#DejaVuSans-65"/>
     <use x="482.414062" xlink:href="#DejaVuSans-74"/>
    </g>
   </g>
   <g id="legend_1">
    <g id="patch_7">
     <path d="M 52 87.42875 
L 148.501563 87.42875 
Q 150.501563 87.42875 150.501563 85.42875 
L 150.501563 41.56 
Q 150.501563 39.56 148.501563 39.56 
L 52 39.56 
Q 50 39.56 50 41.56 
L 50 85.42875 
Q 50 87.42875 52 87.42875 
z
" style="fill:#ffffff;opacity:0.8;stroke:#cccccc;stroke-linejoin:miter;"/>
    </g>
    <g id="line2d_16">
     <path d="M 54 47.658438 
L 74 47.658438 
" style="fill:none;stroke:#1f77b4;stroke-linecap:square;stroke-width:1.5;"/>
    </g>
    <g id="line2d_17"/>
    <g id="text_16">
     <!-- auc_0: 0.545 -->
     <g transform="translate(82 51.158438)scale(0.1 -0.1)">
      <defs>
       <path d="M 2194 1759 
Q 1497 1759 1228 1600 
Q 959 1441 959 1056 
Q 959 750 1161 570 
Q 1363 391 1709 391 
Q 2188 391 2477 730 
Q 2766 1069 2766 1631 
L 2766 1759 
L 2194 1759 
z
M 3341 1997 
L 3341 0 
L 2766 0 
L 2766 531 
Q 2569 213 2275 61 
Q 1981 -91 1556 -91 
Q 1019 -91 701 211 
Q 384 513 384 1019 
Q 384 1609 779 1909 
Q 1175 2209 1959 2209 
L 2766 2209 
L 2766 2266 
Q 2766 2663 2505 2880 
Q 2244 3097 1772 3097 
Q 1472 3097 1187 3025 
Q 903 2953 641 2809 
L 641 3341 
Q 956 3463 1253 3523 
Q 1550 3584 1831 3584 
Q 2591 3584 2966 3190 
Q 3341 2797 3341 1997 
z
" id="DejaVuSans-61" transform="scale(0.015625)"/>
       <path d="M 544 1381 
L 544 3500 
L 1119 3500 
L 1119 1403 
Q 1119 906 1312 657 
Q 1506 409 1894 409 
Q 2359 409 2629 706 
Q 2900 1003 2900 1516 
L 2900 3500 
L 3475 3500 
L 3475 0 
L 2900 0 
L 2900 538 
Q 2691 219 2414 64 
Q 2138 -91 1772 -91 
Q 1169 -91 856 284 
Q 544 659 544 1381 
z
M 1991 3584 
L 1991 3584 
z
" id="DejaVuSans-75" transform="scale(0.015625)"/>
       <path d="M 750 794 
L 1409 794 
L 1409 0 
L 750 0 
L 750 794 
z
M 750 3309 
L 1409 3309 
L 1409 2516 
L 750 2516 
L 750 3309 
z
" id="DejaVuSans-3a" transform="scale(0.015625)"/>
       <path id="DejaVuSans-20" transform="scale(0.015625)"/>
       <path d="M 691 4666 
L 3169 4666 
L 3169 4134 
L 1269 4134 
L 1269 2991 
Q 1406 3038 1543 3061 
Q 1681 3084 1819 3084 
Q 2600 3084 3056 2656 
Q 3513 2228 3513 1497 
Q 3513 744 3044 326 
Q 2575 -91 1722 -91 
Q 1428 -91 1123 -41 
Q 819 9 494 109 
L 494 744 
Q 775 591 1075 516 
Q 1375 441 1709 441 
Q 2250 441 2565 725 
Q 2881 1009 2881 1497 
Q 2881 1984 2565 2268 
Q 2250 2553 1709 2553 
Q 1456 2553 1204 2497 
Q 953 2441 691 2322 
L 691 4666 
z
" id="DejaVuSans-35" transform="scale(0.015625)"/>
      </defs>
      <use xlink:href="#DejaVuSans-61"/>
      <use x="61.279297" xlink:href="#DejaVuSans-75"/>
      <use x="124.658203" xlink:href="#DejaVuSans-63"/>
      <use x="179.638672" xlink:href="#DejaVuSans-5f"/>
      <use x="229.638672" xlink:href="#DejaVuSans-30"/>
      <use x="293.261719" xlink:href="#DejaVuSans-3a"/>
      <use x="326.953125" xlink:href="#DejaVuSans-20"/>
      <use x="358.740234" xlink:href="#DejaVuSans-30"/>
      <use x="422.363281" xlink:href="#DejaVuSans-2e"/>
      <use x="454.150391" xlink:href="#DejaVuSans-35"/>
      <use x="517.773438" xlink:href="#DejaVuSans-34"/>
      <use x="581.396484" xlink:href="#DejaVuSans-35"/>
     </g>
    </g>
    <g id="line2d_18">
     <path d="M 54 62.614688 
L 74 62.614688 
" style="fill:none;stroke:#ff7f0e;stroke-linecap:square;stroke-width:1.5;"/>
    </g>
    <g id="line2d_19"/>
    <g id="text_17">
     <!-- auc_1: 0.729 -->
     <g transform="translate(82 66.114688)scale(0.1 -0.1)">
      <defs>
       <path d="M 525 4666 
L 3525 4666 
L 3525 4397 
L 1831 0 
L 1172 0 
L 2766 4134 
L 525 4134 
L 525 4666 
z
" id="DejaVuSans-37" transform="scale(0.015625)"/>
       <path d="M 703 97 
L 703 672 
Q 941 559 1184 500 
Q 1428 441 1663 441 
Q 2288 441 2617 861 
Q 2947 1281 2994 2138 
Q 2813 1869 2534 1725 
Q 2256 1581 1919 1581 
Q 1219 1581 811 2004 
Q 403 2428 403 3163 
Q 403 3881 828 4315 
Q 1253 4750 1959 4750 
Q 2769 4750 3195 4129 
Q 3622 3509 3622 2328 
Q 3622 1225 3098 567 
Q 2575 -91 1691 -91 
Q 1453 -91 1209 -44 
Q 966 3 703 97 
z
M 1959 2075 
Q 2384 2075 2632 2365 
Q 2881 2656 2881 3163 
Q 2881 3666 2632 3958 
Q 2384 4250 1959 4250 
Q 1534 4250 1286 3958 
Q 1038 3666 1038 3163 
Q 1038 2656 1286 2365 
Q 1534 2075 1959 2075 
z
" id="DejaVuSans-39" transform="scale(0.015625)"/>
      </defs>
      <use xlink:href="#DejaVuSans-61"/>
      <use x="61.279297" xlink:href="#DejaVuSans-75"/>
      <use x="124.658203" xlink:href="#DejaVuSans-63"/>
      <use x="179.638672" xlink:href="#DejaVuSans-5f"/>
      <use x="229.638672" xlink:href="#DejaVuSans-31"/>
      <use x="293.261719" xlink:href="#DejaVuSans-3a"/>
      <use x="326.953125" xlink:href="#DejaVuSans-20"/>
      <use x="358.740234" xlink:href="#DejaVuSans-30"/>
      <use x="422.363281" xlink:href="#DejaVuSans-2e"/>
      <use x="454.150391" xlink:href="#DejaVuSans-37"/>
      <use x="517.773438" xlink:href="#DejaVuSans-32"/>
      <use x="581.396484" xlink:href="#DejaVuSans-39"/>
     </g>
    </g>
    <g id="line2d_20">
     <path d="M 54 77.570938 
L 74 77.570938 
" style="fill:none;stroke:#2ca02c;stroke-linecap:square;stroke-width:1.5;"/>
    </g>
    <g id="line2d_21"/>
    <g id="text_18">
     <!-- auc_2: 0.728 -->
     <g transform="translate(82 81.070938)scale(0.1 -0.1)">
      <use xlink:href="#DejaVuSans-61"/>
      <use x="61.279297" xlink:href="#DejaVuSans-75"/>
      <use x="124.658203" xlink:href="#DejaVuSans-63"/>
      <use x="179.638672" xlink:href="#DejaVuSans-5f"/>
      <use x="229.638672" xlink:href="#DejaVuSans-32"/>
      <use x="293.261719" xlink:href="#DejaVuSans-3a"/>
      <use x="326.953125" xlink:href="#DejaVuSans-20"/>
      <use x="358.740234" xlink:href="#DejaVuSans-30"/>
      <use x="422.363281" xlink:href="#DejaVuSans-2e"/>
      <use x="454.150391" xlink:href="#DejaVuSans-37"/>
      <use x="517.773438" xlink:href="#DejaVuSans-32"/>
      <use x="581.396484" xlink:href="#DejaVuSans-38"/>
     </g>
    </g>
   </g>
  </g>
 </g>
 <defs>
  <clipPath id="p09403eafab">
   <rect height="221.76" width="279" x="45" y="34.56"/>
  </clipPath>
 </defs>
</svg>
