<?xml version="1.0" encoding="utf-8" standalone="no"?>
<!DOCTYPE svg PUBLIC "-//W3C//DTD SVG 1.1//EN"
  "http://www.w3.org/Graphics/SVG/1.1/DTD/svg11.dtd">
<svg height="288pt" version="1.1" viewBox="0 0 360 288" width="360pt" xmlns="http://www.w3.org/2000/svg" xmlns:xlink="http://www.w3.org/1999/xlink">
 <metadata>
  <rdf:RDF xmlns:cc="http://creativecommons.org/ns#" xmlns:dc="http://purl.org/dc/elements/1.1/" xmlns:rdf="http://www.w3.org/1999/02/22-rdf-syntax-ns#">
   <cc:Work>
    <dc:type rdf:resource="http://purl.org/dc/dcmitype/StillImage"/>
    <dc:date>2022-06-17T01:22:35.862264</dc:date>
    <dc:format>image/svg+xml</dc:format>
    <dc:creator>
     <cc:Agent>
      <dc:title>Matplotlib v3.4.2, https://matplotlib.org/</dc:title>
     </cc:Agent>
    </dc:creator>
   </cc:Work>
  </rdf:RDF>
 </metadata>
 <defs>
  <style type="text/css">*{stroke-linecap:butt;stroke-linejoin:round;}</style>
 </defs>
 <g id="figure_1">
  <g id="patch_1">
   <path d="M 0 288 
L 360 288 
L 360 0 
L 0 0 
z
" style="fill:#ffffff;"/>
  </g>
  <g id="axes_1">
   <g id="patch_2">
    <path d="M 45 256.32 
L 324 256.32 
L 324 34.56 
L 45 34.56 
z
" style="fill:#ffffff;"/>
   </g>
   <g id="matplotlib.axis_1">
    <g id="xtick_1">
     <g id="line2d_1">
      <defs>
       <path d="M 0 0 
L 0 3.5 
" id="m396e646a2b" style="stroke:#000000;stroke-width:0.8;"/>
      </defs>
      <g>
       <use style="stroke:#000000;stroke-width:0.8;" x="57.681818" xlink:href="#m396e646a2b" y="256.32"/>
      </g>
     </g>
     <g id="text_1">
      <!-- 0.0 -->
      <g transform="translate(49.730256 270.918437)scale(0.1 -0.1)">
       <defs>
        <path d="M 2034 4250 
Q 1547 4250 1301 3770 
Q 1056 3291 1056 2328 
Q 1056 1369 1301 889 
Q 1547 409 2034 409 
Q 2525 409 2770 889 
Q 3016 1369 3016 2328 
Q 3016 3291 2770 3770 
Q 2525 4250 2034 4250 
z
M 2034 4750 
Q 2819 4750 3233 4129 
Q 3647 3509 3647 2328 
Q 3647 1150 3233 529 
Q 2819 -91 2034 -91 
Q 1250 -91 836 529 
Q 422 1150 422 2328 
Q 422 3509 836 4129 
Q 1250 4750 2034 4750 
z
" id="DejaVuSans-30" transform="scale(0.015625)"/>
        <path d="M 684 794 
L 1344 794 
L 1344 0 
L 684 0 
L 684 794 
z
" id="DejaVuSans-2e" transform="scale(0.015625)"/>
       </defs>
       <use xlink:href="#DejaVuSans-30"/>
       <use x="63.623047" xlink:href="#DejaVuSans-2e"/>
       <use x="95.410156" xlink:href="#DejaVuSans-30"/>
      </g>
     </g>
    </g>
    <g id="xtick_2">
     <g id="line2d_2">
      <g>
       <use style="stroke:#000000;stroke-width:0.8;" x="108.409091" xlink:href="#m396e646a2b" y="256.32"/>
      </g>
     </g>
     <g id="text_2">
      <!-- 0.2 -->
      <g transform="translate(100.457528 270.918437)scale(0.1 -0.1)">
       <defs>
        <path d="M 1228 531 
L 3431 531 
L 3431 0 
L 469 0 
L 469 531 
Q 828 903 1448 1529 
Q 2069 2156 2228 2338 
Q 2531 2678 2651 2914 
Q 2772 3150 2772 3378 
Q 2772 3750 2511 3984 
Q 2250 4219 1831 4219 
Q 1534 4219 1204 4116 
Q 875 4013 500 3803 
L 500 4441 
Q 881 4594 1212 4672 
Q 1544 4750 1819 4750 
Q 2544 4750 2975 4387 
Q 3406 4025 3406 3419 
Q 3406 3131 3298 2873 
Q 3191 2616 2906 2266 
Q 2828 2175 2409 1742 
Q 1991 1309 1228 531 
z
" id="DejaVuSans-32" transform="scale(0.015625)"/>
       </defs>
       <use xlink:href="#DejaVuSans-30"/>
       <use x="63.623047" xlink:href="#DejaVuSans-2e"/>
       <use x="95.410156" xlink:href="#DejaVuSans-32"/>
      </g>
     </g>
    </g>
    <g id="xtick_3">
     <g id="line2d_3">
      <g>
       <use style="stroke:#000000;stroke-width:0.8;" x="159.136364" xlink:href="#m396e646a2b" y="256.32"/>
      </g>
     </g>
     <g id="text_3">
      <!-- 0.4 -->
      <g transform="translate(151.184801 270.918437)scale(0.1 -0.1)">
       <defs>
        <path d="M 2419 4116 
L 825 1625 
L 2419 1625 
L 2419 4116 
z
M 2253 4666 
L 3047 4666 
L 3047 1625 
L 3713 1625 
L 3713 1100 
L 3047 1100 
L 3047 0 
L 2419 0 
L 2419 1100 
L 313 1100 
L 313 1709 
L 2253 4666 
z
" id="DejaVuSans-34" transform="scale(0.015625)"/>
       </defs>
       <use xlink:href="#DejaVuSans-30"/>
       <use x="63.623047" xlink:href="#DejaVuSans-2e"/>
       <use x="95.410156" xlink:href="#DejaVuSans-34"/>
      </g>
     </g>
    </g>
    <g id="xtick_4">
     <g id="line2d_4">
      <g>
       <use style="stroke:#000000;stroke-width:0.8;" x="209.863636" xlink:href="#m396e646a2b" y="256.32"/>
      </g>
     </g>
     <g id="text_4">
      <!-- 0.6 -->
      <g transform="translate(201.912074 270.918437)scale(0.1 -0.1)">
       <defs>
        <path d="M 2113 2584 
Q 1688 2584 1439 2293 
Q 1191 2003 1191 1497 
Q 1191 994 1439 701 
Q 1688 409 2113 409 
Q 2538 409 2786 701 
Q 3034 994 3034 1497 
Q 3034 2003 2786 2293 
Q 2538 2584 2113 2584 
z
M 3366 4563 
L 3366 3988 
Q 3128 4100 2886 4159 
Q 2644 4219 2406 4219 
Q 1781 4219 1451 3797 
Q 1122 3375 1075 2522 
Q 1259 2794 1537 2939 
Q 1816 3084 2150 3084 
Q 2853 3084 3261 2657 
Q 3669 2231 3669 1497 
Q 3669 778 3244 343 
Q 2819 -91 2113 -91 
Q 1303 -91 875 529 
Q 447 1150 447 2328 
Q 447 3434 972 4092 
Q 1497 4750 2381 4750 
Q 2619 4750 2861 4703 
Q 3103 4656 3366 4563 
z
" id="DejaVuSans-36" transform="scale(0.015625)"/>
       </defs>
       <use xlink:href="#DejaVuSans-30"/>
       <use x="63.623047" xlink:href="#DejaVuSans-2e"/>
       <use x="95.410156" xlink:href="#DejaVuSans-36"/>
      </g>
     </g>
    </g>
    <g id="xtick_5">
     <g id="line2d_5">
      <g>
       <use style="stroke:#000000;stroke-width:0.8;" x="260.590909" xlink:href="#m396e646a2b" y="256.32"/>
      </g>
     </g>
     <g id="text_5">
      <!-- 0.8 -->
      <g transform="translate(252.639347 270.918437)scale(0.1 -0.1)">
       <defs>
        <path d="M 2034 2216 
Q 1584 2216 1326 1975 
Q 1069 1734 1069 1313 
Q 1069 891 1326 650 
Q 1584 409 2034 409 
Q 2484 409 2743 651 
Q 3003 894 3003 1313 
Q 3003 1734 2745 1975 
Q 2488 2216 2034 2216 
z
M 1403 2484 
Q 997 2584 770 2862 
Q 544 3141 544 3541 
Q 544 4100 942 4425 
Q 1341 4750 2034 4750 
Q 2731 4750 3128 4425 
Q 3525 4100 3525 3541 
Q 3525 3141 3298 2862 
Q 3072 2584 2669 2484 
Q 3125 2378 3379 2068 
Q 3634 1759 3634 1313 
Q 3634 634 3220 271 
Q 2806 -91 2034 -91 
Q 1263 -91 848 271 
Q 434 634 434 1313 
Q 434 1759 690 2068 
Q 947 2378 1403 2484 
z
M 1172 3481 
Q 1172 3119 1398 2916 
Q 1625 2713 2034 2713 
Q 2441 2713 2670 2916 
Q 2900 3119 2900 3481 
Q 2900 3844 2670 4047 
Q 2441 4250 2034 4250 
Q 1625 4250 1398 4047 
Q 1172 3844 1172 3481 
z
" id="DejaVuSans-38" transform="scale(0.015625)"/>
       </defs>
       <use xlink:href="#DejaVuSans-30"/>
       <use x="63.623047" xlink:href="#DejaVuSans-2e"/>
       <use x="95.410156" xlink:href="#DejaVuSans-38"/>
      </g>
     </g>
    </g>
    <g id="xtick_6">
     <g id="line2d_6">
      <g>
       <use style="stroke:#000000;stroke-width:0.8;" x="311.318182" xlink:href="#m396e646a2b" y="256.32"/>
      </g>
     </g>
     <g id="text_6">
      <!-- 1.0 -->
      <g transform="translate(303.366619 270.918437)scale(0.1 -0.1)">
       <defs>
        <path d="M 794 531 
L 1825 531 
L 1825 4091 
L 703 3866 
L 703 4441 
L 1819 4666 
L 2450 4666 
L 2450 531 
L 3481 531 
L 3481 0 
L 794 0 
L 794 531 
z
" id="DejaVuSans-31" transform="scale(0.015625)"/>
       </defs>
       <use xlink:href="#DejaVuSans-31"/>
       <use x="63.623047" xlink:href="#DejaVuSans-2e"/>
       <use x="95.410156" xlink:href="#DejaVuSans-30"/>
      </g>
     </g>
    </g>
    <g id="text_7">
     <!-- fpr -->
     <g transform="translate(177.510156 284.596563)scale(0.1 -0.1)">
      <defs>
       <path d="M 2375 4863 
L 2375 4384 
L 1825 4384 
Q 1516 4384 1395 4259 
Q 1275 4134 1275 3809 
L 1275 3500 
L 2222 3500 
L 2222 3053 
L 1275 3053 
L 1275 0 
L 697 0 
L 697 3053 
L 147 3053 
L 147 3500 
L 697 3500 
L 697 3744 
Q 697 4328 969 4595 
Q 1241 4863 1831 4863 
L 2375 4863 
z
" id="DejaVuSans-66" transform="scale(0.015625)"/>
       <path d="M 1159 525 
L 1159 -1331 
L 581 -1331 
L 581 3500 
L 1159 3500 
L 1159 2969 
Q 1341 3281 1617 3432 
Q 1894 3584 2278 3584 
Q 2916 3584 3314 3078 
Q 3713 2572 3713 1747 
Q 3713 922 3314 415 
Q 2916 -91 2278 -91 
Q 1894 -91 1617 61 
Q 1341 213 1159 525 
z
M 3116 1747 
Q 3116 2381 2855 2742 
Q 2594 3103 2138 3103 
Q 1681 3103 1420 2742 
Q 1159 2381 1159 1747 
Q 1159 1113 1420 752 
Q 1681 391 2138 391 
Q 2594 391 2855 752 
Q 3116 1113 3116 1747 
z
" id="DejaVuSans-70" transform="scale(0.015625)"/>
       <path d="M 2631 2963 
Q 2534 3019 2420 3045 
Q 2306 3072 2169 3072 
Q 1681 3072 1420 2755 
Q 1159 2438 1159 1844 
L 1159 0 
L 581 0 
L 581 3500 
L 1159 3500 
L 1159 2956 
Q 1341 3275 1631 3429 
Q 1922 3584 2338 3584 
Q 2397 3584 2469 3576 
Q 2541 3569 2628 3553 
L 2631 2963 
z
" id="DejaVuSans-72" transform="scale(0.015625)"/>
      </defs>
      <use xlink:href="#DejaVuSans-66"/>
      <use x="35.205078" xlink:href="#DejaVuSans-70"/>
      <use x="98.681641" xlink:href="#DejaVuSans-72"/>
     </g>
    </g>
   </g>
   <g id="matplotlib.axis_2">
    <g id="ytick_1">
     <g id="line2d_7">
      <defs>
       <path d="M 0 0 
L -3.5 0 
" id="m32bca51303" style="stroke:#000000;stroke-width:0.8;"/>
      </defs>
      <g>
       <use style="stroke:#000000;stroke-width:0.8;" x="45" xlink:href="#m32bca51303" y="246.24"/>
      </g>
     </g>
     <g id="text_8">
      <!-- 0.0 -->
      <g transform="translate(22.096875 250.039219)scale(0.1 -0.1)">
       <use xlink:href="#DejaVuSans-30"/>
       <use x="63.623047" xlink:href="#DejaVuSans-2e"/>
       <use x="95.410156" xlink:href="#DejaVuSans-30"/>
      </g>
     </g>
    </g>
    <g id="ytick_2">
     <g id="line2d_8">
      <g>
       <use style="stroke:#000000;stroke-width:0.8;" x="45" xlink:href="#m32bca51303" y="205.92"/>
      </g>
     </g>
     <g id="text_9">
      <!-- 0.2 -->
      <g transform="translate(22.096875 209.719219)scale(0.1 -0.1)">
       <use xlink:href="#DejaVuSans-30"/>
       <use x="63.623047" xlink:href="#DejaVuSans-2e"/>
       <use x="95.410156" xlink:href="#DejaVuSans-32"/>
      </g>
     </g>
    </g>
    <g id="ytick_3">
     <g id="line2d_9">
      <g>
       <use style="stroke:#000000;stroke-width:0.8;" x="45" xlink:href="#m32bca51303" y="165.6"/>
      </g>
     </g>
     <g id="text_10">
      <!-- 0.4 -->
      <g transform="translate(22.096875 169.399219)scale(0.1 -0.1)">
       <use xlink:href="#DejaVuSans-30"/>
       <use x="63.623047" xlink:href="#DejaVuSans-2e"/>
       <use x="95.410156" xlink:href="#DejaVuSans-34"/>
      </g>
     </g>
    </g>
    <g id="ytick_4">
     <g id="line2d_10">
      <g>
       <use style="stroke:#000000;stroke-width:0.8;" x="45" xlink:href="#m32bca51303" y="125.28"/>
      </g>
     </g>
     <g id="text_11">
      <!-- 0.6 -->
      <g transform="translate(22.096875 129.079219)scale(0.1 -0.1)">
       <use xlink:href="#DejaVuSans-30"/>
       <use x="63.623047" xlink:href="#DejaVuSans-2e"/>
       <use x="95.410156" xlink:href="#DejaVuSans-36"/>
      </g>
     </g>
    </g>
    <g id="ytick_5">
     <g id="line2d_11">
      <g>
       <use style="stroke:#000000;stroke-width:0.8;" x="45" xlink:href="#m32bca51303" y="84.96"/>
      </g>
     </g>
     <g id="text_12">
      <!-- 0.8 -->
      <g transform="translate(22.096875 88.759219)scale(0.1 -0.1)">
       <use xlink:href="#DejaVuSans-30"/>
       <use x="63.623047" xlink:href="#DejaVuSans-2e"/>
       <use x="95.410156" xlink:href="#DejaVuSans-38"/>
      </g>
     </g>
    </g>
    <g id="ytick_6">
     <g id="line2d_12">
      <g>
       <use style="stroke:#000000;stroke-width:0.8;" x="45" xlink:href="#m32bca51303" y="44.64"/>
      </g>
     </g>
     <g id="text_13">
      <!-- 1.0 -->
      <g transform="translate(22.096875 48.439219)scale(0.1 -0.1)">
       <use xlink:href="#DejaVuSans-31"/>
       <use x="63.623047" xlink:href="#DejaVuSans-2e"/>
       <use x="95.410156" xlink:href="#DejaVuSans-30"/>
      </g>
     </g>
    </g>
    <g id="text_14">
     <!-- tpr -->
     <g transform="translate(16.017187 152.629844)rotate(-90)scale(0.1 -0.1)">
      <defs>
       <path d="M 1172 4494 
L 1172 3500 
L 2356 3500 
L 2356 3053 
L 1172 3053 
L 1172 1153 
Q 1172 725 1289 603 
Q 1406 481 1766 481 
L 2356 481 
L 2356 0 
L 1766 0 
Q 1100 0 847 248 
Q 594 497 594 1153 
L 594 3053 
L 172 3053 
L 172 3500 
L 594 3500 
L 594 4494 
L 1172 4494 
z
" id="DejaVuSans-74" transform="scale(0.015625)"/>
      </defs>
      <use xlink:href="#DejaVuSans-74"/>
      <use x="39.208984" xlink:href="#DejaVuSans-70"/>
      <use x="102.685547" xlink:href="#DejaVuSans-72"/>
     </g>
    </g>
   </g>
   <g id="line2d_13">
    <path clip-path="url(#p476bf09f1e)" d="M 57.681818 246.24 
L 57.939666 246.24 
L 58.111565 244.390459 
L 58.541311 244.390459 
L 58.62726 242.540917 
L 59.9165 242.540917 
L 59.9165 240.691376 
L 64.385863 240.691376 
L 64.385863 238.841835 
L 64.557762 238.841835 
L 64.557762 236.992294 
L 66.276747 236.992294 
L 66.276747 235.142752 
L 69.027125 235.142752 
L 69.027125 233.293211 
L 70.230415 233.293211 
L 70.230415 231.44367 
L 73.840285 231.44367 
L 73.840285 229.594128 
L 74.699778 229.594128 
L 74.699778 227.744587 
L 74.871677 227.744587 
L 74.871677 225.895046 
L 76.504713 225.895046 
L 76.504713 224.045505 
L 77.793953 224.045505 
L 77.793953 222.195963 
L 78.567496 222.195963 
L 78.567496 220.346422 
L 79.169141 220.346422 
L 79.169141 218.496881 
L 79.942685 218.496881 
L 79.942685 216.647339 
L 80.54433 216.647339 
L 80.54433 214.797798 
L 83.724454 214.797798 
L 83.724454 212.948257 
L 86.818629 212.948257 
L 86.818629 211.098716 
L 88.279766 211.098716 
L 88.279766 207.399633 
L 90.2566 207.399633 
L 90.2566 205.550092 
L 91.803688 205.550092 
L 91.803688 203.70055 
L 92.233434 203.70055 
L 92.233434 201.851009 
L 92.74913 201.851009 
L 92.74913 200.001468 
L 92.921028 200.001468 
L 92.921028 198.151927 
L 94.296217 198.151927 
L 94.296217 196.302385 
L 96.101152 196.302385 
L 96.101152 192.603303 
L 96.788746 192.603303 
L 96.788746 190.753761 
L 97.476341 190.753761 
L 97.476341 188.90422 
L 98.937479 188.90422 
L 98.937479 187.054679 
L 101.515958 187.054679 
L 101.515958 183.355596 
L 101.773805 183.355596 
L 101.773805 181.506055 
L 103.492791 181.506055 
L 103.492791 179.656514 
L 106.329118 179.656514 
L 106.329118 177.806972 
L 106.586966 177.806972 
L 106.586966 175.957431 
L 106.758864 175.957431 
L 106.758864 174.10789 
L 108.47785 174.10789 
L 108.47785 172.258349 
L 112.345569 172.258349 
L 112.345569 170.408807 
L 113.806707 170.408807 
L 113.806707 168.559266 
L 114.322402 168.559266 
L 114.322402 166.709725 
L 115.611642 166.709725 
L 115.697591 163.010642 
L 116.728982 163.010642 
L 116.728982 161.161101 
L 117.502526 161.161101 
L 117.502526 159.31156 
L 119.47936 159.31156 
L 119.47936 157.462018 
L 121.112396 157.462018 
L 121.112396 155.612477 
L 122.315687 155.612477 
L 122.315687 153.762936 
L 127.386695 153.762936 
L 127.386695 151.913394 
L 129.535427 151.913394 
L 129.535427 150.063853 
L 134.09074 150.063853 
L 134.09074 148.214312 
L 134.606435 148.214312 
L 134.692385 144.515229 
L 136.067573 144.515229 
L 136.067573 142.665688 
L 137.614661 142.665688 
L 137.614661 140.816147 
L 141.482379 140.816147 
L 141.568328 137.117064 
L 148.186424 137.117064 
L 148.186424 135.267523 
L 157.12515 135.267523 
L 157.12515 133.417982 
L 161.422615 133.417982 
L 161.422615 131.56844 
L 162.368057 131.56844 
L 162.368057 129.718899 
L 164.516789 129.718899 
L 164.516789 127.869358 
L 169.072102 127.869358 
L 169.072102 126.019817 
L 174.057161 126.019817 
L 174.057161 124.170275 
L 174.400958 124.170275 
L 174.400958 122.320734 
L 176.893488 122.320734 
L 176.893488 120.471193 
L 177.151335 120.471193 
L 177.151335 118.621651 
L 178.870321 118.621651 
L 178.870321 116.77211 
L 179.128169 116.77211 
L 179.128169 114.922569 
L 179.729814 114.922569 
L 179.729814 113.073028 
L 180.589307 113.073028 
L 180.675256 109.373945 
L 184.886772 109.373945 
L 184.886772 107.524404 
L 190.387527 107.524404 
L 190.387527 105.674862 
L 190.731324 105.674862 
L 190.731324 103.825321 
L 196.146129 103.825321 
L 196.146129 101.97578 
L 198.638659 101.97578 
L 198.638659 100.126239 
L 212.476495 100.126239 
L 212.476495 98.276697 
L 212.992191 98.276697 
L 212.992191 96.427156 
L 213.765734 96.427156 
L 213.765734 94.577615 
L 218.664844 94.577615 
L 218.664844 90.878532 
L 225.712686 90.878532 
L 225.712686 89.028991 
L 226.830027 89.028991 
L 226.830027 87.17945 
L 235.339007 87.17945 
L 235.339007 85.329908 
L 238.175333 85.329908 
L 238.175333 83.480367 
L 239.894319 83.480367 
L 239.894319 81.630826 
L 247.200009 81.630826 
L 247.200009 79.781284 
L 249.606589 79.781284 
L 249.606589 77.931743 
L 253.388358 77.931743 
L 253.388358 76.082202 
L 253.904054 76.082202 
L 253.904054 74.232661 
L 254.677598 74.232661 
L 254.677598 72.383119 
L 255.279243 72.383119 
L 255.279243 70.533578 
L 261.467592 70.533578 
L 261.467592 68.684037 
L 263.444426 68.684037 
L 263.444426 66.834495 
L 266.452651 66.834495 
L 266.452651 64.984954 
L 274.789732 64.984954 
L 274.789732 63.135413 
L 277.110363 63.135413 
L 277.110363 61.285872 
L 279.430994 61.285872 
L 279.430994 59.43633 
L 279.688842 59.43633 
L 279.688842 57.586789 
L 284.416053 57.586789 
L 284.416053 55.737248 
L 287.080481 55.737248 
L 287.080481 53.887706 
L 291.120098 53.887706 
L 291.120098 52.038165 
L 293.956425 52.038165 
L 293.956425 50.188624 
L 301.348064 50.188624 
L 301.348064 48.339083 
L 303.152999 48.339083 
L 303.152999 46.489541 
L 307.536413 46.489541 
L 307.536413 44.64 
L 311.318182 44.64 
L 311.318182 44.64 
" style="fill:none;stroke:#1f77b4;stroke-linecap:square;stroke-width:1.5;"/>
   </g>
   <g id="line2d_14">
    <path clip-path="url(#p476bf09f1e)" d="M 57.681818 246.24 
L 57.681818 245.072996 
L 57.938795 245.072996 
L 57.938795 244.197742 
L 58.195772 244.197742 
L 58.195772 244.003242 
L 58.966704 243.905991 
L 58.966704 243.41974 
L 59.223681 243.41974 
L 59.223681 242.933488 
L 59.480658 242.933488 
L 59.480658 242.349986 
L 59.737635 242.349986 
L 59.737635 240.98848 
L 59.994612 240.98848 
L 59.994612 240.79398 
L 60.251589 240.79398 
L 60.251589 239.918726 
L 60.508566 239.918726 
L 60.508566 239.724226 
L 61.02252 239.724226 
L 61.02252 237.973719 
L 61.279497 237.973719 
L 61.279497 236.417713 
L 61.536474 236.417713 
L 61.536474 236.125962 
L 62.050428 236.125962 
L 62.050428 235.056208 
L 62.564382 235.056208 
L 62.564382 234.569957 
L 63.078337 234.569957 
L 63.078337 232.81945 
L 63.335314 232.81945 
L 63.335314 232.430449 
L 63.592291 232.430449 
L 63.592291 232.138698 
L 64.106245 232.041447 
L 64.106245 231.457945 
L 64.363222 231.457945 
L 64.363222 230.777192 
L 64.620199 230.777192 
L 64.620199 229.707438 
L 65.134153 229.610188 
L 65.134153 229.415687 
L 65.905084 229.318437 
L 65.905084 228.929436 
L 66.162061 228.929436 
L 66.162061 228.054182 
L 66.419038 228.054182 
L 66.419038 227.859682 
L 66.676015 227.859682 
L 66.676015 227.081679 
L 67.18997 226.984428 
L 67.18997 226.400926 
L 67.446947 226.400926 
L 67.446947 226.206425 
L 67.703924 226.206425 
L 67.703924 225.914674 
L 67.960901 225.914674 
L 67.960901 225.428423 
L 68.217878 225.428423 
L 68.217878 222.510912 
L 68.474855 222.510912 
L 68.474855 221.343907 
L 68.731832 221.343907 
L 68.731832 220.954906 
L 68.988809 220.954906 
L 68.988809 220.176903 
L 69.245786 220.176903 
L 69.245786 219.982402 
L 70.016717 219.982402 
L 70.016717 219.787902 
L 70.273694 219.787902 
L 70.273694 219.496151 
L 70.787649 219.3989 
L 70.787649 218.718148 
L 71.044626 218.718148 
L 71.044626 218.231896 
L 71.301603 218.231896 
L 71.301603 217.453893 
L 71.55858 217.453893 
L 71.55858 216.481389 
L 71.815557 216.481389 
L 71.815557 216.286889 
L 72.072534 216.286889 
L 72.072534 214.147381 
L 72.586488 214.05013 
L 72.586488 213.563878 
L 72.843465 213.563878 
L 72.843465 213.369378 
L 73.100442 213.369378 
L 73.100442 213.174877 
L 74.12835 213.077627 
L 74.12835 212.591375 
L 74.385327 212.591375 
L 74.385327 212.202373 
L 74.642305 212.202373 
L 74.642305 210.743618 
L 75.156259 210.646368 
L 75.156259 209.576614 
L 75.670213 209.479363 
L 75.670213 209.187612 
L 76.184167 209.187612 
L 76.184167 208.895861 
L 76.441144 208.895861 
L 76.441144 208.70136 
L 77.212075 208.70136 
L 77.212075 207.242605 
L 77.469052 207.242605 
L 77.469052 206.756353 
L 77.983006 206.659103 
L 77.983006 206.464602 
L 78.239983 206.464602 
L 78.239983 206.270101 
L 78.49696 206.270101 
L 78.49696 205.783849 
L 79.010915 205.783849 
L 79.010915 204.908596 
L 79.267892 204.908596 
L 79.267892 204.325094 
L 79.781846 204.325094 
L 79.781846 203.547091 
L 80.552777 203.449841 
L 80.552777 201.407583 
L 81.066731 201.310333 
L 81.066731 198.295572 
L 81.323708 198.295572 
L 81.323708 197.128567 
L 81.580685 197.128567 
L 81.580685 196.836816 
L 81.837662 196.836816 
L 81.837662 195.475311 
L 82.094639 195.475311 
L 82.094639 192.3633 
L 82.351616 192.3633 
L 82.351616 190.807294 
L 82.608594 190.807294 
L 82.608594 189.348538 
L 82.865571 189.348538 
L 82.865571 187.792533 
L 83.122548 187.792533 
L 83.122548 187.598032 
L 83.379525 187.598032 
L 83.379525 186.722779 
L 84.150456 186.625528 
L 84.150456 186.431027 
L 84.66441 186.431027 
L 84.66441 185.653025 
L 84.921387 185.653025 
L 84.921387 185.166773 
L 85.435341 185.069522 
L 85.435341 184.972272 
L 85.692318 184.972272 
L 85.692318 183.805268 
L 85.949295 183.805268 
L 85.949295 182.832764 
L 86.206272 182.832764 
L 86.206272 181.957511 
L 86.720227 181.86026 
L 86.720227 181.568509 
L 86.977204 181.568509 
L 86.977204 181.179508 
L 87.234181 181.179508 
L 87.234181 180.207004 
L 87.491158 180.207004 
L 87.491158 179.915253 
L 87.748135 179.915253 
L 87.748135 179.13725 
L 88.005112 179.13725 
L 88.005112 178.067496 
L 88.519066 178.067496 
L 88.519066 177.386744 
L 88.776043 177.386744 
L 88.776043 176.803242 
L 89.03302 176.803242 
L 89.03302 176.608741 
L 89.289997 176.608741 
L 89.289997 176.31699 
L 89.546974 176.31699 
L 89.546974 174.858234 
L 89.803951 174.858234 
L 89.803951 174.371983 
L 90.317905 174.371983 
L 90.317905 173.78848 
L 90.574883 173.78848 
L 90.574883 171.259971 
L 90.83186 171.259971 
L 90.83186 171.06547 
L 91.088837 171.06547 
L 91.088837 169.606715 
L 91.345814 169.606715 
L 91.345814 169.120463 
L 91.859768 169.120463 
L 91.859768 168.34246 
L 92.116745 168.34246 
L 92.116745 168.147959 
L 92.630699 168.147959 
L 92.630699 166.494703 
L 92.887676 166.494703 
L 92.887676 166.105702 
L 93.144653 166.105702 
L 93.144653 165.813951 
L 93.658607 165.813951 
L 93.658607 165.035948 
L 93.915584 165.035948 
L 93.915584 164.160695 
L 94.172561 164.160695 
L 94.172561 163.771693 
L 94.686516 163.674443 
L 94.686516 163.285441 
L 95.20047 163.188191 
L 95.20047 163.090941 
L 95.457447 163.090941 
L 95.457447 162.215687 
L 95.714424 162.215687 
L 95.714424 161.729436 
L 95.971401 161.729436 
L 95.971401 161.243184 
L 96.485355 161.145933 
L 96.485355 161.048683 
L 96.742332 161.048683 
L 96.742332 160.076179 
L 96.999309 160.076179 
L 96.999309 159.784428 
L 97.256286 159.784428 
L 97.256286 158.811925 
L 97.77024 158.714674 
L 97.77024 158.131172 
L 98.798149 158.033922 
L 98.798149 157.061418 
L 99.826057 156.964168 
L 99.826057 156.672417 
L 100.596988 156.575166 
L 100.596988 156.088915 
L 101.110942 156.088915 
L 101.110942 155.797164 
L 101.367919 155.797164 
L 101.367919 155.408162 
L 101.624896 155.408162 
L 101.624896 154.241158 
L 102.395828 154.143907 
L 102.395828 153.949407 
L 102.652805 153.949407 
L 102.652805 153.754906 
L 102.909782 153.754906 
L 102.909782 152.976903 
L 103.423736 152.879653 
L 103.423736 152.685152 
L 103.93769 152.685152 
L 103.93769 152.490651 
L 104.194667 152.490651 
L 104.194667 151.809899 
L 104.708621 151.712648 
L 104.708621 150.642894 
L 105.222575 150.545644 
L 105.222575 150.448394 
L 105.736529 150.448394 
L 105.736529 149.767641 
L 105.993506 149.767641 
L 105.993506 149.37864 
L 106.507461 149.37864 
L 106.507461 149.184139 
L 106.764438 149.184139 
L 106.764438 148.795137 
L 107.021415 148.795137 
L 107.021415 148.503386 
L 107.792346 148.406136 
L 107.792346 148.308886 
L 108.563277 148.211635 
L 108.563277 147.530883 
L 108.820254 147.530883 
L 108.820254 147.239132 
L 109.077231 147.239132 
L 109.077231 147.044631 
L 109.334208 147.044631 
L 109.334208 146.169378 
L 110.10514 146.072127 
L 110.10514 145.391375 
L 110.362117 145.391375 
L 110.362117 145.196874 
L 110.876071 145.099624 
L 110.876071 144.905123 
L 112.417933 144.807873 
L 112.417933 144.516122 
L 112.67491 144.516122 
L 112.67491 143.543618 
L 112.931887 143.543618 
L 112.931887 143.349117 
L 113.188864 143.349117 
L 113.188864 142.668365 
L 113.702818 142.668365 
L 113.702818 142.182113 
L 113.959796 142.182113 
L 113.959796 141.598611 
L 114.216773 141.598611 
L 114.216773 141.015109 
L 114.47375 141.015109 
L 114.47375 140.431606 
L 115.501658 140.334356 
L 115.501658 139.653603 
L 115.758635 139.653603 
L 115.758635 139.459103 
L 116.015612 139.459103 
L 116.015612 138.583849 
L 116.272589 138.583849 
L 116.272589 138.097598 
L 116.786543 138.000347 
L 116.786543 137.125094 
L 117.04352 137.125094 
L 117.04352 136.638842 
L 117.814452 136.541592 
L 117.814452 135.860839 
L 118.585383 135.763589 
L 118.585383 135.374588 
L 118.84236 135.374588 
L 118.84236 134.985586 
L 119.356314 134.985586 
L 119.356314 134.791085 
L 119.870268 134.791085 
L 119.870268 134.596585 
L 120.384222 134.499334 
L 120.384222 134.402084 
L 121.669107 134.402084 
L 121.669107 134.110333 
L 122.440039 134.013082 
L 122.440039 133.915832 
L 122.697016 133.915832 
L 122.697016 132.748828 
L 122.953993 132.748828 
L 122.953993 132.554327 
L 123.467947 132.554327 
L 123.467947 132.359826 
L 123.724924 132.359826 
L 123.724924 132.165326 
L 123.981901 132.165326 
L 123.981901 131.873575 
L 124.495855 131.776324 
L 124.495855 131.387323 
L 125.009809 131.387323 
L 125.009809 130.70657 
L 125.266786 130.70657 
L 125.266786 130.220318 
L 125.523763 130.220318 
L 125.523763 129.928567 
L 125.780741 129.928567 
L 125.780741 129.734067 
L 126.037718 129.734067 
L 126.037718 128.372562 
L 126.294695 128.372562 
L 126.294695 127.400058 
L 126.551672 127.400058 
L 126.551672 127.011056 
L 127.065626 127.011056 
L 127.065626 126.038553 
L 127.322603 126.038553 
L 127.322603 125.844052 
L 127.57958 125.844052 
L 127.57958 125.649551 
L 128.093534 125.552301 
L 128.093534 125.3578 
L 128.350511 125.3578 
L 128.350511 124.677048 
L 128.607488 124.677048 
L 128.607488 124.190796 
L 129.121442 124.190796 
L 129.121442 123.607294 
L 129.378419 123.607294 
L 129.378419 123.412793 
L 129.892374 123.315543 
L 129.892374 123.218292 
L 130.149351 123.218292 
L 130.149351 122.829291 
L 130.406328 122.829291 
L 130.406328 122.148538 
L 131.177259 122.051288 
L 131.177259 121.273285 
L 131.434236 121.273285 
L 131.434236 120.787033 
L 132.205167 120.787033 
L 132.205167 120.398032 
L 132.462144 120.398032 
L 132.462144 120.106281 
L 132.719121 120.106281 
L 132.719121 119.91178 
L 132.976098 119.91178 
L 132.976098 119.522779 
L 133.233075 119.522779 
L 133.233075 119.328278 
L 133.74703 119.328278 
L 133.74703 119.133777 
L 134.260984 119.133777 
L 134.260984 118.453025 
L 134.517961 118.453025 
L 134.517961 118.258524 
L 134.774938 118.258524 
L 134.774938 117.966773 
L 135.545869 117.869522 
L 135.545869 117.675022 
L 136.059823 117.577771 
L 136.059823 117.383271 
L 136.3168 117.383271 
L 136.3168 116.994269 
L 136.573777 116.994269 
L 136.573777 116.799768 
L 136.830754 116.799768 
L 136.830754 115.535514 
L 137.087731 115.535514 
L 137.087731 115.341013 
L 137.344708 115.341013 
L 137.344708 115.146512 
L 137.601686 115.146512 
L 137.601686 114.757511 
L 138.11564 114.66026 
L 138.11564 114.46576 
L 138.372617 114.46576 
L 138.372617 113.979508 
L 138.886571 113.882258 
L 138.886571 112.715253 
L 139.143548 112.715253 
L 139.143548 112.131751 
L 139.400525 112.131751 
L 139.400525 111.93725 
L 139.657502 111.93725 
L 139.657502 111.353748 
L 139.914479 111.353748 
L 139.914479 111.159247 
L 140.171456 111.159247 
L 140.171456 110.964747 
L 140.68541 110.964747 
L 140.68541 110.575745 
L 140.942387 110.575745 
L 140.942387 110.089493 
L 141.456342 110.089493 
L 141.456342 109.797742 
L 141.713319 109.797742 
L 141.713319 109.408741 
L 142.227273 109.408741 
L 142.227273 109.21424 
L 142.741227 109.11699 
L 142.741227 108.922489 
L 143.512158 108.922489 
L 143.512158 108.241737 
L 143.769135 108.241737 
L 143.769135 107.852735 
L 144.026112 107.852735 
L 144.026112 107.560984 
L 144.540066 107.463734 
L 144.540066 107.074732 
L 145.05402 107.074732 
L 145.05402 106.685731 
L 145.567975 106.685731 
L 145.567975 106.296729 
L 145.824952 106.296729 
L 145.824952 106.102229 
L 146.338906 106.102229 
L 146.338906 105.713227 
L 147.366814 105.615977 
L 147.366814 105.324226 
L 147.623791 105.324226 
L 147.623791 104.740724 
L 147.880768 104.740724 
L 147.880768 104.059971 
L 148.137745 104.059971 
L 148.137745 102.892967 
L 148.651699 102.892967 
L 148.651699 102.114964 
L 148.908676 102.114964 
L 148.908676 99.780955 
L 149.165653 99.780955 
L 149.165653 99.489204 
L 149.679608 99.391954 
L 149.679608 99.002952 
L 150.193562 99.002952 
L 150.193562 98.613951 
L 150.450539 98.613951 
L 150.450539 98.127699 
L 150.707516 98.127699 
L 150.707516 97.933198 
L 151.22147 97.835948 
L 151.22147 97.446946 
L 151.992401 97.446946 
L 151.992401 97.252446 
L 152.249378 97.252446 
L 152.249378 96.668944 
L 152.763332 96.571693 
L 152.763332 96.474443 
L 153.020309 96.474443 
L 153.020309 96.279942 
L 153.277287 96.279942 
L 153.277287 96.085441 
L 153.534264 96.085441 
L 153.534264 95.404689 
L 153.791241 95.404689 
L 153.791241 95.112938 
L 154.819149 95.015687 
L 154.819149 94.432185 
L 155.076126 94.432185 
L 155.076126 94.140434 
L 156.104034 94.043184 
L 156.104034 93.751433 
L 156.361011 93.751433 
L 156.361011 93.556932 
L 156.874965 93.556932 
L 156.874965 92.778929 
L 157.645897 92.681679 
L 157.645897 92.487178 
L 157.902874 92.487178 
L 157.902874 92.195427 
L 158.159851 92.195427 
L 158.159851 91.903676 
L 158.416828 91.903676 
L 158.416828 91.611925 
L 158.673805 91.611925 
L 158.673805 91.417424 
L 158.930782 91.417424 
L 158.930782 91.222923 
L 159.187759 91.222923 
L 159.187759 91.028423 
L 159.701713 90.931172 
L 159.701713 90.542171 
L 160.986599 90.44492 
L 160.986599 90.25042 
L 161.243576 90.25042 
L 161.243576 89.861418 
L 161.75753 89.861418 
L 161.75753 89.277916 
L 162.014507 89.277916 
L 162.014507 89.083415 
L 162.271484 89.083415 
L 162.271484 88.110912 
L 162.528461 88.110912 
L 162.528461 87.819161 
L 163.042415 87.819161 
L 163.042415 87.62466 
L 163.813346 87.52741 
L 163.813346 86.846657 
L 164.3273 86.846657 
L 164.3273 86.457656 
L 164.584277 86.457656 
L 164.584277 86.165904 
L 165.098232 86.068654 
L 165.098232 85.776903 
L 165.355209 85.776903 
L 165.355209 85.582402 
L 166.12614 85.485152 
L 166.12614 85.387902 
L 166.640094 85.290651 
L 166.640094 84.512648 
L 166.897071 84.512648 
L 166.897071 84.220897 
L 167.411025 84.220897 
L 167.411025 83.831896 
L 167.668002 83.831896 
L 167.668002 83.637395 
L 168.181956 83.540145 
L 168.181956 82.664891 
L 168.438933 82.664891 
L 168.438933 82.37314 
L 168.69591 82.37314 
L 168.69591 82.17864 
L 168.952888 82.17864 
L 168.952888 81.789638 
L 169.980796 81.692388 
L 169.980796 81.011635 
L 170.237773 81.011635 
L 170.237773 80.817135 
L 170.49475 80.817135 
L 170.49475 80.525384 
L 171.008704 80.428133 
L 171.008704 80.039132 
L 171.265681 80.039132 
L 171.265681 79.45563 
L 171.779635 79.358379 
L 171.779635 79.066628 
L 172.293589 79.066628 
L 172.293589 78.483126 
L 172.550566 78.483126 
L 172.550566 77.899624 
L 172.807544 77.899624 
L 172.807544 77.218871 
L 173.064521 77.218871 
L 173.064521 76.92712 
L 173.321498 76.92712 
L 173.321498 76.732619 
L 173.835452 76.635369 
L 173.835452 76.343618 
L 174.349406 76.246368 
L 174.349406 75.954616 
L 174.86336 75.857366 
L 174.86336 75.760116 
L 176.148245 75.662865 
L 176.148245 75.468365 
L 176.405222 75.468365 
L 176.405222 75.273864 
L 177.433131 75.176614 
L 177.433131 74.884863 
L 178.204062 74.787612 
L 178.204062 74.20411 
L 178.974993 74.10686 
L 178.974993 74.009609 
L 179.745924 74.009609 
L 179.745924 73.620608 
L 180.259878 73.523357 
L 180.259878 73.426107 
L 181.544764 73.328857 
L 181.544764 72.842605 
L 181.801741 72.842605 
L 181.801741 72.648104 
L 182.315695 72.648104 
L 182.315695 72.453603 
L 183.086626 72.356353 
L 183.086626 72.161852 
L 183.60058 72.161852 
L 183.60058 71.967352 
L 184.114534 71.870101 
L 184.114534 71.772851 
L 184.371511 71.772851 
L 184.371511 71.57835 
L 184.628489 71.57835 
L 184.628489 71.383849 
L 185.39942 71.286599 
L 185.39942 70.800347 
L 185.656397 70.800347 
L 185.656397 70.508596 
L 185.913374 70.508596 
L 185.913374 70.119595 
L 186.170351 70.119595 
L 186.170351 69.925094 
L 187.198259 69.925094 
L 187.198259 69.536093 
L 187.96919 69.438842 
L 187.96919 69.147091 
L 188.740122 69.049841 
L 188.740122 68.95259 
L 190.025007 68.85534 
L 190.025007 67.882836 
L 191.052915 67.882836 
L 191.052915 67.688336 
L 191.566869 67.688336 
L 191.566869 67.396585 
L 192.851755 67.299334 
L 192.851755 67.202084 
L 193.622686 67.202084 
L 193.622686 67.007583 
L 193.879663 67.007583 
L 193.879663 66.715832 
L 194.13664 66.715832 
L 194.13664 66.424081 
L 194.650594 66.326831 
L 194.650594 66.22958 
L 195.421525 66.13233 
L 195.421525 66.03508 
L 196.706411 66.03508 
L 196.706411 65.840579 
L 197.734319 65.743329 
L 197.734319 65.159826 
L 198.248273 65.062576 
L 198.248273 64.965326 
L 198.762227 64.868075 
L 198.762227 64.770825 
L 199.790135 64.770825 
L 199.790135 64.479074 
L 200.047112 64.479074 
L 200.047112 64.284573 
L 200.30409 64.284573 
L 200.30409 63.798321 
L 200.818044 63.701071 
L 200.818044 63.603821 
L 201.075021 63.603821 
L 201.075021 63.40932 
L 202.102929 63.40932 
L 202.102929 63.214819 
L 202.616883 63.117569 
L 202.616883 62.923068 
L 203.130837 62.825818 
L 203.130837 62.728567 
L 203.387814 62.728567 
L 203.387814 62.534067 
L 204.6727 62.534067 
L 204.6727 62.145065 
L 205.700608 62.047815 
L 205.700608 61.950564 
L 206.471539 61.853314 
L 206.471539 61.756064 
L 206.985493 61.756064 
L 206.985493 61.464313 
L 207.24247 61.464313 
L 207.24247 61.269812 
L 208.270379 61.172562 
L 208.270379 60.978061 
L 209.04131 60.88081 
L 209.04131 60.78356 
L 209.555264 60.68631 
L 209.555264 60.491809 
L 210.069218 60.394559 
L 210.069218 60.297308 
L 210.840149 60.200058 
L 210.840149 60.005557 
L 211.868057 59.908307 
L 211.868057 59.811056 
L 212.895966 59.713806 
L 212.895966 59.519305 
L 213.152943 59.519305 
L 213.152943 59.324805 
L 215.979691 59.227554 
L 215.979691 58.838553 
L 216.750622 58.838553 
L 216.750622 58.449551 
L 217.264576 58.449551 
L 217.264576 57.9633 
L 218.035507 57.9633 
L 218.035507 57.768799 
L 219.834347 57.671548 
L 219.834347 57.477048 
L 220.862255 57.379797 
L 220.862255 57.282547 
L 225.230865 57.185297 
L 225.230865 56.990796 
L 225.744819 56.893546 
L 225.744819 56.699045 
L 226.772727 56.699045 
L 226.772727 56.310043 
L 227.543658 56.310043 
L 227.543658 55.921042 
L 228.057613 55.921042 
L 228.057613 55.726541 
L 228.571567 55.629291 
L 228.571567 55.33754 
L 228.828544 55.33754 
L 228.828544 55.143039 
L 229.342498 55.143039 
L 229.342498 54.851288 
L 230.113429 54.754038 
L 230.113429 54.656787 
L 232.6832 54.559537 
L 232.6832 54.073285 
L 233.968085 53.976035 
L 233.968085 53.781534 
L 234.482039 53.781534 
L 234.482039 53.587033 
L 235.509947 53.489783 
L 235.509947 53.198032 
L 237.308787 53.100781 
L 237.308787 53.003531 
L 237.822741 53.003531 
L 237.822741 52.71178 
L 238.336695 52.71178 
L 238.336695 52.225528 
L 239.878558 52.225528 
L 239.878558 52.031027 
L 240.649489 52.031027 
L 240.649489 51.836527 
L 241.163443 51.836527 
L 241.163443 51.350275 
L 242.191351 51.253025 
L 242.191351 50.961274 
L 242.705305 50.864023 
L 242.705305 50.766773 
L 243.733214 50.669522 
L 243.733214 50.572272 
L 244.247168 50.572272 
L 244.247168 50.377771 
L 245.275076 50.280521 
L 245.275076 50.183271 
L 247.073915 50.08602 
L 247.073915 49.98877 
L 248.615778 49.89152 
L 248.615778 49.794269 
L 250.414617 49.697019 
L 250.414617 49.599768 
L 250.928571 49.599768 
L 250.928571 49.405268 
L 251.442526 49.308017 
L 251.442526 49.210767 
L 252.727411 49.113517 
L 252.727411 49.016266 
L 252.984388 49.016266 
L 252.984388 48.821766 
L 254.52625 48.724515 
L 254.52625 48.627265 
L 256.32509 48.530014 
L 256.32509 48.432764 
L 257.096021 48.335514 
L 257.096021 48.238263 
L 260.6937 48.238263 
L 260.6937 48.043763 
L 261.464631 48.043763 
L 261.464631 47.849262 
L 262.235562 47.752012 
L 262.235562 47.46026 
L 265.576264 47.36301 
L 265.576264 47.26576 
L 267.889058 47.168509 
L 267.889058 46.974009 
L 269.944874 46.876758 
L 269.944874 46.779508 
L 273.285576 46.682258 
L 273.285576 46.585007 
L 276.369301 46.487757 
L 276.369301 46.390507 
L 277.397209 46.293256 
L 277.397209 46.196006 
L 281.508842 46.098755 
L 281.508842 46.001505 
L 282.793728 45.904255 
L 282.793728 45.807004 
L 287.419315 45.709754 
L 287.419315 45.612504 
L 288.7042 45.515253 
L 288.7042 45.418003 
L 290.246062 45.320753 
L 290.246062 45.223502 
L 296.927466 45.126252 
L 296.927466 45.029001 
L 298.983283 45.029001 
L 298.983283 44.834501 
L 306.178641 44.73725 
L 306.178641 44.64 
L 311.318182 44.64 
L 311.318182 44.64 
" style="fill:none;stroke:#ff7f0e;stroke-linecap:square;stroke-width:1.5;"/>
   </g>
   <g id="line2d_15">
    <path clip-path="url(#p476bf09f1e)" d="M 57.681818 246.24 
L 57.681818 237.744328 
L 57.798058 237.744328 
L 57.798058 235.218588 
L 57.914299 235.218588 
L 57.914299 230.39672 
L 58.030539 230.39672 
L 58.030539 229.707882 
L 58.146779 229.707882 
L 58.146779 227.182141 
L 58.26302 227.182141 
L 58.26302 226.722916 
L 58.4955 226.722916 
L 58.4955 223.73795 
L 58.611741 223.73795 
L 58.611741 222.360273 
L 58.727981 222.360273 
L 58.727981 221.901048 
L 58.844221 221.901048 
L 58.844221 219.60492 
L 59.076702 219.60492 
L 59.076702 217.768018 
L 59.192942 217.768018 
L 59.192942 216.849567 
L 59.309183 216.849567 
L 59.309183 216.619954 
L 59.425423 216.619954 
L 59.425423 215.012665 
L 59.541663 215.012665 
L 59.541663 213.864601 
L 59.657904 213.864601 
L 59.657904 212.94615 
L 59.774144 212.94615 
L 59.774144 212.486925 
L 59.890384 212.486925 
L 59.890384 211.338861 
L 60.006624 211.338861 
L 60.006624 210.42041 
L 60.122865 210.42041 
L 60.122865 210.190797 
L 60.239105 210.190797 
L 60.239105 208.353895 
L 60.355345 208.353895 
L 60.355345 206.976219 
L 60.471586 206.976219 
L 60.471586 206.516993 
L 60.587826 206.516993 
L 60.587826 205.828155 
L 60.704066 205.828155 
L 60.704066 204.909704 
L 61.401508 204.909704 
L 61.401508 203.991253 
L 61.517749 203.991253 
L 61.517749 203.302415 
L 61.633989 203.302415 
L 61.633989 203.072802 
L 61.750229 203.072802 
L 61.750229 200.776674 
L 61.866469 200.776674 
L 61.866469 198.939772 
L 62.21519 198.939772 
L 62.21519 197.791708 
L 62.447671 197.791708 
L 62.447671 197.10287 
L 62.680152 197.10287 
L 62.680152 196.643645 
L 62.796392 196.643645 
L 62.796392 196.184419 
L 62.912632 196.184419 
L 62.912632 195.954806 
L 63.028873 195.954806 
L 63.028873 195.725194 
L 63.145113 195.725194 
L 63.145113 195.265968 
L 63.377594 195.265968 
L 63.377594 194.347517 
L 63.493834 194.347517 
L 63.493834 193.658679 
L 63.610074 193.658679 
L 63.610074 193.199453 
L 63.726314 193.199453 
L 63.726314 192.740228 
L 63.842555 192.740228 
L 63.842555 192.510615 
L 63.958795 192.510615 
L 63.958795 192.281002 
L 64.075035 192.281002 
L 64.075035 192.05139 
L 64.307516 192.05139 
L 64.307516 191.592164 
L 64.423756 191.592164 
L 64.423756 190.673713 
L 64.539997 190.673713 
L 64.539997 190.4441 
L 64.888718 190.4441 
L 64.888718 190.214487 
L 65.004958 190.214487 
L 65.004958 189.296036 
L 65.121198 189.296036 
L 65.121198 188.836811 
L 65.237439 188.836811 
L 65.237439 188.377585 
L 65.353679 188.377585 
L 65.353679 187.91836 
L 65.469919 187.91836 
L 65.469919 187.459134 
L 65.586159 187.459134 
L 65.586159 187.229522 
L 65.7024 187.229522 
L 65.7024 186.311071 
L 65.81864 186.311071 
L 65.81864 186.081458 
L 65.93488 186.081458 
L 65.93488 185.39262 
L 66.051121 185.39262 
L 66.051121 184.933394 
L 66.167361 184.933394 
L 66.167361 184.703781 
L 66.283601 184.703781 
L 66.283601 183.326105 
L 66.399842 183.326105 
L 66.399842 183.096492 
L 66.748563 183.096492 
L 66.748563 182.637267 
L 66.864803 182.637267 
L 66.864803 182.178041 
L 67.213524 182.178041 
L 67.213524 181.489203 
L 67.329764 181.489203 
L 67.329764 180.800364 
L 67.446004 180.800364 
L 67.446004 180.570752 
L 67.562245 180.570752 
L 67.562245 179.652301 
L 67.678485 179.652301 
L 67.678485 179.422688 
L 67.794725 179.422688 
L 67.794725 179.193075 
L 68.143446 179.193075 
L 68.143446 178.963462 
L 68.259687 178.963462 
L 68.259687 178.504237 
L 68.492167 178.504237 
L 68.492167 178.045011 
L 68.724648 178.045011 
L 68.724648 177.815399 
L 69.073369 177.815399 
L 69.073369 177.585786 
L 69.53833 177.585786 
L 69.53833 176.896948 
L 69.65457 176.896948 
L 69.65457 175.289658 
L 70.235772 175.289658 
L 70.235772 174.60082 
L 70.352012 174.60082 
L 70.352012 174.371207 
L 70.584493 174.371207 
L 70.584493 174.141595 
L 70.700733 174.141595 
L 70.700733 173.911982 
L 70.816974 173.911982 
L 70.816974 173.452756 
L 71.165695 173.452756 
L 71.165695 173.223144 
L 71.281935 173.223144 
L 71.281935 172.993531 
L 71.746896 172.993531 
L 71.746896 172.534305 
L 71.863136 172.534305 
L 71.863136 172.07508 
L 71.979377 172.07508 
L 71.979377 171.845467 
L 72.211857 171.845467 
L 72.211857 171.386241 
L 72.444338 171.386241 
L 72.444338 171.156629 
L 72.560578 171.156629 
L 72.560578 170.697403 
L 72.676819 170.697403 
L 72.676819 170.46779 
L 72.793059 170.46779 
L 72.793059 169.778952 
L 72.909299 169.778952 
L 72.909299 169.319727 
L 73.02554 169.319727 
L 73.02554 168.630888 
L 73.606741 168.630888 
L 73.606741 168.401276 
L 74.187943 168.401276 
L 74.187943 168.171663 
L 74.304183 168.171663 
L 74.304183 167.94205 
L 74.536664 167.94205 
L 74.536664 167.712437 
L 74.652904 167.712437 
L 74.652904 167.482825 
L 75.001625 167.482825 
L 75.001625 166.564374 
L 75.117865 166.564374 
L 75.117865 166.334761 
L 75.350346 166.334761 
L 75.350346 165.875535 
L 75.466586 165.875535 
L 75.466586 165.645923 
L 75.815307 165.645923 
L 75.815307 165.186697 
L 76.628989 165.186697 
L 76.628989 164.957084 
L 76.74523 164.957084 
L 76.74523 164.727472 
L 76.97771 164.727472 
L 76.97771 163.120182 
L 77.210191 163.120182 
L 77.210191 162.890569 
L 78.140113 162.890569 
L 78.140113 162.660957 
L 78.372594 162.660957 
L 78.372594 162.431344 
L 78.721315 162.431344 
L 78.721315 162.201731 
L 78.953796 162.201731 
L 78.953796 161.972118 
L 79.070036 161.972118 
L 79.070036 161.742506 
L 79.186276 161.742506 
L 79.186276 160.594442 
L 79.302516 160.594442 
L 79.302516 159.675991 
L 79.767478 159.675991 
L 79.767478 159.446378 
L 79.883718 159.446378 
L 79.883718 158.75754 
L 79.999958 158.75754 
L 79.999958 158.527927 
L 80.46492 158.527927 
L 80.46492 157.609476 
L 80.58116 157.609476 
L 80.58116 156.461412 
L 80.6974 156.461412 
L 80.6974 156.002187 
L 80.813641 156.002187 
L 80.813641 155.772574 
L 80.929881 155.772574 
L 80.929881 155.542961 
L 81.046121 155.542961 
L 81.046121 155.313349 
L 81.162361 155.313349 
L 81.162361 155.083736 
L 81.394842 155.083736 
L 81.394842 154.62451 
L 81.511082 154.62451 
L 81.511082 154.394897 
L 81.743563 154.394897 
L 81.743563 153.706059 
L 81.859803 153.706059 
L 81.859803 153.476446 
L 82.441005 153.476446 
L 82.441005 153.246834 
L 82.557245 153.246834 
L 82.557245 152.787608 
L 82.673486 152.787608 
L 82.673486 152.09877 
L 82.789726 152.09877 
L 82.789726 151.869157 
L 82.905966 151.869157 
L 82.905966 151.409932 
L 83.254687 151.409932 
L 83.254687 150.950706 
L 83.370927 150.950706 
L 83.370927 149.802642 
L 83.603408 149.802642 
L 83.603408 149.57303 
L 84.765811 149.57303 
L 84.765811 149.113804 
L 84.882051 149.113804 
L 84.882051 148.654579 
L 85.114532 148.654579 
L 85.114532 148.424966 
L 85.347013 148.424966 
L 85.347013 146.817677 
L 85.463253 146.817677 
L 85.463253 146.358451 
L 85.579493 146.358451 
L 85.579493 146.128838 
L 85.695734 146.128838 
L 85.695734 145.899226 
L 85.928214 145.899226 
L 85.928214 145.44 
L 86.044455 145.44 
L 86.044455 145.210387 
L 86.276935 145.210387 
L 86.276935 144.980774 
L 86.858137 144.980774 
L 86.858137 144.751162 
L 87.206858 144.751162 
L 87.206858 144.521549 
L 87.439338 144.521549 
L 87.439338 144.291936 
L 88.369261 144.291936 
L 88.369261 144.062323 
L 88.485501 144.062323 
L 88.485501 143.603098 
L 88.601742 143.603098 
L 88.601742 143.373485 
L 88.717982 143.373485 
L 88.717982 142.684647 
L 89.182943 142.684647 
L 89.182943 142.455034 
L 89.415424 142.455034 
L 89.415424 142.225421 
L 89.996625 142.225421 
L 89.996625 141.766196 
L 90.577827 141.766196 
L 90.577827 141.30697 
L 90.926548 141.30697 
L 90.926548 140.388519 
L 91.275269 140.388519 
L 91.275269 139.699681 
L 91.391509 139.699681 
L 91.391509 139.470068 
L 91.62399 139.470068 
L 91.62399 139.240456 
L 91.74023 139.240456 
L 91.74023 138.78123 
L 91.972711 138.78123 
L 91.972711 138.322005 
L 92.670152 138.322005 
L 92.670152 137.862779 
L 92.902633 137.862779 
L 92.902633 137.633166 
L 93.135114 137.633166 
L 93.135114 136.714715 
L 93.251354 136.714715 
L 93.251354 136.485103 
L 93.367594 136.485103 
L 93.367594 136.025877 
L 93.716315 136.025877 
L 93.716315 135.337039 
L 94.065036 135.337039 
L 94.065036 134.877813 
L 94.181277 134.877813 
L 94.181277 134.418588 
L 94.297517 134.418588 
L 94.297517 133.959362 
L 94.529998 133.959362 
L 94.529998 133.729749 
L 94.646238 133.729749 
L 94.646238 132.581686 
L 95.111199 132.581686 
L 95.111199 131.663235 
L 95.45992 131.663235 
L 95.45992 131.433622 
L 96.157362 131.433622 
L 96.157362 131.204009 
L 96.389843 131.204009 
L 96.389843 130.974396 
L 96.506083 130.974396 
L 96.506083 130.515171 
L 96.622323 130.515171 
L 96.622323 129.826333 
L 97.087284 129.826333 
L 97.087284 129.59672 
L 97.203525 129.59672 
L 97.203525 127.989431 
L 97.668486 127.989431 
L 97.668486 127.759818 
L 97.784726 127.759818 
L 97.784726 127.300592 
L 97.900967 127.300592 
L 97.900967 126.841367 
L 98.017207 126.841367 
L 98.017207 126.382141 
L 98.133447 126.382141 
L 98.133447 125.693303 
L 98.249688 125.693303 
L 98.249688 125.004465 
L 98.830889 125.004465 
L 98.830889 124.774852 
L 99.644571 124.774852 
L 99.644571 124.086014 
L 99.760812 124.086014 
L 99.760812 123.856401 
L 99.877052 123.856401 
L 99.877052 123.397175 
L 100.574494 123.397175 
L 100.574494 123.167563 
L 100.690734 123.167563 
L 100.690734 122.478724 
L 100.923215 122.478724 
L 100.923215 122.249112 
L 101.039455 122.249112 
L 101.039455 122.019499 
L 101.271936 122.019499 
L 101.271936 121.789886 
L 101.853137 121.789886 
L 101.853137 121.560273 
L 101.969378 121.560273 
L 101.969378 121.101048 
L 102.085618 121.101048 
L 102.085618 120.41221 
L 102.201858 120.41221 
L 102.201858 120.182597 
L 102.318098 120.182597 
L 102.318098 119.952984 
L 102.666819 119.952984 
L 102.666819 119.723371 
L 102.78306 119.723371 
L 102.78306 119.493759 
L 102.8993 119.493759 
L 102.8993 119.264146 
L 103.01554 119.264146 
L 103.01554 118.80492 
L 103.480502 118.80492 
L 103.480502 118.575308 
L 103.829223 118.575308 
L 103.829223 118.116082 
L 104.061703 118.116082 
L 104.061703 117.656856 
L 104.410424 117.656856 
L 104.410424 117.197631 
L 104.526664 117.197631 
L 104.526664 116.508793 
L 104.875385 116.508793 
L 104.875385 116.27918 
L 105.340347 116.27918 
L 105.340347 115.819954 
L 105.689068 115.819954 
L 105.689068 115.131116 
L 105.805308 115.131116 
L 105.805308 114.901503 
L 105.921548 114.901503 
L 105.921548 114.442278 
L 106.037789 114.442278 
L 106.037789 114.212665 
L 106.154029 114.212665 
L 106.154029 113.983052 
L 106.270269 113.983052 
L 106.270269 113.75344 
L 106.386509 113.75344 
L 106.386509 113.294214 
L 108.013874 113.294214 
L 108.013874 113.064601 
L 108.130114 113.064601 
L 108.130114 112.834989 
L 108.362595 112.834989 
L 108.362595 112.605376 
L 109.060037 112.605376 
L 109.060037 111.916538 
L 109.641238 111.916538 
L 109.641238 111.686925 
L 109.757479 111.686925 
L 109.757479 111.457312 
L 109.989959 111.457312 
L 109.989959 110.998087 
L 110.33868 110.998087 
L 110.33868 110.768474 
L 110.803641 110.768474 
L 110.803641 110.538861 
L 112.314765 110.538861 
L 112.314765 110.309248 
L 113.477169 110.309248 
L 113.477169 109.850023 
L 114.17461 109.850023 
L 114.17461 109.62041 
L 114.290851 109.62041 
L 114.290851 109.390797 
L 115.220773 109.390797 
L 115.220773 109.161185 
L 115.685735 109.161185 
L 115.685735 108.931572 
L 115.918215 108.931572 
L 115.918215 108.701959 
L 116.034455 108.701959 
L 116.034455 108.472346 
L 116.266936 108.472346 
L 116.266936 108.242733 
L 116.615657 108.242733 
L 116.615657 108.013121 
L 119.637905 108.013121 
L 119.637905 107.783508 
L 119.870386 107.783508 
L 119.870386 107.553895 
L 120.102866 107.553895 
L 120.102866 107.09467 
L 120.219107 107.09467 
L 120.219107 106.865057 
L 121.613991 106.865057 
L 121.613991 106.635444 
L 121.730231 106.635444 
L 121.730231 106.405831 
L 121.962711 106.405831 
L 121.962711 105.946606 
L 122.311432 105.946606 
L 122.311432 105.716993 
L 123.822556 105.716993 
L 123.822556 105.48738 
L 124.055037 105.48738 
L 124.055037 105.257768 
L 125.21744 105.257768 
L 125.21744 104.798542 
L 125.682401 104.798542 
L 125.682401 104.568929 
L 126.031122 104.568929 
L 126.031122 104.339317 
L 127.077285 104.339317 
L 127.077285 104.109704 
L 130.332014 104.109704 
L 130.332014 103.880091 
L 130.680735 103.880091 
L 130.680735 103.650478 
L 132.54058 103.650478 
L 132.54058 103.420866 
L 132.65682 103.420866 
L 132.65682 103.191253 
L 133.586743 103.191253 
L 133.586743 102.96164 
L 134.284185 102.96164 
L 134.284185 102.732027 
L 134.749146 102.732027 
L 134.749146 102.502415 
L 134.981627 102.502415 
L 134.981627 102.272802 
L 135.446588 102.272802 
L 135.446588 102.043189 
L 135.562828 102.043189 
L 135.562828 101.583964 
L 135.795309 101.583964 
L 135.795309 101.124738 
L 137.190192 101.124738 
L 137.190192 100.895125 
L 137.538913 100.895125 
L 137.538913 100.665513 
L 138.701317 100.665513 
L 138.701317 100.4359 
L 139.282518 100.4359 
L 139.282518 100.206287 
L 139.631239 100.206287 
L 139.631239 99.976674 
L 139.86372 99.976674 
L 139.86372 99.747062 
L 140.328681 99.747062 
L 140.328681 99.287836 
L 141.026123 99.287836 
L 141.026123 99.058223 
L 141.723565 99.058223 
L 141.723565 98.82861 
L 141.839805 98.82861 
L 141.839805 98.598998 
L 142.421007 98.598998 
L 142.421007 98.369385 
L 143.002208 98.369385 
L 143.002208 98.139772 
L 143.118448 98.139772 
L 143.118448 97.910159 
L 145.094534 97.910159 
L 145.094534 97.450934 
L 145.210774 97.450934 
L 145.210774 96.762096 
L 146.721898 96.762096 
L 146.721898 96.532483 
L 146.838138 96.532483 
L 146.838138 96.30287 
L 148.581743 96.30287 
L 148.581743 96.073257 
L 149.627906 96.073257 
L 149.627906 95.843645 
L 149.860387 95.843645 
L 149.860387 95.614032 
L 151.02279 95.614032 
L 151.02279 95.384419 
L 154.045038 95.384419 
L 154.045038 95.154806 
L 155.788643 95.154806 
L 155.788643 94.925194 
L 156.718565 94.925194 
L 156.718565 94.695581 
L 157.067286 94.695581 
L 157.067286 94.465968 
L 157.764728 94.465968 
L 157.764728 94.236355 
L 157.880968 94.236355 
L 157.880968 94.006743 
L 159.392092 94.006743 
L 159.392092 93.547517 
L 159.508333 93.547517 
L 159.508333 93.317904 
L 159.973294 93.317904 
L 159.973294 93.088292 
L 160.438255 93.088292 
L 160.438255 92.858679 
L 160.670736 92.858679 
L 160.670736 92.629066 
L 161.949379 92.629066 
L 161.949379 92.169841 
L 163.344263 92.169841 
L 163.344263 91.940228 
L 163.576744 91.940228 
L 163.576744 91.710615 
L 163.692984 91.710615 
L 163.692984 91.481002 
L 165.436589 91.481002 
L 165.436589 90.792164 
L 165.552829 90.792164 
L 165.552829 90.562551 
L 165.90155 90.562551 
L 165.90155 90.332938 
L 166.598992 90.332938 
L 166.598992 89.873713 
L 166.715232 89.873713 
L 166.715232 89.6441 
L 167.180193 89.6441 
L 167.180193 89.414487 
L 168.691317 89.414487 
L 168.691317 89.184875 
L 169.040038 89.184875 
L 169.040038 88.725649 
L 170.318682 88.725649 
L 170.318682 88.496036 
L 170.551162 88.496036 
L 170.551162 88.266424 
L 171.597325 88.266424 
L 171.597325 88.036811 
L 172.178527 88.036811 
L 172.178527 87.807198 
L 174.735814 87.807198 
L 174.735814 87.577585 
L 177.06062 87.577585 
L 177.06062 87.347973 
L 177.990542 87.347973 
L 177.990542 86.888747 
L 179.385426 86.888747 
L 179.385426 86.659134 
L 180.89655 86.659134 
L 180.89655 86.429522 
L 181.826473 86.429522 
L 181.826473 86.199909 
L 182.175194 86.199909 
L 182.175194 85.970296 
L 182.640155 85.970296 
L 182.640155 85.740683 
L 182.756395 85.740683 
L 182.756395 85.511071 
L 183.453837 85.511071 
L 183.453837 85.281458 
L 185.081202 85.281458 
L 185.081202 85.051845 
L 185.429923 85.051845 
L 185.429923 84.822232 
L 185.894884 84.822232 
L 185.894884 84.59262 
L 186.359845 84.59262 
L 186.359845 84.363007 
L 186.476085 84.363007 
L 186.476085 84.133394 
L 188.568411 84.133394 
L 188.568411 83.903781 
L 189.033372 83.903781 
L 189.033372 83.674169 
L 189.614574 83.674169 
L 189.614574 83.444556 
L 190.312016 83.444556 
L 190.312016 83.214943 
L 192.636822 83.214943 
L 192.636822 82.98533 
L 192.869303 82.98533 
L 192.869303 82.755718 
L 196.124031 82.755718 
L 196.124031 82.526105 
L 196.705233 82.526105 
L 196.705233 82.066879 
L 197.518915 82.066879 
L 197.518915 81.837267 
L 198.332597 81.837267 
L 198.332597 81.607654 
L 198.448838 81.607654 
L 198.448838 81.378041 
L 198.681318 81.378041 
L 198.681318 81.148428 
L 200.076202 81.148428 
L 200.076202 80.689203 
L 200.541163 80.689203 
L 200.541163 80.45959 
L 201.006124 80.45959 
L 201.006124 80.000364 
L 201.122365 80.000364 
L 201.122365 79.770752 
L 202.517249 79.770752 
L 202.517249 79.541139 
L 203.447171 79.541139 
L 203.447171 79.311526 
L 203.563411 79.311526 
L 203.563411 79.081913 
L 204.260853 79.081913 
L 204.260853 77.93385 
L 206.004458 77.93385 
L 206.004458 77.704237 
L 206.353179 77.704237 
L 206.353179 77.474624 
L 208.213024 77.474624 
L 208.213024 77.245011 
L 208.677985 77.245011 
L 208.677985 77.015399 
L 209.142946 77.015399 
L 209.142946 76.785786 
L 210.30535 76.785786 
L 210.30535 76.556173 
L 210.65407 76.556173 
L 210.65407 76.096948 
L 210.770311 76.096948 
L 210.770311 75.867335 
L 210.886551 75.867335 
L 210.886551 75.637722 
L 211.932714 75.637722 
L 211.932714 75.408109 
L 212.397675 75.408109 
L 212.397675 75.178497 
L 214.02504 75.178497 
L 214.02504 74.948884 
L 214.838722 74.948884 
L 214.838722 74.719271 
L 217.628489 74.719271 
L 217.628489 74.489658 
L 219.720815 74.489658 
L 219.720815 74.260046 
L 220.766978 74.260046 
L 220.766978 74.030433 
L 221.348179 74.030433 
L 221.348179 73.80082 
L 222.045621 73.80082 
L 222.045621 73.571207 
L 225.067869 73.571207 
L 225.067869 73.341595 
L 225.30035 73.341595 
L 225.30035 73.111982 
L 225.997792 73.111982 
L 225.997792 72.882369 
L 226.346513 72.882369 
L 226.346513 72.423144 
L 227.625156 72.423144 
L 227.625156 72.193531 
L 228.671319 72.193531 
L 228.671319 71.734305 
L 230.066203 71.734305 
L 230.066203 71.504692 
L 231.693567 71.504692 
L 231.693567 71.27508 
L 231.809808 71.27508 
L 231.809808 71.045467 
L 232.042288 71.045467 
L 232.042288 70.815854 
L 232.972211 70.815854 
L 232.972211 70.586241 
L 233.785893 70.586241 
L 233.785893 70.356629 
L 236.691901 70.356629 
L 236.691901 70.127016 
L 237.156862 70.127016 
L 237.156862 69.897403 
L 237.738063 69.897403 
L 237.738063 69.66779 
L 238.203025 69.66779 
L 238.203025 69.438178 
L 239.597909 69.438178 
L 239.597909 69.208565 
L 239.714149 69.208565 
L 239.714149 68.978952 
L 240.760312 68.978952 
L 240.760312 68.749339 
L 241.806474 68.749339 
L 241.806474 68.519727 
L 241.922715 68.519727 
L 241.922715 67.830888 
L 242.620157 67.830888 
L 242.620157 67.601276 
L 243.78256 67.601276 
L 243.78256 67.371663 
L 244.01504 67.371663 
L 244.01504 67.14205 
L 244.480002 67.14205 
L 244.480002 66.912437 
L 244.596242 66.912437 
L 244.596242 66.453212 
L 245.293684 66.453212 
L 245.293684 66.223599 
L 245.642405 66.223599 
L 245.642405 65.993986 
L 245.874885 65.993986 
L 245.874885 65.764374 
L 247.850971 65.764374 
L 247.850971 65.534761 
L 248.315932 65.534761 
L 248.315932 64.845923 
L 248.432172 64.845923 
L 248.432172 64.61631 
L 248.897134 64.61631 
L 248.897134 64.157084 
L 252.500583 64.157084 
L 252.500583 63.927472 
L 253.546746 63.927472 
L 253.546746 63.697859 
L 255.17411 63.697859 
L 255.17411 63.468246 
L 255.406591 63.468246 
L 255.406591 63.238633 
L 255.639072 63.238633 
L 255.639072 63.009021 
L 258.77756 63.009021 
L 258.77756 62.779408 
L 259.010041 62.779408 
L 259.010041 62.549795 
L 259.591242 62.549795 
L 259.591242 62.090569 
L 259.707483 62.090569 
L 259.707483 61.631344 
L 259.939963 61.631344 
L 259.939963 61.401731 
L 260.986126 61.401731 
L 260.986126 61.172118 
L 262.26477 61.172118 
L 262.26477 60.942506 
L 262.38101 60.942506 
L 262.38101 60.48328 
L 262.845971 60.48328 
L 262.845971 60.253667 
L 263.194692 60.253667 
L 263.194692 60.024055 
L 264.822056 60.024055 
L 264.822056 59.794442 
L 265.170777 59.794442 
L 265.170777 59.335216 
L 265.403258 59.335216 
L 265.403258 59.105604 
L 265.519498 59.105604 
L 265.519498 58.875991 
L 266.21694 58.875991 
L 266.21694 58.646378 
L 266.333181 58.646378 
L 266.333181 58.187153 
L 266.449421 58.187153 
L 266.449421 57.95754 
L 267.263103 57.95754 
L 267.263103 57.727927 
L 267.960545 57.727927 
L 267.960545 57.498314 
L 268.076785 57.498314 
L 268.076785 57.039089 
L 268.193026 57.039089 
L 268.193026 56.579863 
L 268.425506 56.579863 
L 268.425506 56.350251 
L 268.774227 56.350251 
L 268.774227 56.120638 
L 269.82039 56.120638 
L 269.82039 55.891025 
L 271.331514 55.891025 
L 271.331514 55.661412 
L 273.54008 55.661412 
L 273.54008 55.202187 
L 275.399925 55.202187 
L 275.399925 54.742961 
L 276.794809 54.742961 
L 276.794809 54.513349 
L 277.25977 54.513349 
L 277.25977 54.283736 
L 278.654654 54.283736 
L 278.654654 54.054123 
L 279.003375 54.054123 
L 279.003375 53.82451 
L 279.235855 53.82451 
L 279.235855 53.594897 
L 280.165778 53.594897 
L 280.165778 53.365285 
L 282.141863 53.365285 
L 282.141863 52.906059 
L 282.723065 52.906059 
L 282.723065 52.676446 
L 282.955545 52.676446 
L 282.955545 52.446834 
L 283.769228 52.446834 
L 283.769228 52.217221 
L 285.280352 52.217221 
L 285.280352 51.757995 
L 285.396592 51.757995 
L 285.396592 51.528383 
L 286.210274 51.528383 
L 286.210274 51.29877 
L 286.558995 51.29877 
L 286.558995 51.069157 
L 286.791476 51.069157 
L 286.791476 50.839544 
L 286.907716 50.839544 
L 286.907716 50.609932 
L 287.023956 50.609932 
L 287.023956 50.380319 
L 288.41884 50.380319 
L 288.41884 50.150706 
L 288.767561 50.150706 
L 288.767561 49.921093 
L 289.929964 49.921093 
L 289.929964 49.461868 
L 290.627406 49.461868 
L 290.627406 49.232255 
L 290.859887 49.232255 
L 290.859887 49.002642 
L 291.789809 49.002642 
L 291.789809 48.543417 
L 292.25477 48.543417 
L 292.25477 48.313804 
L 292.719732 48.313804 
L 292.719732 48.084191 
L 293.998375 48.084191 
L 293.998375 47.854579 
L 294.695817 47.854579 
L 294.695817 47.624966 
L 298.415507 47.624966 
L 298.415507 47.395353 
L 299.229189 47.395353 
L 299.229189 47.16574 
L 300.042871 47.16574 
L 300.042871 46.936128 
L 301.205275 46.936128 
L 301.205275 46.706515 
L 301.902716 46.706515 
L 301.902716 46.476902 
L 302.251437 46.476902 
L 302.251437 46.247289 
L 302.948879 46.247289 
L 302.948879 46.017677 
L 306.203608 46.017677 
L 306.203608 45.788064 
L 307.714732 45.788064 
L 307.714732 45.558451 
L 308.528414 45.558451 
L 308.528414 45.328838 
L 308.877135 45.328838 
L 308.877135 45.099226 
L 310.155779 45.099226 
L 310.155779 44.869613 
L 310.73698 44.869613 
L 310.73698 44.64 
L 311.318182 44.64 
L 311.318182 44.64 
" style="fill:none;stroke:#2ca02c;stroke-linecap:square;stroke-width:1.5;"/>
   </g>
   <g id="patch_3">
    <path d="M 45 256.32 
L 45 34.56 
" style="fill:none;stroke:#000000;stroke-linecap:square;stroke-linejoin:miter;stroke-width:0.8;"/>
   </g>
   <g id="patch_4">
    <path d="M 324 256.32 
L 324 34.56 
" style="fill:none;stroke:#000000;stroke-linecap:square;stroke-linejoin:miter;stroke-width:0.8;"/>
   </g>
   <g id="patch_5">
    <path d="M 45 256.32 
L 324 256.32 
" style="fill:none;stroke:#000000;stroke-linecap:square;stroke-linejoin:miter;stroke-width:0.8;"/>
   </g>
   <g id="patch_6">
    <path d="M 45 34.56 
L 324 34.56 
" style="fill:none;stroke:#000000;stroke-linecap:square;stroke-linejoin:miter;stroke-width:0.8;"/>
   </g>
   <g id="text_15">
    <!-- roc_shufflenet -->
    <g transform="translate(142.037813 28.56)scale(0.12 -0.12)">
     <defs>
      <path d="M 1959 3097 
Q 1497 3097 1228 2736 
Q 959 2375 959 1747 
Q 959 1119 1226 758 
Q 1494 397 1959 397 
Q 2419 397 2687 759 
Q 2956 1122 2956 1747 
Q 2956 2369 2687 2733 
Q 2419 3097 1959 3097 
z
M 1959 3584 
Q 2709 3584 3137 3096 
Q 3566 2609 3566 1747 
Q 3566 888 3137 398 
Q 2709 -91 1959 -91 
Q 1206 -91 779 398 
Q 353 888 353 1747 
Q 353 2609 779 3096 
Q 1206 3584 1959 3584 
z
" id="DejaVuSans-6f" transform="scale(0.015625)"/>
      <path d="M 3122 3366 
L 3122 2828 
Q 2878 2963 2633 3030 
Q 2388 3097 2138 3097 
Q 1578 3097 1268 2742 
Q 959 2388 959 1747 
Q 959 1106 1268 751 
Q 1578 397 2138 397 
Q 2388 397 2633 464 
Q 2878 531 3122 666 
L 3122 134 
Q 2881 22 2623 -34 
Q 2366 -91 2075 -91 
Q 1284 -91 818 406 
Q 353 903 353 1747 
Q 353 2603 823 3093 
Q 1294 3584 2113 3584 
Q 2378 3584 2631 3529 
Q 2884 3475 3122 3366 
z
" id="DejaVuSans-63" transform="scale(0.015625)"/>
      <path d="M 3263 -1063 
L 3263 -1509 
L -63 -1509 
L -63 -1063 
L 3263 -1063 
z
" id="DejaVuSans-5f" transform="scale(0.015625)"/>
      <path d="M 2834 3397 
L 2834 2853 
Q 2591 2978 2328 3040 
Q 2066 3103 1784 3103 
Q 1356 3103 1142 2972 
Q 928 2841 928 2578 
Q 928 2378 1081 2264 
Q 1234 2150 1697 2047 
L 1894 2003 
Q 2506 1872 2764 1633 
Q 3022 1394 3022 966 
Q 3022 478 2636 193 
Q 2250 -91 1575 -91 
Q 1294 -91 989 -36 
Q 684 19 347 128 
L 347 722 
Q 666 556 975 473 
Q 1284 391 1588 391 
Q 1994 391 2212 530 
Q 2431 669 2431 922 
Q 2431 1156 2273 1281 
Q 2116 1406 1581 1522 
L 1381 1569 
Q 847 1681 609 1914 
Q 372 2147 372 2553 
Q 372 3047 722 3315 
Q 1072 3584 1716 3584 
Q 2034 3584 2315 3537 
Q 2597 3491 2834 3397 
z
" id="DejaVuSans-73" transform="scale(0.015625)"/>
      <path d="M 3513 2113 
L 3513 0 
L 2938 0 
L 2938 2094 
Q 2938 2591 2744 2837 
Q 2550 3084 2163 3084 
Q 1697 3084 1428 2787 
Q 1159 2491 1159 1978 
L 1159 0 
L 581 0 
L 581 4863 
L 1159 4863 
L 1159 2956 
Q 1366 3272 1645 3428 
Q 1925 3584 2291 3584 
Q 2894 3584 3203 3211 
Q 3513 2838 3513 2113 
z
" id="DejaVuSans-68" transform="scale(0.015625)"/>
      <path d="M 544 1381 
L 544 3500 
L 1119 3500 
L 1119 1403 
Q 1119 906 1312 657 
Q 1506 409 1894 409 
Q 2359 409 2629 706 
Q 2900 1003 2900 1516 
L 2900 3500 
L 3475 3500 
L 3475 0 
L 2900 0 
L 2900 538 
Q 2691 219 2414 64 
Q 2138 -91 1772 -91 
Q 1169 -91 856 284 
Q 544 659 544 1381 
z
M 1991 3584 
L 1991 3584 
z
" id="DejaVuSans-75" transform="scale(0.015625)"/>
      <path d="M 603 4863 
L 1178 4863 
L 1178 0 
L 603 0 
L 603 4863 
z
" id="DejaVuSans-6c" transform="scale(0.015625)"/>
      <path d="M 3597 1894 
L 3597 1613 
L 953 1613 
Q 991 1019 1311 708 
Q 1631 397 2203 397 
Q 2534 397 2845 478 
Q 3156 559 3463 722 
L 3463 178 
Q 3153 47 2828 -22 
Q 2503 -91 2169 -91 
Q 1331 -91 842 396 
Q 353 884 353 1716 
Q 353 2575 817 3079 
Q 1281 3584 2069 3584 
Q 2775 3584 3186 3129 
Q 3597 2675 3597 1894 
z
M 3022 2063 
Q 3016 2534 2758 2815 
Q 2500 3097 2075 3097 
Q 1594 3097 1305 2825 
Q 1016 2553 972 2059 
L 3022 2063 
z
" id="DejaVuSans-65" transform="scale(0.015625)"/>
      <path d="M 3513 2113 
L 3513 0 
L 2938 0 
L 2938 2094 
Q 2938 2591 2744 2837 
Q 2550 3084 2163 3084 
Q 1697 3084 1428 2787 
Q 1159 2491 1159 1978 
L 1159 0 
L 581 0 
L 581 3500 
L 1159 3500 
L 1159 2956 
Q 1366 3272 1645 3428 
Q 1925 3584 2291 3584 
Q 2894 3584 3203 3211 
Q 3513 2838 3513 2113 
z
" id="DejaVuSans-6e" transform="scale(0.015625)"/>
     </defs>
     <use xlink:href="#DejaVuSans-72"/>
     <use x="38.863281" xlink:href="#DejaVuSans-6f"/>
     <use x="100.044922" xlink:href="#DejaVuSans-63"/>
     <use x="155.025391" xlink:href="#DejaVuSans-5f"/>
     <use x="205.025391" xlink:href="#DejaVuSans-73"/>
     <use x="257.125" xlink:href="#DejaVuSans-68"/>
     <use x="320.503906" xlink:href="#DejaVuSans-75"/>
     <use x="383.882812" xlink:href="#DejaVuSans-66"/>
     <use x="419.087891" xlink:href="#DejaVuSans-66"/>
     <use x="454.292969" xlink:href="#DejaVuSans-6c"/>
     <use x="482.076172" xlink:href="#DejaVuSans-65"/>
     <use x="543.599609" xlink:href="#DejaVuSans-6e"/>
     <use x="606.978516" xlink:href="#DejaVuSans-65"/>
     <use x="668.501953" xlink:href="#DejaVuSans-74"/>
    </g>
   </g>
   <g id="legend_1">
    <g id="patch_7">
     <path d="M 52 87.42875 
L 148.501563 87.42875 
Q 150.501563 87.42875 150.501563 85.42875 
L 150.501563 41.56 
Q 150.501563 39.56 148.501563 39.56 
L 52 39.56 
Q 50 39.56 50 41.56 
L 50 85.42875 
Q 50 87.42875 52 87.42875 
z
" style="fill:#ffffff;opacity:0.8;stroke:#cccccc;stroke-linejoin:miter;"/>
    </g>
    <g id="line2d_16">
     <path d="M 54 47.658438 
L 74 47.658438 
" style="fill:none;stroke:#1f77b4;stroke-linecap:square;stroke-width:1.5;"/>
    </g>
    <g id="line2d_17"/>
    <g id="text_16">
     <!-- auc_0: 0.610 -->
     <g transform="translate(82 51.158438)scale(0.1 -0.1)">
      <defs>
       <path d="M 2194 1759 
Q 1497 1759 1228 1600 
Q 959 1441 959 1056 
Q 959 750 1161 570 
Q 1363 391 1709 391 
Q 2188 391 2477 730 
Q 2766 1069 2766 1631 
L 2766 1759 
L 2194 1759 
z
M 3341 1997 
L 3341 0 
L 2766 0 
L 2766 531 
Q 2569 213 2275 61 
Q 1981 -91 1556 -91 
Q 1019 -91 701 211 
Q 384 513 384 1019 
Q 384 1609 779 1909 
Q 1175 2209 1959 2209 
L 2766 2209 
L 2766 2266 
Q 2766 2663 2505 2880 
Q 2244 3097 1772 3097 
Q 1472 3097 1187 3025 
Q 903 2953 641 2809 
L 641 3341 
Q 956 3463 1253 3523 
Q 1550 3584 1831 3584 
Q 2591 3584 2966 3190 
Q 3341 2797 3341 1997 
z
" id="DejaVuSans-61" transform="scale(0.015625)"/>
       <path d="M 750 794 
L 1409 794 
L 1409 0 
L 750 0 
L 750 794 
z
M 750 3309 
L 1409 3309 
L 1409 2516 
L 750 2516 
L 750 3309 
z
" id="DejaVuSans-3a" transform="scale(0.015625)"/>
       <path id="DejaVuSans-20" transform="scale(0.015625)"/>
      </defs>
      <use xlink:href="#DejaVuSans-61"/>
      <use x="61.279297" xlink:href="#DejaVuSans-75"/>
      <use x="124.658203" xlink:href="#DejaVuSans-63"/>
      <use x="179.638672" xlink:href="#DejaVuSans-5f"/>
      <use x="229.638672" xlink:href="#DejaVuSans-30"/>
      <use x="293.261719" xlink:href="#DejaVuSans-3a"/>
      <use x="326.953125" xlink:href="#DejaVuSans-20"/>
      <use x="358.740234" xlink:href="#DejaVuSans-30"/>
      <use x="422.363281" xlink:href="#DejaVuSans-2e"/>
      <use x="454.150391" xlink:href="#DejaVuSans-36"/>
      <use x="517.773438" xlink:href="#DejaVuSans-31"/>
      <use x="581.396484" xlink:href="#DejaVuSans-30"/>
     </g>
    </g>
    <g id="line2d_18">
     <path d="M 54 62.614688 
L 74 62.614688 
" style="fill:none;stroke:#ff7f0e;stroke-linecap:square;stroke-width:1.5;"/>
    </g>
    <g id="line2d_19"/>
    <g id="text_17">
     <!-- auc_1: 0.742 -->
     <g transform="translate(82 66.114688)scale(0.1 -0.1)">
      <defs>
       <path d="M 525 4666 
L 3525 4666 
L 3525 4397 
L 1831 0 
L 1172 0 
L 2766 4134 
L 525 4134 
L 525 4666 
z
" id="DejaVuSans-37" transform="scale(0.015625)"/>
      </defs>
      <use xlink:href="#DejaVuSans-61"/>
      <use x="61.279297" xlink:href="#DejaVuSans-75"/>
      <use x="124.658203" xlink:href="#DejaVuSans-63"/>
      <use x="179.638672" xlink:href="#DejaVuSans-5f"/>
      <use x="229.638672" xlink:href="#DejaVuSans-31"/>
      <use x="293.261719" xlink:href="#DejaVuSans-3a"/>
      <use x="326.953125" xlink:href="#DejaVuSans-20"/>
      <use x="358.740234" xlink:href="#DejaVuSans-30"/>
      <use x="422.363281" xlink:href="#DejaVuSans-2e"/>
      <use x="454.150391" xlink:href="#DejaVuSans-37"/>
      <use x="517.773438" xlink:href="#DejaVuSans-34"/>
      <use x="581.396484" xlink:href="#DejaVuSans-32"/>
     </g>
    </g>
    <g id="line2d_20">
     <path d="M 54 77.570938 
L 74 77.570938 
" style="fill:none;stroke:#2ca02c;stroke-linecap:square;stroke-width:1.5;"/>
    </g>
    <g id="line2d_21"/>
    <g id="text_18">
     <!-- auc_2: 0.761 -->
     <g transform="translate(82 81.070938)scale(0.1 -0.1)">
      <use xlink:href="#DejaVuSans-61"/>
      <use x="61.279297" xlink:href="#DejaVuSans-75"/>
      <use x="124.658203" xlink:href="#DejaVuSans-63"/>
      <use x="179.638672" xlink:href="#DejaVuSans-5f"/>
      <use x="229.638672" xlink:href="#DejaVuSans-32"/>
      <use x="293.261719" xlink:href="#DejaVuSans-3a"/>
      <use x="326.953125" xlink:href="#DejaVuSans-20"/>
      <use x="358.740234" xlink:href="#DejaVuSans-30"/>
      <use x="422.363281" xlink:href="#DejaVuSans-2e"/>
      <use x="454.150391" xlink:href="#DejaVuSans-37"/>
      <use x="517.773438" xlink:href="#DejaVuSans-36"/>
      <use x="581.396484" xlink:href="#DejaVuSans-31"/>
     </g>
    </g>
   </g>
  </g>
 </g>
 <defs>
  <clipPath id="p476bf09f1e">
   <rect height="221.76" width="279" x="45" y="34.56"/>
  </clipPath>
 </defs>
</svg>
