<?xml version="1.0" encoding="utf-8" standalone="no"?>
<!DOCTYPE svg PUBLIC "-//W3C//DTD SVG 1.1//EN"
  "http://www.w3.org/Graphics/SVG/1.1/DTD/svg11.dtd">
<svg height="288pt" version="1.1" viewBox="0 0 360 288" width="360pt" xmlns="http://www.w3.org/2000/svg" xmlns:xlink="http://www.w3.org/1999/xlink">
 <metadata>
  <rdf:RDF xmlns:cc="http://creativecommons.org/ns#" xmlns:dc="http://purl.org/dc/elements/1.1/" xmlns:rdf="http://www.w3.org/1999/02/22-rdf-syntax-ns#">
   <cc:Work>
    <dc:type rdf:resource="http://purl.org/dc/dcmitype/StillImage"/>
    <dc:date>2022-06-17T17:10:50.261337</dc:date>
    <dc:format>image/svg+xml</dc:format>
    <dc:creator>
     <cc:Agent>
      <dc:title>Matplotlib v3.4.2, https://matplotlib.org/</dc:title>
     </cc:Agent>
    </dc:creator>
   </cc:Work>
  </rdf:RDF>
 </metadata>
 <defs>
  <style type="text/css">*{stroke-linecap:butt;stroke-linejoin:round;}</style>
 </defs>
 <g id="figure_1">
  <g id="patch_1">
   <path d="M 0 288 
L 360 288 
L 360 0 
L 0 0 
z
" style="fill:#ffffff;"/>
  </g>
  <g id="axes_1">
   <g id="patch_2">
    <path d="M 45 256.32 
L 324 256.32 
L 324 34.56 
L 45 34.56 
z
" style="fill:#ffffff;"/>
   </g>
   <g id="matplotlib.axis_1">
    <g id="xtick_1">
     <g id="line2d_1">
      <defs>
       <path d="M 0 0 
L 0 3.5 
" id="md7a8c96071" style="stroke:#000000;stroke-width:0.8;"/>
      </defs>
      <g>
       <use style="stroke:#000000;stroke-width:0.8;" x="57.681818" xlink:href="#md7a8c96071" y="256.32"/>
      </g>
     </g>
     <g id="text_1">
      <!-- 0.0 -->
      <g transform="translate(49.730256 270.918437)scale(0.1 -0.1)">
       <defs>
        <path d="M 2034 4250 
Q 1547 4250 1301 3770 
Q 1056 3291 1056 2328 
Q 1056 1369 1301 889 
Q 1547 409 2034 409 
Q 2525 409 2770 889 
Q 3016 1369 3016 2328 
Q 3016 3291 2770 3770 
Q 2525 4250 2034 4250 
z
M 2034 4750 
Q 2819 4750 3233 4129 
Q 3647 3509 3647 2328 
Q 3647 1150 3233 529 
Q 2819 -91 2034 -91 
Q 1250 -91 836 529 
Q 422 1150 422 2328 
Q 422 3509 836 4129 
Q 1250 4750 2034 4750 
z
" id="DejaVuSans-30" transform="scale(0.015625)"/>
        <path d="M 684 794 
L 1344 794 
L 1344 0 
L 684 0 
L 684 794 
z
" id="DejaVuSans-2e" transform="scale(0.015625)"/>
       </defs>
       <use xlink:href="#DejaVuSans-30"/>
       <use x="63.623047" xlink:href="#DejaVuSans-2e"/>
       <use x="95.410156" xlink:href="#DejaVuSans-30"/>
      </g>
     </g>
    </g>
    <g id="xtick_2">
     <g id="line2d_2">
      <g>
       <use style="stroke:#000000;stroke-width:0.8;" x="108.409091" xlink:href="#md7a8c96071" y="256.32"/>
      </g>
     </g>
     <g id="text_2">
      <!-- 0.2 -->
      <g transform="translate(100.457528 270.918437)scale(0.1 -0.1)">
       <defs>
        <path d="M 1228 531 
L 3431 531 
L 3431 0 
L 469 0 
L 469 531 
Q 828 903 1448 1529 
Q 2069 2156 2228 2338 
Q 2531 2678 2651 2914 
Q 2772 3150 2772 3378 
Q 2772 3750 2511 3984 
Q 2250 4219 1831 4219 
Q 1534 4219 1204 4116 
Q 875 4013 500 3803 
L 500 4441 
Q 881 4594 1212 4672 
Q 1544 4750 1819 4750 
Q 2544 4750 2975 4387 
Q 3406 4025 3406 3419 
Q 3406 3131 3298 2873 
Q 3191 2616 2906 2266 
Q 2828 2175 2409 1742 
Q 1991 1309 1228 531 
z
" id="DejaVuSans-32" transform="scale(0.015625)"/>
       </defs>
       <use xlink:href="#DejaVuSans-30"/>
       <use x="63.623047" xlink:href="#DejaVuSans-2e"/>
       <use x="95.410156" xlink:href="#DejaVuSans-32"/>
      </g>
     </g>
    </g>
    <g id="xtick_3">
     <g id="line2d_3">
      <g>
       <use style="stroke:#000000;stroke-width:0.8;" x="159.136364" xlink:href="#md7a8c96071" y="256.32"/>
      </g>
     </g>
     <g id="text_3">
      <!-- 0.4 -->
      <g transform="translate(151.184801 270.918437)scale(0.1 -0.1)">
       <defs>
        <path d="M 2419 4116 
L 825 1625 
L 2419 1625 
L 2419 4116 
z
M 2253 4666 
L 3047 4666 
L 3047 1625 
L 3713 1625 
L 3713 1100 
L 3047 1100 
L 3047 0 
L 2419 0 
L 2419 1100 
L 313 1100 
L 313 1709 
L 2253 4666 
z
" id="DejaVuSans-34" transform="scale(0.015625)"/>
       </defs>
       <use xlink:href="#DejaVuSans-30"/>
       <use x="63.623047" xlink:href="#DejaVuSans-2e"/>
       <use x="95.410156" xlink:href="#DejaVuSans-34"/>
      </g>
     </g>
    </g>
    <g id="xtick_4">
     <g id="line2d_4">
      <g>
       <use style="stroke:#000000;stroke-width:0.8;" x="209.863636" xlink:href="#md7a8c96071" y="256.32"/>
      </g>
     </g>
     <g id="text_4">
      <!-- 0.6 -->
      <g transform="translate(201.912074 270.918437)scale(0.1 -0.1)">
       <defs>
        <path d="M 2113 2584 
Q 1688 2584 1439 2293 
Q 1191 2003 1191 1497 
Q 1191 994 1439 701 
Q 1688 409 2113 409 
Q 2538 409 2786 701 
Q 3034 994 3034 1497 
Q 3034 2003 2786 2293 
Q 2538 2584 2113 2584 
z
M 3366 4563 
L 3366 3988 
Q 3128 4100 2886 4159 
Q 2644 4219 2406 4219 
Q 1781 4219 1451 3797 
Q 1122 3375 1075 2522 
Q 1259 2794 1537 2939 
Q 1816 3084 2150 3084 
Q 2853 3084 3261 2657 
Q 3669 2231 3669 1497 
Q 3669 778 3244 343 
Q 2819 -91 2113 -91 
Q 1303 -91 875 529 
Q 447 1150 447 2328 
Q 447 3434 972 4092 
Q 1497 4750 2381 4750 
Q 2619 4750 2861 4703 
Q 3103 4656 3366 4563 
z
" id="DejaVuSans-36" transform="scale(0.015625)"/>
       </defs>
       <use xlink:href="#DejaVuSans-30"/>
       <use x="63.623047" xlink:href="#DejaVuSans-2e"/>
       <use x="95.410156" xlink:href="#DejaVuSans-36"/>
      </g>
     </g>
    </g>
    <g id="xtick_5">
     <g id="line2d_5">
      <g>
       <use style="stroke:#000000;stroke-width:0.8;" x="260.590909" xlink:href="#md7a8c96071" y="256.32"/>
      </g>
     </g>
     <g id="text_5">
      <!-- 0.8 -->
      <g transform="translate(252.639347 270.918437)scale(0.1 -0.1)">
       <defs>
        <path d="M 2034 2216 
Q 1584 2216 1326 1975 
Q 1069 1734 1069 1313 
Q 1069 891 1326 650 
Q 1584 409 2034 409 
Q 2484 409 2743 651 
Q 3003 894 3003 1313 
Q 3003 1734 2745 1975 
Q 2488 2216 2034 2216 
z
M 1403 2484 
Q 997 2584 770 2862 
Q 544 3141 544 3541 
Q 544 4100 942 4425 
Q 1341 4750 2034 4750 
Q 2731 4750 3128 4425 
Q 3525 4100 3525 3541 
Q 3525 3141 3298 2862 
Q 3072 2584 2669 2484 
Q 3125 2378 3379 2068 
Q 3634 1759 3634 1313 
Q 3634 634 3220 271 
Q 2806 -91 2034 -91 
Q 1263 -91 848 271 
Q 434 634 434 1313 
Q 434 1759 690 2068 
Q 947 2378 1403 2484 
z
M 1172 3481 
Q 1172 3119 1398 2916 
Q 1625 2713 2034 2713 
Q 2441 2713 2670 2916 
Q 2900 3119 2900 3481 
Q 2900 3844 2670 4047 
Q 2441 4250 2034 4250 
Q 1625 4250 1398 4047 
Q 1172 3844 1172 3481 
z
" id="DejaVuSans-38" transform="scale(0.015625)"/>
       </defs>
       <use xlink:href="#DejaVuSans-30"/>
       <use x="63.623047" xlink:href="#DejaVuSans-2e"/>
       <use x="95.410156" xlink:href="#DejaVuSans-38"/>
      </g>
     </g>
    </g>
    <g id="xtick_6">
     <g id="line2d_6">
      <g>
       <use style="stroke:#000000;stroke-width:0.8;" x="311.318182" xlink:href="#md7a8c96071" y="256.32"/>
      </g>
     </g>
     <g id="text_6">
      <!-- 1.0 -->
      <g transform="translate(303.366619 270.918437)scale(0.1 -0.1)">
       <defs>
        <path d="M 794 531 
L 1825 531 
L 1825 4091 
L 703 3866 
L 703 4441 
L 1819 4666 
L 2450 4666 
L 2450 531 
L 3481 531 
L 3481 0 
L 794 0 
L 794 531 
z
" id="DejaVuSans-31" transform="scale(0.015625)"/>
       </defs>
       <use xlink:href="#DejaVuSans-31"/>
       <use x="63.623047" xlink:href="#DejaVuSans-2e"/>
       <use x="95.410156" xlink:href="#DejaVuSans-30"/>
      </g>
     </g>
    </g>
    <g id="text_7">
     <!-- fpr -->
     <g transform="translate(177.510156 284.596563)scale(0.1 -0.1)">
      <defs>
       <path d="M 2375 4863 
L 2375 4384 
L 1825 4384 
Q 1516 4384 1395 4259 
Q 1275 4134 1275 3809 
L 1275 3500 
L 2222 3500 
L 2222 3053 
L 1275 3053 
L 1275 0 
L 697 0 
L 697 3053 
L 147 3053 
L 147 3500 
L 697 3500 
L 697 3744 
Q 697 4328 969 4595 
Q 1241 4863 1831 4863 
L 2375 4863 
z
" id="DejaVuSans-66" transform="scale(0.015625)"/>
       <path d="M 1159 525 
L 1159 -1331 
L 581 -1331 
L 581 3500 
L 1159 3500 
L 1159 2969 
Q 1341 3281 1617 3432 
Q 1894 3584 2278 3584 
Q 2916 3584 3314 3078 
Q 3713 2572 3713 1747 
Q 3713 922 3314 415 
Q 2916 -91 2278 -91 
Q 1894 -91 1617 61 
Q 1341 213 1159 525 
z
M 3116 1747 
Q 3116 2381 2855 2742 
Q 2594 3103 2138 3103 
Q 1681 3103 1420 2742 
Q 1159 2381 1159 1747 
Q 1159 1113 1420 752 
Q 1681 391 2138 391 
Q 2594 391 2855 752 
Q 3116 1113 3116 1747 
z
" id="DejaVuSans-70" transform="scale(0.015625)"/>
       <path d="M 2631 2963 
Q 2534 3019 2420 3045 
Q 2306 3072 2169 3072 
Q 1681 3072 1420 2755 
Q 1159 2438 1159 1844 
L 1159 0 
L 581 0 
L 581 3500 
L 1159 3500 
L 1159 2956 
Q 1341 3275 1631 3429 
Q 1922 3584 2338 3584 
Q 2397 3584 2469 3576 
Q 2541 3569 2628 3553 
L 2631 2963 
z
" id="DejaVuSans-72" transform="scale(0.015625)"/>
      </defs>
      <use xlink:href="#DejaVuSans-66"/>
      <use x="35.205078" xlink:href="#DejaVuSans-70"/>
      <use x="98.681641" xlink:href="#DejaVuSans-72"/>
     </g>
    </g>
   </g>
   <g id="matplotlib.axis_2">
    <g id="ytick_1">
     <g id="line2d_7">
      <defs>
       <path d="M 0 0 
L -3.5 0 
" id="mc77df870c4" style="stroke:#000000;stroke-width:0.8;"/>
      </defs>
      <g>
       <use style="stroke:#000000;stroke-width:0.8;" x="45" xlink:href="#mc77df870c4" y="246.24"/>
      </g>
     </g>
     <g id="text_8">
      <!-- 0.0 -->
      <g transform="translate(22.096875 250.039219)scale(0.1 -0.1)">
       <use xlink:href="#DejaVuSans-30"/>
       <use x="63.623047" xlink:href="#DejaVuSans-2e"/>
       <use x="95.410156" xlink:href="#DejaVuSans-30"/>
      </g>
     </g>
    </g>
    <g id="ytick_2">
     <g id="line2d_8">
      <g>
       <use style="stroke:#000000;stroke-width:0.8;" x="45" xlink:href="#mc77df870c4" y="205.92"/>
      </g>
     </g>
     <g id="text_9">
      <!-- 0.2 -->
      <g transform="translate(22.096875 209.719219)scale(0.1 -0.1)">
       <use xlink:href="#DejaVuSans-30"/>
       <use x="63.623047" xlink:href="#DejaVuSans-2e"/>
       <use x="95.410156" xlink:href="#DejaVuSans-32"/>
      </g>
     </g>
    </g>
    <g id="ytick_3">
     <g id="line2d_9">
      <g>
       <use style="stroke:#000000;stroke-width:0.8;" x="45" xlink:href="#mc77df870c4" y="165.6"/>
      </g>
     </g>
     <g id="text_10">
      <!-- 0.4 -->
      <g transform="translate(22.096875 169.399219)scale(0.1 -0.1)">
       <use xlink:href="#DejaVuSans-30"/>
       <use x="63.623047" xlink:href="#DejaVuSans-2e"/>
       <use x="95.410156" xlink:href="#DejaVuSans-34"/>
      </g>
     </g>
    </g>
    <g id="ytick_4">
     <g id="line2d_10">
      <g>
       <use style="stroke:#000000;stroke-width:0.8;" x="45" xlink:href="#mc77df870c4" y="125.28"/>
      </g>
     </g>
     <g id="text_11">
      <!-- 0.6 -->
      <g transform="translate(22.096875 129.079219)scale(0.1 -0.1)">
       <use xlink:href="#DejaVuSans-30"/>
       <use x="63.623047" xlink:href="#DejaVuSans-2e"/>
       <use x="95.410156" xlink:href="#DejaVuSans-36"/>
      </g>
     </g>
    </g>
    <g id="ytick_5">
     <g id="line2d_11">
      <g>
       <use style="stroke:#000000;stroke-width:0.8;" x="45" xlink:href="#mc77df870c4" y="84.96"/>
      </g>
     </g>
     <g id="text_12">
      <!-- 0.8 -->
      <g transform="translate(22.096875 88.759219)scale(0.1 -0.1)">
       <use xlink:href="#DejaVuSans-30"/>
       <use x="63.623047" xlink:href="#DejaVuSans-2e"/>
       <use x="95.410156" xlink:href="#DejaVuSans-38"/>
      </g>
     </g>
    </g>
    <g id="ytick_6">
     <g id="line2d_12">
      <g>
       <use style="stroke:#000000;stroke-width:0.8;" x="45" xlink:href="#mc77df870c4" y="44.64"/>
      </g>
     </g>
     <g id="text_13">
      <!-- 1.0 -->
      <g transform="translate(22.096875 48.439219)scale(0.1 -0.1)">
       <use xlink:href="#DejaVuSans-31"/>
       <use x="63.623047" xlink:href="#DejaVuSans-2e"/>
       <use x="95.410156" xlink:href="#DejaVuSans-30"/>
      </g>
     </g>
    </g>
    <g id="text_14">
     <!-- tpr -->
     <g transform="translate(16.017187 152.629844)rotate(-90)scale(0.1 -0.1)">
      <defs>
       <path d="M 1172 4494 
L 1172 3500 
L 2356 3500 
L 2356 3053 
L 1172 3053 
L 1172 1153 
Q 1172 725 1289 603 
Q 1406 481 1766 481 
L 2356 481 
L 2356 0 
L 1766 0 
Q 1100 0 847 248 
Q 594 497 594 1153 
L 594 3053 
L 172 3053 
L 172 3500 
L 594 3500 
L 594 4494 
L 1172 4494 
z
" id="DejaVuSans-74" transform="scale(0.015625)"/>
      </defs>
      <use xlink:href="#DejaVuSans-74"/>
      <use x="39.208984" xlink:href="#DejaVuSans-70"/>
      <use x="102.685547" xlink:href="#DejaVuSans-72"/>
     </g>
    </g>
   </g>
   <g id="line2d_13">
    <path clip-path="url(#pbbde4b290a)" d="M 57.681818 246.24 
L 59.051437 246.24 
L 59.051437 244.161649 
L 64.016307 244.161649 
L 64.016307 242.083299 
L 68.039564 242.083299 
L 68.039564 240.004948 
L 71.121207 240.004948 
L 71.121207 237.926598 
L 71.634814 237.926598 
L 71.634814 233.769897 
L 76.942089 233.769897 
L 76.942089 229.613196 
L 77.798101 229.613196 
L 77.798101 227.534845 
L 80.194934 227.534845 
L 80.194934 225.456495 
L 81.564554 225.456495 
L 81.564554 223.378144 
L 82.334965 223.378144 
L 82.334965 221.299794 
L 84.046989 221.299794 
L 84.046989 219.221443 
L 85.844614 219.221443 
L 85.930215 215.064742 
L 90.895085 215.064742 
L 90.895085 212.986392 
L 92.093502 212.986392 
L 92.093502 210.908041 
L 94.661538 210.908041 
L 94.661538 208.829691 
L 96.630365 208.829691 
L 96.630365 206.75134 
L 98.941598 206.75134 
L 98.941598 204.67299 
L 99.1128 204.67299 
L 99.1128 202.594639 
L 99.626408 202.594639 
L 99.626408 200.516289 
L 101.852039 200.516289 
L 101.852039 198.437938 
L 102.451247 198.437938 
L 102.451247 196.359588 
L 102.879253 196.359588 
L 102.879253 194.281237 
L 107.929724 194.281237 
L 107.929724 192.202887 
L 108.700135 192.202887 
L 108.700135 190.124536 
L 109.727349 190.124536 
L 109.727349 188.046186 
L 109.984153 188.046186 
L 109.984153 183.889485 
L 110.49776 183.889485 
L 110.49776 181.811134 
L 113.579404 181.811134 
L 113.579404 179.732784 
L 118.801077 179.732784 
L 118.801077 177.654433 
L 120.170696 177.654433 
L 120.170696 175.576082 
L 121.283512 175.576082 
L 121.283512 173.497732 
L 121.540315 173.497732 
L 121.540315 171.419381 
L 126.84759 171.419381 
L 126.84759 169.341031 
L 127.789203 169.341031 
L 127.789203 167.26268 
L 128.902019 167.26268 
L 128.902019 165.18433 
L 134.038091 165.18433 
L 134.038091 163.105979 
L 134.294895 163.105979 
L 134.294895 161.027629 
L 138.061348 161.027629 
L 138.061348 158.949278 
L 140.458181 158.949278 
L 140.458181 156.870928 
L 143.026217 156.870928 
L 143.026217 154.792577 
L 143.539825 154.792577 
L 143.539825 152.714227 
L 145.594253 152.714227 
L 145.594253 150.635876 
L 147.135075 150.635876 
L 147.135075 148.557526 
L 152.014344 148.557526 
L 152.099945 144.400825 
L 152.527951 144.400825 
L 152.527951 142.322474 
L 158.006428 142.322474 
L 158.006428 140.244124 
L 158.86244 140.244124 
L 158.86244 138.165773 
L 160.232059 138.165773 
L 160.232059 136.087423 
L 160.488863 136.087423 
L 160.488863 134.009072 
L 160.660065 134.009072 
L 160.660065 131.930722 
L 161.344875 131.930722 
L 161.344875 129.852371 
L 165.111328 129.852371 
L 165.111328 127.774021 
L 169.220185 127.774021 
L 169.305787 123.61732 
L 173.928251 123.61732 
L 173.928251 121.538969 
L 176.753091 121.538969 
L 176.753091 119.460619 
L 177.009895 119.460619 
L 177.009895 117.382268 
L 180.94755 117.382268 
L 180.94755 115.303918 
L 183.344384 115.303918 
L 183.344384 113.225567 
L 192.846117 113.225567 
L 192.931718 109.068866 
L 200.550226 109.068866 
L 200.550226 106.990515 
L 202.005446 106.990515 
L 202.005446 104.912165 
L 206.799113 104.912165 
L 206.799113 102.833814 
L 207.141518 102.833814 
L 207.141518 100.755464 
L 213.818412 100.755464 
L 213.818412 98.677113 
L 214.503222 98.677113 
L 214.503222 96.598763 
L 221.265717 96.598763 
L 221.265717 94.520412 
L 227.429003 94.520412 
L 227.429003 92.442062 
L 235.903522 92.442062 
L 235.903522 90.363711 
L 242.323612 90.363711 
L 242.323612 88.285361 
L 243.350827 88.285361 
L 243.350827 86.20701 
L 245.576458 86.20701 
L 245.576458 84.12866 
L 250.027721 84.12866 
L 250.027721 82.050309 
L 264.151919 82.050309 
L 264.151919 79.971959 
L 267.74717 79.971959 
L 267.74717 77.893608 
L 268.089574 77.893608 
L 268.089574 75.815258 
L 269.287991 75.815258 
L 269.287991 73.736907 
L 276.735296 73.736907 
L 276.735296 71.658557 
L 279.217731 71.658557 
L 279.217731 69.580206 
L 289.233072 69.580206 
L 289.233072 67.501856 
L 289.746679 67.501856 
L 289.746679 65.423505 
L 294.283542 65.423505 
L 294.283542 63.345155 
L 295.567561 63.345155 
L 295.567561 61.266804 
L 299.505216 61.266804 
L 299.505216 59.188454 
L 302.415657 59.188454 
L 302.415657 57.110103 
L 303.100466 57.110103 
L 303.100466 55.031753 
L 303.699675 55.031753 
L 303.699675 52.953402 
L 307.551729 52.953402 
L 307.551729 50.875052 
L 307.894134 50.875052 
L 307.894134 48.796701 
L 310.376569 48.796701 
L 310.376569 46.718351 
L 310.547771 46.718351 
L 310.547771 44.64 
L 311.318182 44.64 
L 311.318182 44.64 
" style="fill:none;stroke:#1f77b4;stroke-linecap:square;stroke-width:1.5;"/>
   </g>
   <g id="line2d_14">
    <path clip-path="url(#pbbde4b290a)" d="M 57.681818 246.24 
L 57.681818 246.14137 
L 58.181102 246.14137 
L 58.181102 245.94411 
L 58.430744 245.94411 
L 58.430744 245.549589 
L 58.930029 245.549589 
L 58.930029 245.155068 
L 59.429313 245.056438 
L 59.429313 244.859178 
L 59.928597 244.859178 
L 59.928597 244.267397 
L 60.178239 244.267397 
L 60.178239 242.886575 
L 60.427881 242.886575 
L 60.427881 242.294795 
L 60.677523 242.294795 
L 60.677523 241.801644 
L 60.927165 241.801644 
L 60.927165 241.505753 
L 61.176807 241.505753 
L 61.176807 240.716712 
L 61.676092 240.618082 
L 61.676092 240.420822 
L 61.925734 240.420822 
L 61.925734 239.829041 
L 62.175376 239.829041 
L 62.175376 239.533151 
L 62.425018 239.533151 
L 62.425018 239.23726 
L 62.67466 239.23726 
L 62.67466 238.94137 
L 63.423586 238.84274 
L 63.423586 237.461918 
L 63.92287 237.461918 
L 63.92287 237.067397 
L 64.172513 237.067397 
L 64.172513 235.785205 
L 64.422155 235.785205 
L 64.422155 235.292055 
L 64.671797 235.292055 
L 64.671797 234.798904 
L 65.420723 234.700274 
L 65.420723 233.911233 
L 65.670365 233.911233 
L 65.670365 233.418082 
L 65.920007 233.418082 
L 65.920007 233.220822 
L 66.169649 233.220822 
L 66.169649 232.629041 
L 66.419291 232.629041 
L 66.419291 231.84 
L 66.668933 231.84 
L 66.668933 231.248219 
L 67.168218 231.248219 
L 67.168218 230.755068 
L 67.41786 230.755068 
L 67.41786 227.894795 
L 67.667502 227.894795 
L 67.667502 227.598904 
L 67.917144 227.598904 
L 67.917144 227.303014 
L 68.166786 227.303014 
L 68.166786 226.415342 
L 68.66607 226.415342 
L 68.66607 226.218082 
L 68.915712 226.218082 
L 68.915712 225.922192 
L 69.165354 225.922192 
L 69.165354 224.64 
L 69.414996 224.64 
L 69.414996 224.34411 
L 69.664639 224.34411 
L 69.664639 224.146849 
L 69.914281 224.146849 
L 69.914281 223.850959 
L 70.163923 223.850959 
L 70.163923 223.555068 
L 70.413565 223.555068 
L 70.413565 222.963288 
L 70.663207 222.963288 
L 70.663207 222.667397 
L 71.162491 222.568767 
L 71.162491 222.174247 
L 71.911417 222.075616 
L 71.911417 221.976986 
L 72.161059 221.976986 
L 72.161059 221.385205 
L 72.410702 221.385205 
L 72.410702 220.793425 
L 72.660344 220.793425 
L 72.660344 220.201644 
L 72.909986 220.201644 
L 72.909986 219.313973 
L 73.40927 219.313973 
L 73.40927 218.919452 
L 74.158196 218.919452 
L 74.158196 218.130411 
L 74.65748 218.130411 
L 74.65748 217.933151 
L 74.907122 217.933151 
L 74.907122 217.045479 
L 75.156764 217.045479 
L 75.156764 216.848219 
L 76.155333 216.848219 
L 76.155333 216.355068 
L 76.654617 216.256438 
L 76.654617 216.059178 
L 76.904259 216.059178 
L 76.904259 215.270137 
L 77.153901 215.270137 
L 77.153901 214.974247 
L 77.653185 214.974247 
L 77.653185 214.185205 
L 78.15247 214.086575 
L 78.15247 213.297534 
L 78.402112 213.297534 
L 78.402112 213.001644 
L 78.651754 213.001644 
L 78.651754 212.804384 
L 78.901396 212.804384 
L 78.901396 211.719452 
L 79.40068 211.620822 
L 79.40068 210.930411 
L 79.650322 210.930411 
L 79.650322 210.43726 
L 79.899964 210.43726 
L 79.899964 210.24 
L 80.149606 210.24 
L 80.149606 209.845479 
L 80.399248 209.845479 
L 80.399248 209.056438 
L 80.64889 209.056438 
L 80.64889 208.760548 
L 81.148175 208.661918 
L 81.148175 207.281096 
L 81.397817 207.281096 
L 81.397817 207.083836 
L 81.897101 206.985205 
L 81.897101 205.604384 
L 82.146743 205.604384 
L 82.146743 204.913973 
L 82.396385 204.913973 
L 82.396385 204.618082 
L 82.646027 204.618082 
L 82.646027 202.84274 
L 82.895669 202.84274 
L 82.895669 202.152329 
L 83.145311 202.152329 
L 83.145311 201.461918 
L 83.394953 201.461918 
L 83.394953 201.067397 
L 83.894238 200.968767 
L 83.894238 200.574247 
L 84.14388 200.574247 
L 84.14388 200.376986 
L 84.393522 200.376986 
L 84.393522 200.081096 
L 84.643164 200.081096 
L 84.643164 199.785205 
L 84.892806 199.785205 
L 84.892806 199.390685 
L 85.142448 199.390685 
L 85.142448 198.700274 
L 85.39209 198.700274 
L 85.39209 198.404384 
L 85.891374 198.305753 
L 85.891374 198.207123 
L 86.141016 198.207123 
L 86.141016 198.009863 
L 86.889943 197.911233 
L 86.889943 197.220822 
L 87.139585 197.220822 
L 87.139585 196.924932 
L 87.389227 196.924932 
L 87.389227 195.93863 
L 87.888511 195.93863 
L 87.888511 195.050959 
L 88.138153 195.050959 
L 88.138153 194.459178 
L 88.387795 194.459178 
L 88.387795 193.966027 
L 88.637437 193.966027 
L 88.637437 193.670137 
L 89.136722 193.670137 
L 89.136722 193.374247 
L 89.386364 193.374247 
L 89.386364 192.881096 
L 89.636006 192.881096 
L 89.636006 192.585205 
L 89.885648 192.585205 
L 89.885648 192.092055 
L 90.13529 192.092055 
L 90.13529 191.401644 
L 90.384932 191.401644 
L 90.384932 190.908493 
L 90.634574 190.908493 
L 90.634574 190.316712 
L 90.884216 190.316712 
L 90.884216 189.823562 
L 91.3835 189.823562 
L 91.3835 189.429041 
L 91.633142 189.429041 
L 91.633142 189.034521 
L 91.882785 189.034521 
L 91.882785 188.34411 
L 92.132427 188.34411 
L 92.132427 187.160548 
L 92.382069 187.160548 
L 92.382069 186.272877 
L 93.630279 186.174247 
L 93.630279 185.976986 
L 94.129563 185.976986 
L 94.129563 185.779726 
L 94.379205 185.779726 
L 94.379205 185.582466 
L 94.628848 185.582466 
L 94.628848 185.286575 
L 95.128132 185.187945 
L 95.128132 184.793425 
L 95.377774 184.793425 
L 95.377774 184.497534 
L 95.627416 184.497534 
L 95.627416 184.201644 
L 95.877058 184.201644 
L 95.877058 183.905753 
L 96.1267 183.905753 
L 96.1267 183.313973 
L 96.625984 183.215342 
L 96.625984 183.116712 
L 97.125268 183.018082 
L 97.125268 181.73589 
L 97.374911 181.73589 
L 97.374911 181.53863 
L 97.624553 181.53863 
L 97.624553 181.24274 
L 97.874195 181.24274 
L 97.874195 179.368767 
L 98.123837 179.368767 
L 98.123837 178.875616 
L 98.373479 178.875616 
L 98.373479 178.678356 
L 98.872763 178.579726 
L 98.872763 178.283836 
L 99.372047 178.283836 
L 99.372047 176.607123 
L 99.621689 176.607123 
L 99.621689 176.113973 
L 99.871331 176.113973 
L 99.871331 175.719452 
L 100.370616 175.620822 
L 100.370616 175.423562 
L 100.620258 175.423562 
L 100.620258 175.226301 
L 100.8699 175.226301 
L 100.8699 173.94411 
L 101.618826 173.845479 
L 101.618826 173.648219 
L 101.868468 173.648219 
L 101.868468 173.352329 
L 102.11811 173.352329 
L 102.11811 172.859178 
L 103.366321 172.760548 
L 103.366321 172.661918 
L 103.615963 172.661918 
L 103.615963 172.168767 
L 103.865605 172.168767 
L 103.865605 171.872877 
L 104.364889 171.872877 
L 104.364889 171.675616 
L 104.614531 171.675616 
L 104.614531 171.379726 
L 105.363457 171.379726 
L 105.363457 170.985205 
L 105.613099 170.985205 
L 105.613099 170.492055 
L 105.862742 170.492055 
L 105.862742 170.097534 
L 106.611668 169.998904 
L 106.611668 169.703014 
L 106.86131 169.703014 
L 106.86131 168.716712 
L 107.360594 168.716712 
L 107.360594 168.519452 
L 108.10952 168.420822 
L 108.10952 167.23726 
L 108.359162 167.23726 
L 108.359162 166.448219 
L 108.858447 166.349589 
L 108.858447 165.955068 
L 109.357731 165.955068 
L 109.357731 165.659178 
L 109.607373 165.659178 
L 109.607373 165.067397 
L 110.356299 164.968767 
L 110.356299 164.870137 
L 110.605941 164.870137 
L 110.605941 164.278356 
L 110.855583 164.278356 
L 110.855583 164.081096 
L 111.60451 164.081096 
L 111.60451 163.785205 
L 112.103794 163.785205 
L 112.103794 163.587945 
L 112.353436 163.587945 
L 112.353436 163.193425 
L 112.603078 163.193425 
L 112.603078 162.996164 
L 112.85272 162.996164 
L 112.85272 162.798904 
L 113.102362 162.798904 
L 113.102362 162.207123 
L 113.352004 162.207123 
L 113.352004 161.418082 
L 113.601646 161.418082 
L 113.601646 161.220822 
L 114.100931 161.122192 
L 114.100931 160.924932 
L 114.350573 160.924932 
L 114.350573 160.431781 
L 115.099499 160.333151 
L 115.099499 159.64274 
L 115.349141 159.64274 
L 115.349141 159.149589 
L 115.598783 159.149589 
L 115.598783 156.585205 
L 115.848425 156.585205 
L 115.848425 156.289315 
L 116.098067 156.289315 
L 116.098067 155.796164 
L 116.347709 155.796164 
L 116.347709 155.598904 
L 116.597351 155.598904 
L 116.597351 155.007123 
L 116.846994 155.007123 
L 116.846994 154.316712 
L 117.346278 154.218082 
L 117.346278 153.922192 
L 117.59592 153.922192 
L 117.59592 153.626301 
L 117.845562 153.626301 
L 117.845562 153.133151 
L 118.095204 153.133151 
L 118.095204 152.64 
L 118.594488 152.64 
L 118.594488 152.44274 
L 119.093772 152.44274 
L 119.093772 152.048219 
L 119.343414 152.048219 
L 119.343414 151.653699 
L 119.593057 151.653699 
L 119.593057 151.456438 
L 119.842699 151.456438 
L 119.842699 150.667397 
L 120.092341 150.667397 
L 120.092341 150.470137 
L 120.341983 150.470137 
L 120.341983 150.272877 
L 121.090909 150.174247 
L 121.090909 149.779726 
L 121.839835 149.681096 
L 121.839835 149.483836 
L 123.088046 149.385205 
L 123.088046 149.089315 
L 123.58733 149.089315 
L 123.58733 148.694795 
L 124.086614 148.694795 
L 124.086614 148.103014 
L 124.336256 148.103014 
L 124.336256 147.412603 
L 124.83554 147.412603 
L 124.83554 146.722192 
L 125.085183 146.722192 
L 125.085183 146.524932 
L 125.334825 146.524932 
L 125.334825 146.130411 
L 125.834109 146.031781 
L 125.834109 145.14411 
L 126.083751 145.14411 
L 126.083751 144.453699 
L 126.832677 144.355068 
L 126.832677 143.368767 
L 127.082319 143.368767 
L 127.082319 143.171507 
L 127.581603 143.072877 
L 127.581603 142.875616 
L 127.831246 142.875616 
L 127.831246 142.086575 
L 128.080888 142.086575 
L 128.080888 141.790685 
L 128.33053 141.790685 
L 128.33053 141.297534 
L 128.580172 141.297534 
L 128.580172 141.100274 
L 128.829814 141.100274 
L 128.829814 140.903014 
L 129.079456 140.903014 
L 129.079456 139.719452 
L 129.57874 139.620822 
L 129.57874 139.522192 
L 129.828382 139.522192 
L 129.828382 139.127671 
L 131.076593 139.127671 
L 131.076593 138.930411 
L 131.575877 138.930411 
L 131.575877 138.14137 
L 131.825519 138.14137 
L 131.825519 137.450959 
L 132.075161 137.450959 
L 132.075161 137.253699 
L 132.324803 137.253699 
L 132.324803 137.056438 
L 132.574445 137.056438 
L 132.574445 136.859178 
L 132.824087 136.859178 
L 132.824087 136.661918 
L 133.822656 136.563288 
L 133.822656 136.168767 
L 134.821224 136.070137 
L 134.821224 135.182466 
L 135.070866 135.182466 
L 135.070866 134.985205 
L 135.57015 134.886575 
L 135.57015 133.111233 
L 135.819792 133.111233 
L 135.819792 132.716712 
L 136.069435 132.716712 
L 136.069435 132.124932 
L 136.568719 132.026301 
L 136.568719 131.33589 
L 137.068003 131.33589 
L 137.068003 131.13863 
L 137.317645 131.13863 
L 137.317645 130.84274 
L 137.567287 130.84274 
L 137.567287 130.448219 
L 137.816929 130.448219 
L 137.816929 130.250959 
L 138.066571 130.250959 
L 138.066571 129.955068 
L 138.565855 129.856438 
L 138.565855 129.659178 
L 139.06514 129.560548 
L 139.06514 129.264658 
L 139.314782 129.264658 
L 139.314782 128.870137 
L 139.564424 128.870137 
L 139.564424 128.574247 
L 139.814066 128.574247 
L 139.814066 128.376986 
L 140.063708 128.376986 
L 140.063708 127.686575 
L 140.31335 127.686575 
L 140.31335 126.700274 
L 140.562992 126.700274 
L 140.562992 126.404384 
L 140.812634 126.404384 
L 140.812634 126.009863 
L 141.062276 126.009863 
L 141.062276 125.713973 
L 141.56156 125.713973 
L 141.56156 125.319452 
L 142.060845 125.319452 
L 142.060845 124.924932 
L 142.310487 124.924932 
L 142.310487 124.530411 
L 142.560129 124.530411 
L 142.560129 124.13589 
L 143.309055 124.13589 
L 143.309055 123.248219 
L 143.558697 123.248219 
L 143.558697 122.656438 
L 143.808339 122.656438 
L 143.808339 121.768767 
L 144.057981 121.768767 
L 144.057981 121.472877 
L 144.557266 121.472877 
L 144.557266 121.275616 
L 144.806908 121.275616 
L 144.806908 120.387945 
L 145.306192 120.289315 
L 145.306192 119.303014 
L 145.555834 119.303014 
L 145.555834 118.809863 
L 145.805476 118.809863 
L 145.805476 118.612603 
L 146.554402 118.513973 
L 146.554402 118.020822 
L 147.053686 118.020822 
L 147.053686 117.823562 
L 147.303329 117.823562 
L 147.303329 117.626301 
L 147.552971 117.626301 
L 147.552971 117.133151 
L 148.052255 117.133151 
L 148.052255 116.93589 
L 148.301897 116.93589 
L 148.301897 116.245479 
L 148.551539 116.245479 
L 148.551539 115.752329 
L 149.050823 115.752329 
L 149.050823 115.160548 
L 149.300465 115.160548 
L 149.300465 114.963288 
L 149.550107 114.963288 
L 149.550107 114.470137 
L 149.799749 114.470137 
L 149.799749 114.075616 
L 150.548676 113.976986 
L 150.548676 113.779726 
L 150.798318 113.779726 
L 150.798318 113.187945 
L 151.297602 113.187945 
L 151.297602 112.694795 
L 151.796886 112.596164 
L 151.796886 112.300274 
L 152.29617 112.201644 
L 152.29617 111.215342 
L 152.545812 111.215342 
L 152.545812 111.018082 
L 152.795455 111.018082 
L 152.795455 110.426301 
L 153.045097 110.426301 
L 153.045097 110.031781 
L 153.794023 110.031781 
L 153.794023 109.53863 
L 154.293307 109.53863 
L 154.293307 108.848219 
L 154.792591 108.749589 
L 154.792591 108.256438 
L 155.291875 108.157808 
L 155.291875 107.467397 
L 155.79116 107.467397 
L 155.79116 107.171507 
L 156.040802 107.171507 
L 156.040802 106.481096 
L 156.789728 106.481096 
L 156.789728 106.283836 
L 157.03937 106.283836 
L 157.03937 105.790685 
L 157.289012 105.790685 
L 157.289012 105.001644 
L 158.537223 105.001644 
L 158.537223 104.804384 
L 158.786865 104.804384 
L 158.786865 104.409863 
L 159.286149 104.409863 
L 159.286149 103.818082 
L 159.535791 103.818082 
L 159.535791 103.423562 
L 159.785433 103.423562 
L 159.785433 102.33863 
L 160.035075 102.33863 
L 160.035075 101.845479 
L 160.534359 101.746849 
L 160.534359 101.155068 
L 161.283286 101.056438 
L 161.283286 100.563288 
L 161.532928 100.563288 
L 161.532928 99.774247 
L 161.78257 99.774247 
L 161.78257 99.478356 
L 162.032212 99.478356 
L 162.032212 98.886575 
L 162.281854 98.886575 
L 162.281854 98.590685 
L 162.781138 98.590685 
L 162.781138 98.393425 
L 163.03078 98.393425 
L 163.03078 97.703014 
L 163.280422 97.703014 
L 163.280422 96.716712 
L 163.779707 96.618082 
L 163.779707 96.519452 
L 164.029349 96.519452 
L 164.029349 95.927671 
L 165.027917 95.927671 
L 165.027917 95.730411 
L 165.776843 95.631781 
L 165.776843 95.533151 
L 166.026485 95.533151 
L 166.026485 94.94137 
L 166.775412 94.84274 
L 166.775412 94.645479 
L 167.274696 94.546849 
L 167.274696 93.856438 
L 167.524338 93.856438 
L 167.524338 93.560548 
L 168.273264 93.461918 
L 168.273264 92.771507 
L 168.522906 92.771507 
L 168.522906 92.376986 
L 169.02219 92.278356 
L 169.02219 91.982466 
L 170.270401 91.883836 
L 170.270401 91.292055 
L 170.769685 91.193425 
L 170.769685 91.094795 
L 171.019327 91.094795 
L 171.019327 90.897534 
L 171.268969 90.897534 
L 171.268969 90.305753 
L 172.017895 90.305753 
L 172.017895 90.009863 
L 172.766822 90.009863 
L 172.766822 89.713973 
L 173.76539 89.615342 
L 173.76539 89.418082 
L 174.264674 89.418082 
L 174.264674 89.122192 
L 174.763958 89.122192 
L 174.763958 88.727671 
L 175.013601 88.727671 
L 175.013601 88.333151 
L 175.263243 88.333151 
L 175.263243 88.03726 
L 175.512885 88.03726 
L 175.512885 87.74137 
L 176.012169 87.64274 
L 176.012169 87.54411 
L 176.261811 87.54411 
L 176.261811 87.346849 
L 176.761095 87.248219 
L 176.761095 86.360548 
L 177.010737 86.360548 
L 177.010737 85.966027 
L 177.260379 85.966027 
L 177.260379 85.670137 
L 177.510021 85.670137 
L 177.510021 85.472877 
L 177.759664 85.472877 
L 177.759664 85.176986 
L 178.009306 85.176986 
L 178.009306 84.782466 
L 178.50859 84.683836 
L 178.50859 84.387945 
L 179.007874 84.289315 
L 179.007874 84.092055 
L 179.7568 83.993425 
L 179.7568 83.894795 
L 180.006442 83.894795 
L 180.006442 83.697534 
L 180.256084 83.697534 
L 180.256084 83.303014 
L 180.505727 83.303014 
L 180.505727 82.809863 
L 181.005011 82.809863 
L 181.005011 82.513973 
L 182.003579 82.415342 
L 182.003579 82.316712 
L 182.502863 82.316712 
L 182.502863 82.119452 
L 182.752505 82.119452 
L 182.752505 81.922192 
L 183.002147 81.922192 
L 183.002147 80.83726 
L 184.000716 80.83726 
L 184.000716 80.64 
L 184.749642 80.54137 
L 184.749642 80.44274 
L 185.498568 80.44274 
L 185.498568 80.048219 
L 185.74821 80.048219 
L 185.74821 79.653699 
L 186.247495 79.653699 
L 186.247495 79.259178 
L 186.996421 79.160548 
L 186.996421 79.061918 
L 187.495705 79.061918 
L 187.495705 78.864658 
L 187.994989 78.864658 
L 187.994989 78.174247 
L 188.244631 78.174247 
L 188.244631 77.582466 
L 188.494273 77.582466 
L 188.494273 77.385205 
L 188.743916 77.385205 
L 188.743916 77.089315 
L 188.993558 77.089315 
L 188.993558 76.694795 
L 189.2432 76.694795 
L 189.2432 76.300274 
L 189.742484 76.201644 
L 189.742484 75.807123 
L 189.992126 75.807123 
L 189.992126 75.313973 
L 190.241768 75.313973 
L 190.241768 75.116712 
L 190.741052 75.018082 
L 190.741052 74.820822 
L 190.990694 74.820822 
L 190.990694 74.623562 
L 191.739621 74.524932 
L 191.739621 74.229041 
L 191.989263 74.229041 
L 191.989263 73.933151 
L 193.487115 73.834521 
L 193.487115 72.848219 
L 193.736757 72.848219 
L 193.736757 72.256438 
L 193.986399 72.256438 
L 193.986399 71.664658 
L 194.236042 71.664658 
L 194.236042 71.467397 
L 194.485684 71.467397 
L 194.485684 71.270137 
L 194.984968 71.171507 
L 194.984968 71.072877 
L 195.23461 71.072877 
L 195.23461 70.875616 
L 195.484252 70.875616 
L 195.484252 70.579726 
L 196.48282 70.481096 
L 196.48282 70.283836 
L 196.982105 70.185205 
L 196.982105 70.086575 
L 197.731031 70.086575 
L 197.731031 69.790685 
L 197.980673 69.790685 
L 197.980673 69.396164 
L 198.979241 69.297534 
L 198.979241 69.198904 
L 200.227452 69.100274 
L 200.227452 68.607123 
L 200.477094 68.607123 
L 200.477094 68.212603 
L 200.976378 68.113973 
L 200.976378 68.015342 
L 201.725304 67.916712 
L 201.725304 67.818082 
L 201.974946 67.818082 
L 201.974946 67.620822 
L 202.723873 67.522192 
L 202.723873 67.127671 
L 203.722441 67.029041 
L 203.722441 66.634521 
L 203.972083 66.634521 
L 203.972083 66.43726 
L 204.221725 66.43726 
L 204.221725 66.24 
L 205.220293 66.24 
L 205.220293 65.352329 
L 206.218862 65.253699 
L 206.218862 65.155068 
L 206.718146 65.155068 
L 206.718146 64.859178 
L 207.716714 64.760548 
L 207.716714 64.464658 
L 208.715283 64.366027 
L 208.715283 64.267397 
L 208.964925 64.267397 
L 208.964925 63.971507 
L 209.214567 63.971507 
L 209.214567 63.675616 
L 209.464209 63.675616 
L 209.464209 63.379726 
L 209.713851 63.379726 
L 209.713851 63.182466 
L 210.213135 63.182466 
L 210.213135 62.985205 
L 211.211704 62.886575 
L 211.211704 62.787945 
L 211.461346 62.787945 
L 211.461346 62.492055 
L 212.210272 62.492055 
L 212.210272 62.097534 
L 213.20884 61.998904 
L 213.20884 61.703014 
L 213.458482 61.703014 
L 213.458482 61.505753 
L 214.207409 61.407123 
L 214.207409 61.308493 
L 214.706693 61.308493 
L 214.706693 61.111233 
L 214.956335 61.111233 
L 214.956335 60.913973 
L 216.204545 60.913973 
L 216.204545 60.716712 
L 216.70383 60.618082 
L 216.70383 60.420822 
L 217.203114 60.322192 
L 217.203114 60.124932 
L 217.452756 60.124932 
L 217.452756 59.829041 
L 217.95204 59.829041 
L 217.95204 59.13863 
L 219.200251 59.04 
L 219.200251 58.94137 
L 219.449893 58.94137 
L 219.449893 58.546849 
L 219.699535 58.546849 
L 219.699535 58.152329 
L 219.949177 58.152329 
L 219.949177 57.955068 
L 220.947745 57.955068 
L 220.947745 57.757808 
L 221.447029 57.659178 
L 221.447029 57.560548 
L 222.69524 57.560548 
L 222.69524 57.067397 
L 222.944882 57.067397 
L 222.944882 56.870137 
L 224.193092 56.771507 
L 224.193092 56.672877 
L 225.441303 56.574247 
L 225.441303 56.475616 
L 226.190229 56.376986 
L 226.190229 56.278356 
L 227.43844 56.179726 
L 227.43844 56.081096 
L 228.187366 55.982466 
L 228.187366 55.883836 
L 228.68665 55.883836 
L 228.68665 55.587945 
L 228.936292 55.587945 
L 228.936292 55.292055 
L 229.435576 55.292055 
L 229.435576 55.094795 
L 230.933429 54.996164 
L 230.933429 54.798904 
L 231.183071 54.798904 
L 231.183071 54.503014 
L 231.931997 54.503014 
L 231.931997 54.305753 
L 232.181639 54.305753 
L 232.181639 53.516712 
L 232.680923 53.418082 
L 232.680923 53.319452 
L 232.930565 53.319452 
L 232.930565 53.122192 
L 233.679492 53.023562 
L 233.679492 52.924932 
L 234.428418 52.826301 
L 234.428418 52.727671 
L 234.927702 52.629041 
L 234.927702 52.530411 
L 235.426986 52.530411 
L 235.426986 52.234521 
L 236.425555 52.234521 
L 236.425555 52.03726 
L 237.673765 51.93863 
L 237.673765 51.74137 
L 238.422691 51.64274 
L 238.422691 51.346849 
L 239.171618 51.248219 
L 239.171618 51.149589 
L 239.670902 51.050959 
L 239.670902 50.952329 
L 240.419828 50.853699 
L 240.419828 50.755068 
L 241.418397 50.656438 
L 241.418397 50.557808 
L 241.668039 50.557808 
L 241.668039 50.360548 
L 241.917681 50.360548 
L 241.917681 50.163288 
L 243.914817 50.064658 
L 243.914817 49.867397 
L 246.411238 49.768767 
L 246.411238 49.571507 
L 248.408375 49.472877 
L 248.408375 49.374247 
L 248.658017 49.374247 
L 248.658017 49.176986 
L 248.907659 49.176986 
L 248.907659 48.881096 
L 249.406943 48.881096 
L 249.406943 48.683836 
L 252.153006 48.585205 
L 252.153006 48.486575 
L 253.900501 48.387945 
L 253.900501 48.289315 
L 254.649427 48.190685 
L 254.649427 47.993425 
L 255.148712 47.894795 
L 255.148712 47.796164 
L 256.396922 47.697534 
L 256.396922 47.598904 
L 258.394059 47.500274 
L 258.394059 47.401644 
L 259.142985 47.401644 
L 259.142985 47.204384 
L 259.891911 47.105753 
L 259.891911 47.007123 
L 260.89048 47.007123 
L 260.89048 46.809863 
L 266.382606 46.711233 
L 266.382606 46.513973 
L 268.879026 46.415342 
L 268.879026 46.316712 
L 274.620795 46.218082 
L 274.620795 46.119452 
L 276.617931 46.020822 
L 276.617931 45.922192 
L 277.866142 45.823562 
L 277.866142 45.724932 
L 279.863278 45.626301 
L 279.863278 45.527671 
L 280.362563 45.527671 
L 280.362563 45.330411 
L 283.358268 45.231781 
L 283.358268 45.133151 
L 291.596457 45.034521 
L 291.596457 44.93589 
L 293.343951 44.83726 
L 293.343951 44.73863 
L 311.318182 44.64 
L 311.318182 44.64 
" style="fill:none;stroke:#ff7f0e;stroke-linecap:square;stroke-width:1.5;"/>
   </g>
   <g id="line2d_15">
    <path clip-path="url(#pbbde4b290a)" d="M 57.681818 246.24 
L 57.681818 243.388205 
L 57.800284 243.388205 
L 57.800284 242.730098 
L 58.037217 242.730098 
L 58.037217 241.852622 
L 58.155683 241.852622 
L 58.155683 241.633254 
L 58.27415 241.633254 
L 58.27415 239.878303 
L 58.392616 239.878303 
L 58.392616 239.658934 
L 58.511082 239.658934 
L 58.511082 238.34272 
L 58.748015 238.34272 
L 58.748015 237.465245 
L 58.866481 237.465245 
L 58.866481 237.026507 
L 58.984948 237.026507 
L 58.984948 236.807138 
L 59.103414 236.807138 
L 59.103414 236.3684 
L 59.22188 236.3684 
L 59.22188 235.929663 
L 59.695745 235.929663 
L 59.695745 233.516605 
L 59.932678 233.516605 
L 59.932678 232.419761 
L 60.051144 232.419761 
L 60.051144 230.884178 
L 60.169611 230.884178 
L 60.169611 230.66481 
L 60.288077 230.66481 
L 60.288077 230.226072 
L 60.406543 230.226072 
L 60.406543 230.006703 
L 60.52501 230.006703 
L 60.52501 229.787334 
L 60.761942 229.787334 
L 60.761942 229.567965 
L 60.880408 229.567965 
L 60.880408 229.129227 
L 60.998875 229.129227 
L 60.998875 228.471121 
L 61.117341 228.471121 
L 61.117341 228.251752 
L 61.235807 228.251752 
L 61.235807 227.813014 
L 61.354274 227.813014 
L 61.354274 227.593645 
L 61.591206 227.593645 
L 61.591206 227.374276 
L 61.828139 227.374276 
L 61.828139 225.180588 
L 62.065072 225.180588 
L 62.065072 224.522481 
L 62.183538 224.522481 
L 62.183538 224.083743 
L 62.302004 224.083743 
L 62.302004 222.76753 
L 62.42047 222.76753 
L 62.42047 222.548161 
L 62.657403 222.548161 
L 62.657403 221.670686 
L 62.775869 221.670686 
L 62.775869 221.451317 
L 62.894336 221.451317 
L 62.894336 221.012579 
L 63.131268 221.012579 
L 63.131268 219.915734 
L 63.249735 219.915734 
L 63.249735 219.696366 
L 63.605134 219.696366 
L 63.605134 219.257628 
L 63.7236 219.257628 
L 63.7236 218.599521 
L 63.960532 218.599521 
L 63.960532 217.283308 
L 64.197465 217.283308 
L 64.197465 217.063939 
L 64.315931 217.063939 
L 64.315931 216.84457 
L 64.434398 216.84457 
L 64.434398 215.528357 
L 64.552864 215.528357 
L 64.552864 215.089619 
L 64.67133 215.089619 
L 64.67133 213.992775 
L 64.789797 213.992775 
L 64.789797 212.457193 
L 64.908263 212.457193 
L 64.908263 210.263504 
L 65.263662 210.263504 
L 65.263662 209.824766 
L 65.382128 209.824766 
L 65.382128 209.605397 
L 65.619061 209.605397 
L 65.619061 208.727922 
L 66.566791 208.727922 
L 66.566791 208.069815 
L 66.803724 208.069815 
L 66.803724 207.631077 
L 66.92219 207.631077 
L 66.92219 206.972971 
L 67.159123 206.972971 
L 67.159123 206.753602 
L 67.277589 206.753602 
L 67.277589 206.095495 
L 67.396055 206.095495 
L 67.396055 205.876126 
L 67.514522 205.876126 
L 67.514522 205.437388 
L 67.632988 205.437388 
L 67.632988 205.21802 
L 67.751454 205.21802 
L 67.751454 204.121175 
L 67.869921 204.121175 
L 67.869921 203.901806 
L 67.988387 203.901806 
L 67.988387 203.682437 
L 68.106853 203.682437 
L 68.106853 203.463069 
L 68.22532 203.463069 
L 68.22532 202.585593 
L 68.462252 202.585593 
L 68.462252 201.927486 
L 68.580718 201.927486 
L 68.580718 201.708118 
L 68.699185 201.708118 
L 68.699185 201.488749 
L 68.936117 201.488749 
L 68.936117 200.172535 
L 69.054584 200.172535 
L 69.054584 199.953166 
L 69.291516 199.953166 
L 69.291516 199.733798 
L 69.409983 199.733798 
L 69.409983 199.514429 
L 69.528449 199.514429 
L 69.528449 199.29506 
L 69.646915 199.29506 
L 69.646915 198.636953 
L 69.883848 198.636953 
L 69.883848 198.417584 
L 70.12078 198.417584 
L 70.12078 197.978847 
L 70.239247 197.978847 
L 70.239247 197.759478 
L 70.357713 197.759478 
L 70.357713 197.540109 
L 70.476179 197.540109 
L 70.476179 196.882002 
L 70.594646 196.882002 
L 70.594646 196.223896 
L 70.831578 196.223896 
L 70.831578 196.004527 
L 71.068511 196.004527 
L 71.068511 194.468945 
L 72.134708 194.468945 
L 72.134708 194.249576 
L 72.37164 194.249576 
L 72.37164 194.030207 
L 72.490107 194.030207 
L 72.490107 193.591469 
L 72.963972 193.591469 
L 72.963972 192.055887 
L 73.082438 192.055887 
L 73.082438 191.836518 
L 73.200904 191.836518 
L 73.200904 191.617149 
L 73.319371 191.617149 
L 73.319371 191.39778 
L 73.437837 191.39778 
L 73.437837 190.739674 
L 73.67477 190.739674 
L 73.67477 190.520305 
L 73.793236 190.520305 
L 73.793236 190.300936 
L 74.030169 190.300936 
L 74.030169 189.642829 
L 74.148635 189.642829 
L 74.148635 188.765354 
L 74.267101 188.765354 
L 74.267101 188.326616 
L 74.504034 188.326616 
L 74.504034 188.107247 
L 74.6225 188.107247 
L 74.6225 187.887878 
L 74.740966 187.887878 
L 74.740966 187.229771 
L 74.859433 187.229771 
L 74.859433 187.010403 
L 74.977899 187.010403 
L 74.977899 186.791034 
L 75.451764 186.791034 
L 75.451764 185.913558 
L 75.570231 185.913558 
L 75.570231 185.694189 
L 75.688697 185.694189 
L 75.688697 185.47482 
L 76.162562 185.47482 
L 76.162562 185.255452 
L 76.399495 185.255452 
L 76.399495 185.036083 
L 76.636427 185.036083 
L 76.636427 184.597345 
L 76.754894 184.597345 
L 76.754894 183.719869 
L 76.87336 183.719869 
L 76.87336 183.500501 
L 76.991826 183.500501 
L 76.991826 182.842394 
L 77.228759 182.842394 
L 77.228759 182.403656 
L 77.347225 182.403656 
L 77.347225 182.184287 
L 77.465691 182.184287 
L 77.465691 181.964918 
L 77.584158 181.964918 
L 77.584158 181.74555 
L 77.702624 181.74555 
L 77.702624 181.526181 
L 77.82109 181.526181 
L 77.82109 181.306812 
L 77.939557 181.306812 
L 77.939557 181.087443 
L 78.058023 181.087443 
L 78.058023 180.648705 
L 78.294956 180.648705 
L 78.294956 180.429336 
L 78.413422 180.429336 
L 78.413422 179.77123 
L 78.768821 179.77123 
L 78.768821 179.332492 
L 78.887287 179.332492 
L 78.887287 179.113123 
L 79.005753 179.113123 
L 79.005753 177.79691 
L 79.479619 177.79691 
L 79.479619 177.358172 
L 79.598085 177.358172 
L 79.598085 177.138803 
L 79.716551 177.138803 
L 79.716551 176.919434 
L 79.953484 176.919434 
L 79.953484 176.700065 
L 80.07195 176.700065 
L 80.07195 176.041959 
L 80.427349 176.041959 
L 80.427349 175.383852 
L 80.664282 175.383852 
L 80.664282 174.506376 
L 80.901214 174.506376 
L 80.901214 174.067639 
L 81.138147 174.067639 
L 81.138147 173.628901 
L 81.493546 173.628901 
L 81.493546 172.751425 
L 81.612012 172.751425 
L 81.612012 170.996474 
L 81.730479 170.996474 
L 81.730479 170.777106 
L 81.848945 170.777106 
L 81.848945 170.338368 
L 82.085877 170.338368 
L 82.085877 169.680261 
L 82.204344 169.680261 
L 82.204344 169.460892 
L 82.32281 169.460892 
L 82.32281 169.022155 
L 82.559743 169.022155 
L 82.559743 168.802786 
L 82.678209 168.802786 
L 82.678209 168.583417 
L 82.796675 168.583417 
L 82.796675 168.364048 
L 83.033608 168.364048 
L 83.033608 167.267203 
L 83.152074 167.267203 
L 83.152074 167.047835 
L 83.507473 167.047835 
L 83.507473 166.389728 
L 83.862872 166.389728 
L 83.862872 165.95099 
L 84.218271 165.95099 
L 84.218271 165.731621 
L 84.455204 165.731621 
L 84.455204 165.292884 
L 84.57367 165.292884 
L 84.57367 165.073515 
L 84.929069 165.073515 
L 84.929069 164.415408 
L 85.166001 164.415408 
L 85.166001 164.196039 
L 85.284468 164.196039 
L 85.284468 163.537933 
L 85.5214 163.537933 
L 85.5214 163.099195 
L 85.995266 163.099195 
L 85.995266 162.879826 
L 86.706063 162.879826 
L 86.706063 162.660457 
L 87.416861 162.660457 
L 87.416861 161.344244 
L 87.890727 161.344244 
L 87.890727 161.124875 
L 88.009193 161.124875 
L 88.009193 160.247399 
L 88.483058 160.247399 
L 88.483058 160.02803 
L 88.838457 160.02803 
L 88.838457 159.150555 
L 89.312322 159.150555 
L 89.312322 158.931186 
L 89.549255 158.931186 
L 89.549255 158.711817 
L 89.904654 158.711817 
L 89.904654 158.053711 
L 90.852384 158.053711 
L 90.852384 157.834342 
L 91.089317 157.834342 
L 91.089317 156.518128 
L 91.207783 156.518128 
L 91.207783 156.079391 
L 91.326249 156.079391 
L 91.326249 155.421284 
L 91.444716 155.421284 
L 91.444716 155.201915 
L 91.563182 155.201915 
L 91.563182 154.763177 
L 91.681648 154.763177 
L 91.681648 154.543808 
L 91.918581 154.543808 
L 91.918581 154.32444 
L 92.155514 154.32444 
L 92.155514 154.105071 
L 92.27398 154.105071 
L 92.27398 153.666333 
L 92.629379 153.666333 
L 92.629379 153.227595 
L 92.984778 153.227595 
L 92.984778 152.788857 
L 93.103244 152.788857 
L 93.103244 152.569489 
L 93.458643 152.569489 
L 93.458643 152.130751 
L 93.577109 152.130751 
L 93.577109 151.911382 
L 93.814042 151.911382 
L 93.814042 151.472644 
L 94.52484 151.472644 
L 94.52484 151.253275 
L 94.998705 151.253275 
L 94.998705 151.033906 
L 95.235638 151.033906 
L 95.235638 150.814538 
L 95.591036 150.814538 
L 95.591036 150.595169 
L 95.709503 150.595169 
L 95.709503 150.3758 
L 95.827969 150.3758 
L 95.827969 149.937062 
L 95.946435 149.937062 
L 95.946435 149.717693 
L 96.064902 149.717693 
L 96.064902 149.278955 
L 96.301834 149.278955 
L 96.301834 148.620849 
L 96.538767 148.620849 
L 96.538767 147.962742 
L 96.657233 147.962742 
L 96.657233 147.743373 
L 96.894166 147.743373 
L 96.894166 147.524004 
L 97.72343 147.524004 
L 97.72343 147.304635 
L 97.960363 147.304635 
L 97.960363 147.085267 
L 98.078829 147.085267 
L 98.078829 146.646529 
L 98.315762 146.646529 
L 98.315762 146.42716 
L 98.789627 146.42716 
L 98.789627 146.207791 
L 98.908093 146.207791 
L 98.908093 145.988422 
L 99.145026 145.988422 
L 99.145026 145.769053 
L 99.263492 145.769053 
L 99.263492 145.330316 
L 99.381958 145.330316 
L 99.381958 145.110947 
L 99.855824 145.110947 
L 99.855824 144.45284 
L 100.092756 144.45284 
L 100.092756 144.014102 
L 100.211222 144.014102 
L 100.211222 143.794733 
L 100.329689 143.794733 
L 100.329689 143.575365 
L 100.566621 143.575365 
L 100.566621 143.355996 
L 100.92202 143.355996 
L 100.92202 143.136627 
L 101.040487 143.136627 
L 101.040487 142.47852 
L 101.277419 142.47852 
L 101.277419 142.259151 
L 101.395886 142.259151 
L 101.395886 142.039782 
L 101.514352 142.039782 
L 101.514352 141.820413 
L 101.632818 141.820413 
L 101.632818 141.601045 
L 101.751284 141.601045 
L 101.751284 141.381676 
L 101.869751 141.381676 
L 101.869751 141.162307 
L 101.988217 141.162307 
L 101.988217 140.723569 
L 102.22515 140.723569 
L 102.22515 140.5042 
L 102.462082 140.5042 
L 102.462082 140.284831 
L 102.699015 140.284831 
L 102.699015 139.846094 
L 102.817481 139.846094 
L 102.817481 139.626725 
L 103.291346 139.626725 
L 103.291346 139.407356 
L 103.528279 139.407356 
L 103.528279 138.52988 
L 103.646745 138.52988 
L 103.646745 138.310511 
L 103.765212 138.310511 
L 103.765212 138.091143 
L 103.883678 138.091143 
L 103.883678 137.871774 
L 104.239077 137.871774 
L 104.239077 137.433036 
L 104.47601 137.433036 
L 104.47601 137.213667 
L 104.594476 137.213667 
L 104.594476 136.994298 
L 104.712942 136.994298 
L 104.712942 136.55556 
L 105.186807 136.55556 
L 105.186807 136.336192 
L 105.305274 136.336192 
L 105.305274 135.678085 
L 105.779139 135.678085 
L 105.779139 135.458716 
L 106.489937 135.458716 
L 106.489937 134.800609 
L 106.963802 134.800609 
L 106.963802 134.58124 
L 107.200735 134.58124 
L 107.200735 133.923134 
L 107.319201 133.923134 
L 107.319201 133.703765 
L 108.266931 133.703765 
L 108.266931 133.484396 
L 108.503864 133.484396 
L 108.503864 133.265027 
L 108.740797 133.265027 
L 108.740797 132.387552 
L 109.214662 132.387552 
L 109.214662 131.948814 
L 109.806993 131.948814 
L 109.806993 131.729445 
L 110.043926 131.729445 
L 110.043926 131.290707 
L 110.162392 131.290707 
L 110.162392 130.413232 
L 110.280859 130.413232 
L 110.280859 130.193863 
L 110.399325 130.193863 
L 110.399325 129.974494 
L 110.517791 129.974494 
L 110.517791 129.316387 
L 110.636257 129.316387 
L 110.636257 128.87765 
L 110.754724 128.87765 
L 110.754724 128.658281 
L 111.228589 128.658281 
L 111.228589 128.438912 
L 111.347055 128.438912 
L 111.347055 128.219543 
L 111.465522 128.219543 
L 111.465522 128.000174 
L 111.939387 128.000174 
L 111.939387 127.780805 
L 112.413252 127.780805 
L 112.413252 127.561436 
L 112.531718 127.561436 
L 112.531718 127.342067 
L 112.887117 127.342067 
L 112.887117 126.683961 
L 113.242516 126.683961 
L 113.242516 126.464592 
L 113.479449 126.464592 
L 113.479449 126.025854 
L 113.597915 126.025854 
L 113.597915 125.806485 
L 113.953314 125.806485 
L 113.953314 125.367748 
L 114.190247 125.367748 
L 114.190247 125.148379 
L 114.545646 125.148379 
L 114.545646 124.92901 
L 115.019511 124.92901 
L 115.019511 124.490272 
L 115.137977 124.490272 
L 115.137977 123.393428 
L 115.37491 123.393428 
L 115.37491 123.174059 
L 115.730309 123.174059 
L 115.730309 122.95469 
L 115.848775 122.95469 
L 115.848775 122.515952 
L 116.204174 122.515952 
L 116.204174 122.077214 
L 116.441107 122.077214 
L 116.441107 121.638477 
L 116.678039 121.638477 
L 116.678039 121.419108 
L 116.796505 121.419108 
L 116.796505 121.199739 
L 117.033438 121.199739 
L 117.033438 120.98037 
L 117.270371 120.98037 
L 117.270371 120.541632 
L 117.388837 120.541632 
L 117.388837 120.322263 
L 117.744236 120.322263 
L 117.744236 120.102894 
L 117.862702 120.102894 
L 117.862702 119.444788 
L 117.981169 119.444788 
L 117.981169 119.225419 
L 118.218101 119.225419 
L 118.218101 119.00605 
L 118.336567 119.00605 
L 118.336567 118.786681 
L 118.810433 118.786681 
L 118.810433 118.567312 
L 119.402764 118.567312 
L 119.402764 118.347943 
L 119.639697 118.347943 
L 119.639697 117.689837 
L 119.758163 117.689837 
L 119.758163 117.470468 
L 120.113562 117.470468 
L 120.113562 117.251099 
L 120.350495 117.251099 
L 120.350495 117.03173 
L 120.587427 117.03173 
L 120.587427 116.812361 
L 120.942826 116.812361 
L 120.942826 116.592992 
L 121.061293 116.592992 
L 121.061293 116.154255 
L 121.653624 116.154255 
L 121.653624 115.934886 
L 122.009023 115.934886 
L 122.009023 114.618672 
L 122.364422 114.618672 
L 122.364422 114.399304 
L 122.482888 114.399304 
L 122.482888 113.960566 
L 123.07522 113.960566 
L 123.07522 113.741197 
L 123.193686 113.741197 
L 123.193686 113.521828 
L 123.786018 113.521828 
L 123.786018 113.302459 
L 124.259883 113.302459 
L 124.259883 112.863721 
L 124.378349 112.863721 
L 124.378349 112.644353 
L 124.852214 112.644353 
L 124.852214 112.424984 
L 125.207613 112.424984 
L 125.207613 112.205615 
L 125.444546 112.205615 
L 125.444546 111.766877 
L 125.681478 111.766877 
L 125.681478 111.547508 
L 125.918411 111.547508 
L 125.918411 111.328139 
L 126.036877 111.328139 
L 126.036877 111.10877 
L 126.155344 111.10877 
L 126.155344 110.889402 
L 126.392276 110.889402 
L 126.392276 110.670033 
L 127.22154 110.670033 
L 127.22154 109.792557 
L 127.340007 109.792557 
L 127.340007 109.573188 
L 127.813872 109.573188 
L 127.813872 109.353819 
L 128.050805 109.353819 
L 128.050805 109.13445 
L 128.643136 109.13445 
L 128.643136 108.695713 
L 128.761602 108.695713 
L 128.761602 108.476344 
L 129.709333 108.476344 
L 129.709333 108.037606 
L 129.946266 108.037606 
L 129.946266 107.818237 
L 130.657063 107.818237 
L 130.657063 107.598868 
L 130.77553 107.598868 
L 130.77553 107.379499 
L 131.249395 107.379499 
L 131.249395 107.160131 
L 131.367861 107.160131 
L 131.367861 106.940762 
L 131.960193 106.940762 
L 131.960193 106.502024 
L 132.552524 106.502024 
L 132.552524 106.282655 
L 132.907923 106.282655 
L 132.907923 106.063286 
L 133.02639 106.063286 
L 133.02639 105.843917 
L 133.144856 105.843917 
L 133.144856 105.624548 
L 133.381788 105.624548 
L 133.381788 105.185811 
L 133.855654 105.185811 
L 133.855654 104.747073 
L 134.329519 104.747073 
L 134.329519 104.308335 
L 134.447985 104.308335 
L 134.447985 103.869597 
L 134.566452 103.869597 
L 134.566452 103.43086 
L 135.277249 103.43086 
L 135.277249 103.211491 
L 135.395716 103.211491 
L 135.395716 102.992122 
L 135.632648 102.992122 
L 135.632648 102.772753 
L 136.106514 102.772753 
L 136.106514 102.553384 
L 136.580379 102.553384 
L 136.580379 102.334015 
L 136.935778 102.334015 
L 136.935778 102.114646 
L 137.054244 102.114646 
L 137.054244 101.895277 
L 137.646576 101.895277 
L 137.646576 101.675909 
L 138.120441 101.675909 
L 138.120441 101.45654 
L 138.47584 101.45654 
L 138.47584 101.017802 
L 138.949705 101.017802 
L 138.949705 100.579064 
L 139.660503 100.579064 
L 139.660503 100.140326 
L 139.778969 100.140326 
L 139.778969 99.920958 
L 139.897435 99.920958 
L 139.897435 99.701589 
L 140.134368 99.701589 
L 140.134368 99.48222 
L 140.252834 99.48222 
L 140.252834 99.043482 
L 141.200565 99.043482 
L 141.200565 98.824113 
L 142.029829 98.824113 
L 142.029829 98.385375 
L 142.62216 98.385375 
L 142.62216 98.166007 
L 142.859093 98.166007 
L 142.859093 97.946638 
L 143.214492 97.946638 
L 143.214492 97.727269 
L 143.332958 97.727269 
L 143.332958 97.5079 
L 143.92529 97.5079 
L 143.92529 97.069162 
L 144.043756 97.069162 
L 144.043756 96.849793 
L 144.517621 96.849793 
L 144.517621 96.411055 
L 144.991487 96.411055 
L 144.991487 96.191687 
L 145.346885 96.191687 
L 145.346885 95.972318 
L 145.465352 95.972318 
L 145.465352 95.752949 
L 145.583818 95.752949 
L 145.583818 95.53358 
L 145.820751 95.53358 
L 145.820751 95.314211 
L 145.939217 95.314211 
L 145.939217 95.094842 
L 146.294616 95.094842 
L 146.294616 94.875473 
L 147.005414 94.875473 
L 147.005414 94.656104 
L 147.242346 94.656104 
L 147.242346 94.436736 
L 147.360813 94.436736 
L 147.360813 94.217367 
L 148.308543 94.217367 
L 148.308543 93.997998 
L 148.427009 93.997998 
L 148.427009 93.778629 
L 148.545476 93.778629 
L 148.545476 93.55926 
L 148.663942 93.55926 
L 148.663942 93.339891 
L 149.848605 93.339891 
L 149.848605 92.901153 
L 149.967071 92.901153 
L 149.967071 92.243047 
L 150.204004 92.243047 
L 150.204004 91.804309 
L 150.32247 91.804309 
L 150.32247 91.365571 
L 150.440937 91.365571 
L 150.440937 91.146202 
L 150.677869 91.146202 
L 150.677869 90.707465 
L 150.914802 90.707465 
L 150.914802 90.488096 
L 151.270201 90.488096 
L 151.270201 89.829989 
L 151.980999 89.829989 
L 151.980999 89.61062 
L 153.165662 89.61062 
L 153.165662 89.391251 
L 153.994926 89.391251 
L 153.994926 88.952514 
L 155.061123 88.952514 
L 155.061123 88.513776 
L 155.179589 88.513776 
L 155.179589 88.075038 
L 155.416522 88.075038 
L 155.416522 87.855669 
L 155.534988 87.855669 
L 155.534988 87.6363 
L 156.364252 87.6363 
L 156.364252 87.416931 
L 157.904314 87.416931 
L 157.904314 87.197563 
L 159.562842 87.197563 
L 159.562842 86.978194 
L 159.799775 86.978194 
L 159.799775 86.758825 
L 160.510573 86.758825 
L 160.510573 86.320087 
L 162.050635 86.320087 
L 162.050635 86.100718 
L 163.353764 86.100718 
L 163.353764 85.66198 
L 163.590697 85.66198 
L 163.590697 85.442612 
L 163.709163 85.442612 
L 163.709163 85.223243 
L 164.893826 85.223243 
L 164.893826 85.003874 
L 165.249225 85.003874 
L 165.249225 84.784505 
L 165.841557 84.784505 
L 165.841557 84.126398 
L 166.196956 84.126398 
L 166.196956 83.907029 
L 166.315422 83.907029 
L 166.315422 83.687661 
L 167.144686 83.687661 
L 167.144686 83.468292 
L 167.737018 83.468292 
L 167.737018 83.248923 
L 168.092416 83.248923 
L 168.092416 83.029554 
L 168.329349 83.029554 
L 168.329349 82.810185 
L 168.684748 82.810185 
L 168.684748 82.590816 
L 169.514012 82.590816 
L 169.514012 82.371447 
L 170.106344 82.371447 
L 170.106344 81.932709 
L 171.291007 81.932709 
L 171.291007 81.713341 
L 171.883338 81.713341 
L 171.883338 81.493972 
L 172.47567 81.493972 
L 172.47567 81.274603 
L 172.594136 81.274603 
L 172.594136 81.055234 
L 173.4234 81.055234 
L 173.4234 80.835865 
L 173.897266 80.835865 
L 173.897266 80.616496 
L 174.844996 80.616496 
L 174.844996 80.397127 
L 175.555794 80.397127 
L 175.555794 80.177758 
L 175.67426 80.177758 
L 175.67426 79.95839 
L 176.977389 79.95839 
L 176.977389 79.739021 
L 178.87285 79.739021 
L 178.87285 78.861545 
L 178.991317 78.861545 
L 178.991317 78.642176 
L 179.820581 78.642176 
L 179.820581 78.422807 
L 180.294446 78.422807 
L 180.294446 78.203439 
L 180.531379 78.203439 
L 180.531379 77.764701 
L 181.716042 77.764701 
L 181.716042 77.545332 
L 181.834508 77.545332 
L 181.834508 77.325963 
L 182.308373 77.325963 
L 182.308373 76.887225 
L 182.663772 76.887225 
L 182.663772 76.667856 
L 182.782239 76.667856 
L 182.782239 76.448487 
L 183.137637 76.448487 
L 183.137637 76.00975 
L 183.611503 76.00975 
L 183.611503 75.790381 
L 184.322301 75.790381 
L 184.322301 75.571012 
L 185.743896 75.571012 
L 185.743896 75.132274 
L 185.862363 75.132274 
L 185.862363 74.693536 
L 186.217761 74.693536 
L 186.217761 74.474168 
L 188.942487 74.474168 
L 188.942487 74.254799 
L 189.179419 74.254799 
L 189.179419 74.03543 
L 189.890217 74.03543 
L 189.890217 73.596692 
L 190.719481 73.596692 
L 190.719481 73.377323 
L 190.956414 73.377323 
L 190.956414 73.157954 
L 191.430279 73.157954 
L 191.430279 72.938585 
L 191.785678 72.938585 
L 191.785678 72.499848 
L 191.904144 72.499848 
L 191.904144 71.841741 
L 193.681139 71.841741 
L 193.681139 71.622372 
L 193.918071 71.622372 
L 193.918071 71.183634 
L 194.036538 71.183634 
L 194.036538 70.964266 
L 194.155004 70.964266 
L 194.155004 70.525528 
L 194.27347 70.525528 
L 194.27347 70.306159 
L 195.339667 70.306159 
L 195.339667 69.867421 
L 195.813532 69.867421 
L 195.813532 69.428683 
L 196.761263 69.428683 
L 196.761263 69.209314 
L 197.708993 69.209314 
L 197.708993 68.989946 
L 198.419791 68.989946 
L 198.419791 68.770577 
L 198.538257 68.770577 
L 198.538257 68.551208 
L 198.77519 68.551208 
L 198.77519 68.331839 
L 198.893656 68.331839 
L 198.893656 68.11247 
L 199.485988 68.11247 
L 199.485988 67.893101 
L 200.552185 67.893101 
L 200.552185 67.454363 
L 202.092247 67.454363 
L 202.092247 67.234995 
L 202.210713 67.234995 
L 202.210713 67.015626 
L 203.750775 67.015626 
L 203.750775 66.796257 
L 203.869241 66.796257 
L 203.869241 66.576888 
L 204.935438 66.576888 
L 204.935438 66.357519 
L 205.053904 66.357519 
L 205.053904 65.918781 
L 206.001635 65.918781 
L 206.001635 65.699412 
L 208.015562 65.699412 
L 208.015562 65.480044 
L 208.607894 65.480044 
L 208.607894 65.260675 
L 208.844826 65.260675 
L 208.844826 65.041306 
L 212.043416 65.041306 
L 212.043416 64.821937 
L 213.228079 64.821937 
L 213.228079 64.602568 
L 213.701945 64.602568 
L 213.701945 64.383199 
L 214.649675 64.383199 
L 214.649675 64.16383 
L 215.242007 64.16383 
L 215.242007 63.944461 
L 217.019001 63.944461 
L 217.019001 63.725092 
L 217.3744 63.725092 
L 217.3744 63.505724 
L 217.492867 63.505724 
L 217.492867 63.286355 
L 217.611333 63.286355 
L 217.611333 63.066986 
L 219.506794 63.066986 
L 219.506794 62.847617 
L 220.691457 62.847617 
L 220.691457 62.628248 
L 221.639187 62.628248 
L 221.639187 62.408879 
L 222.113053 62.408879 
L 222.113053 62.18951 
L 222.468451 62.18951 
L 222.468451 61.970141 
L 222.942317 61.970141 
L 222.942317 61.750773 
L 224.12698 61.750773 
L 224.12698 61.312035 
L 224.245446 61.312035 
L 224.245446 61.092666 
L 225.07471 61.092666 
L 225.07471 60.873297 
L 225.667042 60.873297 
L 225.667042 60.653928 
L 226.022441 60.653928 
L 226.022441 60.434559 
L 227.799435 60.434559 
L 227.799435 60.21519 
L 228.036368 60.21519 
L 228.036368 59.995822 
L 228.628699 59.995822 
L 228.628699 59.776453 
L 231.234958 59.776453 
L 231.234958 59.557084 
L 231.708823 59.557084 
L 231.708823 59.337715 
L 233.485818 59.337715 
L 233.485818 59.118346 
L 234.315082 59.118346 
L 234.315082 58.898977 
L 235.144346 58.898977 
L 235.144346 58.679608 
L 235.381279 58.679608 
L 235.381279 58.460239 
L 235.97361 58.460239 
L 235.97361 58.021502 
L 236.447476 58.021502 
L 236.447476 57.802133 
L 237.27674 57.802133 
L 237.27674 57.582764 
L 239.172201 57.582764 
L 239.172201 57.363395 
L 240.001465 57.363395 
L 240.001465 57.144026 
L 240.356864 57.144026 
L 240.356864 56.924657 
L 243.081589 56.924657 
L 243.081589 56.705288 
L 243.910853 56.705288 
L 243.910853 56.485919 
L 245.92478 56.485919 
L 245.92478 56.266551 
L 246.280179 56.266551 
L 246.280179 56.047182 
L 246.635578 56.047182 
L 246.635578 55.827813 
L 247.109443 55.827813 
L 247.109443 55.608444 
L 247.22791 55.608444 
L 247.22791 55.389075 
L 248.767972 55.389075 
L 248.767972 55.169706 
L 249.004904 55.169706 
L 249.004904 54.950337 
L 251.37423 54.950337 
L 251.37423 54.730968 
L 253.269691 54.730968 
L 253.269691 54.5116 
L 253.980489 54.5116 
L 253.980489 54.292231 
L 256.942147 54.292231 
L 256.942147 54.072862 
L 257.179079 54.072862 
L 257.179079 53.853493 
L 258.12681 53.853493 
L 258.12681 53.634124 
L 259.548406 53.634124 
L 259.548406 53.414755 
L 263.339327 53.414755 
L 263.339327 53.195386 
L 263.813193 53.195386 
L 263.813193 52.976017 
L 265.234788 52.976017 
L 265.234788 52.756649 
L 267.722581 52.756649 
L 267.722581 52.53728 
L 270.447306 52.53728 
L 270.447306 52.317911 
L 270.684238 52.317911 
L 270.684238 52.098542 
L 272.2243 52.098542 
L 272.2243 51.879173 
L 272.698166 51.879173 
L 272.698166 51.659804 
L 274.238228 51.659804 
L 274.238228 51.440435 
L 275.896756 51.440435 
L 275.896756 51.001697 
L 277.081419 51.001697 
L 277.081419 50.782329 
L 280.516942 50.782329 
L 280.516942 50.56296 
L 282.886268 50.56296 
L 282.886268 50.124222 
L 283.123201 50.124222 
L 283.123201 49.904853 
L 286.084858 49.904853 
L 286.084858 49.466115 
L 286.321791 49.466115 
L 286.321791 49.246746 
L 286.440257 49.246746 
L 286.440257 49.027378 
L 287.980319 49.027378 
L 287.980319 48.808009 
L 290.705044 48.808009 
L 290.705044 48.58864 
L 291.297376 48.58864 
L 291.297376 48.369271 
L 294.140567 48.369271 
L 294.140567 48.149902 
L 294.259034 48.149902 
L 294.259034 47.930533 
L 295.443697 47.930533 
L 295.443697 47.711164 
L 295.680629 47.711164 
L 295.680629 47.272427 
L 296.509893 47.272427 
L 296.509893 47.053058 
L 297.57609 47.053058 
L 297.57609 46.833689 
L 298.405354 46.833689 
L 298.405354 46.61432 
L 301.722411 46.61432 
L 301.722411 46.394951 
L 302.788608 46.394951 
L 302.788608 46.175582 
L 303.380939 46.175582 
L 303.380939 45.956213 
L 308.47499 45.956213 
L 308.47499 45.736844 
L 308.830389 45.736844 
L 308.830389 45.517476 
L 309.422721 45.517476 
L 309.422721 45.298107 
L 310.607384 45.298107 
L 310.607384 45.078738 
L 310.72585 45.078738 
L 310.72585 44.859369 
L 310.962783 44.859369 
L 310.962783 44.64 
L 311.318182 44.64 
L 311.318182 44.64 
" style="fill:none;stroke:#2ca02c;stroke-linecap:square;stroke-width:1.5;"/>
   </g>
   <g id="patch_3">
    <path d="M 45 256.32 
L 45 34.56 
" style="fill:none;stroke:#000000;stroke-linecap:square;stroke-linejoin:miter;stroke-width:0.8;"/>
   </g>
   <g id="patch_4">
    <path d="M 324 256.32 
L 324 34.56 
" style="fill:none;stroke:#000000;stroke-linecap:square;stroke-linejoin:miter;stroke-width:0.8;"/>
   </g>
   <g id="patch_5">
    <path d="M 45 256.32 
L 324 256.32 
" style="fill:none;stroke:#000000;stroke-linecap:square;stroke-linejoin:miter;stroke-width:0.8;"/>
   </g>
   <g id="patch_6">
    <path d="M 45 34.56 
L 324 34.56 
" style="fill:none;stroke:#000000;stroke-linecap:square;stroke-linejoin:miter;stroke-width:0.8;"/>
   </g>
   <g id="text_15">
    <!-- roc_exlnet -->
    <g transform="translate(153.546562 28.56)scale(0.12 -0.12)">
     <defs>
      <path d="M 1959 3097 
Q 1497 3097 1228 2736 
Q 959 2375 959 1747 
Q 959 1119 1226 758 
Q 1494 397 1959 397 
Q 2419 397 2687 759 
Q 2956 1122 2956 1747 
Q 2956 2369 2687 2733 
Q 2419 3097 1959 3097 
z
M 1959 3584 
Q 2709 3584 3137 3096 
Q 3566 2609 3566 1747 
Q 3566 888 3137 398 
Q 2709 -91 1959 -91 
Q 1206 -91 779 398 
Q 353 888 353 1747 
Q 353 2609 779 3096 
Q 1206 3584 1959 3584 
z
" id="DejaVuSans-6f" transform="scale(0.015625)"/>
      <path d="M 3122 3366 
L 3122 2828 
Q 2878 2963 2633 3030 
Q 2388 3097 2138 3097 
Q 1578 3097 1268 2742 
Q 959 2388 959 1747 
Q 959 1106 1268 751 
Q 1578 397 2138 397 
Q 2388 397 2633 464 
Q 2878 531 3122 666 
L 3122 134 
Q 2881 22 2623 -34 
Q 2366 -91 2075 -91 
Q 1284 -91 818 406 
Q 353 903 353 1747 
Q 353 2603 823 3093 
Q 1294 3584 2113 3584 
Q 2378 3584 2631 3529 
Q 2884 3475 3122 3366 
z
" id="DejaVuSans-63" transform="scale(0.015625)"/>
      <path d="M 3263 -1063 
L 3263 -1509 
L -63 -1509 
L -63 -1063 
L 3263 -1063 
z
" id="DejaVuSans-5f" transform="scale(0.015625)"/>
      <path d="M 3597 1894 
L 3597 1613 
L 953 1613 
Q 991 1019 1311 708 
Q 1631 397 2203 397 
Q 2534 397 2845 478 
Q 3156 559 3463 722 
L 3463 178 
Q 3153 47 2828 -22 
Q 2503 -91 2169 -91 
Q 1331 -91 842 396 
Q 353 884 353 1716 
Q 353 2575 817 3079 
Q 1281 3584 2069 3584 
Q 2775 3584 3186 3129 
Q 3597 2675 3597 1894 
z
M 3022 2063 
Q 3016 2534 2758 2815 
Q 2500 3097 2075 3097 
Q 1594 3097 1305 2825 
Q 1016 2553 972 2059 
L 3022 2063 
z
" id="DejaVuSans-65" transform="scale(0.015625)"/>
      <path d="M 3513 3500 
L 2247 1797 
L 3578 0 
L 2900 0 
L 1881 1375 
L 863 0 
L 184 0 
L 1544 1831 
L 300 3500 
L 978 3500 
L 1906 2253 
L 2834 3500 
L 3513 3500 
z
" id="DejaVuSans-78" transform="scale(0.015625)"/>
      <path d="M 603 4863 
L 1178 4863 
L 1178 0 
L 603 0 
L 603 4863 
z
" id="DejaVuSans-6c" transform="scale(0.015625)"/>
      <path d="M 3513 2113 
L 3513 0 
L 2938 0 
L 2938 2094 
Q 2938 2591 2744 2837 
Q 2550 3084 2163 3084 
Q 1697 3084 1428 2787 
Q 1159 2491 1159 1978 
L 1159 0 
L 581 0 
L 581 3500 
L 1159 3500 
L 1159 2956 
Q 1366 3272 1645 3428 
Q 1925 3584 2291 3584 
Q 2894 3584 3203 3211 
Q 3513 2838 3513 2113 
z
" id="DejaVuSans-6e" transform="scale(0.015625)"/>
     </defs>
     <use xlink:href="#DejaVuSans-72"/>
     <use x="38.863281" xlink:href="#DejaVuSans-6f"/>
     <use x="100.044922" xlink:href="#DejaVuSans-63"/>
     <use x="155.025391" xlink:href="#DejaVuSans-5f"/>
     <use x="205.025391" xlink:href="#DejaVuSans-65"/>
     <use x="264.798828" xlink:href="#DejaVuSans-78"/>
     <use x="323.978516" xlink:href="#DejaVuSans-6c"/>
     <use x="351.761719" xlink:href="#DejaVuSans-6e"/>
     <use x="415.140625" xlink:href="#DejaVuSans-65"/>
     <use x="476.664062" xlink:href="#DejaVuSans-74"/>
    </g>
   </g>
   <g id="legend_1">
    <g id="patch_7">
     <path d="M 52 87.42875 
L 148.501563 87.42875 
Q 150.501563 87.42875 150.501563 85.42875 
L 150.501563 41.56 
Q 150.501563 39.56 148.501563 39.56 
L 52 39.56 
Q 50 39.56 50 41.56 
L 50 85.42875 
Q 50 87.42875 52 87.42875 
z
" style="fill:#ffffff;opacity:0.8;stroke:#cccccc;stroke-linejoin:miter;"/>
    </g>
    <g id="line2d_16">
     <path d="M 54 47.658438 
L 74 47.658438 
" style="fill:none;stroke:#1f77b4;stroke-linecap:square;stroke-width:1.5;"/>
    </g>
    <g id="line2d_17"/>
    <g id="text_16">
     <!-- auc_0: 0.568 -->
     <g transform="translate(82 51.158438)scale(0.1 -0.1)">
      <defs>
       <path d="M 2194 1759 
Q 1497 1759 1228 1600 
Q 959 1441 959 1056 
Q 959 750 1161 570 
Q 1363 391 1709 391 
Q 2188 391 2477 730 
Q 2766 1069 2766 1631 
L 2766 1759 
L 2194 1759 
z
M 3341 1997 
L 3341 0 
L 2766 0 
L 2766 531 
Q 2569 213 2275 61 
Q 1981 -91 1556 -91 
Q 1019 -91 701 211 
Q 384 513 384 1019 
Q 384 1609 779 1909 
Q 1175 2209 1959 2209 
L 2766 2209 
L 2766 2266 
Q 2766 2663 2505 2880 
Q 2244 3097 1772 3097 
Q 1472 3097 1187 3025 
Q 903 2953 641 2809 
L 641 3341 
Q 956 3463 1253 3523 
Q 1550 3584 1831 3584 
Q 2591 3584 2966 3190 
Q 3341 2797 3341 1997 
z
" id="DejaVuSans-61" transform="scale(0.015625)"/>
       <path d="M 544 1381 
L 544 3500 
L 1119 3500 
L 1119 1403 
Q 1119 906 1312 657 
Q 1506 409 1894 409 
Q 2359 409 2629 706 
Q 2900 1003 2900 1516 
L 2900 3500 
L 3475 3500 
L 3475 0 
L 2900 0 
L 2900 538 
Q 2691 219 2414 64 
Q 2138 -91 1772 -91 
Q 1169 -91 856 284 
Q 544 659 544 1381 
z
M 1991 3584 
L 1991 3584 
z
" id="DejaVuSans-75" transform="scale(0.015625)"/>
       <path d="M 750 794 
L 1409 794 
L 1409 0 
L 750 0 
L 750 794 
z
M 750 3309 
L 1409 3309 
L 1409 2516 
L 750 2516 
L 750 3309 
z
" id="DejaVuSans-3a" transform="scale(0.015625)"/>
       <path id="DejaVuSans-20" transform="scale(0.015625)"/>
       <path d="M 691 4666 
L 3169 4666 
L 3169 4134 
L 1269 4134 
L 1269 2991 
Q 1406 3038 1543 3061 
Q 1681 3084 1819 3084 
Q 2600 3084 3056 2656 
Q 3513 2228 3513 1497 
Q 3513 744 3044 326 
Q 2575 -91 1722 -91 
Q 1428 -91 1123 -41 
Q 819 9 494 109 
L 494 744 
Q 775 591 1075 516 
Q 1375 441 1709 441 
Q 2250 441 2565 725 
Q 2881 1009 2881 1497 
Q 2881 1984 2565 2268 
Q 2250 2553 1709 2553 
Q 1456 2553 1204 2497 
Q 953 2441 691 2322 
L 691 4666 
z
" id="DejaVuSans-35" transform="scale(0.015625)"/>
      </defs>
      <use xlink:href="#DejaVuSans-61"/>
      <use x="61.279297" xlink:href="#DejaVuSans-75"/>
      <use x="124.658203" xlink:href="#DejaVuSans-63"/>
      <use x="179.638672" xlink:href="#DejaVuSans-5f"/>
      <use x="229.638672" xlink:href="#DejaVuSans-30"/>
      <use x="293.261719" xlink:href="#DejaVuSans-3a"/>
      <use x="326.953125" xlink:href="#DejaVuSans-20"/>
      <use x="358.740234" xlink:href="#DejaVuSans-30"/>
      <use x="422.363281" xlink:href="#DejaVuSans-2e"/>
      <use x="454.150391" xlink:href="#DejaVuSans-35"/>
      <use x="517.773438" xlink:href="#DejaVuSans-36"/>
      <use x="581.396484" xlink:href="#DejaVuSans-38"/>
     </g>
    </g>
    <g id="line2d_18">
     <path d="M 54 62.614688 
L 74 62.614688 
" style="fill:none;stroke:#ff7f0e;stroke-linecap:square;stroke-width:1.5;"/>
    </g>
    <g id="line2d_19"/>
    <g id="text_17">
     <!-- auc_1: 0.706 -->
     <g transform="translate(82 66.114688)scale(0.1 -0.1)">
      <defs>
       <path d="M 525 4666 
L 3525 4666 
L 3525 4397 
L 1831 0 
L 1172 0 
L 2766 4134 
L 525 4134 
L 525 4666 
z
" id="DejaVuSans-37" transform="scale(0.015625)"/>
      </defs>
      <use xlink:href="#DejaVuSans-61"/>
      <use x="61.279297" xlink:href="#DejaVuSans-75"/>
      <use x="124.658203" xlink:href="#DejaVuSans-63"/>
      <use x="179.638672" xlink:href="#DejaVuSans-5f"/>
      <use x="229.638672" xlink:href="#DejaVuSans-31"/>
      <use x="293.261719" xlink:href="#DejaVuSans-3a"/>
      <use x="326.953125" xlink:href="#DejaVuSans-20"/>
      <use x="358.740234" xlink:href="#DejaVuSans-30"/>
      <use x="422.363281" xlink:href="#DejaVuSans-2e"/>
      <use x="454.150391" xlink:href="#DejaVuSans-37"/>
      <use x="517.773438" xlink:href="#DejaVuSans-30"/>
      <use x="581.396484" xlink:href="#DejaVuSans-36"/>
     </g>
    </g>
    <g id="line2d_20">
     <path d="M 54 77.570938 
L 74 77.570938 
" style="fill:none;stroke:#2ca02c;stroke-linecap:square;stroke-width:1.5;"/>
    </g>
    <g id="line2d_21"/>
    <g id="text_18">
     <!-- auc_2: 0.760 -->
     <g transform="translate(82 81.070938)scale(0.1 -0.1)">
      <use xlink:href="#DejaVuSans-61"/>
      <use x="61.279297" xlink:href="#DejaVuSans-75"/>
      <use x="124.658203" xlink:href="#DejaVuSans-63"/>
      <use x="179.638672" xlink:href="#DejaVuSans-5f"/>
      <use x="229.638672" xlink:href="#DejaVuSans-32"/>
      <use x="293.261719" xlink:href="#DejaVuSans-3a"/>
      <use x="326.953125" xlink:href="#DejaVuSans-20"/>
      <use x="358.740234" xlink:href="#DejaVuSans-30"/>
      <use x="422.363281" xlink:href="#DejaVuSans-2e"/>
      <use x="454.150391" xlink:href="#DejaVuSans-37"/>
      <use x="517.773438" xlink:href="#DejaVuSans-36"/>
      <use x="581.396484" xlink:href="#DejaVuSans-30"/>
     </g>
    </g>
   </g>
  </g>
 </g>
 <defs>
  <clipPath id="pbbde4b290a">
   <rect height="221.76" width="279" x="45" y="34.56"/>
  </clipPath>
 </defs>
</svg>
