<?xml version="1.0" encoding="utf-8" standalone="no"?>
<!DOCTYPE svg PUBLIC "-//W3C//DTD SVG 1.1//EN"
  "http://www.w3.org/Graphics/SVG/1.1/DTD/svg11.dtd">
<svg height="288pt" version="1.1" viewBox="0 0 360 288" width="360pt" xmlns="http://www.w3.org/2000/svg" xmlns:xlink="http://www.w3.org/1999/xlink">
 <metadata>
  <rdf:RDF xmlns:cc="http://creativecommons.org/ns#" xmlns:dc="http://purl.org/dc/elements/1.1/" xmlns:rdf="http://www.w3.org/1999/02/22-rdf-syntax-ns#">
   <cc:Work>
    <dc:type rdf:resource="http://purl.org/dc/dcmitype/StillImage"/>
    <dc:date>2022-06-17T11:08:55.541488</dc:date>
    <dc:format>image/svg+xml</dc:format>
    <dc:creator>
     <cc:Agent>
      <dc:title>Matplotlib v3.4.2, https://matplotlib.org/</dc:title>
     </cc:Agent>
    </dc:creator>
   </cc:Work>
  </rdf:RDF>
 </metadata>
 <defs>
  <style type="text/css">*{stroke-linecap:butt;stroke-linejoin:round;}</style>
 </defs>
 <g id="figure_1">
  <g id="patch_1">
   <path d="M 0 288 
L 360 288 
L 360 0 
L 0 0 
z
" style="fill:#ffffff;"/>
  </g>
  <g id="axes_1">
   <g id="patch_2">
    <path d="M 45 256.32 
L 324 256.32 
L 324 34.56 
L 45 34.56 
z
" style="fill:#ffffff;"/>
   </g>
   <g id="matplotlib.axis_1">
    <g id="xtick_1">
     <g id="line2d_1">
      <defs>
       <path d="M 0 0 
L 0 3.5 
" id="mafa6bda837" style="stroke:#000000;stroke-width:0.8;"/>
      </defs>
      <g>
       <use style="stroke:#000000;stroke-width:0.8;" x="57.681818" xlink:href="#mafa6bda837" y="256.32"/>
      </g>
     </g>
     <g id="text_1">
      <!-- 0.0 -->
      <g transform="translate(49.730256 270.918437)scale(0.1 -0.1)">
       <defs>
        <path d="M 2034 4250 
Q 1547 4250 1301 3770 
Q 1056 3291 1056 2328 
Q 1056 1369 1301 889 
Q 1547 409 2034 409 
Q 2525 409 2770 889 
Q 3016 1369 3016 2328 
Q 3016 3291 2770 3770 
Q 2525 4250 2034 4250 
z
M 2034 4750 
Q 2819 4750 3233 4129 
Q 3647 3509 3647 2328 
Q 3647 1150 3233 529 
Q 2819 -91 2034 -91 
Q 1250 -91 836 529 
Q 422 1150 422 2328 
Q 422 3509 836 4129 
Q 1250 4750 2034 4750 
z
" id="DejaVuSans-30" transform="scale(0.015625)"/>
        <path d="M 684 794 
L 1344 794 
L 1344 0 
L 684 0 
L 684 794 
z
" id="DejaVuSans-2e" transform="scale(0.015625)"/>
       </defs>
       <use xlink:href="#DejaVuSans-30"/>
       <use x="63.623047" xlink:href="#DejaVuSans-2e"/>
       <use x="95.410156" xlink:href="#DejaVuSans-30"/>
      </g>
     </g>
    </g>
    <g id="xtick_2">
     <g id="line2d_2">
      <g>
       <use style="stroke:#000000;stroke-width:0.8;" x="108.409091" xlink:href="#mafa6bda837" y="256.32"/>
      </g>
     </g>
     <g id="text_2">
      <!-- 0.2 -->
      <g transform="translate(100.457528 270.918437)scale(0.1 -0.1)">
       <defs>
        <path d="M 1228 531 
L 3431 531 
L 3431 0 
L 469 0 
L 469 531 
Q 828 903 1448 1529 
Q 2069 2156 2228 2338 
Q 2531 2678 2651 2914 
Q 2772 3150 2772 3378 
Q 2772 3750 2511 3984 
Q 2250 4219 1831 4219 
Q 1534 4219 1204 4116 
Q 875 4013 500 3803 
L 500 4441 
Q 881 4594 1212 4672 
Q 1544 4750 1819 4750 
Q 2544 4750 2975 4387 
Q 3406 4025 3406 3419 
Q 3406 3131 3298 2873 
Q 3191 2616 2906 2266 
Q 2828 2175 2409 1742 
Q 1991 1309 1228 531 
z
" id="DejaVuSans-32" transform="scale(0.015625)"/>
       </defs>
       <use xlink:href="#DejaVuSans-30"/>
       <use x="63.623047" xlink:href="#DejaVuSans-2e"/>
       <use x="95.410156" xlink:href="#DejaVuSans-32"/>
      </g>
     </g>
    </g>
    <g id="xtick_3">
     <g id="line2d_3">
      <g>
       <use style="stroke:#000000;stroke-width:0.8;" x="159.136364" xlink:href="#mafa6bda837" y="256.32"/>
      </g>
     </g>
     <g id="text_3">
      <!-- 0.4 -->
      <g transform="translate(151.184801 270.918437)scale(0.1 -0.1)">
       <defs>
        <path d="M 2419 4116 
L 825 1625 
L 2419 1625 
L 2419 4116 
z
M 2253 4666 
L 3047 4666 
L 3047 1625 
L 3713 1625 
L 3713 1100 
L 3047 1100 
L 3047 0 
L 2419 0 
L 2419 1100 
L 313 1100 
L 313 1709 
L 2253 4666 
z
" id="DejaVuSans-34" transform="scale(0.015625)"/>
       </defs>
       <use xlink:href="#DejaVuSans-30"/>
       <use x="63.623047" xlink:href="#DejaVuSans-2e"/>
       <use x="95.410156" xlink:href="#DejaVuSans-34"/>
      </g>
     </g>
    </g>
    <g id="xtick_4">
     <g id="line2d_4">
      <g>
       <use style="stroke:#000000;stroke-width:0.8;" x="209.863636" xlink:href="#mafa6bda837" y="256.32"/>
      </g>
     </g>
     <g id="text_4">
      <!-- 0.6 -->
      <g transform="translate(201.912074 270.918437)scale(0.1 -0.1)">
       <defs>
        <path d="M 2113 2584 
Q 1688 2584 1439 2293 
Q 1191 2003 1191 1497 
Q 1191 994 1439 701 
Q 1688 409 2113 409 
Q 2538 409 2786 701 
Q 3034 994 3034 1497 
Q 3034 2003 2786 2293 
Q 2538 2584 2113 2584 
z
M 3366 4563 
L 3366 3988 
Q 3128 4100 2886 4159 
Q 2644 4219 2406 4219 
Q 1781 4219 1451 3797 
Q 1122 3375 1075 2522 
Q 1259 2794 1537 2939 
Q 1816 3084 2150 3084 
Q 2853 3084 3261 2657 
Q 3669 2231 3669 1497 
Q 3669 778 3244 343 
Q 2819 -91 2113 -91 
Q 1303 -91 875 529 
Q 447 1150 447 2328 
Q 447 3434 972 4092 
Q 1497 4750 2381 4750 
Q 2619 4750 2861 4703 
Q 3103 4656 3366 4563 
z
" id="DejaVuSans-36" transform="scale(0.015625)"/>
       </defs>
       <use xlink:href="#DejaVuSans-30"/>
       <use x="63.623047" xlink:href="#DejaVuSans-2e"/>
       <use x="95.410156" xlink:href="#DejaVuSans-36"/>
      </g>
     </g>
    </g>
    <g id="xtick_5">
     <g id="line2d_5">
      <g>
       <use style="stroke:#000000;stroke-width:0.8;" x="260.590909" xlink:href="#mafa6bda837" y="256.32"/>
      </g>
     </g>
     <g id="text_5">
      <!-- 0.8 -->
      <g transform="translate(252.639347 270.918437)scale(0.1 -0.1)">
       <defs>
        <path d="M 2034 2216 
Q 1584 2216 1326 1975 
Q 1069 1734 1069 1313 
Q 1069 891 1326 650 
Q 1584 409 2034 409 
Q 2484 409 2743 651 
Q 3003 894 3003 1313 
Q 3003 1734 2745 1975 
Q 2488 2216 2034 2216 
z
M 1403 2484 
Q 997 2584 770 2862 
Q 544 3141 544 3541 
Q 544 4100 942 4425 
Q 1341 4750 2034 4750 
Q 2731 4750 3128 4425 
Q 3525 4100 3525 3541 
Q 3525 3141 3298 2862 
Q 3072 2584 2669 2484 
Q 3125 2378 3379 2068 
Q 3634 1759 3634 1313 
Q 3634 634 3220 271 
Q 2806 -91 2034 -91 
Q 1263 -91 848 271 
Q 434 634 434 1313 
Q 434 1759 690 2068 
Q 947 2378 1403 2484 
z
M 1172 3481 
Q 1172 3119 1398 2916 
Q 1625 2713 2034 2713 
Q 2441 2713 2670 2916 
Q 2900 3119 2900 3481 
Q 2900 3844 2670 4047 
Q 2441 4250 2034 4250 
Q 1625 4250 1398 4047 
Q 1172 3844 1172 3481 
z
" id="DejaVuSans-38" transform="scale(0.015625)"/>
       </defs>
       <use xlink:href="#DejaVuSans-30"/>
       <use x="63.623047" xlink:href="#DejaVuSans-2e"/>
       <use x="95.410156" xlink:href="#DejaVuSans-38"/>
      </g>
     </g>
    </g>
    <g id="xtick_6">
     <g id="line2d_6">
      <g>
       <use style="stroke:#000000;stroke-width:0.8;" x="311.318182" xlink:href="#mafa6bda837" y="256.32"/>
      </g>
     </g>
     <g id="text_6">
      <!-- 1.0 -->
      <g transform="translate(303.366619 270.918437)scale(0.1 -0.1)">
       <defs>
        <path d="M 794 531 
L 1825 531 
L 1825 4091 
L 703 3866 
L 703 4441 
L 1819 4666 
L 2450 4666 
L 2450 531 
L 3481 531 
L 3481 0 
L 794 0 
L 794 531 
z
" id="DejaVuSans-31" transform="scale(0.015625)"/>
       </defs>
       <use xlink:href="#DejaVuSans-31"/>
       <use x="63.623047" xlink:href="#DejaVuSans-2e"/>
       <use x="95.410156" xlink:href="#DejaVuSans-30"/>
      </g>
     </g>
    </g>
    <g id="text_7">
     <!-- fpr -->
     <g transform="translate(177.510156 284.596563)scale(0.1 -0.1)">
      <defs>
       <path d="M 2375 4863 
L 2375 4384 
L 1825 4384 
Q 1516 4384 1395 4259 
Q 1275 4134 1275 3809 
L 1275 3500 
L 2222 3500 
L 2222 3053 
L 1275 3053 
L 1275 0 
L 697 0 
L 697 3053 
L 147 3053 
L 147 3500 
L 697 3500 
L 697 3744 
Q 697 4328 969 4595 
Q 1241 4863 1831 4863 
L 2375 4863 
z
" id="DejaVuSans-66" transform="scale(0.015625)"/>
       <path d="M 1159 525 
L 1159 -1331 
L 581 -1331 
L 581 3500 
L 1159 3500 
L 1159 2969 
Q 1341 3281 1617 3432 
Q 1894 3584 2278 3584 
Q 2916 3584 3314 3078 
Q 3713 2572 3713 1747 
Q 3713 922 3314 415 
Q 2916 -91 2278 -91 
Q 1894 -91 1617 61 
Q 1341 213 1159 525 
z
M 3116 1747 
Q 3116 2381 2855 2742 
Q 2594 3103 2138 3103 
Q 1681 3103 1420 2742 
Q 1159 2381 1159 1747 
Q 1159 1113 1420 752 
Q 1681 391 2138 391 
Q 2594 391 2855 752 
Q 3116 1113 3116 1747 
z
" id="DejaVuSans-70" transform="scale(0.015625)"/>
       <path d="M 2631 2963 
Q 2534 3019 2420 3045 
Q 2306 3072 2169 3072 
Q 1681 3072 1420 2755 
Q 1159 2438 1159 1844 
L 1159 0 
L 581 0 
L 581 3500 
L 1159 3500 
L 1159 2956 
Q 1341 3275 1631 3429 
Q 1922 3584 2338 3584 
Q 2397 3584 2469 3576 
Q 2541 3569 2628 3553 
L 2631 2963 
z
" id="DejaVuSans-72" transform="scale(0.015625)"/>
      </defs>
      <use xlink:href="#DejaVuSans-66"/>
      <use x="35.205078" xlink:href="#DejaVuSans-70"/>
      <use x="98.681641" xlink:href="#DejaVuSans-72"/>
     </g>
    </g>
   </g>
   <g id="matplotlib.axis_2">
    <g id="ytick_1">
     <g id="line2d_7">
      <defs>
       <path d="M 0 0 
L -3.5 0 
" id="mf2a252bd93" style="stroke:#000000;stroke-width:0.8;"/>
      </defs>
      <g>
       <use style="stroke:#000000;stroke-width:0.8;" x="45" xlink:href="#mf2a252bd93" y="246.24"/>
      </g>
     </g>
     <g id="text_8">
      <!-- 0.0 -->
      <g transform="translate(22.096875 250.039219)scale(0.1 -0.1)">
       <use xlink:href="#DejaVuSans-30"/>
       <use x="63.623047" xlink:href="#DejaVuSans-2e"/>
       <use x="95.410156" xlink:href="#DejaVuSans-30"/>
      </g>
     </g>
    </g>
    <g id="ytick_2">
     <g id="line2d_8">
      <g>
       <use style="stroke:#000000;stroke-width:0.8;" x="45" xlink:href="#mf2a252bd93" y="205.92"/>
      </g>
     </g>
     <g id="text_9">
      <!-- 0.2 -->
      <g transform="translate(22.096875 209.719219)scale(0.1 -0.1)">
       <use xlink:href="#DejaVuSans-30"/>
       <use x="63.623047" xlink:href="#DejaVuSans-2e"/>
       <use x="95.410156" xlink:href="#DejaVuSans-32"/>
      </g>
     </g>
    </g>
    <g id="ytick_3">
     <g id="line2d_9">
      <g>
       <use style="stroke:#000000;stroke-width:0.8;" x="45" xlink:href="#mf2a252bd93" y="165.6"/>
      </g>
     </g>
     <g id="text_10">
      <!-- 0.4 -->
      <g transform="translate(22.096875 169.399219)scale(0.1 -0.1)">
       <use xlink:href="#DejaVuSans-30"/>
       <use x="63.623047" xlink:href="#DejaVuSans-2e"/>
       <use x="95.410156" xlink:href="#DejaVuSans-34"/>
      </g>
     </g>
    </g>
    <g id="ytick_4">
     <g id="line2d_10">
      <g>
       <use style="stroke:#000000;stroke-width:0.8;" x="45" xlink:href="#mf2a252bd93" y="125.28"/>
      </g>
     </g>
     <g id="text_11">
      <!-- 0.6 -->
      <g transform="translate(22.096875 129.079219)scale(0.1 -0.1)">
       <use xlink:href="#DejaVuSans-30"/>
       <use x="63.623047" xlink:href="#DejaVuSans-2e"/>
       <use x="95.410156" xlink:href="#DejaVuSans-36"/>
      </g>
     </g>
    </g>
    <g id="ytick_5">
     <g id="line2d_11">
      <g>
       <use style="stroke:#000000;stroke-width:0.8;" x="45" xlink:href="#mf2a252bd93" y="84.96"/>
      </g>
     </g>
     <g id="text_12">
      <!-- 0.8 -->
      <g transform="translate(22.096875 88.759219)scale(0.1 -0.1)">
       <use xlink:href="#DejaVuSans-30"/>
       <use x="63.623047" xlink:href="#DejaVuSans-2e"/>
       <use x="95.410156" xlink:href="#DejaVuSans-38"/>
      </g>
     </g>
    </g>
    <g id="ytick_6">
     <g id="line2d_12">
      <g>
       <use style="stroke:#000000;stroke-width:0.8;" x="45" xlink:href="#mf2a252bd93" y="44.64"/>
      </g>
     </g>
     <g id="text_13">
      <!-- 1.0 -->
      <g transform="translate(22.096875 48.439219)scale(0.1 -0.1)">
       <use xlink:href="#DejaVuSans-31"/>
       <use x="63.623047" xlink:href="#DejaVuSans-2e"/>
       <use x="95.410156" xlink:href="#DejaVuSans-30"/>
      </g>
     </g>
    </g>
    <g id="text_14">
     <!-- tpr -->
     <g transform="translate(16.017187 152.629844)rotate(-90)scale(0.1 -0.1)">
      <defs>
       <path d="M 1172 4494 
L 1172 3500 
L 2356 3500 
L 2356 3053 
L 1172 3053 
L 1172 1153 
Q 1172 725 1289 603 
Q 1406 481 1766 481 
L 2356 481 
L 2356 0 
L 1766 0 
Q 1100 0 847 248 
Q 594 497 594 1153 
L 594 3053 
L 172 3053 
L 172 3500 
L 594 3500 
L 594 4494 
L 1172 4494 
z
" id="DejaVuSans-74" transform="scale(0.015625)"/>
      </defs>
      <use xlink:href="#DejaVuSans-74"/>
      <use x="39.208984" xlink:href="#DejaVuSans-70"/>
      <use x="102.685547" xlink:href="#DejaVuSans-72"/>
     </g>
    </g>
   </g>
   <g id="line2d_13">
    <path clip-path="url(#p1a3d55cfb5)" d="M 57.681818 246.24 
L 58.113907 246.24 
L 58.200325 243.0144 
L 58.373161 243.0144 
L 58.373161 241.4016 
L 60.0151 241.4016 
L 60.0151 239.7888 
L 62.434799 239.7888 
L 62.434799 238.176 
L 62.694053 238.176 
L 62.694053 236.5632 
L 63.644649 236.5632 
L 63.644649 234.9504 
L 63.903903 234.9504 
L 63.903903 233.3376 
L 65.113753 233.3376 
L 65.113753 231.7248 
L 66.582856 231.7248 
L 66.582856 230.112 
L 66.755691 230.112 
L 66.755691 228.4992 
L 67.792706 228.4992 
L 67.792706 226.8864 
L 68.743302 226.8864 
L 68.743302 225.2736 
L 69.002555 225.2736 
L 69.002555 223.6608 
L 70.81733 223.6608 
L 70.81733 220.4352 
L 71.163001 220.4352 
L 71.163001 218.8224 
L 71.681508 218.8224 
L 71.681508 217.2096 
L 72.891358 217.2096 
L 72.891358 215.5968 
L 74.101208 215.5968 
L 74.101208 213.984 
L 76.348072 213.984 
L 76.348072 212.3712 
L 77.471504 212.3712 
L 77.471504 210.7584 
L 78.076429 210.7584 
L 78.076429 209.1456 
L 80.236875 209.1456 
L 80.236875 207.5328 
L 80.582546 207.5328 
L 80.582546 205.92 
L 88.100898 205.92 
L 88.100898 204.3072 
L 88.792241 204.3072 
L 88.792241 202.6944 
L 88.965077 202.6944 
L 88.965077 201.0816 
L 89.742837 201.0816 
L 89.742837 199.4688 
L 90.866269 199.4688 
L 90.866269 197.856 
L 91.211941 197.856 
L 91.211941 196.2432 
L 91.384776 196.2432 
L 91.384776 194.6304 
L 91.816865 194.6304 
L 91.816865 193.0176 
L 92.076119 193.0176 
L 92.076119 191.4048 
L 93.890894 191.4048 
L 93.890894 189.792 
L 94.063729 189.792 
L 94.063729 188.1792 
L 95.964922 188.1792 
L 96.05134 184.9536 
L 96.224175 184.9536 
L 96.224175 183.3408 
L 99.335218 183.3408 
L 99.335218 181.728 
L 100.372232 181.728 
L 100.372232 180.1152 
L 100.804321 180.1152 
L 100.804321 178.5024 
L 101.063574 178.5024 
L 101.063574 176.8896 
L 101.409246 176.8896 
L 101.409246 175.2768 
L 101.927753 175.2768 
L 101.927753 173.664 
L 104.865959 173.664 
L 104.865959 172.0512 
L 105.902974 172.0512 
L 105.902974 170.4384 
L 108.754762 170.4384 
L 108.84118 167.2128 
L 112.384312 167.2128 
L 112.384312 165.6 
L 114.890429 165.6 
L 114.890429 163.9872 
L 119.816246 163.9872 
L 119.816246 162.3744 
L 120.334753 162.3744 
L 120.334753 160.7616 
L 121.371767 160.7616 
L 121.371767 159.1488 
L 121.976692 159.1488 
L 121.976692 157.536 
L 124.309974 157.536 
L 124.309974 155.9232 
L 126.384002 155.9232 
L 126.384002 154.3104 
L 128.371612 154.3104 
L 128.371612 152.6976 
L 128.630866 152.6976 
L 128.630866 151.0848 
L 131.223401 151.0848 
L 131.223401 149.472 
L 134.07519 149.472 
L 134.07519 147.8592 
L 136.581307 147.8592 
L 136.581307 146.2464 
L 137.013396 146.2464 
L 137.099814 143.0208 
L 140.124439 143.0208 
L 140.124439 141.408 
L 146.432941 141.408 
L 146.432941 139.7952 
L 146.605777 139.7952 
L 146.692195 136.5696 
L 147.297119 136.5696 
L 147.297119 134.9568 
L 147.642791 134.9568 
L 147.642791 133.344 
L 149.630401 133.344 
L 149.630401 131.7312 
L 150.840251 131.7312 
L 150.840251 130.1184 
L 153.087115 130.1184 
L 153.173533 126.8928 
L 154.556218 126.8928 
L 154.556218 125.28 
L 154.988307 125.28 
L 154.988307 123.6672 
L 157.494425 123.6672 
L 157.494425 122.0544 
L 160.519049 122.0544 
L 160.519049 120.4416 
L 160.951138 120.4416 
L 160.951138 118.8288 
L 161.556063 118.8288 
L 161.556063 117.216 
L 167.086805 117.216 
L 167.086805 115.6032 
L 167.346059 115.6032 
L 167.346059 113.9904 
L 171.666951 113.9904 
L 171.666951 112.3776 
L 177.111275 112.3776 
L 177.111275 110.7648 
L 178.407542 110.7648 
L 178.407542 109.152 
L 183.592613 109.152 
L 183.592613 107.5392 
L 185.320969 107.5392 
L 185.320969 105.9264 
L 187.740669 105.9264 
L 187.740669 104.3136 
L 190.246786 104.3136 
L 190.246786 102.7008 
L 191.975143 102.7008 
L 192.061561 99.4752 
L 192.147979 99.4752 
L 192.147979 97.8624 
L 194.222007 97.8624 
L 194.222007 96.2496 
L 197.246632 96.2496 
L 197.246632 94.6368 
L 198.456481 94.6368 
L 198.456481 93.024 
L 199.925585 93.024 
L 199.925585 91.4112 
L 200.09842 91.4112 
L 200.09842 89.7984 
L 201.221852 89.7984 
L 201.221852 88.1856 
L 213.579604 88.1856 
L 213.579604 86.5728 
L 218.332585 86.5728 
L 218.332585 84.96 
L 219.542435 84.96 
L 219.542435 83.3472 
L 228.702726 83.3472 
L 228.702726 81.7344 
L 230.171829 81.7344 
L 230.171829 80.1216 
L 235.097646 80.1216 
L 235.184064 76.896 
L 238.208688 76.896 
L 238.208688 75.2832 
L 238.467942 75.2832 
L 238.467942 73.6704 
L 243.307341 73.6704 
L 243.307341 72.0576 
L 245.381369 72.0576 
L 245.381369 70.4448 
L 245.813458 70.4448 
L 245.813458 68.832 
L 253.158975 68.832 
L 253.158975 67.2192 
L 254.195989 67.2192 
L 254.195989 65.6064 
L 265.689562 65.6064 
L 265.689562 63.9936 
L 266.208069 63.9936 
L 266.208069 62.3808 
L 268.282097 62.3808 
L 268.282097 60.768 
L 272.862243 60.768 
L 272.862243 59.1552 
L 274.504182 59.1552 
L 274.504182 57.5424 
L 277.615224 57.5424 
L 277.615224 55.9296 
L 283.318801 55.9296 
L 283.318801 54.3168 
L 287.466858 54.3168 
L 287.553276 51.0912 
L 289.195214 51.0912 
L 289.195214 49.4784 
L 294.98521 49.4784 
L 294.98521 47.8656 
L 301.120877 47.8656 
L 301.120877 46.2528 
L 310.19475 46.2528 
L 310.19475 44.64 
L 311.318182 44.64 
L 311.318182 44.64 
" style="fill:none;stroke:#1f77b4;stroke-linecap:square;stroke-width:1.5;"/>
   </g>
   <g id="line2d_14">
    <path clip-path="url(#p1a3d55cfb5)" d="M 57.681818 246.24 
L 57.681818 243.986939 
L 57.934948 243.986939 
L 57.934948 241.635918 
L 58.188078 241.635918 
L 58.188078 240.558367 
L 58.441208 240.558367 
L 58.441208 239.970612 
L 58.694339 239.970612 
L 58.694339 239.676735 
L 58.947469 239.676735 
L 58.947469 238.893061 
L 59.200599 238.893061 
L 59.200599 238.207347 
L 59.453729 238.207347 
L 59.453729 237.129796 
L 59.706859 237.129796 
L 59.706859 229.48898 
L 59.959989 229.48898 
L 59.959989 227.235918 
L 60.213119 227.235918 
L 60.213119 225.080816 
L 60.466249 225.080816 
L 60.466249 222.044082 
L 60.719379 222.044082 
L 60.719379 219.595102 
L 60.97251 219.595102 
L 60.97251 217.342041 
L 61.22564 217.342041 
L 61.22564 216.754286 
L 61.47877 216.754286 
L 61.47877 211.856327 
L 61.7319 211.856327 
L 61.7319 206.174694 
L 61.98503 206.174694 
L 61.98503 205.880816 
L 62.23816 205.880816 
L 62.23816 204.803265 
L 62.49129 204.803265 
L 62.49129 201.178776 
L 62.74442 201.178776 
L 62.74442 200.786939 
L 62.99755 200.786939 
L 62.99755 196.868571 
L 63.25068 196.868571 
L 63.25068 195.497143 
L 63.503811 195.497143 
L 63.503811 194.909388 
L 64.010071 194.811429 
L 64.010071 193.537959 
L 64.263201 193.537959 
L 64.263201 193.244082 
L 64.516331 193.244082 
L 64.516331 192.852245 
L 64.769461 192.852245 
L 64.769461 192.460408 
L 65.022591 192.460408 
L 65.022591 191.382857 
L 65.275721 191.382857 
L 65.275721 190.893061 
L 65.528851 190.893061 
L 65.528851 189.129796 
L 65.781981 189.129796 
L 65.781981 188.933878 
L 66.035112 188.933878 
L 66.035112 188.444082 
L 66.541372 188.444082 
L 66.541372 186.974694 
L 67.047632 186.974694 
L 67.047632 185.995102 
L 67.300762 185.995102 
L 67.300762 185.113469 
L 67.553892 185.113469 
L 67.553892 184.133878 
L 68.060152 184.035918 
L 68.060152 183.84 
L 68.313283 183.84 
L 68.313283 183.350204 
L 68.566413 183.350204 
L 68.566413 182.958367 
L 69.072673 182.958367 
L 69.072673 182.174694 
L 69.325803 182.174694 
L 69.325803 181.880816 
L 69.578933 181.880816 
L 69.578933 181.684898 
L 70.085193 181.684898 
L 70.085193 180.509388 
L 70.338323 180.509388 
L 70.338323 179.627755 
L 71.350844 179.529796 
L 71.350844 179.04 
L 71.603974 179.04 
L 71.603974 178.844082 
L 72.363364 178.746122 
L 72.363364 178.158367 
L 73.375885 178.158367 
L 73.375885 177.472653 
L 73.629015 177.472653 
L 73.629015 176.982857 
L 73.882145 176.982857 
L 73.882145 176.68898 
L 74.388405 176.68898 
L 74.388405 176.101224 
L 74.894665 176.101224 
L 74.894665 175.317551 
L 75.147795 175.317551 
L 75.147795 174.631837 
L 75.400925 174.631837 
L 75.400925 174.24 
L 75.654056 174.24 
L 75.654056 173.260408 
L 76.160316 173.162449 
L 76.160316 172.574694 
L 77.172836 172.574694 
L 77.172836 172.280816 
L 77.425966 172.280816 
L 77.425966 172.084898 
L 77.679096 172.084898 
L 77.679096 171.79102 
L 77.932226 171.79102 
L 77.932226 171.595102 
L 78.438487 171.595102 
L 78.438487 171.399184 
L 78.691617 171.399184 
L 78.691617 170.61551 
L 78.944747 170.61551 
L 78.944747 169.733878 
L 79.197877 169.733878 
L 79.197877 169.537959 
L 79.451007 169.537959 
L 79.451007 169.342041 
L 79.704137 169.342041 
L 79.704137 168.950204 
L 79.957267 168.950204 
L 79.957267 167.480816 
L 80.463527 167.382857 
L 80.463527 166.403265 
L 81.222918 166.305306 
L 81.222918 166.109388 
L 81.729178 166.109388 
L 81.729178 164.64 
L 82.741698 164.542041 
L 82.741698 164.444082 
L 83.247959 164.346122 
L 83.247959 164.248163 
L 83.501089 164.248163 
L 83.501089 163.954286 
L 83.754219 163.954286 
L 83.754219 163.46449 
L 84.513609 163.366531 
L 84.513609 162.680816 
L 85.019869 162.680816 
L 85.019869 162.28898 
L 85.272999 162.28898 
L 85.272999 161.995102 
L 85.52613 161.995102 
L 85.52613 161.113469 
L 86.28552 161.113469 
L 86.28552 160.329796 
L 87.29804 160.231837 
L 87.29804 159.84 
L 87.55117 159.84 
L 87.55117 158.958367 
L 88.057431 158.860408 
L 88.057431 158.566531 
L 88.563691 158.468571 
L 88.563691 157.782857 
L 88.816821 157.782857 
L 88.816821 157.586939 
L 89.069951 157.586939 
L 89.069951 157.39102 
L 89.323081 157.39102 
L 89.323081 157.195102 
L 89.576211 157.195102 
L 89.576211 156.999184 
L 90.841862 156.999184 
L 90.841862 156.803265 
L 91.094992 156.803265 
L 91.094992 156.509388 
L 91.348122 156.509388 
L 91.348122 156.21551 
L 92.107512 156.117551 
L 92.107512 156.019592 
L 92.360642 156.019592 
L 92.360642 155.431837 
L 92.613772 155.431837 
L 92.613772 155.137959 
L 92.866903 155.137959 
L 92.866903 154.158367 
L 93.373163 154.158367 
L 93.373163 153.86449 
L 93.626293 153.86449 
L 93.626293 152.786939 
L 93.879423 152.786939 
L 93.879423 152.59102 
L 94.132553 152.59102 
L 94.132553 151.023673 
L 94.891943 150.925714 
L 94.891943 150.435918 
L 95.145073 150.435918 
L 95.145073 148.868571 
L 95.398204 148.868571 
L 95.398204 148.672653 
L 95.904464 148.574694 
L 95.904464 148.378776 
L 96.157594 148.378776 
L 96.157594 148.084898 
L 96.916984 147.986939 
L 96.916984 147.595102 
L 97.170114 147.595102 
L 97.170114 146.61551 
L 97.423244 146.61551 
L 97.423244 146.419592 
L 97.929505 146.321633 
L 97.929505 146.027755 
L 98.435765 146.027755 
L 98.435765 145.537959 
L 98.688895 145.537959 
L 98.688895 145.342041 
L 98.942025 145.342041 
L 98.942025 144.950204 
L 99.195155 144.950204 
L 99.195155 144.558367 
L 99.701415 144.460408 
L 99.701415 143.872653 
L 99.954545 143.872653 
L 99.954545 143.578776 
L 100.460806 143.578776 
L 100.460806 143.08898 
L 101.220196 143.08898 
L 101.220196 142.893061 
L 101.473326 142.893061 
L 101.473326 142.599184 
L 101.979586 142.599184 
L 101.979586 141.325714 
L 102.485846 141.227755 
L 102.485846 141.031837 
L 102.738977 141.031837 
L 102.738977 140.64 
L 102.992107 140.64 
L 102.992107 139.954286 
L 103.245237 139.954286 
L 103.245237 139.758367 
L 103.498367 139.758367 
L 103.498367 139.46449 
L 103.751497 139.46449 
L 103.751497 139.072653 
L 104.510887 138.974694 
L 104.510887 138.778776 
L 104.764017 138.778776 
L 104.764017 138.386939 
L 107.042188 138.28898 
L 107.042188 138.19102 
L 107.548449 138.19102 
L 107.548449 137.995102 
L 107.801579 137.995102 
L 107.801579 137.603265 
L 108.054709 137.603265 
L 108.054709 137.309388 
L 108.307839 137.309388 
L 108.307839 137.113469 
L 108.560969 137.113469 
L 108.560969 136.819592 
L 108.814099 136.819592 
L 108.814099 136.623673 
L 109.067229 136.623673 
L 109.067229 136.427755 
L 109.320359 136.427755 
L 109.320359 135.937959 
L 110.07975 135.84 
L 110.07975 135.448163 
L 110.33288 135.448163 
L 110.33288 135.252245 
L 110.83914 135.154286 
L 110.83914 134.860408 
L 111.09227 134.860408 
L 111.09227 134.370612 
L 111.3454 134.370612 
L 111.3454 134.174694 
L 111.85166 134.174694 
L 111.85166 133.978776 
L 112.10479 133.978776 
L 112.10479 133.586939 
L 112.357921 133.586939 
L 112.357921 133.293061 
L 112.611051 133.293061 
L 112.611051 132.509388 
L 112.864181 132.509388 
L 112.864181 132.313469 
L 113.876701 132.21551 
L 113.876701 132.117551 
L 114.129831 132.117551 
L 114.129831 131.627755 
L 115.142352 131.529796 
L 115.142352 131.431837 
L 115.648612 131.333878 
L 115.648612 131.235918 
L 116.408002 131.137959 
L 116.408002 130.942041 
L 116.661132 130.942041 
L 116.661132 130.746122 
L 117.167392 130.648163 
L 117.167392 130.354286 
L 117.673653 130.256327 
L 117.673653 130.158367 
L 118.179913 130.060408 
L 118.179913 129.86449 
L 118.939303 129.766531 
L 118.939303 129.570612 
L 119.951824 129.472653 
L 119.951824 128.982857 
L 120.458084 128.982857 
L 120.458084 128.786939 
L 120.964344 128.786939 
L 120.964344 128.59102 
L 121.723734 128.493061 
L 121.723734 128.199184 
L 121.976864 128.199184 
L 121.976864 127.023673 
L 122.229995 127.023673 
L 122.229995 126.631837 
L 122.483125 126.631837 
L 122.483125 126.24 
L 123.242515 126.142041 
L 123.242515 126.044082 
L 123.748775 126.044082 
L 123.748775 125.848163 
L 124.001905 125.848163 
L 124.001905 125.554286 
L 124.508165 125.456327 
L 124.508165 124.672653 
L 125.014426 124.574694 
L 125.014426 124.378776 
L 125.520686 124.280816 
L 125.520686 124.084898 
L 125.773816 124.084898 
L 125.773816 123.693061 
L 126.280076 123.693061 
L 126.280076 123.497143 
L 126.786336 123.497143 
L 126.786336 123.301224 
L 127.292597 123.301224 
L 127.292597 122.61551 
L 128.558247 122.517551 
L 128.558247 121.831837 
L 129.064507 121.831837 
L 129.064507 121.244082 
L 129.570768 121.244082 
L 129.570768 120.656327 
L 130.077028 120.558367 
L 130.077028 120.460408 
L 130.330158 120.460408 
L 130.330158 120.26449 
L 130.836418 120.26449 
L 130.836418 119.774694 
L 131.595808 119.676735 
L 131.595808 119.284898 
L 132.102069 119.186939 
L 132.102069 119.08898 
L 132.861459 118.99102 
L 132.861459 118.893061 
L 133.873979 118.795102 
L 133.873979 118.599184 
L 134.8865 118.599184 
L 134.8865 118.109388 
L 136.40528 118.011429 
L 136.40528 117.913469 
L 137.164671 117.913469 
L 137.164671 117.619592 
L 137.924061 117.521633 
L 137.924061 116.64 
L 138.177191 116.64 
L 138.177191 116.444082 
L 138.430321 116.444082 
L 138.430321 115.856327 
L 138.936581 115.758367 
L 138.936581 115.46449 
L 139.189711 115.46449 
L 139.189711 115.170612 
L 139.949102 115.072653 
L 139.949102 114.876735 
L 140.708492 114.778776 
L 140.708492 114.680816 
L 141.214752 114.680816 
L 141.214752 114.484898 
L 142.227273 114.386939 
L 142.227273 114.19102 
L 142.480403 114.19102 
L 142.480403 113.897143 
L 142.986663 113.799184 
L 142.986663 113.407347 
L 143.239793 113.407347 
L 143.239793 113.211429 
L 143.746053 113.211429 
L 143.746053 113.01551 
L 143.999183 113.01551 
L 143.999183 112.721633 
L 144.252314 112.721633 
L 144.252314 111.154286 
L 144.505444 111.154286 
L 144.505444 110.66449 
L 144.758574 110.66449 
L 144.758574 109.880816 
L 145.771094 109.782857 
L 145.771094 108.803265 
L 146.024224 108.803265 
L 146.024224 108.509388 
L 146.530484 108.509388 
L 146.530484 107.921633 
L 146.783615 107.921633 
L 146.783615 107.529796 
L 148.302395 107.431837 
L 148.302395 107.137959 
L 148.555525 107.137959 
L 148.555525 106.746122 
L 148.808655 106.746122 
L 148.808655 105.86449 
L 149.821176 105.766531 
L 149.821176 105.276735 
L 150.074306 105.276735 
L 150.074306 105.080816 
L 150.327436 105.080816 
L 150.327436 104.884898 
L 151.339956 104.786939 
L 151.339956 104.59102 
L 152.605607 104.493061 
L 152.605607 104.297143 
L 152.858737 104.297143 
L 152.858737 104.101224 
L 153.111867 104.101224 
L 153.111867 103.807347 
L 153.364997 103.807347 
L 153.364997 103.513469 
L 153.618127 103.513469 
L 153.618127 103.317551 
L 154.124388 103.219592 
L 154.124388 103.023673 
L 155.390038 102.925714 
L 155.390038 102.24 
L 155.896298 102.24 
L 155.896298 102.044082 
L 156.149428 102.044082 
L 156.149428 101.848163 
L 158.174469 101.750204 
L 158.174469 101.456327 
L 158.680729 101.456327 
L 158.680729 101.06449 
L 159.18699 100.966531 
L 159.18699 100.868571 
L 159.69325 100.868571 
L 159.69325 100.672653 
L 159.94638 100.672653 
L 159.94638 100.084898 
L 160.9589 99.986939 
L 160.9589 99.88898 
L 161.465161 99.88898 
L 161.465161 99.105306 
L 161.718291 99.105306 
L 161.718291 98.811429 
L 162.730811 98.811429 
L 162.730811 98.517551 
L 162.983941 98.517551 
L 162.983941 98.321633 
L 163.743332 98.223673 
L 163.743332 98.125714 
L 163.996462 98.125714 
L 163.996462 97.929796 
L 164.502722 97.929796 
L 164.502722 97.733878 
L 164.755852 97.733878 
L 164.755852 97.44 
L 165.515242 97.342041 
L 165.515242 97.244082 
L 165.768372 97.244082 
L 165.768372 96.950204 
L 166.021502 96.950204 
L 166.021502 95.872653 
L 166.527763 95.774694 
L 166.527763 95.676735 
L 167.287153 95.578776 
L 167.287153 95.08898 
L 167.793413 95.08898 
L 167.793413 94.893061 
L 168.046543 94.893061 
L 168.046543 94.599184 
L 168.805934 94.599184 
L 168.805934 94.403265 
L 169.059064 94.403265 
L 169.059064 94.109388 
L 171.843495 94.109388 
L 171.843495 93.913469 
L 173.109145 93.81551 
L 173.109145 93.423673 
L 173.362275 93.423673 
L 173.362275 92.835918 
L 174.374796 92.737959 
L 174.374796 92.64 
L 174.627926 92.64 
L 174.627926 92.444082 
L 174.881056 92.444082 
L 174.881056 91.954286 
L 175.640446 91.856327 
L 175.640446 91.562449 
L 176.146707 91.46449 
L 176.146707 91.366531 
L 176.906097 91.366531 
L 176.906097 91.170612 
L 177.159227 91.170612 
L 177.159227 90.974694 
L 178.171747 90.876735 
L 178.171747 90.778776 
L 178.678008 90.778776 
L 178.678008 90.484898 
L 179.184268 90.386939 
L 179.184268 90.28898 
L 179.943658 90.28898 
L 179.943658 89.897143 
L 181.209309 89.897143 
L 181.209309 89.701224 
L 182.221829 89.603265 
L 182.221829 89.505306 
L 182.474959 89.505306 
L 182.474959 89.309388 
L 182.981219 89.309388 
L 182.981219 88.623673 
L 183.99374 88.623673 
L 183.99374 88.427755 
L 184.5 88.427755 
L 184.5 88.035918 
L 185.25939 88.035918 
L 185.25939 87.84 
L 186.018781 87.742041 
L 186.018781 87.546122 
L 186.525041 87.448163 
L 186.525041 87.154286 
L 187.031301 87.154286 
L 187.031301 86.468571 
L 187.284431 86.468571 
L 187.284431 86.272653 
L 187.537561 86.272653 
L 187.537561 86.076735 
L 187.790691 86.076735 
L 187.790691 85.48898 
L 188.043821 85.48898 
L 188.043821 85.097143 
L 188.550082 84.999184 
L 188.550082 84.901224 
L 188.803212 84.901224 
L 188.803212 84.607347 
L 189.309472 84.509388 
L 189.309472 84.411429 
L 190.321992 84.313469 
L 190.321992 84.21551 
L 190.828253 84.117551 
L 190.828253 83.823673 
L 191.081383 83.823673 
L 191.081383 83.333878 
L 191.334513 83.333878 
L 191.334513 83.04 
L 191.840773 82.942041 
L 191.840773 82.844082 
L 192.600163 82.746122 
L 192.600163 82.550204 
L 192.853293 82.550204 
L 192.853293 82.060408 
L 193.612684 81.962449 
L 193.612684 81.472653 
L 195.637725 81.374694 
L 195.637725 81.178776 
L 197.915895 81.080816 
L 197.915895 80.884898 
L 199.687806 80.786939 
L 199.687806 80.59102 
L 199.940936 80.59102 
L 199.940936 80.395102 
L 200.194066 80.395102 
L 200.194066 80.199184 
L 201.965977 80.101224 
L 201.965977 80.003265 
L 202.472237 79.905306 
L 202.472237 79.807347 
L 202.725367 79.807347 
L 202.725367 79.611429 
L 202.978498 79.611429 
L 202.978498 79.317551 
L 203.737888 79.317551 
L 203.737888 79.121633 
L 204.497278 79.023673 
L 204.497278 78.631837 
L 205.003538 78.533878 
L 205.003538 78.435918 
L 205.256668 78.435918 
L 205.256668 78.24 
L 205.509799 78.24 
L 205.509799 78.044082 
L 205.762929 78.044082 
L 205.762929 77.848163 
L 206.522319 77.848163 
L 206.522319 77.652245 
L 207.281709 77.652245 
L 207.281709 77.260408 
L 208.80049 77.260408 
L 208.80049 76.966531 
L 209.30675 76.868571 
L 209.30675 76.672653 
L 209.55988 76.672653 
L 209.55988 76.476735 
L 209.81301 76.476735 
L 209.81301 76.280816 
L 210.06614 76.280816 
L 210.06614 75.79102 
L 210.825531 75.693061 
L 210.825531 75.497143 
L 211.078661 75.497143 
L 211.078661 75.105306 
L 211.838051 75.105306 
L 211.838051 74.909388 
L 213.609962 74.909388 
L 213.609962 74.713469 
L 213.863092 74.713469 
L 213.863092 74.517551 
L 214.875612 74.517551 
L 214.875612 74.027755 
L 216.394393 73.929796 
L 216.394393 73.537959 
L 217.913174 73.44 
L 217.913174 73.244082 
L 218.419434 73.244082 
L 218.419434 72.852245 
L 218.925694 72.754286 
L 218.925694 72.558367 
L 219.685084 72.460408 
L 219.685084 72.362449 
L 220.191345 72.362449 
L 220.191345 72.166531 
L 220.950735 72.068571 
L 220.950735 71.872653 
L 221.203865 71.872653 
L 221.203865 71.08898 
L 221.456995 71.08898 
L 221.456995 70.893061 
L 221.963255 70.795102 
L 221.963255 70.501224 
L 222.469516 70.403265 
L 222.469516 70.305306 
L 224.241426 70.207347 
L 224.241426 70.109388 
L 226.266467 70.011429 
L 226.266467 69.81551 
L 226.772727 69.717551 
L 226.772727 69.521633 
L 227.025857 69.521633 
L 227.025857 69.227755 
L 227.785248 69.129796 
L 227.785248 68.933878 
L 228.291508 68.933878 
L 228.291508 68.64 
L 228.544638 68.64 
L 228.544638 68.346122 
L 228.797768 68.346122 
L 228.797768 68.052245 
L 230.316549 67.954286 
L 230.316549 67.758367 
L 231.075939 67.660408 
L 231.075939 67.562449 
L 232.088459 67.46449 
L 232.088459 67.170612 
L 232.59472 67.170612 
L 232.59472 66.876735 
L 232.84785 66.876735 
L 232.84785 66.582857 
L 233.60724 66.484898 
L 233.60724 66.28898 
L 234.36663 66.19102 
L 234.36663 65.701224 
L 234.61976 65.701224 
L 234.61976 65.505306 
L 234.872891 65.505306 
L 234.872891 65.309388 
L 235.379151 65.211429 
L 235.379151 65.01551 
L 236.138541 65.01551 
L 236.138541 64.819592 
L 236.391671 64.819592 
L 236.391671 64.623673 
L 236.644801 64.623673 
L 236.644801 64.427755 
L 237.657322 64.329796 
L 237.657322 64.231837 
L 238.416712 64.133878 
L 238.416712 64.035918 
L 238.922972 63.937959 
L 238.922972 63.742041 
L 239.935493 63.644082 
L 239.935493 63.252245 
L 240.188623 63.252245 
L 240.188623 62.860408 
L 240.694883 62.860408 
L 240.694883 62.566531 
L 241.707403 62.468571 
L 241.707403 62.272653 
L 241.960533 62.272653 
L 241.960533 61.684898 
L 242.466794 61.684898 
L 242.466794 61.39102 
L 243.226184 61.293061 
L 243.226184 60.999184 
L 243.479314 60.999184 
L 243.479314 60.803265 
L 243.985574 60.803265 
L 243.985574 60.607347 
L 244.238704 60.607347 
L 244.238704 60.019592 
L 244.744965 60.019592 
L 244.744965 59.627755 
L 244.998095 59.627755 
L 244.998095 59.431837 
L 245.504355 59.333878 
L 245.504355 59.137959 
L 245.757485 59.137959 
L 245.757485 58.844082 
L 247.023136 58.746122 
L 247.023136 58.648163 
L 248.541916 58.550204 
L 248.541916 57.962449 
L 250.060697 57.86449 
L 250.060697 57.766531 
L 250.566957 57.766531 
L 250.566957 57.472653 
L 250.820087 57.472653 
L 250.820087 57.276735 
L 251.073217 57.276735 
L 251.073217 57.080816 
L 252.591998 56.982857 
L 252.591998 56.786939 
L 255.123299 56.786939 
L 255.123299 56.59102 
L 256.388949 56.59102 
L 256.388949 56.395102 
L 256.89521 56.297143 
L 256.89521 56.199184 
L 257.90773 56.101224 
L 257.90773 55.611429 
L 258.92025 55.513469 
L 258.92025 55.41551 
L 261.451551 55.317551 
L 261.451551 55.023673 
L 261.957812 54.925714 
L 261.957812 54.827755 
L 262.210942 54.827755 
L 262.210942 54.631837 
L 262.717202 54.631837 
L 262.717202 54.435918 
L 262.970332 54.435918 
L 262.970332 54.142041 
L 263.476592 54.044082 
L 263.476592 53.946122 
L 263.729722 53.946122 
L 263.729722 53.554286 
L 264.742243 53.456327 
L 264.742243 53.260408 
L 264.995373 53.260408 
L 264.995373 53.06449 
L 265.754763 52.966531 
L 265.754763 52.770612 
L 267.273544 52.770612 
L 267.273544 52.574694 
L 267.779804 52.476735 
L 267.779804 52.182857 
L 269.551715 52.084898 
L 269.551715 51.79102 
L 270.057975 51.693061 
L 270.057975 51.399184 
L 271.323625 51.301224 
L 271.323625 51.105306 
L 271.829886 51.007347 
L 271.829886 50.909388 
L 272.336146 50.909388 
L 272.336146 50.713469 
L 273.601796 50.713469 
L 273.601796 50.419592 
L 274.108057 50.419592 
L 274.108057 50.223673 
L 274.614317 50.125714 
L 274.614317 49.733878 
L 276.133097 49.635918 
L 276.133097 49.537959 
L 278.158138 49.44 
L 278.158138 49.342041 
L 279.423789 49.244082 
L 279.423789 49.048163 
L 279.676919 49.048163 
L 279.676919 48.852245 
L 282.71448 48.852245 
L 282.71448 48.656327 
L 285.752041 48.558367 
L 285.752041 48.460408 
L 286.005171 48.460408 
L 286.005171 48.26449 
L 286.764562 48.166531 
L 286.764562 47.970612 
L 287.017692 47.970612 
L 287.017692 47.578776 
L 287.777082 47.480816 
L 287.777082 47.284898 
L 289.042733 47.284898 
L 289.042733 46.99102 
L 290.055253 46.893061 
L 290.055253 46.795102 
L 292.586554 46.697143 
L 292.586554 46.599184 
L 293.092814 46.599184 
L 293.092814 46.305306 
L 294.358465 46.305306 
L 294.358465 46.109388 
L 296.636636 46.011429 
L 296.636636 45.81551 
L 298.914807 45.81551 
L 298.914807 45.619592 
L 299.674197 45.521633 
L 299.674197 45.423673 
L 303.977409 45.325714 
L 303.977409 45.227755 
L 307.77436 45.129796 
L 307.77436 45.031837 
L 310.052531 44.933878 
L 310.052531 44.835918 
L 311.065052 44.835918 
L 311.065052 44.64 
L 311.318182 44.64 
L 311.318182 44.64 
" style="fill:none;stroke:#ff7f0e;stroke-linecap:square;stroke-width:1.5;"/>
   </g>
   <g id="line2d_15">
    <path clip-path="url(#p1a3d55cfb5)" d="M 57.681818 246.24 
L 57.681818 245.090627 
L 57.798005 245.090627 
L 57.798005 244.860753 
L 57.914192 244.860753 
L 57.914192 244.401003 
L 58.030379 244.401003 
L 58.030379 244.171129 
L 58.146566 244.171129 
L 58.146566 243.481505 
L 58.262754 243.481505 
L 58.262754 240.952885 
L 58.378941 240.952885 
L 58.378941 239.573637 
L 58.611315 239.573637 
L 58.611315 237.045017 
L 58.727502 237.045017 
L 58.727502 235.895644 
L 58.843689 235.895644 
L 58.843689 235.206021 
L 58.959876 235.206021 
L 58.959876 234.976146 
L 59.076063 234.976146 
L 59.076063 234.516397 
L 59.19225 234.516397 
L 59.19225 233.826773 
L 59.424624 233.826773 
L 59.424624 232.447526 
L 59.540811 232.447526 
L 59.540811 231.068278 
L 59.656998 231.068278 
L 59.656998 230.838404 
L 59.773185 230.838404 
L 59.773185 229.918905 
L 59.889372 229.918905 
L 59.889372 229.229282 
L 60.005559 229.229282 
L 60.005559 228.769532 
L 60.121747 228.769532 
L 60.121747 228.309783 
L 60.237934 228.309783 
L 60.237934 227.390285 
L 60.354121 227.390285 
L 60.354121 227.16041 
L 60.586495 227.16041 
L 60.586495 226.470787 
L 60.702682 226.470787 
L 60.702682 226.011038 
L 60.818869 226.011038 
L 60.818869 225.551288 
L 60.935056 225.551288 
L 60.935056 225.321414 
L 61.051243 225.321414 
L 61.051243 225.091539 
L 61.16743 225.091539 
L 61.16743 224.172041 
L 61.283617 224.172041 
L 61.283617 223.482417 
L 61.748365 223.482417 
L 61.748365 223.252543 
L 61.864553 223.252543 
L 61.864553 223.022668 
L 62.096927 223.022668 
L 62.096927 222.562919 
L 62.213114 222.562919 
L 62.213114 222.10317 
L 62.329301 222.10317 
L 62.329301 221.873295 
L 62.561675 221.873295 
L 62.561675 221.643421 
L 62.677862 221.643421 
L 62.677862 221.183672 
L 62.794049 221.183672 
L 62.794049 220.723922 
L 62.910236 220.723922 
L 62.910236 220.494048 
L 63.258797 220.494048 
L 63.258797 220.264173 
L 63.374984 220.264173 
L 63.374984 220.034299 
L 63.491171 220.034299 
L 63.491171 217.965428 
L 63.723546 217.965428 
L 63.723546 216.816055 
L 63.839733 216.816055 
L 63.839733 215.666682 
L 64.072107 215.666682 
L 64.072107 215.436807 
L 64.188294 215.436807 
L 64.188294 215.206933 
L 64.420668 215.206933 
L 64.420668 214.977058 
L 64.885416 214.977058 
L 64.885416 214.747184 
L 65.11779 214.747184 
L 65.11779 213.597811 
L 65.466352 213.597811 
L 65.466352 213.367936 
L 65.582539 213.367936 
L 65.582539 212.908187 
L 65.814913 212.908187 
L 65.814913 211.988689 
L 65.9311 211.988689 
L 65.9311 211.06919 
L 66.163474 211.06919 
L 66.163474 210.839316 
L 66.279661 210.839316 
L 66.279661 209.919818 
L 66.512035 209.919818 
L 66.512035 209.689943 
L 66.628222 209.689943 
L 66.628222 209.230194 
L 66.744409 209.230194 
L 66.744409 209.000319 
L 66.860596 209.000319 
L 66.860596 208.080821 
L 66.976783 208.080821 
L 66.976783 207.621072 
L 67.09297 207.621072 
L 67.09297 206.931448 
L 67.209158 206.931448 
L 67.209158 206.471699 
L 67.325345 206.471699 
L 67.325345 205.782075 
L 67.441532 205.782075 
L 67.441532 205.552201 
L 67.557719 205.552201 
L 67.557719 205.322326 
L 67.673906 205.322326 
L 67.673906 205.092452 
L 68.022467 205.092452 
L 68.022467 204.862577 
L 68.138654 204.862577 
L 68.138654 204.402828 
L 68.254841 204.402828 
L 68.254841 204.172953 
L 68.487215 204.172953 
L 68.487215 203.943079 
L 68.719589 203.943079 
L 68.719589 203.02358 
L 68.835776 203.02358 
L 68.835776 202.793706 
L 68.951964 202.793706 
L 68.951964 202.333957 
L 69.416712 202.333957 
L 69.416712 202.104082 
L 69.532899 202.104082 
L 69.532899 201.414458 
L 69.88146 201.414458 
L 69.88146 199.115713 
L 69.997647 199.115713 
L 69.997647 198.885838 
L 70.230021 198.885838 
L 70.230021 197.736465 
L 70.346208 197.736465 
L 70.346208 196.357218 
L 70.578582 196.357218 
L 70.578582 195.897469 
L 70.810957 195.897469 
L 70.810957 195.667594 
L 71.043331 195.667594 
L 71.043331 195.207845 
L 71.159518 195.207845 
L 71.159518 194.97797 
L 71.275705 194.97797 
L 71.275705 194.748096 
L 71.391892 194.748096 
L 71.391892 194.518221 
L 71.508079 194.518221 
L 71.508079 194.058472 
L 71.624266 194.058472 
L 71.624266 193.138974 
L 71.740453 193.138974 
L 71.740453 192.909099 
L 71.972827 192.909099 
L 71.972827 192.44935 
L 72.553763 192.44935 
L 72.553763 191.759726 
L 72.66995 191.759726 
L 72.66995 191.529852 
L 73.018511 191.529852 
L 73.018511 190.380479 
L 73.134698 190.380479 
L 73.134698 189.92073 
L 73.250885 189.92073 
L 73.250885 189.460981 
L 73.367072 189.460981 
L 73.367072 188.771357 
L 73.483259 188.771357 
L 73.483259 188.541482 
L 73.599446 188.541482 
L 73.599446 187.162235 
L 73.83182 187.162235 
L 73.83182 186.93236 
L 74.064194 186.93236 
L 74.064194 186.242737 
L 74.296569 186.242737 
L 74.296569 186.012862 
L 74.412756 186.012862 
L 74.412756 184.863489 
L 74.528943 184.863489 
L 74.528943 184.173865 
L 74.993691 184.173865 
L 74.993691 183.714116 
L 75.109878 183.714116 
L 75.109878 183.254367 
L 75.342252 183.254367 
L 75.342252 183.024493 
L 75.458439 183.024493 
L 75.458439 182.334869 
L 75.690813 182.334869 
L 75.690813 182.104994 
L 75.807 182.104994 
L 75.807 181.645245 
L 76.271749 181.645245 
L 76.271749 181.185496 
L 76.62031 181.185496 
L 76.62031 180.955621 
L 76.736497 180.955621 
L 76.736497 180.495872 
L 76.852684 180.495872 
L 76.852684 180.265998 
L 76.968871 180.265998 
L 76.968871 180.036123 
L 77.085058 180.036123 
L 77.085058 179.806249 
L 77.201245 179.806249 
L 77.201245 179.576374 
L 77.433619 179.576374 
L 77.433619 179.346499 
L 77.898368 179.346499 
L 77.898368 178.197127 
L 78.014555 178.197127 
L 78.014555 177.967252 
L 78.130742 177.967252 
L 78.130742 177.737377 
L 78.59549 177.737377 
L 78.59549 177.507503 
L 78.711677 177.507503 
L 78.711677 177.277628 
L 78.944051 177.277628 
L 78.944051 177.047754 
L 79.060238 177.047754 
L 79.060238 176.588005 
L 79.176425 176.588005 
L 79.176425 176.35813 
L 79.292612 176.35813 
L 79.292612 176.128255 
L 79.408799 176.128255 
L 79.408799 175.898381 
L 79.873548 175.898381 
L 79.873548 175.668506 
L 80.105922 175.668506 
L 80.105922 175.438632 
L 80.338296 175.438632 
L 80.338296 174.749008 
L 80.454483 174.749008 
L 80.454483 174.519133 
L 80.57067 174.519133 
L 80.57067 174.289259 
L 80.919231 174.289259 
L 80.919231 173.82951 
L 81.035418 173.82951 
L 81.035418 173.369761 
L 81.151605 173.369761 
L 81.151605 173.139886 
L 81.267792 173.139886 
L 81.267792 172.910011 
L 81.38398 172.910011 
L 81.38398 172.680137 
L 81.500167 172.680137 
L 81.500167 171.300889 
L 81.616354 171.300889 
L 81.616354 170.84114 
L 81.848728 170.84114 
L 81.848728 170.151517 
L 81.964915 170.151517 
L 81.964915 169.691767 
L 82.429663 169.691767 
L 82.429663 169.461893 
L 82.894411 169.461893 
L 82.894411 169.232018 
L 83.126785 169.232018 
L 83.126785 168.772269 
L 83.35916 168.772269 
L 83.35916 168.082645 
L 83.940095 168.082645 
L 83.940095 167.622896 
L 84.056282 167.622896 
L 84.056282 167.163147 
L 84.172469 167.163147 
L 84.172469 166.933273 
L 84.404843 166.933273 
L 84.404843 166.473523 
L 85.101966 166.473523 
L 85.101966 166.013774 
L 85.450527 166.013774 
L 85.450527 165.554025 
L 85.566714 165.554025 
L 85.566714 165.324151 
L 85.682901 165.324151 
L 85.682901 165.094276 
L 85.799088 165.094276 
L 85.799088 164.864401 
L 85.915275 164.864401 
L 85.915275 164.634527 
L 86.49621 164.634527 
L 86.49621 164.404652 
L 86.728585 164.404652 
L 86.728585 164.174778 
L 86.960959 164.174778 
L 86.960959 163.944903 
L 87.30952 163.944903 
L 87.30952 163.715029 
L 87.541894 163.715029 
L 87.541894 163.255279 
L 87.658081 163.255279 
L 87.658081 163.025405 
L 87.774268 163.025405 
L 87.774268 162.565656 
L 88.239016 162.565656 
L 88.239016 161.876032 
L 88.47139 161.876032 
L 88.47139 161.186408 
L 88.587578 161.186408 
L 88.587578 160.956534 
L 89.052326 160.956534 
L 89.052326 160.726659 
L 89.2847 160.726659 
L 89.2847 160.496784 
L 89.865635 160.496784 
L 89.865635 160.037035 
L 89.981822 160.037035 
L 89.981822 159.807161 
L 90.098009 159.807161 
L 90.098009 159.347412 
L 90.214196 159.347412 
L 90.214196 159.117537 
L 90.678945 159.117537 
L 90.678945 158.427913 
L 90.795132 158.427913 
L 90.795132 158.198039 
L 90.911319 158.198039 
L 90.911319 157.73829 
L 91.25988 157.73829 
L 91.25988 157.508415 
L 91.608441 157.508415 
L 91.608441 157.27854 
L 91.957002 157.27854 
L 91.957002 156.818791 
L 92.07319 156.818791 
L 92.07319 156.588917 
L 92.189377 156.588917 
L 92.189377 156.129168 
L 92.886499 156.129168 
L 92.886499 155.669418 
L 93.23506 155.669418 
L 93.23506 155.439544 
L 93.467434 155.439544 
L 93.467434 154.979795 
L 93.583621 154.979795 
L 93.583621 154.74992 
L 93.815996 154.74992 
L 93.815996 154.520046 
L 94.164557 154.520046 
L 94.164557 154.290171 
L 94.280744 154.290171 
L 94.280744 153.600547 
L 94.629305 153.600547 
L 94.629305 153.140798 
L 94.745492 153.140798 
L 94.745492 152.451174 
L 94.861679 152.451174 
L 94.861679 151.991425 
L 94.977866 151.991425 
L 94.977866 151.531676 
L 95.21024 151.531676 
L 95.21024 151.301802 
L 95.326427 151.301802 
L 95.326427 151.071927 
L 95.442614 151.071927 
L 95.442614 150.382303 
L 95.558801 150.382303 
L 95.558801 150.152429 
L 95.907363 150.152429 
L 95.907363 149.922554 
L 96.139737 149.922554 
L 96.139737 149.69268 
L 96.372111 149.69268 
L 96.372111 149.462805 
L 96.604485 149.462805 
L 96.604485 149.23293 
L 97.766356 149.23293 
L 97.766356 149.003056 
L 97.882543 149.003056 
L 97.882543 148.773181 
L 98.114917 148.773181 
L 98.114917 148.083558 
L 98.231104 148.083558 
L 98.231104 147.623808 
L 98.347291 147.623808 
L 98.347291 147.164059 
L 98.463478 147.164059 
L 98.463478 146.934185 
L 98.812039 146.934185 
L 98.812039 146.70431 
L 98.928226 146.70431 
L 98.928226 146.474436 
L 99.392975 146.474436 
L 99.392975 146.244561 
L 99.509162 146.244561 
L 99.509162 146.014686 
L 99.857723 146.014686 
L 99.857723 145.784812 
L 100.090097 145.784812 
L 100.090097 145.554937 
L 100.206284 145.554937 
L 100.206284 145.325063 
L 100.671032 145.325063 
L 100.671032 145.095188 
L 100.787219 145.095188 
L 100.787219 144.635439 
L 101.019594 144.635439 
L 101.019594 144.405564 
L 101.251968 144.405564 
L 101.251968 143.945815 
L 101.716716 143.945815 
L 101.716716 143.715941 
L 102.181464 143.715941 
L 102.181464 143.486066 
L 102.646212 143.486066 
L 102.646212 143.256192 
L 103.110961 143.256192 
L 103.110961 143.026317 
L 103.343335 143.026317 
L 103.343335 142.796442 
L 103.459522 142.796442 
L 103.459522 142.106819 
L 104.040457 142.106819 
L 104.040457 141.876944 
L 104.505206 141.876944 
L 104.505206 141.18732 
L 104.621393 141.18732 
L 104.621393 140.957446 
L 104.73758 140.957446 
L 104.73758 140.727571 
L 104.969954 140.727571 
L 104.969954 140.497697 
L 105.202328 140.497697 
L 105.202328 140.267822 
L 105.783263 140.267822 
L 105.783263 139.808073 
L 106.248011 139.808073 
L 106.248011 139.578198 
L 107.177508 139.578198 
L 107.177508 139.118449 
L 107.293695 139.118449 
L 107.293695 138.888575 
L 107.409882 138.888575 
L 107.409882 138.428826 
L 107.642256 138.428826 
L 107.642256 137.739202 
L 107.758443 137.739202 
L 107.758443 137.049578 
L 107.990817 137.049578 
L 107.990817 136.819704 
L 108.107005 136.819704 
L 108.107005 136.359954 
L 108.339379 136.359954 
L 108.339379 135.900205 
L 108.455566 135.900205 
L 108.455566 135.210582 
L 108.571753 135.210582 
L 108.571753 134.750832 
L 108.804127 134.750832 
L 108.804127 134.291083 
L 108.920314 134.291083 
L 108.920314 134.061209 
L 109.036501 134.061209 
L 109.036501 133.60146 
L 109.268875 133.60146 
L 109.268875 133.371585 
L 109.849811 133.371585 
L 109.849811 132.681961 
L 109.965998 132.681961 
L 109.965998 132.452087 
L 110.082185 132.452087 
L 110.082185 131.992338 
L 110.198372 131.992338 
L 110.198372 131.532588 
L 110.895494 131.532588 
L 110.895494 130.153341 
L 111.011681 130.153341 
L 111.011681 129.233843 
L 111.127868 129.233843 
L 111.127868 129.003968 
L 111.244055 129.003968 
L 111.244055 128.774094 
L 111.360242 128.774094 
L 111.360242 128.08447 
L 111.592616 128.08447 
L 111.592616 127.624721 
L 111.824991 127.624721 
L 111.824991 127.394846 
L 112.405926 127.394846 
L 112.405926 126.935097 
L 112.522113 126.935097 
L 112.522113 126.705222 
L 113.219235 126.705222 
L 113.219235 126.245473 
L 113.567797 126.245473 
L 113.567797 126.015599 
L 114.381106 126.015599 
L 114.381106 125.785724 
L 114.497293 125.785724 
L 114.497293 124.866226 
L 114.61348 124.866226 
L 114.61348 123.946727 
L 114.845854 123.946727 
L 114.845854 123.716853 
L 114.962041 123.716853 
L 114.962041 123.027229 
L 115.078228 123.027229 
L 115.078228 122.56748 
L 115.42679 122.56748 
L 115.42679 122.337605 
L 115.542977 122.337605 
L 115.542977 121.418107 
L 115.659164 121.418107 
L 115.659164 120.728483 
L 115.775351 120.728483 
L 115.775351 120.498609 
L 116.007725 120.498609 
L 116.007725 120.268734 
L 116.123912 120.268734 
L 116.123912 120.03886 
L 116.472473 120.03886 
L 116.472473 119.119361 
L 116.821034 119.119361 
L 116.821034 118.889487 
L 117.053409 118.889487 
L 117.053409 118.659612 
L 117.169596 118.659612 
L 117.169596 118.429738 
L 117.518157 118.429738 
L 117.518157 118.199863 
L 117.866718 118.199863 
L 117.866718 117.969989 
L 118.680027 117.969989 
L 118.680027 117.05049 
L 118.912402 117.05049 
L 118.912402 116.820616 
L 119.260963 116.820616 
L 119.260963 116.360867 
L 119.958085 116.360867 
L 119.958085 116.130992 
L 120.655208 116.130992 
L 120.655208 115.901117 
L 120.771395 115.901117 
L 120.771395 115.671243 
L 120.887582 115.671243 
L 120.887582 115.441368 
L 121.003769 115.441368 
L 121.003769 115.211494 
L 121.35233 115.211494 
L 121.35233 114.981619 
L 122.165639 114.981619 
L 122.165639 114.751745 
L 122.281827 114.751745 
L 122.281827 114.291995 
L 122.862762 114.291995 
L 122.862762 113.832246 
L 122.978949 113.832246 
L 122.978949 113.602372 
L 123.095136 113.602372 
L 123.095136 113.372497 
L 123.211323 113.372497 
L 123.211323 112.912748 
L 123.32751 112.912748 
L 123.32751 112.682873 
L 124.14082 112.682873 
L 124.14082 112.452999 
L 124.257007 112.452999 
L 124.257007 112.223124 
L 124.721755 112.223124 
L 124.721755 111.763375 
L 125.070316 111.763375 
L 125.070316 111.303626 
L 125.651251 111.303626 
L 125.651251 110.384128 
L 126.580748 110.384128 
L 126.580748 110.154253 
L 126.696935 110.154253 
L 126.696935 109.924379 
L 127.858806 109.924379 
L 127.858806 109.694504 
L 128.323554 109.694504 
L 128.323554 109.464629 
L 128.555928 109.464629 
L 128.555928 109.234755 
L 128.788302 109.234755 
L 128.788302 109.00488 
L 128.904489 109.00488 
L 128.904489 108.775006 
L 129.25305 108.775006 
L 129.25305 108.545131 
L 129.485425 108.545131 
L 129.485425 108.315257 
L 129.601612 108.315257 
L 129.601612 108.085382 
L 130.298734 108.085382 
L 130.298734 107.625633 
L 130.763482 107.625633 
L 130.763482 107.395758 
L 131.112043 107.395758 
L 131.112043 107.165884 
L 131.692979 107.165884 
L 131.692979 106.706135 
L 131.809166 106.706135 
L 131.809166 106.246385 
L 135.410965 106.246385 
L 135.410965 106.016511 
L 135.643339 106.016511 
L 135.643339 105.786636 
L 135.9919 105.786636 
L 135.9919 105.326887 
L 136.80521 105.326887 
L 136.80521 104.867138 
L 136.921397 104.867138 
L 136.921397 104.407389 
L 138.78039 104.407389 
L 138.78039 104.177514 
L 139.361325 104.177514 
L 139.361325 103.717765 
L 139.593699 103.717765 
L 139.593699 103.487891 
L 140.407009 103.487891 
L 140.407009 103.258016 
L 140.523196 103.258016 
L 140.523196 103.028141 
L 140.871757 103.028141 
L 140.871757 102.798267 
L 141.452692 102.798267 
L 141.452692 102.568392 
L 142.149815 102.568392 
L 142.149815 102.338518 
L 142.266002 102.338518 
L 142.266002 102.108643 
L 142.498376 102.108643 
L 142.498376 101.878769 
L 142.614563 101.878769 
L 142.614563 101.648894 
L 142.963124 101.648894 
L 142.963124 101.419019 
L 143.079311 101.419019 
L 143.079311 101.189145 
L 143.776434 101.189145 
L 143.776434 100.729396 
L 144.008808 100.729396 
L 144.008808 100.499521 
L 144.473556 100.499521 
L 144.473556 100.039772 
L 144.822117 100.039772 
L 144.822117 99.809897 
L 145.751614 99.809897 
L 145.751614 99.350148 
L 146.100175 99.350148 
L 146.100175 99.120274 
L 146.216362 99.120274 
L 146.216362 98.890399 
L 146.68111 98.890399 
L 146.68111 98.660525 
L 148.540103 98.660525 
L 148.540103 98.43065 
L 149.701974 98.43065 
L 149.701974 98.200775 
L 150.166722 98.200775 
L 150.166722 97.970901 
L 150.747658 97.970901 
L 150.747658 97.741026 
L 151.560967 97.741026 
L 151.560967 97.511152 
L 152.606651 97.511152 
L 152.606651 97.281277 
L 153.071399 97.281277 
L 153.071399 97.051403 
L 153.884708 97.051403 
L 153.884708 96.591653 
L 154.000895 96.591653 
L 154.000895 96.361779 
L 154.930392 96.361779 
L 154.930392 96.131904 
L 155.743701 96.131904 
L 155.743701 95.90203 
L 155.976075 95.90203 
L 155.976075 95.672155 
L 156.905572 95.672155 
L 156.905572 95.442281 
L 157.602694 95.442281 
L 157.602694 95.212406 
L 158.299817 95.212406 
L 158.299817 94.982531 
L 159.229313 94.982531 
L 159.229313 94.752657 
L 159.577874 94.752657 
L 159.577874 94.522782 
L 160.042623 94.522782 
L 160.042623 94.063033 
L 160.391184 94.063033 
L 160.391184 93.833158 
L 160.507371 93.833158 
L 160.507371 93.603284 
L 160.623558 93.603284 
L 160.623558 93.373409 
L 160.972119 93.373409 
L 160.972119 93.143535 
L 161.669242 93.143535 
L 161.669242 92.91366 
L 161.901616 92.91366 
L 161.901616 92.683786 
L 162.598738 92.683786 
L 162.598738 92.224036 
L 162.947299 92.224036 
L 162.947299 91.994162 
L 164.225357 91.994162 
L 164.225357 91.764287 
L 164.690105 91.764287 
L 164.690105 91.534413 
L 164.806292 91.534413 
L 164.806292 91.304538 
L 164.922479 91.304538 
L 164.922479 91.074664 
L 165.851976 91.074664 
L 165.851976 90.844789 
L 166.89766 90.844789 
L 166.89766 90.614914 
L 167.478595 90.614914 
L 167.478595 90.38504 
L 167.827156 90.38504 
L 167.827156 90.155165 
L 167.943343 90.155165 
L 167.943343 89.925291 
L 168.640466 89.925291 
L 168.640466 89.695416 
L 168.756653 89.695416 
L 168.756653 89.465542 
L 169.453775 89.465542 
L 169.453775 89.235667 
L 169.802336 89.235667 
L 169.802336 89.005792 
L 172.00989 89.005792 
L 172.00989 88.775918 
L 172.707013 88.775918 
L 172.707013 88.546043 
L 172.939387 88.546043 
L 172.939387 88.316169 
L 173.171761 88.316169 
L 173.171761 88.086294 
L 175.844064 88.086294 
L 175.844064 87.626545 
L 176.076438 87.626545 
L 176.076438 87.166796 
L 176.541186 87.166796 
L 176.541186 86.707047 
L 177.005934 86.707047 
L 177.005934 86.477172 
L 178.400179 86.477172 
L 178.400179 86.247298 
L 179.678237 86.247298 
L 179.678237 85.787548 
L 180.026798 85.787548 
L 180.026798 85.557674 
L 180.375359 85.557674 
L 180.375359 85.327799 
L 181.653417 85.327799 
L 181.653417 85.097925 
L 182.001978 85.097925 
L 182.001978 84.86805 
L 182.582913 84.86805 
L 182.582913 84.408301 
L 183.163849 84.408301 
L 183.163849 83.948552 
L 184.558094 83.948552 
L 184.558094 83.718677 
L 185.255216 83.718677 
L 185.255216 83.488803 
L 185.719964 83.488803 
L 185.719964 83.258928 
L 185.952338 83.258928 
L 185.952338 83.029054 
L 187.114209 83.029054 
L 187.114209 82.799179 
L 188.27608 82.799179 
L 188.27608 82.569304 
L 188.973202 82.569304 
L 188.973202 82.33943 
L 190.018886 82.33943 
L 190.018886 82.109555 
L 191.064569 82.109555 
L 191.064569 81.419932 
L 191.645505 81.419932 
L 191.645505 81.190057 
L 192.458814 81.190057 
L 192.458814 80.730308 
L 192.807375 80.730308 
L 192.807375 80.500433 
L 193.272123 80.500433 
L 193.272123 80.270559 
L 193.620685 80.270559 
L 193.620685 79.81081 
L 193.853059 79.81081 
L 193.853059 79.121186 
L 193.969246 79.121186 
L 193.969246 78.891311 
L 194.317807 78.891311 
L 194.317807 78.661437 
L 195.131116 78.661437 
L 195.131116 78.431562 
L 195.247304 78.431562 
L 195.247304 78.201688 
L 195.363491 78.201688 
L 195.363491 77.971813 
L 196.873922 77.971813 
L 196.873922 77.741938 
L 197.106297 77.741938 
L 197.106297 77.512064 
L 197.571045 77.512064 
L 197.571045 77.052315 
L 199.430038 77.052315 
L 199.430038 76.82244 
L 199.546225 76.82244 
L 199.546225 76.592566 
L 200.243347 76.592566 
L 200.243347 76.362691 
L 200.359534 76.362691 
L 200.359534 76.132816 
L 201.986153 76.132816 
L 201.986153 75.443193 
L 202.10234 75.443193 
L 202.10234 74.753569 
L 202.218527 74.753569 
L 202.218527 74.523694 
L 206.401262 74.523694 
L 206.401262 74.063945 
L 206.633636 74.063945 
L 206.633636 73.834071 
L 206.86601 73.834071 
L 206.86601 73.604196 
L 207.67932 73.604196 
L 207.67932 73.374322 
L 208.608816 73.374322 
L 208.608816 73.144447 
L 209.073564 73.144447 
L 209.073564 72.914572 
L 211.048744 72.914572 
L 211.048744 72.684698 
L 211.862054 72.684698 
L 211.862054 72.454823 
L 212.442989 72.454823 
L 212.442989 72.224949 
L 212.559176 72.224949 
L 212.559176 71.995074 
L 212.675363 71.995074 
L 212.675363 71.7652 
L 212.79155 71.7652 
L 212.79155 71.535325 
L 213.60486 71.535325 
L 213.60486 71.30545 
L 214.185795 71.30545 
L 214.185795 71.075576 
L 216.393349 71.075576 
L 216.393349 70.615827 
L 216.509537 70.615827 
L 216.509537 70.156078 
L 217.322846 70.156078 
L 217.322846 69.926203 
L 219.762774 69.926203 
L 219.762774 69.236579 
L 221.157019 69.236579 
L 221.157019 68.546956 
L 222.551264 68.546956 
L 222.551264 68.317081 
L 222.899825 68.317081 
L 222.899825 68.087206 
L 225.223566 68.087206 
L 225.223566 67.857332 
L 226.26925 67.857332 
L 226.26925 67.627457 
L 226.617811 67.627457 
L 226.617811 67.397583 
L 227.314934 67.397583 
L 227.314934 67.167708 
L 227.895869 67.167708 
L 227.895869 66.937834 
L 228.128243 66.937834 
L 228.128243 66.707959 
L 229.406301 66.707959 
L 229.406301 66.478084 
L 229.987236 66.478084 
L 229.987236 66.24821 
L 230.568171 66.24821 
L 230.568171 65.788461 
L 231.149107 65.788461 
L 231.149107 65.558586 
L 231.381481 65.558586 
L 231.381481 65.328712 
L 231.846229 65.328712 
L 231.846229 65.098837 
L 232.310977 65.098837 
L 232.310977 64.868962 
L 235.564215 64.868962 
L 235.564215 64.639088 
L 236.261338 64.639088 
L 236.261338 64.409213 
L 236.377525 64.409213 
L 236.377525 64.179339 
L 236.726086 64.179339 
L 236.726086 63.949464 
L 237.190834 63.949464 
L 237.190834 63.71959 
L 237.539395 63.71959 
L 237.539395 63.489715 
L 237.655582 63.489715 
L 237.655582 63.25984 
L 238.120331 63.25984 
L 238.120331 63.029966 
L 238.236518 63.029966 
L 238.236518 62.340342 
L 238.585079 62.340342 
L 238.585079 62.110468 
L 239.398388 62.110468 
L 239.398388 61.880593 
L 243.348749 61.880593 
L 243.348749 61.420844 
L 244.045871 61.420844 
L 244.045871 61.190969 
L 244.162058 61.190969 
L 244.162058 60.961095 
L 244.626806 60.961095 
L 244.626806 60.73122 
L 245.323929 60.73122 
L 245.323929 60.271471 
L 245.67249 60.271471 
L 245.67249 60.041596 
L 247.763857 60.041596 
L 247.763857 59.811722 
L 251.249469 59.811722 
L 251.249469 59.581847 
L 251.830404 59.581847 
L 251.830404 59.351973 
L 252.992275 59.351973 
L 252.992275 59.122098 
L 253.108462 59.122098 
L 253.108462 58.892223 
L 254.502707 58.892223 
L 254.502707 58.662349 
L 254.618894 58.662349 
L 254.618894 58.432474 
L 254.967455 58.432474 
L 254.967455 58.2026 
L 255.54839 58.2026 
L 255.54839 57.972725 
L 256.826448 57.972725 
L 256.826448 57.742851 
L 256.942635 57.742851 
L 256.942635 57.512976 
L 257.058822 57.512976 
L 257.058822 57.283101 
L 258.33688 57.283101 
L 258.33688 57.053227 
L 259.034002 57.053227 
L 259.034002 56.823352 
L 259.266377 56.823352 
L 259.266377 56.593478 
L 259.731125 56.593478 
L 259.731125 56.363603 
L 260.31206 56.363603 
L 260.31206 56.133729 
L 260.660621 56.133729 
L 260.660621 55.903854 
L 261.241557 55.903854 
L 261.241557 55.673979 
L 261.706305 55.673979 
L 261.706305 55.444105 
L 261.938679 55.444105 
L 261.938679 55.21423 
L 262.751989 55.21423 
L 262.751989 54.984356 
L 263.10055 54.984356 
L 263.10055 54.754481 
L 265.191917 54.754481 
L 265.191917 54.524607 
L 265.772852 54.524607 
L 265.772852 54.294732 
L 266.005226 54.294732 
L 266.005226 54.064857 
L 266.2376 54.064857 
L 266.2376 53.834983 
L 266.934723 53.834983 
L 266.934723 53.605108 
L 267.167097 53.605108 
L 267.167097 53.145359 
L 267.864219 53.145359 
L 267.864219 52.915485 
L 269.374651 52.915485 
L 269.374651 52.455735 
L 270.187961 52.455735 
L 270.187961 52.225861 
L 272.627889 52.225861 
L 272.627889 51.995986 
L 272.860263 51.995986 
L 272.860263 51.766112 
L 273.208824 51.766112 
L 273.208824 51.536237 
L 274.719256 51.536237 
L 274.719256 51.306363 
L 275.881127 51.306363 
L 275.881127 51.076488 
L 276.345875 51.076488 
L 276.345875 50.846613 
L 279.018178 50.846613 
L 279.018178 50.616739 
L 279.250552 50.616739 
L 279.250552 50.386864 
L 280.760984 50.386864 
L 280.760984 50.15699 
L 282.736164 50.15699 
L 282.736164 49.927115 
L 283.317099 49.927115 
L 283.317099 49.697241 
L 284.711344 49.697241 
L 284.711344 49.467366 
L 286.686524 49.467366 
L 286.686524 49.237491 
L 287.383646 49.237491 
L 287.383646 49.007617 
L 288.313143 49.007617 
L 288.313143 48.777742 
L 289.010265 48.777742 
L 289.010265 48.547868 
L 290.055949 48.547868 
L 290.055949 48.317993 
L 290.520697 48.317993 
L 290.520697 47.858244 
L 291.101632 47.858244 
L 291.101632 47.628369 
L 292.495877 47.628369 
L 292.495877 47.16862 
L 294.122496 47.16862 
L 294.122496 46.938746 
L 295.516741 46.938746 
L 295.516741 46.708871 
L 296.446237 46.708871 
L 296.446237 46.478997 
L 297.956669 46.478997 
L 297.956669 46.249122 
L 298.189043 46.249122 
L 298.189043 46.019247 
L 301.09372 46.019247 
L 301.09372 45.789373 
L 303.185087 45.789373 
L 303.185087 45.559498 
L 303.301274 45.559498 
L 303.301274 45.329624 
L 305.741203 45.329624 
L 305.741203 45.099749 
L 306.786886 45.099749 
L 306.786886 44.869875 
L 308.181131 44.869875 
L 308.181131 44.64 
L 311.318182 44.64 
L 311.318182 44.64 
" style="fill:none;stroke:#2ca02c;stroke-linecap:square;stroke-width:1.5;"/>
   </g>
   <g id="patch_3">
    <path d="M 45 256.32 
L 45 34.56 
" style="fill:none;stroke:#000000;stroke-linecap:square;stroke-linejoin:miter;stroke-width:0.8;"/>
   </g>
   <g id="patch_4">
    <path d="M 324 256.32 
L 324 34.56 
" style="fill:none;stroke:#000000;stroke-linecap:square;stroke-linejoin:miter;stroke-width:0.8;"/>
   </g>
   <g id="patch_5">
    <path d="M 45 256.32 
L 324 256.32 
" style="fill:none;stroke:#000000;stroke-linecap:square;stroke-linejoin:miter;stroke-width:0.8;"/>
   </g>
   <g id="patch_6">
    <path d="M 45 34.56 
L 324 34.56 
" style="fill:none;stroke:#000000;stroke-linecap:square;stroke-linejoin:miter;stroke-width:0.8;"/>
   </g>
   <g id="text_15">
    <!-- roc_mobilenetv2 -->
    <g transform="translate(134.6325 28.56)scale(0.12 -0.12)">
     <defs>
      <path d="M 1959 3097 
Q 1497 3097 1228 2736 
Q 959 2375 959 1747 
Q 959 1119 1226 758 
Q 1494 397 1959 397 
Q 2419 397 2687 759 
Q 2956 1122 2956 1747 
Q 2956 2369 2687 2733 
Q 2419 3097 1959 3097 
z
M 1959 3584 
Q 2709 3584 3137 3096 
Q 3566 2609 3566 1747 
Q 3566 888 3137 398 
Q 2709 -91 1959 -91 
Q 1206 -91 779 398 
Q 353 888 353 1747 
Q 353 2609 779 3096 
Q 1206 3584 1959 3584 
z
" id="DejaVuSans-6f" transform="scale(0.015625)"/>
      <path d="M 3122 3366 
L 3122 2828 
Q 2878 2963 2633 3030 
Q 2388 3097 2138 3097 
Q 1578 3097 1268 2742 
Q 959 2388 959 1747 
Q 959 1106 1268 751 
Q 1578 397 2138 397 
Q 2388 397 2633 464 
Q 2878 531 3122 666 
L 3122 134 
Q 2881 22 2623 -34 
Q 2366 -91 2075 -91 
Q 1284 -91 818 406 
Q 353 903 353 1747 
Q 353 2603 823 3093 
Q 1294 3584 2113 3584 
Q 2378 3584 2631 3529 
Q 2884 3475 3122 3366 
z
" id="DejaVuSans-63" transform="scale(0.015625)"/>
      <path d="M 3263 -1063 
L 3263 -1509 
L -63 -1509 
L -63 -1063 
L 3263 -1063 
z
" id="DejaVuSans-5f" transform="scale(0.015625)"/>
      <path d="M 3328 2828 
Q 3544 3216 3844 3400 
Q 4144 3584 4550 3584 
Q 5097 3584 5394 3201 
Q 5691 2819 5691 2113 
L 5691 0 
L 5113 0 
L 5113 2094 
Q 5113 2597 4934 2840 
Q 4756 3084 4391 3084 
Q 3944 3084 3684 2787 
Q 3425 2491 3425 1978 
L 3425 0 
L 2847 0 
L 2847 2094 
Q 2847 2600 2669 2842 
Q 2491 3084 2119 3084 
Q 1678 3084 1418 2786 
Q 1159 2488 1159 1978 
L 1159 0 
L 581 0 
L 581 3500 
L 1159 3500 
L 1159 2956 
Q 1356 3278 1631 3431 
Q 1906 3584 2284 3584 
Q 2666 3584 2933 3390 
Q 3200 3197 3328 2828 
z
" id="DejaVuSans-6d" transform="scale(0.015625)"/>
      <path d="M 3116 1747 
Q 3116 2381 2855 2742 
Q 2594 3103 2138 3103 
Q 1681 3103 1420 2742 
Q 1159 2381 1159 1747 
Q 1159 1113 1420 752 
Q 1681 391 2138 391 
Q 2594 391 2855 752 
Q 3116 1113 3116 1747 
z
M 1159 2969 
Q 1341 3281 1617 3432 
Q 1894 3584 2278 3584 
Q 2916 3584 3314 3078 
Q 3713 2572 3713 1747 
Q 3713 922 3314 415 
Q 2916 -91 2278 -91 
Q 1894 -91 1617 61 
Q 1341 213 1159 525 
L 1159 0 
L 581 0 
L 581 4863 
L 1159 4863 
L 1159 2969 
z
" id="DejaVuSans-62" transform="scale(0.015625)"/>
      <path d="M 603 3500 
L 1178 3500 
L 1178 0 
L 603 0 
L 603 3500 
z
M 603 4863 
L 1178 4863 
L 1178 4134 
L 603 4134 
L 603 4863 
z
" id="DejaVuSans-69" transform="scale(0.015625)"/>
      <path d="M 603 4863 
L 1178 4863 
L 1178 0 
L 603 0 
L 603 4863 
z
" id="DejaVuSans-6c" transform="scale(0.015625)"/>
      <path d="M 3597 1894 
L 3597 1613 
L 953 1613 
Q 991 1019 1311 708 
Q 1631 397 2203 397 
Q 2534 397 2845 478 
Q 3156 559 3463 722 
L 3463 178 
Q 3153 47 2828 -22 
Q 2503 -91 2169 -91 
Q 1331 -91 842 396 
Q 353 884 353 1716 
Q 353 2575 817 3079 
Q 1281 3584 2069 3584 
Q 2775 3584 3186 3129 
Q 3597 2675 3597 1894 
z
M 3022 2063 
Q 3016 2534 2758 2815 
Q 2500 3097 2075 3097 
Q 1594 3097 1305 2825 
Q 1016 2553 972 2059 
L 3022 2063 
z
" id="DejaVuSans-65" transform="scale(0.015625)"/>
      <path d="M 3513 2113 
L 3513 0 
L 2938 0 
L 2938 2094 
Q 2938 2591 2744 2837 
Q 2550 3084 2163 3084 
Q 1697 3084 1428 2787 
Q 1159 2491 1159 1978 
L 1159 0 
L 581 0 
L 581 3500 
L 1159 3500 
L 1159 2956 
Q 1366 3272 1645 3428 
Q 1925 3584 2291 3584 
Q 2894 3584 3203 3211 
Q 3513 2838 3513 2113 
z
" id="DejaVuSans-6e" transform="scale(0.015625)"/>
      <path d="M 191 3500 
L 800 3500 
L 1894 563 
L 2988 3500 
L 3597 3500 
L 2284 0 
L 1503 0 
L 191 3500 
z
" id="DejaVuSans-76" transform="scale(0.015625)"/>
     </defs>
     <use xlink:href="#DejaVuSans-72"/>
     <use x="38.863281" xlink:href="#DejaVuSans-6f"/>
     <use x="100.044922" xlink:href="#DejaVuSans-63"/>
     <use x="155.025391" xlink:href="#DejaVuSans-5f"/>
     <use x="205.025391" xlink:href="#DejaVuSans-6d"/>
     <use x="302.4375" xlink:href="#DejaVuSans-6f"/>
     <use x="363.619141" xlink:href="#DejaVuSans-62"/>
     <use x="427.095703" xlink:href="#DejaVuSans-69"/>
     <use x="454.878906" xlink:href="#DejaVuSans-6c"/>
     <use x="482.662109" xlink:href="#DejaVuSans-65"/>
     <use x="544.185547" xlink:href="#DejaVuSans-6e"/>
     <use x="607.564453" xlink:href="#DejaVuSans-65"/>
     <use x="669.087891" xlink:href="#DejaVuSans-74"/>
     <use x="708.296875" xlink:href="#DejaVuSans-76"/>
     <use x="767.476562" xlink:href="#DejaVuSans-32"/>
    </g>
   </g>
   <g id="legend_1">
    <g id="patch_7">
     <path d="M 52 87.42875 
L 148.501563 87.42875 
Q 150.501563 87.42875 150.501563 85.42875 
L 150.501563 41.56 
Q 150.501563 39.56 148.501563 39.56 
L 52 39.56 
Q 50 39.56 50 41.56 
L 50 85.42875 
Q 50 87.42875 52 87.42875 
z
" style="fill:#ffffff;opacity:0.8;stroke:#cccccc;stroke-linejoin:miter;"/>
    </g>
    <g id="line2d_16">
     <path d="M 54 47.658438 
L 74 47.658438 
" style="fill:none;stroke:#1f77b4;stroke-linecap:square;stroke-width:1.5;"/>
    </g>
    <g id="line2d_17"/>
    <g id="text_16">
     <!-- auc_0: 0.637 -->
     <g transform="translate(82 51.158438)scale(0.1 -0.1)">
      <defs>
       <path d="M 2194 1759 
Q 1497 1759 1228 1600 
Q 959 1441 959 1056 
Q 959 750 1161 570 
Q 1363 391 1709 391 
Q 2188 391 2477 730 
Q 2766 1069 2766 1631 
L 2766 1759 
L 2194 1759 
z
M 3341 1997 
L 3341 0 
L 2766 0 
L 2766 531 
Q 2569 213 2275 61 
Q 1981 -91 1556 -91 
Q 1019 -91 701 211 
Q 384 513 384 1019 
Q 384 1609 779 1909 
Q 1175 2209 1959 2209 
L 2766 2209 
L 2766 2266 
Q 2766 2663 2505 2880 
Q 2244 3097 1772 3097 
Q 1472 3097 1187 3025 
Q 903 2953 641 2809 
L 641 3341 
Q 956 3463 1253 3523 
Q 1550 3584 1831 3584 
Q 2591 3584 2966 3190 
Q 3341 2797 3341 1997 
z
" id="DejaVuSans-61" transform="scale(0.015625)"/>
       <path d="M 544 1381 
L 544 3500 
L 1119 3500 
L 1119 1403 
Q 1119 906 1312 657 
Q 1506 409 1894 409 
Q 2359 409 2629 706 
Q 2900 1003 2900 1516 
L 2900 3500 
L 3475 3500 
L 3475 0 
L 2900 0 
L 2900 538 
Q 2691 219 2414 64 
Q 2138 -91 1772 -91 
Q 1169 -91 856 284 
Q 544 659 544 1381 
z
M 1991 3584 
L 1991 3584 
z
" id="DejaVuSans-75" transform="scale(0.015625)"/>
       <path d="M 750 794 
L 1409 794 
L 1409 0 
L 750 0 
L 750 794 
z
M 750 3309 
L 1409 3309 
L 1409 2516 
L 750 2516 
L 750 3309 
z
" id="DejaVuSans-3a" transform="scale(0.015625)"/>
       <path id="DejaVuSans-20" transform="scale(0.015625)"/>
       <path d="M 2597 2516 
Q 3050 2419 3304 2112 
Q 3559 1806 3559 1356 
Q 3559 666 3084 287 
Q 2609 -91 1734 -91 
Q 1441 -91 1130 -33 
Q 819 25 488 141 
L 488 750 
Q 750 597 1062 519 
Q 1375 441 1716 441 
Q 2309 441 2620 675 
Q 2931 909 2931 1356 
Q 2931 1769 2642 2001 
Q 2353 2234 1838 2234 
L 1294 2234 
L 1294 2753 
L 1863 2753 
Q 2328 2753 2575 2939 
Q 2822 3125 2822 3475 
Q 2822 3834 2567 4026 
Q 2313 4219 1838 4219 
Q 1578 4219 1281 4162 
Q 984 4106 628 3988 
L 628 4550 
Q 988 4650 1302 4700 
Q 1616 4750 1894 4750 
Q 2613 4750 3031 4423 
Q 3450 4097 3450 3541 
Q 3450 3153 3228 2886 
Q 3006 2619 2597 2516 
z
" id="DejaVuSans-33" transform="scale(0.015625)"/>
       <path d="M 525 4666 
L 3525 4666 
L 3525 4397 
L 1831 0 
L 1172 0 
L 2766 4134 
L 525 4134 
L 525 4666 
z
" id="DejaVuSans-37" transform="scale(0.015625)"/>
      </defs>
      <use xlink:href="#DejaVuSans-61"/>
      <use x="61.279297" xlink:href="#DejaVuSans-75"/>
      <use x="124.658203" xlink:href="#DejaVuSans-63"/>
      <use x="179.638672" xlink:href="#DejaVuSans-5f"/>
      <use x="229.638672" xlink:href="#DejaVuSans-30"/>
      <use x="293.261719" xlink:href="#DejaVuSans-3a"/>
      <use x="326.953125" xlink:href="#DejaVuSans-20"/>
      <use x="358.740234" xlink:href="#DejaVuSans-30"/>
      <use x="422.363281" xlink:href="#DejaVuSans-2e"/>
      <use x="454.150391" xlink:href="#DejaVuSans-36"/>
      <use x="517.773438" xlink:href="#DejaVuSans-33"/>
      <use x="581.396484" xlink:href="#DejaVuSans-37"/>
     </g>
    </g>
    <g id="line2d_18">
     <path d="M 54 62.614688 
L 74 62.614688 
" style="fill:none;stroke:#ff7f0e;stroke-linecap:square;stroke-width:1.5;"/>
    </g>
    <g id="line2d_19"/>
    <g id="text_17">
     <!-- auc_1: 0.737 -->
     <g transform="translate(82 66.114688)scale(0.1 -0.1)">
      <use xlink:href="#DejaVuSans-61"/>
      <use x="61.279297" xlink:href="#DejaVuSans-75"/>
      <use x="124.658203" xlink:href="#DejaVuSans-63"/>
      <use x="179.638672" xlink:href="#DejaVuSans-5f"/>
      <use x="229.638672" xlink:href="#DejaVuSans-31"/>
      <use x="293.261719" xlink:href="#DejaVuSans-3a"/>
      <use x="326.953125" xlink:href="#DejaVuSans-20"/>
      <use x="358.740234" xlink:href="#DejaVuSans-30"/>
      <use x="422.363281" xlink:href="#DejaVuSans-2e"/>
      <use x="454.150391" xlink:href="#DejaVuSans-37"/>
      <use x="517.773438" xlink:href="#DejaVuSans-33"/>
      <use x="581.396484" xlink:href="#DejaVuSans-37"/>
     </g>
    </g>
    <g id="line2d_20">
     <path d="M 54 77.570938 
L 74 77.570938 
" style="fill:none;stroke:#2ca02c;stroke-linecap:square;stroke-width:1.5;"/>
    </g>
    <g id="line2d_21"/>
    <g id="text_18">
     <!-- auc_2: 0.744 -->
     <g transform="translate(82 81.070938)scale(0.1 -0.1)">
      <use xlink:href="#DejaVuSans-61"/>
      <use x="61.279297" xlink:href="#DejaVuSans-75"/>
      <use x="124.658203" xlink:href="#DejaVuSans-63"/>
      <use x="179.638672" xlink:href="#DejaVuSans-5f"/>
      <use x="229.638672" xlink:href="#DejaVuSans-32"/>
      <use x="293.261719" xlink:href="#DejaVuSans-3a"/>
      <use x="326.953125" xlink:href="#DejaVuSans-20"/>
      <use x="358.740234" xlink:href="#DejaVuSans-30"/>
      <use x="422.363281" xlink:href="#DejaVuSans-2e"/>
      <use x="454.150391" xlink:href="#DejaVuSans-37"/>
      <use x="517.773438" xlink:href="#DejaVuSans-34"/>
      <use x="581.396484" xlink:href="#DejaVuSans-34"/>
     </g>
    </g>
   </g>
  </g>
 </g>
 <defs>
  <clipPath id="p1a3d55cfb5">
   <rect height="221.76" width="279" x="45" y="34.56"/>
  </clipPath>
 </defs>
</svg>
