<?xml version="1.0" encoding="utf-8" standalone="no"?>
<!DOCTYPE svg PUBLIC "-//W3C//DTD SVG 1.1//EN"
  "http://www.w3.org/Graphics/SVG/1.1/DTD/svg11.dtd">
<svg height="288pt" version="1.1" viewBox="0 0 360 288" width="360pt" xmlns="http://www.w3.org/2000/svg" xmlns:xlink="http://www.w3.org/1999/xlink">
 <metadata>
  <rdf:RDF xmlns:cc="http://creativecommons.org/ns#" xmlns:dc="http://purl.org/dc/elements/1.1/" xmlns:rdf="http://www.w3.org/1999/02/22-rdf-syntax-ns#">
   <cc:Work>
    <dc:type rdf:resource="http://purl.org/dc/dcmitype/StillImage"/>
    <dc:date>2022-06-17T11:08:57.919415</dc:date>
    <dc:format>image/svg+xml</dc:format>
    <dc:creator>
     <cc:Agent>
      <dc:title>Matplotlib v3.4.2, https://matplotlib.org/</dc:title>
     </cc:Agent>
    </dc:creator>
   </cc:Work>
  </rdf:RDF>
 </metadata>
 <defs>
  <style type="text/css">*{stroke-linecap:butt;stroke-linejoin:round;}</style>
 </defs>
 <g id="figure_1">
  <g id="patch_1">
   <path d="M 0 288 
L 360 288 
L 360 0 
L 0 0 
z
" style="fill:#ffffff;"/>
  </g>
  <g id="axes_1">
   <g id="patch_2">
    <path d="M 45 256.32 
L 324 256.32 
L 324 34.56 
L 45 34.56 
z
" style="fill:#ffffff;"/>
   </g>
   <g id="matplotlib.axis_1">
    <g id="xtick_1">
     <g id="line2d_1">
      <defs>
       <path d="M 0 0 
L 0 3.5 
" id="m59c6c1572e" style="stroke:#000000;stroke-width:0.8;"/>
      </defs>
      <g>
       <use style="stroke:#000000;stroke-width:0.8;" x="57.681818" xlink:href="#m59c6c1572e" y="256.32"/>
      </g>
     </g>
     <g id="text_1">
      <!-- 0.0 -->
      <g transform="translate(49.730256 270.918437)scale(0.1 -0.1)">
       <defs>
        <path d="M 2034 4250 
Q 1547 4250 1301 3770 
Q 1056 3291 1056 2328 
Q 1056 1369 1301 889 
Q 1547 409 2034 409 
Q 2525 409 2770 889 
Q 3016 1369 3016 2328 
Q 3016 3291 2770 3770 
Q 2525 4250 2034 4250 
z
M 2034 4750 
Q 2819 4750 3233 4129 
Q 3647 3509 3647 2328 
Q 3647 1150 3233 529 
Q 2819 -91 2034 -91 
Q 1250 -91 836 529 
Q 422 1150 422 2328 
Q 422 3509 836 4129 
Q 1250 4750 2034 4750 
z
" id="DejaVuSans-30" transform="scale(0.015625)"/>
        <path d="M 684 794 
L 1344 794 
L 1344 0 
L 684 0 
L 684 794 
z
" id="DejaVuSans-2e" transform="scale(0.015625)"/>
       </defs>
       <use xlink:href="#DejaVuSans-30"/>
       <use x="63.623047" xlink:href="#DejaVuSans-2e"/>
       <use x="95.410156" xlink:href="#DejaVuSans-30"/>
      </g>
     </g>
    </g>
    <g id="xtick_2">
     <g id="line2d_2">
      <g>
       <use style="stroke:#000000;stroke-width:0.8;" x="108.409091" xlink:href="#m59c6c1572e" y="256.32"/>
      </g>
     </g>
     <g id="text_2">
      <!-- 0.2 -->
      <g transform="translate(100.457528 270.918437)scale(0.1 -0.1)">
       <defs>
        <path d="M 1228 531 
L 3431 531 
L 3431 0 
L 469 0 
L 469 531 
Q 828 903 1448 1529 
Q 2069 2156 2228 2338 
Q 2531 2678 2651 2914 
Q 2772 3150 2772 3378 
Q 2772 3750 2511 3984 
Q 2250 4219 1831 4219 
Q 1534 4219 1204 4116 
Q 875 4013 500 3803 
L 500 4441 
Q 881 4594 1212 4672 
Q 1544 4750 1819 4750 
Q 2544 4750 2975 4387 
Q 3406 4025 3406 3419 
Q 3406 3131 3298 2873 
Q 3191 2616 2906 2266 
Q 2828 2175 2409 1742 
Q 1991 1309 1228 531 
z
" id="DejaVuSans-32" transform="scale(0.015625)"/>
       </defs>
       <use xlink:href="#DejaVuSans-30"/>
       <use x="63.623047" xlink:href="#DejaVuSans-2e"/>
       <use x="95.410156" xlink:href="#DejaVuSans-32"/>
      </g>
     </g>
    </g>
    <g id="xtick_3">
     <g id="line2d_3">
      <g>
       <use style="stroke:#000000;stroke-width:0.8;" x="159.136364" xlink:href="#m59c6c1572e" y="256.32"/>
      </g>
     </g>
     <g id="text_3">
      <!-- 0.4 -->
      <g transform="translate(151.184801 270.918437)scale(0.1 -0.1)">
       <defs>
        <path d="M 2419 4116 
L 825 1625 
L 2419 1625 
L 2419 4116 
z
M 2253 4666 
L 3047 4666 
L 3047 1625 
L 3713 1625 
L 3713 1100 
L 3047 1100 
L 3047 0 
L 2419 0 
L 2419 1100 
L 313 1100 
L 313 1709 
L 2253 4666 
z
" id="DejaVuSans-34" transform="scale(0.015625)"/>
       </defs>
       <use xlink:href="#DejaVuSans-30"/>
       <use x="63.623047" xlink:href="#DejaVuSans-2e"/>
       <use x="95.410156" xlink:href="#DejaVuSans-34"/>
      </g>
     </g>
    </g>
    <g id="xtick_4">
     <g id="line2d_4">
      <g>
       <use style="stroke:#000000;stroke-width:0.8;" x="209.863636" xlink:href="#m59c6c1572e" y="256.32"/>
      </g>
     </g>
     <g id="text_4">
      <!-- 0.6 -->
      <g transform="translate(201.912074 270.918437)scale(0.1 -0.1)">
       <defs>
        <path d="M 2113 2584 
Q 1688 2584 1439 2293 
Q 1191 2003 1191 1497 
Q 1191 994 1439 701 
Q 1688 409 2113 409 
Q 2538 409 2786 701 
Q 3034 994 3034 1497 
Q 3034 2003 2786 2293 
Q 2538 2584 2113 2584 
z
M 3366 4563 
L 3366 3988 
Q 3128 4100 2886 4159 
Q 2644 4219 2406 4219 
Q 1781 4219 1451 3797 
Q 1122 3375 1075 2522 
Q 1259 2794 1537 2939 
Q 1816 3084 2150 3084 
Q 2853 3084 3261 2657 
Q 3669 2231 3669 1497 
Q 3669 778 3244 343 
Q 2819 -91 2113 -91 
Q 1303 -91 875 529 
Q 447 1150 447 2328 
Q 447 3434 972 4092 
Q 1497 4750 2381 4750 
Q 2619 4750 2861 4703 
Q 3103 4656 3366 4563 
z
" id="DejaVuSans-36" transform="scale(0.015625)"/>
       </defs>
       <use xlink:href="#DejaVuSans-30"/>
       <use x="63.623047" xlink:href="#DejaVuSans-2e"/>
       <use x="95.410156" xlink:href="#DejaVuSans-36"/>
      </g>
     </g>
    </g>
    <g id="xtick_5">
     <g id="line2d_5">
      <g>
       <use style="stroke:#000000;stroke-width:0.8;" x="260.590909" xlink:href="#m59c6c1572e" y="256.32"/>
      </g>
     </g>
     <g id="text_5">
      <!-- 0.8 -->
      <g transform="translate(252.639347 270.918437)scale(0.1 -0.1)">
       <defs>
        <path d="M 2034 2216 
Q 1584 2216 1326 1975 
Q 1069 1734 1069 1313 
Q 1069 891 1326 650 
Q 1584 409 2034 409 
Q 2484 409 2743 651 
Q 3003 894 3003 1313 
Q 3003 1734 2745 1975 
Q 2488 2216 2034 2216 
z
M 1403 2484 
Q 997 2584 770 2862 
Q 544 3141 544 3541 
Q 544 4100 942 4425 
Q 1341 4750 2034 4750 
Q 2731 4750 3128 4425 
Q 3525 4100 3525 3541 
Q 3525 3141 3298 2862 
Q 3072 2584 2669 2484 
Q 3125 2378 3379 2068 
Q 3634 1759 3634 1313 
Q 3634 634 3220 271 
Q 2806 -91 2034 -91 
Q 1263 -91 848 271 
Q 434 634 434 1313 
Q 434 1759 690 2068 
Q 947 2378 1403 2484 
z
M 1172 3481 
Q 1172 3119 1398 2916 
Q 1625 2713 2034 2713 
Q 2441 2713 2670 2916 
Q 2900 3119 2900 3481 
Q 2900 3844 2670 4047 
Q 2441 4250 2034 4250 
Q 1625 4250 1398 4047 
Q 1172 3844 1172 3481 
z
" id="DejaVuSans-38" transform="scale(0.015625)"/>
       </defs>
       <use xlink:href="#DejaVuSans-30"/>
       <use x="63.623047" xlink:href="#DejaVuSans-2e"/>
       <use x="95.410156" xlink:href="#DejaVuSans-38"/>
      </g>
     </g>
    </g>
    <g id="xtick_6">
     <g id="line2d_6">
      <g>
       <use style="stroke:#000000;stroke-width:0.8;" x="311.318182" xlink:href="#m59c6c1572e" y="256.32"/>
      </g>
     </g>
     <g id="text_6">
      <!-- 1.0 -->
      <g transform="translate(303.366619 270.918437)scale(0.1 -0.1)">
       <defs>
        <path d="M 794 531 
L 1825 531 
L 1825 4091 
L 703 3866 
L 703 4441 
L 1819 4666 
L 2450 4666 
L 2450 531 
L 3481 531 
L 3481 0 
L 794 0 
L 794 531 
z
" id="DejaVuSans-31" transform="scale(0.015625)"/>
       </defs>
       <use xlink:href="#DejaVuSans-31"/>
       <use x="63.623047" xlink:href="#DejaVuSans-2e"/>
       <use x="95.410156" xlink:href="#DejaVuSans-30"/>
      </g>
     </g>
    </g>
    <g id="text_7">
     <!-- fpr -->
     <g transform="translate(177.510156 284.596563)scale(0.1 -0.1)">
      <defs>
       <path d="M 2375 4863 
L 2375 4384 
L 1825 4384 
Q 1516 4384 1395 4259 
Q 1275 4134 1275 3809 
L 1275 3500 
L 2222 3500 
L 2222 3053 
L 1275 3053 
L 1275 0 
L 697 0 
L 697 3053 
L 147 3053 
L 147 3500 
L 697 3500 
L 697 3744 
Q 697 4328 969 4595 
Q 1241 4863 1831 4863 
L 2375 4863 
z
" id="DejaVuSans-66" transform="scale(0.015625)"/>
       <path d="M 1159 525 
L 1159 -1331 
L 581 -1331 
L 581 3500 
L 1159 3500 
L 1159 2969 
Q 1341 3281 1617 3432 
Q 1894 3584 2278 3584 
Q 2916 3584 3314 3078 
Q 3713 2572 3713 1747 
Q 3713 922 3314 415 
Q 2916 -91 2278 -91 
Q 1894 -91 1617 61 
Q 1341 213 1159 525 
z
M 3116 1747 
Q 3116 2381 2855 2742 
Q 2594 3103 2138 3103 
Q 1681 3103 1420 2742 
Q 1159 2381 1159 1747 
Q 1159 1113 1420 752 
Q 1681 391 2138 391 
Q 2594 391 2855 752 
Q 3116 1113 3116 1747 
z
" id="DejaVuSans-70" transform="scale(0.015625)"/>
       <path d="M 2631 2963 
Q 2534 3019 2420 3045 
Q 2306 3072 2169 3072 
Q 1681 3072 1420 2755 
Q 1159 2438 1159 1844 
L 1159 0 
L 581 0 
L 581 3500 
L 1159 3500 
L 1159 2956 
Q 1341 3275 1631 3429 
Q 1922 3584 2338 3584 
Q 2397 3584 2469 3576 
Q 2541 3569 2628 3553 
L 2631 2963 
z
" id="DejaVuSans-72" transform="scale(0.015625)"/>
      </defs>
      <use xlink:href="#DejaVuSans-66"/>
      <use x="35.205078" xlink:href="#DejaVuSans-70"/>
      <use x="98.681641" xlink:href="#DejaVuSans-72"/>
     </g>
    </g>
   </g>
   <g id="matplotlib.axis_2">
    <g id="ytick_1">
     <g id="line2d_7">
      <defs>
       <path d="M 0 0 
L -3.5 0 
" id="mcf25b4c76a" style="stroke:#000000;stroke-width:0.8;"/>
      </defs>
      <g>
       <use style="stroke:#000000;stroke-width:0.8;" x="45" xlink:href="#mcf25b4c76a" y="246.24"/>
      </g>
     </g>
     <g id="text_8">
      <!-- 0.0 -->
      <g transform="translate(22.096875 250.039219)scale(0.1 -0.1)">
       <use xlink:href="#DejaVuSans-30"/>
       <use x="63.623047" xlink:href="#DejaVuSans-2e"/>
       <use x="95.410156" xlink:href="#DejaVuSans-30"/>
      </g>
     </g>
    </g>
    <g id="ytick_2">
     <g id="line2d_8">
      <g>
       <use style="stroke:#000000;stroke-width:0.8;" x="45" xlink:href="#mcf25b4c76a" y="205.92"/>
      </g>
     </g>
     <g id="text_9">
      <!-- 0.2 -->
      <g transform="translate(22.096875 209.719219)scale(0.1 -0.1)">
       <use xlink:href="#DejaVuSans-30"/>
       <use x="63.623047" xlink:href="#DejaVuSans-2e"/>
       <use x="95.410156" xlink:href="#DejaVuSans-32"/>
      </g>
     </g>
    </g>
    <g id="ytick_3">
     <g id="line2d_9">
      <g>
       <use style="stroke:#000000;stroke-width:0.8;" x="45" xlink:href="#mcf25b4c76a" y="165.6"/>
      </g>
     </g>
     <g id="text_10">
      <!-- 0.4 -->
      <g transform="translate(22.096875 169.399219)scale(0.1 -0.1)">
       <use xlink:href="#DejaVuSans-30"/>
       <use x="63.623047" xlink:href="#DejaVuSans-2e"/>
       <use x="95.410156" xlink:href="#DejaVuSans-34"/>
      </g>
     </g>
    </g>
    <g id="ytick_4">
     <g id="line2d_10">
      <g>
       <use style="stroke:#000000;stroke-width:0.8;" x="45" xlink:href="#mcf25b4c76a" y="125.28"/>
      </g>
     </g>
     <g id="text_11">
      <!-- 0.6 -->
      <g transform="translate(22.096875 129.079219)scale(0.1 -0.1)">
       <use xlink:href="#DejaVuSans-30"/>
       <use x="63.623047" xlink:href="#DejaVuSans-2e"/>
       <use x="95.410156" xlink:href="#DejaVuSans-36"/>
      </g>
     </g>
    </g>
    <g id="ytick_5">
     <g id="line2d_11">
      <g>
       <use style="stroke:#000000;stroke-width:0.8;" x="45" xlink:href="#mcf25b4c76a" y="84.96"/>
      </g>
     </g>
     <g id="text_12">
      <!-- 0.8 -->
      <g transform="translate(22.096875 88.759219)scale(0.1 -0.1)">
       <use xlink:href="#DejaVuSans-30"/>
       <use x="63.623047" xlink:href="#DejaVuSans-2e"/>
       <use x="95.410156" xlink:href="#DejaVuSans-38"/>
      </g>
     </g>
    </g>
    <g id="ytick_6">
     <g id="line2d_12">
      <g>
       <use style="stroke:#000000;stroke-width:0.8;" x="45" xlink:href="#mcf25b4c76a" y="44.64"/>
      </g>
     </g>
     <g id="text_13">
      <!-- 1.0 -->
      <g transform="translate(22.096875 48.439219)scale(0.1 -0.1)">
       <use xlink:href="#DejaVuSans-31"/>
       <use x="63.623047" xlink:href="#DejaVuSans-2e"/>
       <use x="95.410156" xlink:href="#DejaVuSans-30"/>
      </g>
     </g>
    </g>
    <g id="text_14">
     <!-- tpr -->
     <g transform="translate(16.017187 152.629844)rotate(-90)scale(0.1 -0.1)">
      <defs>
       <path d="M 1172 4494 
L 1172 3500 
L 2356 3500 
L 2356 3053 
L 1172 3053 
L 1172 1153 
Q 1172 725 1289 603 
Q 1406 481 1766 481 
L 2356 481 
L 2356 0 
L 1766 0 
Q 1100 0 847 248 
Q 594 497 594 1153 
L 594 3053 
L 172 3053 
L 172 3500 
L 594 3500 
L 594 4494 
L 1172 4494 
z
" id="DejaVuSans-74" transform="scale(0.015625)"/>
      </defs>
      <use xlink:href="#DejaVuSans-74"/>
      <use x="39.208984" xlink:href="#DejaVuSans-70"/>
      <use x="102.685547" xlink:href="#DejaVuSans-72"/>
     </g>
    </g>
   </g>
   <g id="line2d_13">
    <path clip-path="url(#p2ba4699512)" d="M 57.681818 246.24 
L 58.969748 246.24 
L 58.969748 242.436226 
L 59.313196 242.436226 
L 59.313196 240.53434 
L 61.116298 240.53434 
L 61.116298 238.632453 
L 61.63147 238.632453 
L 61.63147 236.730566 
L 63.692159 236.730566 
L 63.692159 234.828679 
L 65.323537 234.828679 
L 65.323537 232.926792 
L 66.353881 232.926792 
L 66.439743 229.123019 
L 69.616637 229.123019 
L 69.616637 227.221132 
L 72.707669 227.221132 
L 72.707669 225.319245 
L 75.369391 225.319245 
L 75.455253 221.515472 
L 75.626977 221.515472 
L 75.626977 217.711698 
L 77.515941 217.711698 
L 77.515941 215.809811 
L 78.116975 215.809811 
L 78.116975 213.907925 
L 80.349388 213.907925 
L 80.349388 212.006038 
L 81.122146 212.006038 
L 81.122146 210.104151 
L 85.758694 210.104151 
L 85.758694 208.202264 
L 87.475934 208.202264 
L 87.475934 206.300377 
L 90.910414 206.300377 
L 90.910414 204.398491 
L 96.405583 204.398491 
L 96.405583 202.496604 
L 97.092479 202.496604 
L 97.092479 200.594717 
L 98.981443 200.594717 
L 98.981443 198.69283 
L 99.239029 198.69283 
L 99.239029 196.790943 
L 99.410753 196.790943 
L 99.410753 194.889057 
L 102.244199 194.889057 
L 102.244199 192.98717 
L 104.219025 192.98717 
L 104.219025 191.085283 
L 104.734197 191.085283 
L 104.734197 189.183396 
L 105.764541 189.183396 
L 105.764541 187.281509 
L 107.567643 187.281509 
L 107.567643 185.379623 
L 108.340401 185.379623 
L 108.340401 183.477736 
L 108.941435 183.477736 
L 108.941435 181.575849 
L 109.542469 181.575849 
L 109.542469 179.673962 
L 110.572813 179.673962 
L 110.572813 177.772075 
L 111.431433 177.772075 
L 111.431433 175.870189 
L 114.951776 175.870189 
L 114.951776 173.968302 
L 116.84074 173.968302 
L 116.84074 172.066415 
L 118.729704 172.066415 
L 118.729704 170.164528 
L 119.159014 170.164528 
L 119.159014 168.262642 
L 120.017634 168.262642 
L 120.017634 166.360755 
L 123.881424 166.360755 
L 123.881424 164.458868 
L 124.224872 164.458868 
L 124.224872 160.655094 
L 125.083492 160.655094 
L 125.083492 158.753208 
L 125.770388 158.753208 
L 125.770388 156.851321 
L 127.14418 156.851321 
L 127.14418 154.949434 
L 128.346249 154.949434 
L 128.346249 153.047547 
L 130.321075 153.047547 
L 130.321075 151.14566 
L 132.896935 151.14566 
L 132.896935 149.243774 
L 133.927279 149.243774 
L 133.927279 147.341887 
L 142.942789 147.341887 
L 142.942789 145.44 
L 144.66003 145.44 
L 144.66003 143.538113 
L 146.205546 143.538113 
L 146.205546 139.73434 
L 147.922786 139.73434 
L 147.922786 137.832453 
L 159.68588 137.832453 
L 159.68588 135.930566 
L 161.059673 135.930566 
L 161.059673 134.028679 
L 162.175879 134.028679 
L 162.175879 132.126792 
L 164.751739 132.126792 
L 164.751739 130.224906 
L 170.161045 130.224906 
L 170.161045 128.323019 
L 171.620699 128.323019 
L 171.620699 126.421132 
L 172.479319 126.421132 
L 172.479319 124.519245 
L 172.994491 124.519245 
L 172.994491 122.617358 
L 173.423801 122.617358 
L 173.423801 120.715472 
L 180.979658 120.715472 
L 180.979658 118.813585 
L 182.78276 118.813585 
L 182.868622 115.009811 
L 183.813104 115.009811 
L 183.813104 111.206038 
L 184.07069 111.206038 
L 184.07069 109.304151 
L 187.93448 109.304151 
L 187.93448 107.402264 
L 192.914477 107.402264 
L 192.914477 105.500377 
L 193.086201 105.500377 
L 193.086201 103.598491 
L 200.384471 103.598491 
L 200.384471 101.696604 
L 201.328953 101.696604 
L 201.328953 97.89283 
L 203.475503 97.89283 
L 203.475503 95.990943 
L 204.849295 95.990943 
L 204.849295 94.089057 
L 206.137225 94.089057 
L 206.137225 92.18717 
L 220.390318 92.18717 
L 220.390318 90.285283 
L 222.794454 90.285283 
L 222.794454 86.481509 
L 224.941004 86.481509 
L 224.941004 84.579623 
L 225.627901 84.579623 
L 225.627901 82.677736 
L 228.633071 82.677736 
L 228.633071 80.775849 
L 238.163753 80.775849 
L 238.249615 76.972075 
L 239.279959 76.972075 
L 239.279959 75.070189 
L 242.370992 75.070189 
L 242.370992 73.168302 
L 243.830646 73.168302 
L 243.830646 71.266415 
L 250.184434 71.266415 
L 250.184434 69.364528 
L 257.139256 69.364528 
L 257.139256 67.462642 
L 259.629255 67.462642 
L 259.629255 65.560755 
L 261.003047 65.560755 
L 261.003047 63.658868 
L 269.417523 63.658868 
L 269.417523 61.756981 
L 270.018557 61.756981 
L 270.018557 59.855094 
L 271.649935 59.855094 
L 271.649935 57.953208 
L 273.96821 57.953208 
L 273.96821 56.051321 
L 274.139934 56.051321 
L 274.139934 54.149434 
L 288.13544 54.149434 
L 288.13544 52.247547 
L 288.908198 52.247547 
L 288.908198 50.34566 
L 290.110267 50.34566 
L 290.110267 48.443774 
L 292.256817 48.443774 
L 292.256817 46.541887 
L 308.570598 46.541887 
L 308.570598 44.64 
L 311.318182 44.64 
L 311.318182 44.64 
" style="fill:none;stroke:#1f77b4;stroke-linecap:square;stroke-width:1.5;"/>
   </g>
   <g id="line2d_14">
    <path clip-path="url(#p2ba4699512)" d="M 57.681818 246.24 
L 57.681818 240.367172 
L 57.919083 240.367172 
L 57.919083 239.557127 
L 58.156348 239.557127 
L 58.156348 235.203134 
L 58.393613 235.203134 
L 58.393613 234.798112 
L 58.630878 234.798112 
L 58.630878 233.785555 
L 59.105409 233.785555 
L 59.105409 233.279277 
L 59.342674 233.279277 
L 59.342674 227.60896 
L 59.817204 227.60896 
L 59.817204 227.001426 
L 60.054469 227.001426 
L 60.054469 225.178825 
L 60.528999 225.077569 
L 60.528999 223.153712 
L 62.42712 223.052456 
L 62.42712 222.242411 
L 62.664385 222.242411 
L 62.664385 221.938644 
L 63.37618 221.837388 
L 63.37618 221.33111 
L 63.85071 221.229854 
L 63.85071 220.723576 
L 64.087975 220.723576 
L 64.087975 219.812275 
L 64.32524 219.812275 
L 64.32524 219.00223 
L 64.562505 219.00223 
L 64.562505 218.698463 
L 64.79977 218.698463 
L 64.79977 217.179628 
L 65.037035 217.179628 
L 65.037035 216.470839 
L 65.274301 216.470839 
L 65.274301 215.154515 
L 65.511566 215.154515 
L 65.511566 214.648237 
L 65.748831 214.648237 
L 65.748831 214.445726 
L 65.986096 214.445726 
L 65.986096 214.243214 
L 66.223361 214.243214 
L 66.223361 213.129402 
L 66.697891 213.129402 
L 66.697891 212.825635 
L 67.172421 212.72438 
L 67.172421 212.521868 
L 67.884216 212.420613 
L 67.884216 211.205545 
L 68.121481 211.205545 
L 68.121481 210.901778 
L 68.596012 210.800522 
L 68.596012 210.699267 
L 68.833277 210.699267 
L 68.833277 209.68671 
L 69.070542 209.68671 
L 69.070542 209.484199 
L 69.307807 209.484199 
L 69.307807 208.370387 
L 69.782337 208.370387 
L 69.782337 207.35783 
L 70.019602 207.35783 
L 70.019602 207.155319 
L 70.256867 207.155319 
L 70.256867 206.952808 
L 70.494132 206.952808 
L 70.494132 206.345274 
L 70.731397 206.345274 
L 70.731397 205.73774 
L 70.968662 205.73774 
L 70.968662 205.535229 
L 71.205927 205.535229 
L 71.205927 205.231462 
L 71.443192 205.231462 
L 71.443192 204.320161 
L 71.680458 204.320161 
L 71.680458 203.915138 
L 71.917723 203.915138 
L 71.917723 203.307604 
L 72.154988 203.307604 
L 72.154988 202.598815 
L 72.629518 202.497559 
L 72.629518 201.788769 
L 72.866783 201.788769 
L 72.866783 201.485003 
L 73.104048 201.485003 
L 73.104048 201.181236 
L 73.578578 201.07998 
L 73.578578 200.776213 
L 73.815843 200.776213 
L 73.815843 199.358634 
L 74.290373 199.358634 
L 74.290373 199.054867 
L 74.527638 199.054867 
L 74.527638 198.852356 
L 74.764903 198.852356 
L 74.764903 198.244822 
L 75.002169 198.244822 
L 75.002169 197.434776 
L 75.239434 197.434776 
L 75.239434 196.725987 
L 75.713964 196.725987 
L 75.713964 196.523476 
L 75.951229 196.523476 
L 75.951229 196.320964 
L 76.188494 196.320964 
L 76.188494 195.612175 
L 76.425759 195.612175 
L 76.425759 194.903385 
L 77.137554 194.80213 
L 77.137554 193.890829 
L 77.374819 193.890829 
L 77.374819 193.485806 
L 78.086615 193.38455 
L 78.086615 192.878272 
L 78.561145 192.777017 
L 78.561145 192.574505 
L 78.79841 192.574505 
L 78.79841 192.169483 
L 79.27294 192.169483 
L 79.27294 191.966971 
L 79.984735 191.966971 
L 79.984735 191.258182 
L 80.222 191.258182 
L 80.222 190.549392 
L 80.933795 190.448137 
L 80.933795 189.941858 
L 81.645591 189.840603 
L 81.645591 188.625535 
L 82.120121 188.625535 
L 82.120121 187.81549 
L 82.831916 187.81549 
L 82.831916 187.511723 
L 83.069181 187.511723 
L 83.069181 187.309211 
L 83.543711 187.207956 
L 83.543711 186.499166 
L 83.780976 186.499166 
L 83.780976 185.790377 
L 84.255506 185.790377 
L 84.255506 185.385354 
L 84.730037 185.284098 
L 84.730037 184.879076 
L 85.441832 184.879076 
L 85.441832 184.676565 
L 85.679097 184.676565 
L 85.679097 184.271542 
L 85.916362 184.271542 
L 85.916362 183.664008 
L 86.153627 183.664008 
L 86.153627 183.15773 
L 86.390892 183.15773 
L 86.390892 182.955218 
L 86.628157 182.955218 
L 86.628157 181.436384 
L 87.102687 181.436384 
L 87.102687 181.233872 
L 87.339952 181.233872 
L 87.339952 180.727594 
L 87.577217 180.727594 
L 87.577217 179.310015 
L 87.814483 179.310015 
L 87.814483 178.49997 
L 88.051748 178.49997 
L 88.051748 178.297459 
L 88.289013 178.297459 
L 88.289013 177.689925 
L 88.763543 177.588669 
L 88.763543 176.981135 
L 89.475338 176.879879 
L 89.475338 176.778624 
L 89.712603 176.778624 
L 89.712603 176.272346 
L 90.424398 176.17109 
L 90.424398 176.069834 
L 91.847989 175.968579 
L 91.847989 175.664812 
L 92.322519 175.664812 
L 92.322519 175.361045 
L 93.271579 175.361045 
L 93.271579 175.057278 
L 93.508844 175.057278 
L 93.508844 174.854766 
L 94.22064 174.854766 
L 94.22064 174.550999 
L 94.457905 174.550999 
L 94.457905 172.424631 
L 94.69517 172.424631 
L 94.69517 171.817097 
L 95.406965 171.715841 
L 95.406965 171.209563 
L 95.881495 171.108307 
L 95.881495 169.386961 
L 96.11876 169.386961 
L 96.11876 168.576916 
L 96.356025 168.576916 
L 96.356025 167.868127 
L 96.59329 167.868127 
L 96.59329 167.463104 
L 96.830555 167.463104 
L 96.830555 166.956826 
L 97.06782 166.956826 
L 97.06782 166.248036 
L 97.305085 166.248036 
L 97.305085 166.045525 
L 97.542351 166.045525 
L 97.542351 165.539247 
L 97.779616 165.539247 
L 97.779616 164.830457 
L 98.016881 164.830457 
L 98.016881 164.121668 
L 98.254146 164.121668 
L 98.254146 163.817901 
L 98.491411 163.817901 
L 98.491411 163.514134 
L 98.728676 163.514134 
L 98.728676 162.704088 
L 98.965941 162.704088 
L 98.965941 162.501577 
L 99.203206 162.501577 
L 99.203206 162.299066 
L 99.677736 162.19781 
L 99.677736 162.096554 
L 99.915001 162.096554 
L 99.915001 161.894043 
L 100.389531 161.894043 
L 100.389531 161.691532 
L 100.626796 161.691532 
L 100.626796 160.881487 
L 100.864062 160.881487 
L 100.864062 160.57772 
L 101.101327 160.57772 
L 101.101327 160.375208 
L 101.338592 160.375208 
L 101.338592 160.071441 
L 101.813122 160.071441 
L 101.813122 159.261396 
L 102.050387 159.261396 
L 102.050387 158.957629 
L 102.762182 158.856374 
L 102.762182 158.552607 
L 103.236712 158.451351 
L 103.236712 158.24884 
L 103.711242 158.147584 
L 103.711242 158.046328 
L 104.185773 157.945073 
L 104.185773 157.337539 
L 104.897568 157.236283 
L 104.897568 157.135028 
L 105.134833 157.135028 
L 105.134833 155.91996 
L 105.846628 155.91996 
L 105.846628 155.312426 
L 106.795688 155.21117 
L 106.795688 155.008659 
L 107.032953 155.008659 
L 107.032953 154.603636 
L 107.507484 154.502381 
L 107.507484 154.401125 
L 107.744749 154.401125 
L 107.744749 154.198614 
L 107.982014 154.198614 
L 107.982014 153.996102 
L 108.456544 153.894847 
L 108.456544 152.781035 
L 108.693809 152.781035 
L 108.693809 152.072245 
L 108.931074 152.072245 
L 108.931074 151.667223 
L 109.405604 151.667223 
L 109.405604 151.363456 
L 109.880134 151.363456 
L 109.880134 150.755922 
L 110.354665 150.654666 
L 110.354665 150.55341 
L 110.829195 150.452155 
L 110.829195 150.350899 
L 111.778255 150.249643 
L 111.778255 149.743365 
L 112.252785 149.743365 
L 112.252785 148.93332 
L 112.96458 148.832064 
L 112.96458 148.730809 
L 113.201845 148.730809 
L 113.201845 148.528297 
L 114.388171 148.528297 
L 114.388171 147.920763 
L 114.625436 147.920763 
L 114.625436 147.616996 
L 114.862701 147.616996 
L 114.862701 147.31323 
L 115.099966 147.31323 
L 115.099966 147.110718 
L 115.574496 147.110718 
L 115.574496 146.806951 
L 116.286291 146.806951 
L 116.286291 146.60444 
L 117.235352 146.503184 
L 117.235352 145.693139 
L 117.472617 145.693139 
L 117.472617 145.490628 
L 117.709882 145.490628 
L 117.709882 144.680583 
L 117.947147 144.680583 
L 117.947147 143.769282 
L 118.658942 143.769282 
L 118.658942 143.161748 
L 119.370737 143.161748 
L 119.370737 142.65547 
L 119.608002 142.65547 
L 119.608002 142.250447 
L 119.845267 142.250447 
L 119.845267 141.035379 
L 120.794328 140.934124 
L 120.794328 140.832868 
L 121.031593 140.832868 
L 121.031593 140.630357 
L 121.506123 140.630357 
L 121.506123 140.225334 
L 121.980653 140.225334 
L 121.980653 139.921567 
L 122.217918 139.921567 
L 122.217918 138.605244 
L 122.455183 138.605244 
L 122.455183 138.402732 
L 122.692448 138.402732 
L 122.692448 138.200221 
L 123.404244 138.098965 
L 123.404244 137.99771 
L 123.641509 137.99771 
L 123.641509 137.592687 
L 124.353304 137.491431 
L 124.353304 137.28892 
L 124.827834 137.28892 
L 124.827834 136.985153 
L 125.065099 136.985153 
L 125.065099 136.681386 
L 126.014159 136.580131 
L 126.014159 135.972597 
L 126.251424 135.972597 
L 126.251424 135.061296 
L 126.725955 134.96004 
L 126.725955 134.757529 
L 127.200485 134.656273 
L 127.200485 134.251251 
L 127.675015 134.149995 
L 127.675015 133.846228 
L 128.149545 133.744972 
L 128.149545 133.643717 
L 128.38681 133.643717 
L 128.38681 133.441205 
L 128.86134 133.33995 
L 128.86134 133.137438 
L 129.573135 133.036183 
L 129.573135 132.529905 
L 130.047666 132.428649 
L 130.047666 132.226138 
L 130.284931 132.226138 
L 130.284931 132.023626 
L 130.759461 131.922371 
L 130.759461 131.618604 
L 130.996726 131.618604 
L 130.996726 131.112325 
L 131.233991 131.112325 
L 131.233991 130.606047 
L 131.471256 130.606047 
L 131.471256 129.087212 
L 131.945786 128.985957 
L 131.945786 128.479679 
L 132.183051 128.479679 
L 132.183051 128.074656 
L 132.894847 128.074656 
L 132.894847 127.872145 
L 133.132112 127.872145 
L 133.132112 126.758332 
L 133.606642 126.657077 
L 133.606642 126.35331 
L 133.843907 126.35331 
L 133.843907 126.150799 
L 134.318437 126.049543 
L 134.318437 125.948287 
L 135.030232 125.948287 
L 135.030232 125.64452 
L 135.267497 125.64452 
L 135.267497 124.935731 
L 135.504762 124.935731 
L 135.504762 124.530708 
L 135.742027 124.530708 
L 135.742027 124.125686 
L 136.216558 124.125686 
L 136.216558 123.720663 
L 136.453823 123.720663 
L 136.453823 123.416896 
L 136.691088 123.416896 
L 136.691088 122.910618 
L 136.928353 122.910618 
L 136.928353 122.505595 
L 137.165618 122.505595 
L 137.165618 122.201828 
L 137.640148 122.201828 
L 137.640148 121.796806 
L 138.351943 121.69555 
L 138.351943 121.290527 
L 138.589208 121.290527 
L 138.589208 121.088016 
L 139.063738 121.088016 
L 139.063738 120.885505 
L 139.775534 120.784249 
L 139.775534 120.581738 
L 140.012799 120.581738 
L 140.012799 120.379227 
L 140.487329 120.379227 
L 140.487329 120.176715 
L 140.961859 120.07546 
L 140.961859 119.872948 
L 142.385449 119.872948 
L 142.385449 118.65788 
L 142.85998 118.65788 
L 142.85998 118.354114 
L 143.33451 118.252858 
L 143.33451 117.74658 
L 143.571775 117.74658 
L 143.571775 116.835279 
L 144.046305 116.734023 
L 144.046305 116.126489 
L 144.28357 116.126489 
L 144.28357 115.923978 
L 144.7581 115.923978 
L 144.7581 115.721467 
L 145.469895 115.721467 
L 145.469895 115.4177 
L 145.944426 115.4177 
L 145.944426 115.012677 
L 146.418956 114.911421 
L 146.418956 114.810166 
L 146.656221 114.810166 
L 146.656221 114.607654 
L 147.130751 114.607654 
L 147.130751 114.303887 
L 147.368016 114.303887 
L 147.368016 114.000121 
L 148.317076 113.898865 
L 148.317076 113.696354 
L 148.791606 113.595098 
L 148.791606 113.493842 
L 149.028872 113.493842 
L 149.028872 113.291331 
L 149.503402 113.190075 
L 149.503402 112.987564 
L 150.215197 112.886308 
L 150.215197 112.785053 
L 150.926992 112.785053 
L 150.926992 112.582541 
L 151.164257 112.582541 
L 151.164257 112.278774 
L 151.401522 112.278774 
L 151.401522 111.975008 
L 151.638787 111.975008 
L 151.638787 111.671241 
L 151.876052 111.671241 
L 151.876052 110.456173 
L 152.113317 110.456173 
L 152.113317 110.253661 
L 152.350583 110.253661 
L 152.350583 109.949895 
L 153.062378 109.848639 
L 153.062378 109.747383 
L 153.299643 109.747383 
L 153.299643 109.443616 
L 153.536908 109.443616 
L 153.536908 109.241105 
L 154.011438 109.139849 
L 154.011438 108.532315 
L 154.248703 108.532315 
L 154.248703 108.026037 
L 154.723233 107.924782 
L 154.723233 107.823526 
L 155.197763 107.72227 
L 155.197763 107.317248 
L 155.435028 107.317248 
L 155.435028 107.114736 
L 155.672294 107.114736 
L 155.672294 106.507202 
L 156.384089 106.405947 
L 156.384089 106.304691 
L 156.621354 106.304691 
L 156.621354 106.10218 
L 157.333149 106.10218 
L 157.333149 105.595902 
L 157.570414 105.595902 
L 157.570414 105.39339 
L 158.044944 105.39339 
L 158.044944 104.988368 
L 158.282209 104.988368 
L 158.282209 104.785856 
L 158.994005 104.785856 
L 158.994005 104.583345 
L 159.7058 104.482089 
L 159.7058 104.077067 
L 159.943065 104.077067 
L 159.943065 103.874555 
L 160.18033 103.874555 
L 160.18033 103.570789 
L 160.65486 103.469533 
L 160.65486 103.06451 
L 161.12939 103.06451 
L 161.12939 102.558232 
L 161.841185 102.456976 
L 161.841185 102.051954 
L 162.078451 102.051954 
L 162.078451 101.748187 
L 163.027511 101.646931 
L 163.027511 101.545676 
L 163.264776 101.545676 
L 163.264776 101.039397 
L 163.739306 100.938142 
L 163.739306 100.229352 
L 163.976571 100.229352 
L 163.976571 99.925585 
L 164.213836 99.925585 
L 164.213836 99.723074 
L 164.688366 99.723074 
L 164.688366 99.318051 
L 164.925631 99.318051 
L 164.925631 98.913029 
L 165.400162 98.811773 
L 165.400162 98.609262 
L 165.874692 98.609262 
L 165.874692 98.40675 
L 166.111957 98.40675 
L 166.111957 98.001728 
L 166.586487 98.001728 
L 166.586487 97.697961 
L 166.823752 97.697961 
L 166.823752 97.49545 
L 167.772812 97.394194 
L 167.772812 97.292938 
L 168.484608 97.191683 
L 168.484608 97.090427 
L 168.721873 97.090427 
L 168.721873 96.78666 
L 168.959138 96.78666 
L 168.959138 96.07787 
L 169.433668 95.976615 
L 169.433668 95.571592 
L 170.619993 95.470337 
L 170.619993 95.369081 
L 171.331788 95.267825 
L 171.331788 94.052757 
L 171.806319 94.052757 
L 171.806319 93.850246 
L 172.280849 93.74899 
L 172.280849 93.647735 
L 172.518114 93.647735 
L 172.518114 93.445224 
L 172.755379 93.445224 
L 172.755379 93.040201 
L 172.992644 93.040201 
L 172.992644 92.83769 
L 173.467174 92.736434 
L 173.467174 92.635178 
L 174.416234 92.533923 
L 174.416234 91.825133 
L 174.890765 91.723877 
L 174.890765 91.42011 
L 175.12803 91.42011 
L 175.12803 91.217599 
L 175.60256 91.217599 
L 175.60256 90.407554 
L 176.07709 90.306298 
L 176.07709 90.205043 
L 176.55162 90.205043 
L 176.55162 90.002531 
L 176.788885 90.002531 
L 176.788885 89.698764 
L 177.737945 89.597509 
L 177.737945 89.394997 
L 178.687006 89.293742 
L 178.687006 89.091231 
L 178.924271 89.091231 
L 178.924271 88.686208 
L 179.161536 88.686208 
L 179.161536 88.382441 
L 179.873331 88.281185 
L 179.873331 88.17993 
L 181.534187 88.078674 
L 181.534187 87.876163 
L 181.771452 87.876163 
L 181.771452 87.572396 
L 182.483247 87.47114 
L 182.483247 86.964862 
L 182.720512 86.964862 
L 182.720512 86.256072 
L 182.957777 86.256072 
L 182.957777 86.053561 
L 183.432307 86.053561 
L 183.432307 85.85105 
L 183.669572 85.85105 
L 183.669572 85.547283 
L 184.618633 85.446027 
L 184.618633 85.14226 
L 185.330428 85.041005 
L 185.330428 84.534726 
L 185.567693 84.534726 
L 185.567693 84.332215 
L 185.804958 84.332215 
L 185.804958 83.927192 
L 186.754018 83.825937 
L 186.754018 83.724681 
L 187.228548 83.623425 
L 187.228548 83.319658 
L 187.465813 83.319658 
L 187.465813 82.610869 
L 188.177609 82.509613 
L 188.177609 81.699568 
L 188.889404 81.598312 
L 188.889404 81.497057 
L 189.126669 81.497057 
L 189.126669 81.092034 
L 190.312994 80.990779 
L 190.312994 80.687012 
L 190.550259 80.687012 
L 190.550259 80.383245 
L 191.02479 80.383245 
L 191.02479 79.775711 
L 191.262055 79.775711 
L 191.262055 79.471944 
L 191.736585 79.370688 
L 191.736585 79.269432 
L 191.97385 79.269432 
L 191.97385 78.965665 
L 192.211115 78.965665 
L 192.211115 78.661899 
L 192.44838 78.661899 
L 192.44838 78.459387 
L 193.39744 78.358132 
L 193.39744 78.054365 
L 193.634705 78.054365 
L 193.634705 77.851853 
L 194.109235 77.851853 
L 194.109235 77.649342 
L 195.058296 77.548086 
L 195.058296 77.446831 
L 196.007356 77.345575 
L 196.007356 76.839297 
L 196.956416 76.839297 
L 196.956416 76.636786 
L 197.905477 76.636786 
L 197.905477 75.82674 
L 198.142742 75.82674 
L 198.142742 75.624229 
L 198.380007 75.624229 
L 198.380007 75.421718 
L 198.617272 75.421718 
L 198.617272 74.814184 
L 198.854537 74.814184 
L 198.854537 74.510417 
L 199.329067 74.510417 
L 199.329067 74.20665 
L 199.803597 74.20665 
L 199.803597 74.004139 
L 200.515392 73.902883 
L 200.515392 73.194093 
L 201.227188 73.194093 
L 201.227188 72.384048 
L 201.464453 72.384048 
L 201.464453 72.080281 
L 203.125308 71.979026 
L 203.125308 71.87777 
L 204.311634 71.776514 
L 204.311634 70.966469 
L 204.786164 70.865213 
L 204.786164 70.763958 
L 205.497959 70.662702 
L 205.497959 70.358935 
L 205.972489 70.25768 
L 205.972489 70.156424 
L 206.209754 70.156424 
L 206.209754 69.953913 
L 206.447019 69.953913 
L 206.447019 69.650146 
L 206.921549 69.54889 
L 206.921549 69.346379 
L 207.39608 69.245123 
L 207.39608 69.143867 
L 207.87061 69.042612 
L 207.87061 68.8401 
L 208.34514 68.738845 
L 208.34514 68.637589 
L 208.582405 68.637589 
L 208.582405 68.131311 
L 208.81967 68.131311 
L 208.81967 67.625033 
L 209.2942 67.625033 
L 209.2942 67.321266 
L 209.76873 67.321266 
L 209.76873 66.814987 
L 210.24326 66.814987 
L 210.24326 66.308709 
L 210.480526 66.308709 
L 210.480526 65.802431 
L 211.429586 65.802431 
L 211.429586 65.59992 
L 211.666851 65.59992 
L 211.666851 65.397408 
L 211.904116 65.397408 
L 211.904116 65.093641 
L 212.853176 64.992386 
L 212.853176 64.688619 
L 214.039502 64.587363 
L 214.039502 64.283596 
L 215.463092 64.182341 
L 215.463092 64.081085 
L 216.886683 63.979829 
L 216.886683 63.878574 
L 217.598478 63.777318 
L 217.598478 63.676062 
L 218.784803 63.676062 
L 218.784803 63.372295 
L 219.496598 63.27104 
L 219.496598 63.068528 
L 220.208394 62.967273 
L 220.208394 62.764761 
L 221.631984 62.663506 
L 221.631984 62.56225 
L 222.106514 62.56225 
L 222.106514 62.258483 
L 224.2419 62.157228 
L 224.2419 62.055972 
L 225.66549 61.954716 
L 225.66549 61.549694 
L 226.377285 61.549694 
L 226.377285 61.347182 
L 226.851816 61.347182 
L 226.851816 61.144671 
L 227.800876 61.043415 
L 227.800876 60.840904 
L 228.275406 60.739648 
L 228.275406 60.638393 
L 228.987201 60.638393 
L 228.987201 60.030859 
L 229.461731 60.030859 
L 229.461731 59.828348 
L 230.648057 59.727092 
L 230.648057 59.625836 
L 231.597117 59.524581 
L 231.597117 59.322069 
L 231.834382 59.322069 
L 231.834382 59.119558 
L 232.783442 59.018302 
L 232.783442 58.815791 
L 233.020708 58.815791 
L 233.020708 58.512024 
L 233.732503 58.410768 
L 233.732503 58.309513 
L 235.393358 58.208257 
L 235.393358 58.107002 
L 236.342419 58.005746 
L 236.342419 57.90449 
L 237.528744 57.803235 
L 237.528744 57.398212 
L 239.189599 57.398212 
L 239.189599 57.094445 
L 239.66413 57.094445 
L 239.66413 56.891934 
L 240.61319 56.891934 
L 240.61319 56.689422 
L 242.03678 56.588167 
L 242.03678 56.486911 
L 242.274045 56.486911 
L 242.274045 55.980633 
L 242.748576 55.980633 
L 242.748576 55.57561 
L 243.460371 55.57561 
L 243.460371 55.271843 
L 244.409431 55.170588 
L 244.409431 54.968076 
L 244.646696 54.968076 
L 244.646696 54.765565 
L 245.121226 54.664309 
L 245.121226 54.563054 
L 246.070287 54.461798 
L 246.070287 54.259287 
L 246.307552 54.259287 
L 246.307552 54.056775 
L 246.782082 54.056775 
L 246.782082 53.854264 
L 247.256612 53.753009 
L 247.256612 53.550497 
L 247.968407 53.449242 
L 247.968407 53.347986 
L 248.680202 53.24673 
L 248.680202 53.145475 
L 250.578323 53.044219 
L 250.578323 52.942963 
L 250.815588 52.942963 
L 250.815588 52.537941 
L 251.052853 52.537941 
L 251.052853 52.234174 
L 252.001913 52.132918 
L 252.001913 52.031662 
L 252.950974 52.031662 
L 252.950974 51.62664 
L 254.849094 51.62664 
L 254.849094 51.322873 
L 255.798155 51.221617 
L 255.798155 51.019106 
L 256.50995 50.91785 
L 256.50995 50.816595 
L 256.98448 50.816595 
L 256.98448 50.614083 
L 257.93354 50.512828 
L 257.93354 50.310316 
L 258.882601 50.209061 
L 258.882601 50.006549 
L 259.594396 49.905294 
L 259.594396 49.804038 
L 260.068926 49.804038 
L 260.068926 49.601527 
L 260.780721 49.500271 
L 260.780721 49.399016 
L 261.967047 49.29776 
L 261.967047 49.095249 
L 263.865167 48.993993 
L 263.865167 48.892737 
L 265.051492 48.791482 
L 265.051492 48.690226 
L 265.763288 48.690226 
L 265.763288 48.487715 
L 266.000553 48.487715 
L 266.000553 48.285203 
L 266.475083 48.285203 
L 266.475083 47.981436 
L 267.186878 47.981436 
L 267.186878 47.778925 
L 269.084999 47.67767 
L 269.084999 47.576414 
L 271.93218 47.475158 
L 271.93218 47.373903 
L 275.253891 47.272647 
L 275.253891 47.171391 
L 279.761927 47.070136 
L 279.761927 46.96888 
L 280.236457 46.867624 
L 280.236457 46.766369 
L 283.795433 46.665113 
L 283.795433 46.563857 
L 290.438855 46.462602 
L 290.438855 46.361346 
L 290.913385 46.26009 
L 290.913385 46.158835 
L 293.048771 46.057579 
L 293.048771 45.956323 
L 295.184157 45.855068 
L 295.184157 45.753812 
L 298.031338 45.652557 
L 298.031338 45.551301 
L 299.454928 45.450045 
L 299.454928 45.34879 
L 300.403988 45.247534 
L 300.403988 45.146278 
L 303.013904 45.045023 
L 303.013904 44.943767 
L 307.996471 44.842511 
L 307.996471 44.741256 
L 311.318182 44.64 
L 311.318182 44.64 
" style="fill:none;stroke:#ff7f0e;stroke-linecap:square;stroke-width:1.5;"/>
   </g>
   <g id="line2d_15">
    <path clip-path="url(#p2ba4699512)" d="M 57.681818 246.24 
L 57.681818 243.099813 
L 57.80277 243.099813 
L 57.80277 237.238131 
L 57.923722 237.238131 
L 57.923722 232.004486 
L 58.165626 232.004486 
L 58.165626 228.864299 
L 58.286578 228.864299 
L 58.286578 222.165234 
L 58.40753 222.165234 
L 58.40753 219.234393 
L 58.528482 219.234393 
L 58.528482 217.140935 
L 58.770386 217.140935 
L 58.770386 214.628785 
L 58.891338 214.628785 
L 58.891338 213.163364 
L 59.01229 213.163364 
L 59.01229 211.697944 
L 59.254194 211.697944 
L 59.254194 209.813832 
L 59.375146 209.813832 
L 59.375146 206.464299 
L 59.496098 206.464299 
L 59.496098 205.836262 
L 59.61705 205.836262 
L 59.61705 204.998879 
L 59.738002 204.998879 
L 59.738002 204.789533 
L 59.979906 204.789533 
L 59.979906 203.533458 
L 60.100858 203.533458 
L 60.100858 202.277383 
L 60.22181 202.277383 
L 60.22181 199.974579 
L 60.342762 199.974579 
L 60.342762 198.090467 
L 60.463714 198.090467 
L 60.463714 197.671776 
L 60.584666 197.671776 
L 60.584666 197.46243 
L 60.705618 197.46243 
L 60.705618 197.253084 
L 60.82657 197.253084 
L 60.82657 196.834393 
L 61.068474 196.834393 
L 61.068474 195.997009 
L 61.310378 195.997009 
L 61.310378 195.787664 
L 61.43133 195.787664 
L 61.43133 195.578318 
L 61.673234 195.578318 
L 61.673234 195.368972 
L 61.915139 195.368972 
L 61.915139 194.740935 
L 62.036091 194.740935 
L 62.036091 194.531589 
L 62.157043 194.531589 
L 62.157043 194.322243 
L 62.277995 194.322243 
L 62.277995 193.903551 
L 62.882755 193.903551 
L 62.882755 193.48486 
L 63.608467 193.48486 
L 63.608467 193.066168 
L 63.729419 193.066168 
L 63.729419 192.647477 
L 63.971323 192.647477 
L 63.971323 192.438131 
L 64.213227 192.438131 
L 64.213227 192.019439 
L 64.697035 192.019439 
L 64.697035 191.810093 
L 64.817987 191.810093 
L 64.817987 190.763364 
L 65.301795 190.763364 
L 65.301795 190.554019 
L 65.422747 190.554019 
L 65.422747 190.344673 
L 65.543699 190.344673 
L 65.543699 190.135327 
L 65.664651 190.135327 
L 65.664651 189.716636 
L 65.785603 189.716636 
L 65.785603 189.297944 
L 66.027507 189.297944 
L 66.027507 189.088598 
L 66.148459 189.088598 
L 66.148459 188.879252 
L 66.269411 188.879252 
L 66.269411 188.460561 
L 66.390363 188.460561 
L 66.390363 188.251215 
L 66.995123 188.251215 
L 66.995123 186.576449 
L 67.237027 186.576449 
L 67.237027 186.157757 
L 67.357979 186.157757 
L 67.357979 185.948411 
L 67.478931 185.948411 
L 67.478931 185.739065 
L 67.720835 185.739065 
L 67.720835 185.111028 
L 67.841787 185.111028 
L 67.841787 184.901682 
L 67.962739 184.901682 
L 67.962739 184.273645 
L 68.325595 184.273645 
L 68.325595 183.436262 
L 68.688451 183.436262 
L 68.688451 181.970841 
L 68.930355 181.970841 
L 68.930355 181.133458 
L 69.172259 181.133458 
L 69.172259 180.296075 
L 69.414163 180.296075 
L 69.414163 179.668037 
L 69.656067 179.668037 
L 69.656067 179.458692 
L 69.897971 179.458692 
L 69.897971 179.249346 
L 70.018923 179.249346 
L 70.018923 179.04 
L 70.139875 179.04 
L 70.139875 178.411963 
L 70.381779 178.411963 
L 70.381779 177.993271 
L 70.502731 177.993271 
L 70.502731 177.783925 
L 70.623683 177.783925 
L 70.623683 177.574579 
L 71.107491 177.574579 
L 71.107491 177.365234 
L 71.470347 177.365234 
L 71.470347 176.737196 
L 71.591299 176.737196 
L 71.591299 175.06243 
L 71.712251 175.06243 
L 71.712251 174.853084 
L 71.833203 174.853084 
L 71.833203 174.643738 
L 71.954155 174.643738 
L 71.954155 174.434393 
L 72.196059 174.434393 
L 72.196059 173.387664 
L 72.317011 173.387664 
L 72.317011 172.131589 
L 72.800819 172.131589 
L 72.800819 171.922243 
L 72.921771 171.922243 
L 72.921771 171.712897 
L 73.526531 171.712897 
L 73.526531 171.503551 
L 73.647483 171.503551 
L 73.647483 171.294206 
L 73.889387 171.294206 
L 73.889387 170.875514 
L 74.494147 170.875514 
L 74.494147 170.247477 
L 75.21986 170.247477 
L 75.21986 169.619439 
L 75.340812 169.619439 
L 75.340812 169.410093 
L 75.461764 169.410093 
L 75.461764 169.200748 
L 75.945572 169.200748 
L 75.945572 168.363364 
L 76.42938 168.363364 
L 76.42938 167.944673 
L 76.671284 167.944673 
L 76.671284 167.735327 
L 76.792236 167.735327 
L 76.792236 167.525981 
L 77.03414 167.525981 
L 77.03414 167.316636 
L 77.276044 167.316636 
L 77.276044 167.10729 
L 77.396996 167.10729 
L 77.396996 166.269907 
L 77.759852 166.269907 
L 77.759852 165.223178 
L 78.24366 165.223178 
L 78.24366 165.013832 
L 78.364612 165.013832 
L 78.364612 164.59514 
L 78.606516 164.59514 
L 78.606516 164.176449 
L 79.816036 164.176449 
L 79.816036 163.967103 
L 80.541748 163.967103 
L 80.541748 163.757757 
L 80.783652 163.757757 
L 80.783652 163.12972 
L 81.26746 163.12972 
L 81.26746 162.920374 
L 81.509364 162.920374 
L 81.509364 162.711028 
L 82.114124 162.711028 
L 82.114124 162.501682 
L 82.235076 162.501682 
L 82.235076 162.292336 
L 82.47698 162.292336 
L 82.47698 162.082991 
L 82.839836 162.082991 
L 82.839836 161.873645 
L 82.960788 161.873645 
L 82.960788 161.664299 
L 83.08174 161.664299 
L 83.08174 160.826916 
L 83.202692 160.826916 
L 83.202692 160.61757 
L 83.323644 160.61757 
L 83.323644 160.408224 
L 83.565548 160.408224 
L 83.565548 159.780187 
L 83.6865 159.780187 
L 83.6865 159.15215 
L 83.807452 159.15215 
L 83.807452 158.524112 
L 84.049356 158.524112 
L 84.049356 158.314766 
L 84.29126 158.314766 
L 84.29126 158.105421 
L 84.412212 158.105421 
L 84.412212 157.686729 
L 84.89602 157.686729 
L 84.89602 157.058692 
L 85.016972 157.058692 
L 85.016972 156.64 
L 85.258876 156.64 
L 85.258876 156.011963 
L 85.379828 156.011963 
L 85.379828 155.802617 
L 85.742684 155.802617 
L 85.742684 155.174579 
L 86.10554 155.174579 
L 86.10554 154.755888 
L 86.347444 154.755888 
L 86.347444 154.337196 
L 86.468396 154.337196 
L 86.468396 153.709159 
L 86.589348 153.709159 
L 86.589348 153.081121 
L 86.952204 153.081121 
L 86.952204 152.871776 
L 87.798869 152.871776 
L 87.798869 152.453084 
L 88.403629 152.453084 
L 88.403629 152.034393 
L 88.766485 152.034393 
L 88.766485 151.825047 
L 88.887437 151.825047 
L 88.887437 151.615701 
L 89.129341 151.615701 
L 89.129341 150.987664 
L 89.250293 150.987664 
L 89.250293 150.568972 
L 89.371245 150.568972 
L 89.371245 149.731589 
L 89.492197 149.731589 
L 89.492197 149.522243 
L 90.459813 149.522243 
L 90.459813 149.103551 
L 90.580765 149.103551 
L 90.580765 148.894206 
L 90.701717 148.894206 
L 90.701717 148.68486 
L 91.064573 148.68486 
L 91.064573 148.266168 
L 91.427429 148.266168 
L 91.427429 148.056822 
L 91.790285 148.056822 
L 91.790285 147.847477 
L 92.395045 147.847477 
L 92.395045 147.638131 
L 92.515997 147.638131 
L 92.515997 147.428785 
L 93.120757 147.428785 
L 93.120757 147.219439 
L 93.483613 147.219439 
L 93.483613 147.010093 
L 93.725517 147.010093 
L 93.725517 146.800748 
L 94.088373 146.800748 
L 94.088373 146.591402 
L 94.451229 146.591402 
L 94.451229 146.17271 
L 94.935037 146.17271 
L 94.935037 145.754019 
L 95.055989 145.754019 
L 95.055989 145.335327 
L 95.297893 145.335327 
L 95.297893 144.916636 
L 95.781701 144.916636 
L 95.781701 144.70729 
L 95.902653 144.70729 
L 95.902653 144.497944 
L 96.023605 144.497944 
L 96.023605 144.079252 
L 96.265509 144.079252 
L 96.265509 143.869907 
L 96.507413 143.869907 
L 96.507413 143.660561 
L 96.870269 143.660561 
L 96.870269 143.241869 
L 97.233125 143.241869 
L 97.233125 143.032523 
L 97.354077 143.032523 
L 97.354077 142.404486 
L 97.716933 142.404486 
L 97.716933 141.985794 
L 97.837885 141.985794 
L 97.837885 141.567103 
L 98.079789 141.567103 
L 98.079789 141.357757 
L 98.442645 141.357757 
L 98.442645 141.148411 
L 100.135973 141.148411 
L 100.135973 140.939065 
L 100.256925 140.939065 
L 100.256925 140.311028 
L 100.377877 140.311028 
L 100.377877 139.892336 
L 101.829302 139.892336 
L 101.829302 139.682991 
L 102.071206 139.682991 
L 102.071206 139.473645 
L 102.192158 139.473645 
L 102.192158 139.264299 
L 102.31311 139.264299 
L 102.31311 139.054953 
L 102.434062 139.054953 
L 102.434062 138.845607 
L 103.038822 138.845607 
L 103.038822 138.636262 
L 103.159774 138.636262 
L 103.159774 137.380187 
L 103.643582 137.380187 
L 103.643582 137.170841 
L 103.764534 137.170841 
L 103.764534 136.961495 
L 103.885486 136.961495 
L 103.885486 136.542804 
L 104.248342 136.542804 
L 104.248342 136.333458 
L 104.369294 136.333458 
L 104.369294 136.124112 
L 104.853102 136.124112 
L 104.853102 135.705421 
L 105.457862 135.705421 
L 105.457862 135.496075 
L 105.578814 135.496075 
L 105.578814 134.449346 
L 106.062622 134.449346 
L 106.062622 134.24 
L 106.183574 134.24 
L 106.183574 134.030654 
L 106.304526 134.030654 
L 106.304526 133.821308 
L 106.54643 133.821308 
L 106.54643 133.611963 
L 106.788334 133.611963 
L 106.788334 133.402617 
L 108.239758 133.402617 
L 108.239758 132.983925 
L 108.723566 132.983925 
L 108.723566 132.565234 
L 108.844518 132.565234 
L 108.844518 131.937196 
L 109.328326 131.937196 
L 109.328326 131.72785 
L 109.449278 131.72785 
L 109.449278 131.518505 
L 109.691182 131.518505 
L 109.691182 131.099813 
L 109.812134 131.099813 
L 109.812134 130.890467 
L 109.933086 130.890467 
L 109.933086 130.26243 
L 110.054038 130.26243 
L 110.054038 130.053084 
L 110.295942 130.053084 
L 110.295942 129.843738 
L 110.416894 129.843738 
L 110.416894 129.634393 
L 111.021654 129.634393 
L 111.021654 129.425047 
L 111.142606 129.425047 
L 111.142606 129.215701 
L 112.110222 129.215701 
L 112.110222 128.797009 
L 112.231174 128.797009 
L 112.231174 128.587664 
L 112.473078 128.587664 
L 112.473078 128.378318 
L 112.59403 128.378318 
L 112.59403 127.540935 
L 112.714982 127.540935 
L 112.714982 127.331589 
L 112.956886 127.331589 
L 112.956886 127.122243 
L 113.19879 127.122243 
L 113.19879 126.912897 
L 113.561647 126.912897 
L 113.561647 126.703551 
L 113.803551 126.703551 
L 113.803551 126.075514 
L 113.924503 126.075514 
L 113.924503 125.866168 
L 114.045455 125.866168 
L 114.045455 125.656822 
L 114.650215 125.656822 
L 114.650215 125.028785 
L 115.013071 125.028785 
L 115.013071 124.610093 
L 115.254975 124.610093 
L 115.254975 124.400748 
L 115.375927 124.400748 
L 115.375927 124.191402 
L 115.738783 124.191402 
L 115.738783 123.563364 
L 115.859735 123.563364 
L 115.859735 123.354019 
L 116.101639 123.354019 
L 116.101639 122.516636 
L 116.464495 122.516636 
L 116.464495 122.097944 
L 116.585447 122.097944 
L 116.585447 121.679252 
L 116.827351 121.679252 
L 116.827351 121.469907 
L 117.190207 121.469907 
L 117.190207 120.841869 
L 117.553063 120.841869 
L 117.553063 120.632523 
L 117.794967 120.632523 
L 117.794967 120.423178 
L 118.036871 120.423178 
L 118.036871 120.213832 
L 118.157823 120.213832 
L 118.157823 119.585794 
L 118.399727 119.585794 
L 118.399727 119.376449 
L 118.762583 119.376449 
L 118.762583 119.167103 
L 119.367343 119.167103 
L 119.367343 118.748411 
L 119.730199 118.748411 
L 119.730199 118.539065 
L 119.851151 118.539065 
L 119.851151 117.282991 
L 120.334959 117.282991 
L 120.334959 117.073645 
L 120.697815 117.073645 
L 120.697815 116.654953 
L 120.939719 116.654953 
L 120.939719 116.026916 
L 121.302575 116.026916 
L 121.302575 115.81757 
L 121.907335 115.81757 
L 121.907335 115.608224 
L 122.512095 115.608224 
L 122.512095 115.398879 
L 122.753999 115.398879 
L 122.753999 115.189533 
L 123.600663 115.189533 
L 123.600663 114.980187 
L 123.721615 114.980187 
L 123.721615 114.561495 
L 123.842567 114.561495 
L 123.842567 114.35215 
L 123.963519 114.35215 
L 123.963519 114.142804 
L 124.084471 114.142804 
L 124.084471 113.933458 
L 124.205423 113.933458 
L 124.205423 113.724112 
L 124.447327 113.724112 
L 124.447327 113.514766 
L 124.689231 113.514766 
L 124.689231 113.096075 
L 125.656847 113.096075 
L 125.656847 112.886729 
L 125.898751 112.886729 
L 125.898751 112.677383 
L 126.140655 112.677383 
L 126.140655 112.468037 
L 127.229224 112.468037 
L 127.229224 112.049346 
L 127.713032 112.049346 
L 127.713032 111.630654 
L 128.559696 111.630654 
L 128.559696 111.421308 
L 128.680648 111.421308 
L 128.680648 111.002617 
L 129.043504 111.002617 
L 129.043504 110.793271 
L 129.164456 110.793271 
L 129.164456 110.374579 
L 129.40636 110.374579 
L 129.40636 110.165234 
L 129.890168 110.165234 
L 129.890168 109.746542 
L 130.736832 109.746542 
L 130.736832 109.537196 
L 130.857784 109.537196 
L 130.857784 108.909159 
L 131.462544 108.909159 
L 131.462544 108.490467 
L 131.704448 108.490467 
L 131.704448 108.071776 
L 131.8254 108.071776 
L 131.8254 107.86243 
L 131.946352 107.86243 
L 131.946352 107.653084 
L 132.188256 107.653084 
L 132.188256 107.234393 
L 132.43016 107.234393 
L 132.43016 106.606355 
L 133.518728 106.606355 
L 133.518728 106.397009 
L 134.365392 106.397009 
L 134.365392 106.187664 
L 134.607296 106.187664 
L 134.607296 105.978318 
L 134.728248 105.978318 
L 134.728248 105.768972 
L 135.091104 105.768972 
L 135.091104 105.559626 
L 135.333008 105.559626 
L 135.333008 105.35028 
L 135.45396 105.35028 
L 135.45396 105.140935 
L 136.421576 105.140935 
L 136.421576 104.931589 
L 137.631096 104.931589 
L 137.631096 104.722243 
L 137.873 104.722243 
L 137.873 104.512897 
L 137.993952 104.512897 
L 137.993952 104.094206 
L 138.47776 104.094206 
L 138.47776 103.88486 
L 138.598712 103.88486 
L 138.598712 103.675514 
L 138.719664 103.675514 
L 138.719664 103.466168 
L 138.961568 103.466168 
L 138.961568 102.838131 
L 139.203472 102.838131 
L 139.203472 102.628785 
L 139.324425 102.628785 
L 139.324425 102.419439 
L 139.445377 102.419439 
L 139.566329 102.210093 
L 139.808233 102.210093 
L 139.808233 101.791402 
L 140.292041 101.791402 
L 140.292041 101.37271 
L 140.896801 101.37271 
L 140.896801 100.954019 
L 141.259657 100.954019 
L 141.259657 100.744673 
L 141.622513 100.744673 
L 141.622513 100.535327 
L 141.985369 100.535327 
L 141.985369 100.325981 
L 142.348225 100.325981 
L 142.348225 100.116636 
L 142.952985 100.116636 
L 142.952985 99.697944 
L 143.315841 99.697944 
L 143.315841 99.488598 
L 143.678697 99.488598 
L 143.678697 99.069907 
L 144.283457 99.069907 
L 144.283457 98.441869 
L 145.009169 98.441869 
L 145.009169 98.232523 
L 145.251073 98.232523 
L 145.251073 98.023178 
L 145.372025 98.023178 
L 145.372025 97.813832 
L 145.492977 97.813832 
L 145.492977 97.185794 
L 145.855833 97.185794 
L 145.855833 96.767103 
L 145.976785 96.767103 
L 145.976785 96.557757 
L 146.339641 96.557757 
L 146.339641 96.348411 
L 147.428209 96.348411 
L 147.428209 96.139065 
L 148.153921 96.139065 
L 148.153921 95.720374 
L 148.395825 95.720374 
L 148.395825 95.511028 
L 148.879633 95.511028 
L 148.879633 95.301682 
L 149.000585 95.301682 
L 149.000585 94.882991 
L 149.121537 94.882991 
L 149.121537 94.464299 
L 149.484393 94.464299 
L 149.484393 94.254953 
L 149.726297 94.254953 
L 149.726297 93.836262 
L 150.210105 93.836262 
L 150.210105 93.626916 
L 150.331057 93.626916 
L 150.331057 93.41757 
L 150.572961 93.41757 
L 150.572961 93.208224 
L 150.693913 93.208224 
L 150.693913 92.998879 
L 150.814865 92.998879 
L 150.814865 92.789533 
L 150.935817 92.789533 
L 150.935817 92.580187 
L 152.145337 92.580187 
L 152.145337 91.95215 
L 152.26629 91.95215 
L 152.26629 91.742804 
L 152.508194 91.742804 
L 152.508194 91.533458 
L 152.750098 91.533458 
L 152.750098 91.324112 
L 152.992002 91.324112 
L 152.992002 90.905421 
L 153.112954 90.905421 
L 153.112954 90.277383 
L 153.596762 90.277383 
L 153.596762 90.068037 
L 153.838666 90.068037 
L 153.838666 89.858692 
L 153.959618 89.858692 
L 153.959618 89.649346 
L 154.68533 89.649346 
L 154.68533 89.230654 
L 155.048186 89.230654 
L 155.048186 89.021308 
L 155.169138 89.021308 
L 155.169138 88.811963 
L 155.652946 88.811963 
L 155.652946 88.183925 
L 155.773898 88.183925 
L 155.773898 87.765234 
L 156.015802 87.765234 
L 156.015802 87.346542 
L 156.136754 87.346542 
L 156.136754 86.92785 
L 156.378658 86.92785 
L 156.378658 86.509159 
L 156.620562 86.509159 
L 156.620562 85.253084 
L 156.741514 85.253084 
L 156.741514 85.043738 
L 156.983418 85.043738 
L 156.983418 84.834393 
L 157.346274 84.834393 
L 157.346274 84.415701 
L 157.588178 84.415701 
L 157.588178 83.997009 
L 157.830082 83.997009 
L 157.830082 83.787664 
L 158.192938 83.787664 
L 158.192938 83.578318 
L 158.555794 83.578318 
L 158.555794 83.368972 
L 158.676746 83.368972 
L 158.676746 83.159626 
L 158.797698 83.159626 
L 158.797698 82.95028 
L 158.91865 82.95028 
L 158.91865 82.740935 
L 159.039602 82.740935 
L 159.039602 82.531589 
L 159.160554 82.531589 
L 159.160554 82.322243 
L 159.52341 82.322243 
L 159.52341 82.112897 
L 160.611978 82.112897 
L 160.611978 81.903551 
L 160.73293 81.903551 
L 160.73293 81.48486 
L 161.579594 81.48486 
L 161.579594 81.066168 
L 162.184354 81.066168 
L 162.184354 80.856822 
L 162.305306 80.856822 
L 162.305306 80.647477 
L 162.789114 80.647477 
L 162.789114 80.228785 
L 162.910066 80.228785 
L 162.910066 80.019439 
L 163.031018 80.019439 
L 163.031018 79.600748 
L 163.15197 79.600748 
L 163.15197 79.391402 
L 164.240538 79.391402 
L 164.240538 79.182056 
L 164.482442 79.182056 
L 164.482442 78.97271 
L 165.087202 78.97271 
L 165.087202 78.554019 
L 165.208155 78.554019 
L 165.208155 77.925981 
L 165.571011 77.925981 
L 165.571011 77.297944 
L 165.691963 77.297944 
L 165.691963 76.879252 
L 166.417675 76.879252 
L 166.417675 76.460561 
L 167.022435 76.460561 
L 167.022435 76.251215 
L 167.264339 76.251215 
L 167.264339 76.041869 
L 167.627195 76.041869 
L 167.627195 75.832523 
L 167.990051 75.832523 
L 167.990051 75.623178 
L 168.473859 75.623178 
L 168.473859 75.413832 
L 168.594811 75.413832 
L 168.594811 74.99514 
L 168.836715 74.99514 
L 168.836715 74.785794 
L 169.199571 74.785794 
L 169.199571 74.157757 
L 169.683379 74.157757 
L 169.683379 73.948411 
L 169.804331 73.948411 
L 169.804331 73.739065 
L 170.409091 73.739065 
L 170.409091 73.52972 
L 170.530043 73.52972 
L 170.530043 73.320374 
L 170.771947 73.320374 
L 170.771947 73.111028 
L 171.739563 73.111028 
L 171.739563 72.901682 
L 172.223371 72.901682 
L 172.223371 72.692336 
L 172.828131 72.692336 
L 172.828131 72.482991 
L 173.795747 72.482991 
L 173.795747 72.273645 
L 174.158603 72.273645 
L 174.158603 72.064299 
L 174.763363 72.064299 
L 174.763363 71.645607 
L 175.126219 71.645607 
L 175.126219 71.436262 
L 175.610027 71.436262 
L 175.610027 71.226916 
L 175.851931 71.226916 
L 175.851931 71.01757 
L 176.214787 71.01757 
L 176.214787 70.808224 
L 176.335739 70.808224 
L 176.335739 70.598879 
L 176.456691 70.598879 
L 176.456691 70.180187 
L 177.545259 70.180187 
L 177.545259 69.970841 
L 177.787163 69.970841 
L 177.787163 69.761495 
L 178.512876 69.761495 
L 178.512876 69.55215 
L 178.875732 69.55215 
L 178.875732 69.133458 
L 179.238588 69.133458 
L 179.238588 68.924112 
L 179.35954 68.924112 
L 179.35954 68.714766 
L 179.480492 68.714766 
L 179.480492 68.505421 
L 179.601444 68.505421 
L 179.601444 68.296075 
L 179.843348 68.296075 
L 179.843348 68.086729 
L 180.810964 68.086729 
L 180.810964 67.877383 
L 183.350956 67.877383 
L 183.350956 67.668037 
L 183.955716 67.668037 
L 183.955716 67.458692 
L 184.19762 67.458692 
L 184.19762 67.249346 
L 184.439524 67.249346 
L 184.439524 66.830654 
L 184.80238 66.830654 
L 184.80238 66.621308 
L 185.769996 66.621308 
L 185.769996 66.202617 
L 185.890948 66.202617 
L 185.890948 65.993271 
L 187.100468 65.993271 
L 187.100468 65.783925 
L 187.463324 65.783925 
L 187.463324 65.155888 
L 187.82618 65.155888 
L 187.82618 64.946542 
L 187.947132 64.946542 
L 187.947132 64.737196 
L 188.068084 64.737196 
L 188.068084 64.52785 
L 188.309988 64.52785 
L 188.309988 64.318505 
L 188.793796 64.318505 
L 188.793796 64.109159 
L 188.914748 64.109159 
L 188.914748 63.899813 
L 192.180453 63.899813 
L 192.180453 63.690467 
L 192.664261 63.690467 
L 192.664261 63.481121 
L 192.785213 63.481121 
L 192.785213 63.271776 
L 194.478541 63.271776 
L 194.478541 63.06243 
L 197.502341 63.06243 
L 197.502341 62.853084 
L 197.865197 62.853084 
L 197.865197 62.643738 
L 198.228053 62.643738 
L 198.228053 62.225047 
L 198.711861 62.225047 
L 198.711861 62.015701 
L 199.195669 62.015701 
L 199.195669 61.806355 
L 199.437573 61.806355 
L 199.437573 61.597009 
L 200.405189 61.597009 
L 200.405189 61.178318 
L 201.130901 61.178318 
L 201.130901 60.968972 
L 202.340421 60.968972 
L 202.340421 60.759626 
L 202.824229 60.759626 
L 202.824229 60.55028 
L 203.066133 60.55028 
L 203.066133 60.340935 
L 203.187085 60.340935 
L 203.187085 60.131589 
L 204.03375 60.131589 
L 204.03375 59.922243 
L 204.759462 59.922243 
L 204.759462 59.712897 
L 204.880414 59.712897 
L 204.880414 59.503551 
L 205.485174 59.503551 
L 205.485174 59.294206 
L 205.727078 59.294206 
L 205.727078 59.08486 
L 205.84803 59.08486 
L 205.84803 58.875514 
L 207.178502 58.875514 
L 207.178502 58.666168 
L 207.66231 58.666168 
L 207.66231 58.456822 
L 207.904214 58.456822 
L 207.904214 58.247477 
L 208.750878 58.247477 
L 208.750878 58.038131 
L 209.718494 58.038131 
L 209.718494 57.828785 
L 210.08135 57.828785 
L 210.08135 57.619439 
L 212.258486 57.619439 
L 212.258486 57.410093 
L 212.984198 57.410093 
L 212.984198 57.200748 
L 213.588958 57.200748 
L 213.588958 56.991402 
L 214.435622 56.991402 
L 214.435622 56.782056 
L 218.427039 56.782056 
L 218.427039 56.57271 
L 218.668943 56.57271 
L 218.668943 56.363364 
L 218.789895 56.363364 
L 218.789895 56.154019 
L 218.910847 56.154019 
L 218.910847 55.944673 
L 222.539407 55.944673 
L 222.539407 55.735327 
L 223.386071 55.735327 
L 223.386071 55.525981 
L 223.507023 55.525981 
L 223.507023 55.316636 
L 224.232735 55.316636 
L 224.232735 55.10729 
L 226.409871 55.10729 
L 226.409871 54.897944 
L 228.828911 54.897944 
L 228.828911 54.688598 
L 229.554623 54.688598 
L 229.554623 54.269907 
L 230.159384 54.269907 
L 230.159384 54.060561 
L 232.457472 54.060561 
L 232.457472 53.851215 
L 233.062232 53.851215 
L 233.062232 53.641869 
L 233.304136 53.641869 
L 233.304136 53.432523 
L 234.392704 53.432523 
L 234.392704 53.223178 
L 235.36032 53.223178 
L 235.36032 53.013832 
L 238.505072 53.013832 
L 238.505072 52.804486 
L 239.351736 52.804486 
L 239.351736 52.59514 
L 239.835544 52.59514 
L 239.835544 52.385794 
L 240.440304 52.385794 
L 240.440304 52.176449 
L 241.528872 52.176449 
L 241.528872 51.967103 
L 243.826961 51.967103 
L 243.826961 51.757757 
L 244.189817 51.757757 
L 244.189817 51.548411 
L 245.762193 51.548411 
L 245.762193 51.339065 
L 250.721225 51.339065 
L 250.721225 51.12972 
L 251.446937 51.12972 
L 251.446937 50.920374 
L 251.930745 50.920374 
L 251.930745 50.711028 
L 252.293601 50.711028 
L 252.293601 50.501682 
L 253.624073 50.501682 
L 253.624073 50.292336 
L 255.438353 50.292336 
L 255.438353 50.082991 
L 257.857394 50.082991 
L 257.857394 49.873645 
L 259.42977 49.873645 
L 259.42977 49.664299 
L 261.123098 49.664299 
L 261.123098 49.454953 
L 262.816426 49.454953 
L 262.816426 49.245607 
L 265.961178 49.245607 
L 265.961178 48.826916 
L 266.807842 48.826916 
L 266.807842 48.61757 
L 271.645923 48.61757 
L 271.645923 48.408224 
L 273.460203 48.408224 
L 273.460203 48.198879 
L 274.911627 48.198879 
L 274.911627 47.989533 
L 276.484003 47.989533 
L 276.484003 47.780187 
L 277.935427 47.780187 
L 277.935427 47.570841 
L 279.144947 47.570841 
L 279.144947 47.361495 
L 282.410652 47.361495 
L 282.410652 47.15215 
L 283.015412 47.15215 
L 283.015412 46.942804 
L 283.983028 46.942804 
L 283.983028 46.733458 
L 286.643972 46.733458 
L 286.643972 46.524112 
L 288.94206 46.524112 
L 288.94206 46.314766 
L 289.788724 46.314766 
L 289.788724 45.896075 
L 295.957277 45.896075 
L 295.957277 45.686729 
L 298.981077 45.686729 
L 298.981077 45.477383 
L 299.102029 45.477383 
L 299.102029 45.268037 
L 301.279165 45.268037 
L 301.279165 45.058692 
L 305.270581 45.058692 
L 305.270581 44.849346 
L 309.261998 44.849346 
L 309.261998 44.64 
L 311.318182 44.64 
L 311.318182 44.64 
" style="fill:none;stroke:#2ca02c;stroke-linecap:square;stroke-width:1.5;"/>
   </g>
   <g id="patch_3">
    <path d="M 45 256.32 
L 45 34.56 
" style="fill:none;stroke:#000000;stroke-linecap:square;stroke-linejoin:miter;stroke-width:0.8;"/>
   </g>
   <g id="patch_4">
    <path d="M 324 256.32 
L 324 34.56 
" style="fill:none;stroke:#000000;stroke-linecap:square;stroke-linejoin:miter;stroke-width:0.8;"/>
   </g>
   <g id="patch_5">
    <path d="M 45 256.32 
L 324 256.32 
" style="fill:none;stroke:#000000;stroke-linecap:square;stroke-linejoin:miter;stroke-width:0.8;"/>
   </g>
   <g id="patch_6">
    <path d="M 45 34.56 
L 324 34.56 
" style="fill:none;stroke:#000000;stroke-linecap:square;stroke-linejoin:miter;stroke-width:0.8;"/>
   </g>
   <g id="text_15">
    <!-- roc_squeezenet -->
    <g transform="translate(137.389688 28.56)scale(0.12 -0.12)">
     <defs>
      <path d="M 1959 3097 
Q 1497 3097 1228 2736 
Q 959 2375 959 1747 
Q 959 1119 1226 758 
Q 1494 397 1959 397 
Q 2419 397 2687 759 
Q 2956 1122 2956 1747 
Q 2956 2369 2687 2733 
Q 2419 3097 1959 3097 
z
M 1959 3584 
Q 2709 3584 3137 3096 
Q 3566 2609 3566 1747 
Q 3566 888 3137 398 
Q 2709 -91 1959 -91 
Q 1206 -91 779 398 
Q 353 888 353 1747 
Q 353 2609 779 3096 
Q 1206 3584 1959 3584 
z
" id="DejaVuSans-6f" transform="scale(0.015625)"/>
      <path d="M 3122 3366 
L 3122 2828 
Q 2878 2963 2633 3030 
Q 2388 3097 2138 3097 
Q 1578 3097 1268 2742 
Q 959 2388 959 1747 
Q 959 1106 1268 751 
Q 1578 397 2138 397 
Q 2388 397 2633 464 
Q 2878 531 3122 666 
L 3122 134 
Q 2881 22 2623 -34 
Q 2366 -91 2075 -91 
Q 1284 -91 818 406 
Q 353 903 353 1747 
Q 353 2603 823 3093 
Q 1294 3584 2113 3584 
Q 2378 3584 2631 3529 
Q 2884 3475 3122 3366 
z
" id="DejaVuSans-63" transform="scale(0.015625)"/>
      <path d="M 3263 -1063 
L 3263 -1509 
L -63 -1509 
L -63 -1063 
L 3263 -1063 
z
" id="DejaVuSans-5f" transform="scale(0.015625)"/>
      <path d="M 2834 3397 
L 2834 2853 
Q 2591 2978 2328 3040 
Q 2066 3103 1784 3103 
Q 1356 3103 1142 2972 
Q 928 2841 928 2578 
Q 928 2378 1081 2264 
Q 1234 2150 1697 2047 
L 1894 2003 
Q 2506 1872 2764 1633 
Q 3022 1394 3022 966 
Q 3022 478 2636 193 
Q 2250 -91 1575 -91 
Q 1294 -91 989 -36 
Q 684 19 347 128 
L 347 722 
Q 666 556 975 473 
Q 1284 391 1588 391 
Q 1994 391 2212 530 
Q 2431 669 2431 922 
Q 2431 1156 2273 1281 
Q 2116 1406 1581 1522 
L 1381 1569 
Q 847 1681 609 1914 
Q 372 2147 372 2553 
Q 372 3047 722 3315 
Q 1072 3584 1716 3584 
Q 2034 3584 2315 3537 
Q 2597 3491 2834 3397 
z
" id="DejaVuSans-73" transform="scale(0.015625)"/>
      <path d="M 947 1747 
Q 947 1113 1208 752 
Q 1469 391 1925 391 
Q 2381 391 2643 752 
Q 2906 1113 2906 1747 
Q 2906 2381 2643 2742 
Q 2381 3103 1925 3103 
Q 1469 3103 1208 2742 
Q 947 2381 947 1747 
z
M 2906 525 
Q 2725 213 2448 61 
Q 2172 -91 1784 -91 
Q 1150 -91 751 415 
Q 353 922 353 1747 
Q 353 2572 751 3078 
Q 1150 3584 1784 3584 
Q 2172 3584 2448 3432 
Q 2725 3281 2906 2969 
L 2906 3500 
L 3481 3500 
L 3481 -1331 
L 2906 -1331 
L 2906 525 
z
" id="DejaVuSans-71" transform="scale(0.015625)"/>
      <path d="M 544 1381 
L 544 3500 
L 1119 3500 
L 1119 1403 
Q 1119 906 1312 657 
Q 1506 409 1894 409 
Q 2359 409 2629 706 
Q 2900 1003 2900 1516 
L 2900 3500 
L 3475 3500 
L 3475 0 
L 2900 0 
L 2900 538 
Q 2691 219 2414 64 
Q 2138 -91 1772 -91 
Q 1169 -91 856 284 
Q 544 659 544 1381 
z
M 1991 3584 
L 1991 3584 
z
" id="DejaVuSans-75" transform="scale(0.015625)"/>
      <path d="M 3597 1894 
L 3597 1613 
L 953 1613 
Q 991 1019 1311 708 
Q 1631 397 2203 397 
Q 2534 397 2845 478 
Q 3156 559 3463 722 
L 3463 178 
Q 3153 47 2828 -22 
Q 2503 -91 2169 -91 
Q 1331 -91 842 396 
Q 353 884 353 1716 
Q 353 2575 817 3079 
Q 1281 3584 2069 3584 
Q 2775 3584 3186 3129 
Q 3597 2675 3597 1894 
z
M 3022 2063 
Q 3016 2534 2758 2815 
Q 2500 3097 2075 3097 
Q 1594 3097 1305 2825 
Q 1016 2553 972 2059 
L 3022 2063 
z
" id="DejaVuSans-65" transform="scale(0.015625)"/>
      <path d="M 353 3500 
L 3084 3500 
L 3084 2975 
L 922 459 
L 3084 459 
L 3084 0 
L 275 0 
L 275 525 
L 2438 3041 
L 353 3041 
L 353 3500 
z
" id="DejaVuSans-7a" transform="scale(0.015625)"/>
      <path d="M 3513 2113 
L 3513 0 
L 2938 0 
L 2938 2094 
Q 2938 2591 2744 2837 
Q 2550 3084 2163 3084 
Q 1697 3084 1428 2787 
Q 1159 2491 1159 1978 
L 1159 0 
L 581 0 
L 581 3500 
L 1159 3500 
L 1159 2956 
Q 1366 3272 1645 3428 
Q 1925 3584 2291 3584 
Q 2894 3584 3203 3211 
Q 3513 2838 3513 2113 
z
" id="DejaVuSans-6e" transform="scale(0.015625)"/>
     </defs>
     <use xlink:href="#DejaVuSans-72"/>
     <use x="38.863281" xlink:href="#DejaVuSans-6f"/>
     <use x="100.044922" xlink:href="#DejaVuSans-63"/>
     <use x="155.025391" xlink:href="#DejaVuSans-5f"/>
     <use x="205.025391" xlink:href="#DejaVuSans-73"/>
     <use x="257.125" xlink:href="#DejaVuSans-71"/>
     <use x="320.601562" xlink:href="#DejaVuSans-75"/>
     <use x="383.980469" xlink:href="#DejaVuSans-65"/>
     <use x="445.503906" xlink:href="#DejaVuSans-65"/>
     <use x="507.027344" xlink:href="#DejaVuSans-7a"/>
     <use x="559.517578" xlink:href="#DejaVuSans-65"/>
     <use x="621.041016" xlink:href="#DejaVuSans-6e"/>
     <use x="684.419922" xlink:href="#DejaVuSans-65"/>
     <use x="745.943359" xlink:href="#DejaVuSans-74"/>
    </g>
   </g>
   <g id="legend_1">
    <g id="patch_7">
     <path d="M 52 87.42875 
L 148.501563 87.42875 
Q 150.501563 87.42875 150.501563 85.42875 
L 150.501563 41.56 
Q 150.501563 39.56 148.501563 39.56 
L 52 39.56 
Q 50 39.56 50 41.56 
L 50 85.42875 
Q 50 87.42875 52 87.42875 
z
" style="fill:#ffffff;opacity:0.8;stroke:#cccccc;stroke-linejoin:miter;"/>
    </g>
    <g id="line2d_16">
     <path d="M 54 47.658438 
L 74 47.658438 
" style="fill:none;stroke:#1f77b4;stroke-linecap:square;stroke-width:1.5;"/>
    </g>
    <g id="line2d_17"/>
    <g id="text_16">
     <!-- auc_0: 0.612 -->
     <g transform="translate(82 51.158438)scale(0.1 -0.1)">
      <defs>
       <path d="M 2194 1759 
Q 1497 1759 1228 1600 
Q 959 1441 959 1056 
Q 959 750 1161 570 
Q 1363 391 1709 391 
Q 2188 391 2477 730 
Q 2766 1069 2766 1631 
L 2766 1759 
L 2194 1759 
z
M 3341 1997 
L 3341 0 
L 2766 0 
L 2766 531 
Q 2569 213 2275 61 
Q 1981 -91 1556 -91 
Q 1019 -91 701 211 
Q 384 513 384 1019 
Q 384 1609 779 1909 
Q 1175 2209 1959 2209 
L 2766 2209 
L 2766 2266 
Q 2766 2663 2505 2880 
Q 2244 3097 1772 3097 
Q 1472 3097 1187 3025 
Q 903 2953 641 2809 
L 641 3341 
Q 956 3463 1253 3523 
Q 1550 3584 1831 3584 
Q 2591 3584 2966 3190 
Q 3341 2797 3341 1997 
z
" id="DejaVuSans-61" transform="scale(0.015625)"/>
       <path d="M 750 794 
L 1409 794 
L 1409 0 
L 750 0 
L 750 794 
z
M 750 3309 
L 1409 3309 
L 1409 2516 
L 750 2516 
L 750 3309 
z
" id="DejaVuSans-3a" transform="scale(0.015625)"/>
       <path id="DejaVuSans-20" transform="scale(0.015625)"/>
      </defs>
      <use xlink:href="#DejaVuSans-61"/>
      <use x="61.279297" xlink:href="#DejaVuSans-75"/>
      <use x="124.658203" xlink:href="#DejaVuSans-63"/>
      <use x="179.638672" xlink:href="#DejaVuSans-5f"/>
      <use x="229.638672" xlink:href="#DejaVuSans-30"/>
      <use x="293.261719" xlink:href="#DejaVuSans-3a"/>
      <use x="326.953125" xlink:href="#DejaVuSans-20"/>
      <use x="358.740234" xlink:href="#DejaVuSans-30"/>
      <use x="422.363281" xlink:href="#DejaVuSans-2e"/>
      <use x="454.150391" xlink:href="#DejaVuSans-36"/>
      <use x="517.773438" xlink:href="#DejaVuSans-31"/>
      <use x="581.396484" xlink:href="#DejaVuSans-32"/>
     </g>
    </g>
    <g id="line2d_18">
     <path d="M 54 62.614688 
L 74 62.614688 
" style="fill:none;stroke:#ff7f0e;stroke-linecap:square;stroke-width:1.5;"/>
    </g>
    <g id="line2d_19"/>
    <g id="text_17">
     <!-- auc_1: 0.719 -->
     <g transform="translate(82 66.114688)scale(0.1 -0.1)">
      <defs>
       <path d="M 525 4666 
L 3525 4666 
L 3525 4397 
L 1831 0 
L 1172 0 
L 2766 4134 
L 525 4134 
L 525 4666 
z
" id="DejaVuSans-37" transform="scale(0.015625)"/>
       <path d="M 703 97 
L 703 672 
Q 941 559 1184 500 
Q 1428 441 1663 441 
Q 2288 441 2617 861 
Q 2947 1281 2994 2138 
Q 2813 1869 2534 1725 
Q 2256 1581 1919 1581 
Q 1219 1581 811 2004 
Q 403 2428 403 3163 
Q 403 3881 828 4315 
Q 1253 4750 1959 4750 
Q 2769 4750 3195 4129 
Q 3622 3509 3622 2328 
Q 3622 1225 3098 567 
Q 2575 -91 1691 -91 
Q 1453 -91 1209 -44 
Q 966 3 703 97 
z
M 1959 2075 
Q 2384 2075 2632 2365 
Q 2881 2656 2881 3163 
Q 2881 3666 2632 3958 
Q 2384 4250 1959 4250 
Q 1534 4250 1286 3958 
Q 1038 3666 1038 3163 
Q 1038 2656 1286 2365 
Q 1534 2075 1959 2075 
z
" id="DejaVuSans-39" transform="scale(0.015625)"/>
      </defs>
      <use xlink:href="#DejaVuSans-61"/>
      <use x="61.279297" xlink:href="#DejaVuSans-75"/>
      <use x="124.658203" xlink:href="#DejaVuSans-63"/>
      <use x="179.638672" xlink:href="#DejaVuSans-5f"/>
      <use x="229.638672" xlink:href="#DejaVuSans-31"/>
      <use x="293.261719" xlink:href="#DejaVuSans-3a"/>
      <use x="326.953125" xlink:href="#DejaVuSans-20"/>
      <use x="358.740234" xlink:href="#DejaVuSans-30"/>
      <use x="422.363281" xlink:href="#DejaVuSans-2e"/>
      <use x="454.150391" xlink:href="#DejaVuSans-37"/>
      <use x="517.773438" xlink:href="#DejaVuSans-31"/>
      <use x="581.396484" xlink:href="#DejaVuSans-39"/>
     </g>
    </g>
    <g id="line2d_20">
     <path d="M 54 77.570938 
L 74 77.570938 
" style="fill:none;stroke:#2ca02c;stroke-linecap:square;stroke-width:1.5;"/>
    </g>
    <g id="line2d_21"/>
    <g id="text_18">
     <!-- auc_2: 0.786 -->
     <g transform="translate(82 81.070938)scale(0.1 -0.1)">
      <use xlink:href="#DejaVuSans-61"/>
      <use x="61.279297" xlink:href="#DejaVuSans-75"/>
      <use x="124.658203" xlink:href="#DejaVuSans-63"/>
      <use x="179.638672" xlink:href="#DejaVuSans-5f"/>
      <use x="229.638672" xlink:href="#DejaVuSans-32"/>
      <use x="293.261719" xlink:href="#DejaVuSans-3a"/>
      <use x="326.953125" xlink:href="#DejaVuSans-20"/>
      <use x="358.740234" xlink:href="#DejaVuSans-30"/>
      <use x="422.363281" xlink:href="#DejaVuSans-2e"/>
      <use x="454.150391" xlink:href="#DejaVuSans-37"/>
      <use x="517.773438" xlink:href="#DejaVuSans-38"/>
      <use x="581.396484" xlink:href="#DejaVuSans-36"/>
     </g>
    </g>
   </g>
  </g>
 </g>
 <defs>
  <clipPath id="p2ba4699512">
   <rect height="221.76" width="279" x="45" y="34.56"/>
  </clipPath>
 </defs>
</svg>
